<?xml version="1.0" encoding="UTF-8"?>
<svg version="1.1" xmlns="http://www.w3.org/2000/svg" width="431" height="359">
<path d="M0 0 C13.35551816 -0.29642334 13.35551816 -0.29642334 17.69140625 3.59765625 C20.11273979 6.27293453 21.89093239 8.80650451 23.48046875 12.0546875 C28.10394212 21.11669531 35.12106831 25.77077412 44.35546875 29.4296875 C55.633946 31.53245445 65.53345395 29.93643584 75.23046875 23.6796875 C79.73965015 20.06863874 82.36528886 15.18196069 85.18359375 10.23828125 C89.66167379 2.72150405 89.66167379 2.72150405 94.04296875 0.8046875 C116.32841642 -4.16340593 139.12370842 6.14628765 157.73046875 17.4296875 C188.60958638 37.83030575 209.51547478 71.3865146 225.12011719 104.25830078 C225.76877787 105.56488873 226.46431752 106.84873059 227.19238281 108.11279297 C227.75650879 109.11850342 227.75650879 109.11850342 228.33203125 110.14453125 C228.68217285 110.7387085 229.03231445 111.33288574 229.39306641 111.94506836 C230.35205173 115.15021201 229.64788347 117.87629483 229.04296875 121.1171875 C210.16256854 125.05330563 191.29983298 128.57609844 172.16796875 131.0546875 C171.34850769 131.16187103 170.52904663 131.26905457 169.68475342 131.37948608 C167.34916911 131.68243204 165.01282535 131.9780782 162.67578125 132.26953125 C161.98973816 132.35668396 161.30369507 132.44383667 160.59686279 132.53363037 C156.67169946 133.00659032 153.03175385 133.1171875 149.04296875 133.1171875 C146.07296875 129.8171875 143.10296875 126.5171875 140.04296875 123.1171875 C139.71296875 176.9071875 139.38296875 230.6971875 139.04296875 286.1171875 C134.13450156 286.8183971 129.94429249 287.24400265 125.0644989 287.25090027 C124.39839358 287.25316583 123.73228825 287.25543138 123.04599792 287.25776559 C120.83362572 287.26405144 118.62131563 287.26327977 116.40893555 287.26245117 C114.81510846 287.26544582 113.22128209 287.26884905 111.62745667 287.27262878 C107.31382098 287.28143622 103.00020515 287.28380536 98.68656135 287.28444457 C95.99211214 287.28515627 93.29766795 287.28729274 90.60321999 287.28994179 C81.20577296 287.29918039 71.80834009 287.30327803 62.41088867 287.30249023 C53.64423822 287.30188799 44.87764901 287.31247223 36.11101407 287.3282339 C28.58393714 287.34128599 21.0568803 287.3466752 13.52979213 287.34603482 C9.03390998 287.34577939 4.53808243 287.34865608 0.04221153 287.35921288 C-4.17917209 287.36885609 -8.40044842 287.36899922 -12.62183571 287.36169624 C-14.17389583 287.36064607 -15.72596251 287.36303873 -17.27801132 287.3690567 C-19.38996236 287.37671812 -21.50153729 287.37217147 -23.61347961 287.36442566 C-24.79718801 287.36497043 -25.9808964 287.36551519 -27.20047474 287.36607647 C-29.95703125 287.1171875 -29.95703125 287.1171875 -31.95703125 285.1171875 C-32.20592022 282.49115658 -32.20592022 282.49115658 -32.20426941 279.09080505 C-32.2084639 277.80528244 -32.21265839 276.51975983 -32.21697998 275.19528198 C-32.21149584 273.76226732 -32.20581284 272.3292534 -32.19995117 270.89624023 C-32.20102367 269.39332497 -32.20296187 267.8904101 -32.20570374 266.38749695 C-32.21056331 262.29619189 -32.20288027 258.20499542 -32.19275069 254.11370349 C-32.18397686 249.83109835 -32.18572758 245.54849669 -32.18611145 241.2658844 C-32.18517376 234.06550275 -32.1764799 226.86516313 -32.1628418 219.66479492 C-32.14715691 211.35340068 -32.14184223 203.04205262 -32.14257735 194.73064464 C-32.1432547 185.87534648 -32.13629795 177.02006603 -32.12713075 168.16477323 C-32.12500487 165.61911466 -32.12429028 163.07345898 -32.12389183 160.52779961 C-32.12288193 156.51331347 -32.11673279 152.49886563 -32.10672569 148.48439217 C-32.10382164 147.0159084 -32.10257104 145.54742023 -32.10315323 144.07893372 C-32.10497608 136.67709274 -31.97037175 129.45441777 -30.95703125 122.1171875 C-31.61703125 122.1171875 -32.27703125 122.1171875 -32.95703125 122.1171875 C-33.24320312 122.69855469 -33.529375 123.27992188 -33.82421875 123.87890625 C-34.38496094 124.98685547 -34.38496094 124.98685547 -34.95703125 126.1171875 C-35.26898438 126.76300781 -35.5809375 127.40882813 -35.90234375 128.07421875 C-37.39366033 130.41983257 -38.59553221 131.61139106 -40.95703125 133.1171875 C-44.16967773 133.30639648 -44.16967773 133.30639648 -48.015625 132.98828125 C-49.06527184 132.90335419 -49.06527184 132.90335419 -50.13612366 132.81671143 C-58.77347324 132.05691069 -67.33567526 130.73025406 -75.89453125 129.3671875 C-76.73833344 129.23468597 -77.58213562 129.10218445 -78.45150757 128.96566772 C-89.2503224 127.26777294 -100.0333108 125.49029602 -110.76953125 123.4296875 C-111.79361084 123.23987305 -112.81769043 123.05005859 -113.87280273 122.85449219 C-114.79391846 122.66918945 -115.71503418 122.48388672 -116.6640625 122.29296875 C-117.45272705 122.13739502 -118.2413916 121.98182129 -119.05395508 121.8215332 C-120.95703125 121.1171875 -120.95703125 121.1171875 -122.95703125 118.1171875 C-122.728101 113.08987931 -119.86209971 108.75878563 -117.51953125 104.4296875 C-117.07287109 103.5946167 -116.62621094 102.7595459 -116.16601562 101.89916992 C-114.77126035 99.3006313 -113.365491 96.70831961 -111.95703125 94.1171875 C-111.53147949 93.32957031 -111.10592773 92.54195313 -110.66748047 91.73046875 C-99.19121327 70.53244012 -86.57043431 51.62930634 -69.95703125 34.1171875 C-69.33957031 33.42367187 -68.72210938 32.73015625 -68.0859375 32.015625 C-52.86786071 15.54349734 -27.79963567 1.66832546 -5.1328125 0.171875 C-3.42145654 0.12886067 -1.71055373 0.06778945 0 0 Z M-64.76953125 40.4921875 C-70.66679841 46.64585758 -75.88531001 53.27919518 -80.95703125 60.1171875 C-81.70597656 61.12136719 -82.45492187 62.12554687 -83.2265625 63.16015625 C-94.42635071 78.75914055 -103.16190896 96.09123173 -111.95703125 113.1171875 C-108.94212244 116.13209631 -105.20408361 116.1264012 -101.13671875 116.7734375 C-99.79953293 116.99513611 -99.79953293 116.99513611 -98.43533325 117.22131348 C-96.5377534 117.5343223 -94.63952366 117.84341213 -92.74072266 118.14892578 C-89.8907891 118.60772825 -87.04296878 119.07807328 -84.1953125 119.55078125 C-62.34941335 124.9823328 -62.34941335 124.9823328 -41.86328125 122.65625 C-41.39921875 122.02460938 -40.93515625 121.39296875 -40.45703125 120.7421875 C-39.97234375 120.11570312 -39.48765625 119.48921875 -38.98828125 118.84375 C-37.78610429 117.16619648 -37.78610429 117.16619648 -37.95703125 115.1171875 C-37.29703125 115.1171875 -36.63703125 115.1171875 -35.95703125 115.1171875 C-34.08700026 112.88666861 -32.41846543 110.54020358 -30.7109375 108.18359375 C-28.95703125 106.1171875 -28.95703125 106.1171875 -25.95703125 105.1171875 C-24.47203125 106.1071875 -24.47203125 106.1071875 -22.95703125 107.1171875 C-22.58788776 110.03385353 -22.58788776 110.03385353 -22.5962677 113.84951782 C-22.59370443 114.54951413 -22.59114115 115.24951043 -22.5885002 115.97071874 C-22.58353931 118.32787783 -22.60009242 120.68440335 -22.61645508 123.04150391 C-22.61730086 124.7265064 -22.61682717 126.41151 -22.61512756 128.09651184 C-22.61426426 132.68105408 -22.6319441 137.26536245 -22.65284944 141.84985018 C-22.67156051 146.63714199 -22.67336227 151.42443874 -22.67692566 156.21176147 C-22.68626254 165.28177599 -22.71089849 174.35168247 -22.74097413 183.42164934 C-22.78072561 195.67467543 -22.79695974 207.92773092 -22.81448078 220.18080521 C-22.84271846 239.49301362 -22.90247703 258.804994 -22.95703125 278.1171875 C27.86296875 278.1171875 78.68296875 278.1171875 131.04296875 278.1171875 C131.04296875 221.0271875 131.04296875 163.9371875 131.04296875 105.1171875 C138.90133194 107.36243412 138.90133194 107.36243412 142.10546875 111.8046875 C142.77707031 112.69285156 143.44867188 113.58101563 144.140625 114.49609375 C145.30497302 116.1003597 146.46078192 117.710922 147.6015625 119.33203125 C148.07722656 119.96238281 148.55289062 120.59273438 149.04296875 121.2421875 C149.43484375 121.80164063 149.82671875 122.36109375 150.23046875 122.9375 C155.88971107 126.62088616 166.49244013 123.35535574 172.73046875 122.4296875 C173.93695068 122.25324707 175.14343262 122.07680664 176.38647461 121.89501953 C185.64147397 120.51997743 194.87844537 119.04306953 204.10546875 117.4921875 C205.35352295 117.28634033 206.60157715 117.08049316 207.88745117 116.8684082 C209.04349854 116.66948975 210.1995459 116.47057129 211.390625 116.265625 C212.41164307 116.09208496 213.43266113 115.91854492 214.48461914 115.73974609 C217.26172229 115.21852412 217.26172229 115.21852412 220.04296875 113.1171875 C216.05682025 105.77625908 212.05584961 98.44353644 208.04296875 91.1171875 C207.38820557 89.91980957 207.38820557 89.91980957 206.72021484 88.69824219 C195.71556391 68.62856055 182.73799093 48.91551565 165.04296875 34.1171875 C164.27726562 33.42882812 163.5115625 32.74046875 162.72265625 32.03125 C145.67477738 17.17300695 124.62049423 8.96747851 102.04296875 7.8046875 C98.3295144 8.19150566 96.84807134 8.60735887 94.04296875 11.1171875 C92.72368954 13.53146845 91.57346966 16.0047348 90.3984375 18.4921875 C85.46281427 28.05051261 76.70839841 33.77020523 66.71484375 37.2890625 C53.47616322 40.27480747 40.84040093 38.44651778 29.29296875 31.3671875 C22.42998565 26.47731204 17.89205978 20.45636242 14.0859375 13 C13.06820428 10.95848479 13.06820428 10.95848479 11.04296875 9.1171875 C-15.96351663 2.76272035 -46.41633266 22.74116233 -64.76953125 40.4921875 Z " fill="#091918" transform="translate(163.95703125,25.8828125)"/>
<path d="M0 0 C1.99954746 -0.04254356 4.00041636 -0.04080783 6 0 C6.33 0.33 6.66 0.66 7 1 C9.10160243 1.07576755 11.20572625 1.08303665 13.30859375 1.0625 C14.61376953 1.05476563 15.91894531 1.04703125 17.26367188 1.0390625 C19.33684811 1.02056721 21.40999985 1.00027569 23.4831543 0.97949219 C40.53506641 0.82307151 40.53506641 0.82307151 47 2 C49.51211713 4.51211713 48.53565223 11.04623323 48.6875 14.4375 C48.74744141 15.51322266 48.80738281 16.58894531 48.86914062 17.69726562 C48.91619141 18.72400391 48.96324219 19.75074219 49.01171875 20.80859375 C49.08072388 22.22869751 49.08072388 22.22869751 49.15112305 23.67749023 C49 26 49 26 47 28 C45.19865417 28.26069641 45.19865417 28.26069641 42.99682617 28.2746582 C41.75995308 28.28895622 41.75995308 28.28895622 40.49809265 28.30354309 C39.60540176 28.30263168 38.71271088 28.30172028 37.79296875 28.30078125 C36.87542313 28.30506638 35.9578775 28.3093515 35.01252747 28.31376648 C33.0681745 28.31951671 31.12380001 28.32000496 29.17944336 28.31567383 C26.20974727 28.3125236 23.24105648 28.33593031 20.27148438 28.36132812 C18.38281376 28.36360207 16.49414046 28.36430417 14.60546875 28.36328125 C13.27554146 28.37709587 13.27554146 28.37709587 11.91874695 28.39118958 C7.13901169 28.35549342 3.85996356 28.15203942 0 25 C-1.21445591 22.57108818 -1.12924198 20.99280557 -1.1328125 18.28125 C-1.13410156 17.34925781 -1.13539063 16.41726562 -1.13671875 15.45703125 C-1.13285156 14.48121094 -1.12898437 13.50539063 -1.125 12.5 C-1.12886719 11.52417969 -1.13273438 10.54835938 -1.13671875 9.54296875 C-1.13542969 8.61097656 -1.13414062 7.67898437 -1.1328125 6.71875 C-1.13168457 5.86216797 -1.13055664 5.00558594 -1.12939453 4.12304688 C-1 2 -1 2 0 0 Z M7 10 C7 12.97 7 15.94 7 19 C8.12387963 20.35789735 8.12387963 20.35789735 11.05102539 20.02172852 C12.40007852 19.97940657 13.74896003 19.93138482 15.09765625 19.87890625 C15.80651474 19.85529526 16.51537323 19.83168427 17.24571228 19.80735779 C19.51817021 19.73055354 21.79030157 19.64660225 24.0625 19.5625 C25.59959319 19.50929604 27.1367025 19.45655554 28.67382812 19.40429688 C32.44942703 19.27491595 36.22474803 19.1391231 40 19 C40 16.03 40 13.06 40 10 C29.11 10 18.22 10 7 10 Z " fill="#0A1A19" transform="translate(158,111)"/>
</svg>
