<?xml version="1.0" encoding="UTF-8"?>
<svg version="1.1" xmlns="http://www.w3.org/2000/svg" width="384" height="387">
<path d="M0 0 C5.09063156 2.95821095 8.53857723 7.03520694 11.0625 12.3125 C12.47236323 19.36181616 12.29241736 25.04167889 8.6875 31.4375 C6.52068663 34.26485192 4.12190593 36.83962216 1.6875 39.4375 C0.34820243 40.8985519 -0.99101261 42.35968096 -2.32836914 43.82250977 C-3.27480039 44.85605885 -4.2232033 45.88780598 -5.17358398 46.91772461 C-8.78669778 50.83562657 -12.29529643 54.83520725 -15.75390625 58.890625 C-17.3125 60.4375 -17.3125 60.4375 -19.3125 60.4375 C-19.55613281 61.00984375 -19.79976563 61.5821875 -20.05078125 62.171875 C-21.53767298 64.84183538 -23.29333908 66.57579007 -25.5 68.6875 C-29.03905476 72.14175313 -32.32978949 75.69423877 -35.54296875 79.44921875 C-38.13318072 82.35963353 -40.91406088 85.0629509 -43.7109375 87.7734375 C-45.39878724 89.36172733 -45.39878724 89.36172733 -46.3125 91.4375 C-46.9725 91.4375 -47.6325 91.4375 -48.3125 91.4375 C-48.53550781 91.98921875 -48.75851562 92.5409375 -48.98828125 93.109375 C-50.72804097 96.1680676 -52.97014482 98.2448812 -55.5 100.6875 C-59.41596906 104.51162874 -63.13338819 108.42369891 -66.68359375 112.58984375 C-68.94345497 115.15318753 -71.37198776 117.52455801 -73.83203125 119.89453125 C-75.53085505 121.57457372 -75.53085505 121.57457372 -77.3125 124.4375 C-77.9725 124.4375 -78.6325 124.4375 -79.3125 124.4375 C-79.55613281 125.00984375 -79.79976562 125.5821875 -80.05078125 126.171875 C-81.53767298 128.84183538 -83.29333908 130.57579007 -85.5 132.6875 C-89.03905476 136.14175313 -92.32978949 139.69423877 -95.54296875 143.44921875 C-98.13318072 146.35963353 -100.91406088 149.0629509 -103.7109375 151.7734375 C-105.39878724 153.36172733 -105.39878724 153.36172733 -106.3125 155.4375 C-106.9725 155.4375 -107.6325 155.4375 -108.3125 155.4375 C-108.54582031 155.99953125 -108.77914062 156.5615625 -109.01953125 157.140625 C-110.63187076 160.00484142 -112.6318562 161.91002021 -115 164.1875 C-118.72254919 167.82993694 -122.2152228 171.54844878 -125.59765625 175.50390625 C-127.44746546 177.58968201 -129.3888756 179.54391151 -131.375 181.5 C-136.76617681 186.61242727 -136.76617681 186.61242727 -141.3125 192.4375 C-141.46724612 194.99939845 -141.46724612 194.99939845 -140.3125 197.4375 C-137.7402727 205.15418189 -136.91620763 212.89707979 -140.22265625 220.515625 C-146.4349403 231.47062053 -158.23172532 239.64333765 -167.859375 247.38671875 C-169.99387529 249.17113381 -171.94541171 251.00015971 -173.875 253 C-174.679375 253.804375 -175.48375 254.60875 -176.3125 255.4375 C-176.9725 255.4375 -177.6325 255.4375 -178.3125 255.4375 C-178.3125 256.0975 -178.3125 256.7575 -178.3125 257.4375 C-179.82401546 258.78847374 -181.40063313 260.06677345 -183 261.3125 C-187.49927102 264.90727839 -191.79125404 268.63249116 -196 272.5625 C-200.06366132 276.3535554 -204.15219963 280.09353484 -208.35546875 283.73046875 C-210.6980915 285.77383431 -213.00523422 287.85430859 -215.3125 289.9375 C-220.64812637 294.74764801 -226.02836881 299.49730237 -231.5 304.15234375 C-232.68760771 305.16393606 -233.87510431 306.17565883 -235.0625 307.1875 C-235.66296143 307.69837158 -236.26342285 308.20924316 -236.88208008 308.7355957 C-239.85221195 311.27659816 -242.78144431 313.84580239 -245.63671875 316.515625 C-246.16233398 317.00708008 -246.68794922 317.49853516 -247.22949219 318.00488281 C-248.6579704 319.35079003 -250.07735859 320.70632642 -251.49609375 322.0625 C-259.94494586 329.18719082 -267.54323389 330.22902991 -278.3125 329.4375 C-284.0864238 327.87335655 -289.30254419 323.82338917 -293.3125 319.4375 C-293.3125 318.7775 -293.3125 318.1175 -293.3125 317.4375 C-293.9725 317.4375 -294.6325 317.4375 -295.3125 317.4375 C-295.3125 316.7775 -295.3125 316.1175 -295.3125 315.4375 C-296.1478125 315.0971875 -296.1478125 315.0971875 -297 314.75 C-299.97409588 313.06199964 -302.03258865 310.97073483 -304.3125 308.4375 C-304.3125 307.7775 -304.3125 307.1175 -304.3125 306.4375 C-304.88742187 306.20546875 -305.46234375 305.9734375 -306.0546875 305.734375 C-308.87102154 304.11668832 -310.41620322 302.2237279 -312.4375 299.6875 C-313.46230469 298.42679687 -313.46230469 298.42679687 -314.5078125 297.140625 C-318.82407204 290.67557824 -319.08132291 283.9859431 -318.3125 276.4375 C-316.60111327 269.95949924 -311.82976603 265.39181638 -307.3359375 260.63671875 C-305.18190539 258.40970028 -305.18190539 258.40970028 -303.3125 255.4375 C-302.6525 255.4375 -301.9925 255.4375 -301.3125 255.4375 C-301.03865479 254.84525635 -300.76480957 254.2530127 -300.48266602 253.64282227 C-299.35432286 251.51632035 -298.18170306 249.94644637 -296.58984375 248.15234375 C-296.05528564 247.54398682 -295.52072754 246.93562988 -294.9699707 246.30883789 C-294.40238037 245.67067139 -293.83479004 245.03250488 -293.25 244.375 C-288.34223281 238.80440806 -283.60308267 233.15852095 -279.01953125 227.31640625 C-278.45621094 226.69636719 -277.89289063 226.07632813 -277.3125 225.4375 C-276.6525 225.4375 -275.9925 225.4375 -275.3125 225.4375 C-275.07660156 224.88191406 -274.84070313 224.32632813 -274.59765625 223.75390625 C-272.9997248 220.87374409 -271.007495 218.77380924 -268.75 216.375 C-265.33641359 212.70499396 -262.07294817 208.97751115 -258.9375 205.0625 C-255.07031137 200.2660929 -250.96269284 195.7670854 -246.75439453 191.27392578 C-243.63710664 187.92668215 -240.67683518 184.50754094 -237.8125 180.9375 C-233.94566932 176.12153816 -229.84542146 171.58558668 -225.62426758 167.08227539 C-222.81644721 164.08488991 -220.11890276 161.04122401 -217.5 157.875 C-213.07624326 152.76070562 -207.80563754 149.8348523 -201.015625 149.234375 C-196.62589468 149.1504948 -193.08615234 149.30195946 -189 151 C-185.07524491 152.52998927 -184.1529877 152.7902688 -180.3125 151.4375 C-178.30108803 149.71139469 -176.54471075 148.04914897 -174.75 146.125 C-174.28142578 145.63837891 -173.81285156 145.15175781 -173.33007812 144.65039062 C-171.98454619 143.25216653 -170.64832852 141.84499742 -169.3125 140.4375 C-167.98361107 139.09973702 -166.65212254 137.76451432 -165.3125 136.4375 C-166.59125 136.251875 -167.87 136.06625 -169.1875 135.875 C-176.37590353 134.30147545 -181.60345734 129.52572039 -187.3125 125.125 C-192.90488108 121.97928564 -198.65809559 120.6180682 -204.9375 122.375 C-213.00700481 125.75017121 -218.92879125 132.93380872 -224.75 139.25 C-225.40105713 139.94996094 -226.05211426 140.64992187 -226.72290039 141.37109375 C-230.97334672 145.9516667 -235.15716179 150.58702072 -239.3125 155.25390625 C-242.00177789 158.19005144 -244.8228222 160.97779159 -247.68359375 163.74609375 C-249.51225192 165.54469897 -249.51225192 165.54469897 -251.3125 168.4375 C-251.9725 168.4375 -252.6325 168.4375 -253.3125 168.4375 C-253.70949097 169.31776855 -253.70949097 169.31776855 -254.11450195 170.21582031 C-255.35484905 172.51603603 -256.67720645 174.10105352 -258.48046875 175.984375 C-259.11976318 176.65726563 -259.75905762 177.33015625 -260.41772461 178.0234375 C-261.44845093 179.09464844 -261.44845093 179.09464844 -262.5 180.1875 C-263.94295433 181.7028908 -265.3856561 183.21852212 -266.828125 184.734375 C-267.56740234 185.50845703 -268.30667969 186.28253906 -269.06835938 187.08007812 C-272.65182268 190.84442992 -276.20030319 194.64133858 -279.75 198.4375 C-280.9984558 199.77106004 -282.24713237 201.10441345 -283.49609375 202.4375 C-284.01743896 202.994375 -284.53878418 203.55125 -285.07592773 204.125 C-287.25094878 206.4335712 -287.25094878 206.4335712 -290.25 206.625 C-293.3125 206.4375 -293.3125 206.4375 -295.3125 204.4375 C-295.73828125 201.6328125 -295.73828125 201.6328125 -295.3125 198.4375 C-293.23046875 195.8046875 -293.23046875 195.8046875 -290.5 193.3125 C-286.81809248 189.93718819 -286.81809248 189.93718819 -283.61328125 186.1328125 C-283.18402344 185.57335937 -282.75476563 185.01390625 -282.3125 184.4375 C-281.6525 184.4375 -280.9925 184.4375 -280.3125 184.4375 C-280.065 183.87546875 -279.8175 183.3134375 -279.5625 182.734375 C-278.09975133 180.04657431 -276.34445127 177.97344518 -274.3125 175.6875 C-273.260625 174.48867188 -273.260625 174.48867188 -272.1875 173.265625 C-270.3125 171.4375 -270.3125 171.4375 -268.3125 171.4375 C-268.06886719 170.86515625 -267.82523438 170.2928125 -267.57421875 169.703125 C-266.08732702 167.03316462 -264.33166092 165.29920993 -262.125 163.1875 C-257.36533937 158.53462663 -253.01891063 153.63598529 -248.72265625 148.55859375 C-245.71955483 145.02058877 -242.59638286 141.72138286 -239.3125 138.4375 C-237.47911081 136.30917429 -235.66202433 134.16941278 -233.86328125 132.01171875 C-233.35152344 131.49222656 -232.83976562 130.97273437 -232.3125 130.4375 C-231.6525 130.4375 -230.9925 130.4375 -230.3125 130.4375 C-229.94705078 129.58671875 -229.94705078 129.58671875 -229.57421875 128.71875 C-225.8323566 121.95327788 -219.21055322 116.69839788 -212.3125 113.4375 C-211.71050781 113.14101562 -211.10851562 112.84453125 -210.48828125 112.5390625 C-203.03913522 109.24511963 -195.43522621 109.49516116 -187.75 111.9375 C-181.71386606 114.34502544 -177.18641685 118.23647465 -172.3125 122.4375 C-166.98820221 125.98703186 -160.47435909 125.11294681 -154.3125 124.4375 C-146.41108912 121.74187 -140.31036404 113.62245386 -134.609375 107.7734375 C-131.59902153 104.69675421 -128.45286198 101.85482134 -125.16796875 99.07421875 C-122.13738017 96.40092061 -119.35264267 93.48499155 -116.515625 90.609375 C-114.58875212 88.70983365 -112.62411086 86.93727056 -110.5625 85.1875 C-106.00388357 81.30252527 -101.86054217 77.0104082 -97.70410156 72.70410156 C-96.27636032 71.24563785 -94.79817873 69.83689994 -93.3125 68.4375 C-92.6525 68.4375 -91.9925 68.4375 -91.3125 68.4375 C-91.3125 67.7775 -91.3125 67.1175 -91.3125 66.4375 C-89.94921875 65.09765625 -89.94921875 65.09765625 -88 63.5 C-83.73715257 59.9006011 -79.8509439 56.0188202 -75.99487305 51.99438477 C-74.80340704 50.77259286 -73.56156136 49.60034669 -72.3125 48.4375 C-71.6525 48.4375 -70.9925 48.4375 -70.3125 48.4375 C-69.9825 47.4475 -69.6525 46.4575 -69.3125 45.4375 C-67.81640625 43.96484375 -67.81640625 43.96484375 -65.875 42.375 C-62.52091985 39.53693218 -59.39560425 36.56825656 -56.3125 33.4375 C-53.43692341 30.52696199 -50.55375906 27.71325978 -47.4375 25.0625 C-43.93590292 22.07522201 -40.71981605 18.84625203 -37.5 15.5625 C-15.35562836 -6.88050271 -15.35562836 -6.88050271 0 0 Z M-22.625 16.6875 C-26.52862781 20.71068762 -30.53361946 24.44242527 -34.94921875 27.90234375 C-36.75517299 29.59379859 -36.75517299 29.59379859 -36.3125 33.4375 C-34.76985555 35.16934923 -34.76985555 35.16934923 -32.6875 36.6875 C-28.9420746 39.74892041 -26.24987954 42.94308933 -23.5390625 46.93359375 C-23.13429688 47.42988281 -22.72953125 47.92617187 -22.3125 48.4375 C-20.14995483 48.66993664 -20.14995483 48.66993664 -18.5859375 46.7578125 C-17.95945312 46.03335938 -17.33296875 45.30890625 -16.6875 44.5625 C-16.05585938 43.84320313 -15.42421875 43.12390625 -14.7734375 42.3828125 C-13.11232877 40.57643067 -13.11232877 40.57643067 -13.3125 38.4375 C-12.3225 38.1075 -11.3325 37.7775 -10.3125 37.4375 C-7.79249687 34.93503749 -5.58964229 32.16073394 -3.3125 29.4375 C-2.52875 28.591875 -1.745 27.74625 -0.9375 26.875 C1.23976285 23.60910572 1.6875 21.35766134 1.6875 17.4375 C-0.50310481 13.05629037 -2.80876703 10.41474862 -7.3125 8.4375 C-14.12825769 7.41513635 -18.20135184 12.10380668 -22.625 16.6875 Z M-47.3125 39.4375 C-47.7564209 39.88665771 -48.2003418 40.33581543 -48.65771484 40.79858398 C-50.66503603 42.82665607 -52.67620999 44.85086416 -54.6875 46.875 C-55.38617188 47.58205078 -56.08484375 48.28910156 -56.8046875 49.01757812 C-57.81015625 50.02788086 -57.81015625 50.02788086 -58.8359375 51.05859375 C-59.762854 51.99336548 -59.762854 51.99336548 -60.70849609 52.94702148 C-62.3125 54.4375 -62.3125 54.4375 -64.3125 55.4375 C-64.3125 56.0975 -64.3125 56.7575 -64.3125 57.4375 C-64.88484375 57.68113281 -65.4571875 57.92476562 -66.046875 58.17578125 C-68.71683538 59.66267298 -70.45079007 61.41833908 -72.5625 63.625 C-75.3712808 66.50251117 -78.18916256 69.26739001 -81.25 71.875 C-84.53105463 74.7176951 -87.73150488 77.6303612 -90.875 80.625 C-91.74253906 81.44355469 -92.61007812 82.26210937 -93.50390625 83.10546875 C-95.53910128 85.21766805 -95.53910128 85.21766805 -95.24609375 87.5 C-91.79489017 94.66233044 -86.10374365 100.36275381 -79.3125 104.4375 C-76.81300477 105.42037906 -76.81300477 105.42037906 -74.3125 105.4375 C-72.43928144 104.32974302 -72.43928144 104.32974302 -70.9375 102.5 C-70.04224609 101.52546875 -70.04224609 101.52546875 -69.12890625 100.53125 C-68.52949219 99.8403125 -67.93007813 99.149375 -67.3125 98.4375 C-66.74402344 97.7878125 -66.17554688 97.138125 -65.58984375 96.46875 C-64.43244299 95.1399801 -63.27887916 93.8078597 -62.12890625 92.47265625 C-59.63226309 89.67534209 -56.95993014 87.07493122 -54.2890625 84.4453125 C-51.72815271 81.84391402 -49.36172065 79.09986572 -46.98828125 76.328125 C-45.35434913 74.4847144 -43.64708978 72.77233838 -41.875 71.0625 C-39.07965443 68.81037237 -39.07965443 68.81037237 -39.3125 66.4375 C-38.6525 66.4375 -37.9925 66.4375 -37.3125 66.4375 C-35.49813264 64.79729454 -35.49813264 64.79729454 -33.6875 62.6875 C-33.05585938 61.99140625 -32.42421875 61.2953125 -31.7734375 60.578125 C-29.93669272 58.31879241 -29.93669272 58.31879241 -30.3125 54.4375 C-34.30821726 47.24520892 -39.29549952 41.74097619 -47.3125 39.4375 Z M-107.73828125 96.703125 C-108.70552641 97.69305039 -109.66755382 98.68809403 -110.625 99.6875 C-113.35914961 102.52208776 -116.05792164 105.23829504 -119.16796875 107.671875 C-119.87566406 108.25453125 -120.58335937 108.8371875 -121.3125 109.4375 C-121.3125 110.0975 -121.3125 110.7575 -121.3125 111.4375 C-121.86421875 111.66050781 -122.4159375 111.88351563 -122.984375 112.11328125 C-126.0430676 113.85304097 -128.1198812 116.09514482 -130.5625 118.625 C-133.65862359 121.82402943 -136.76517774 124.86667983 -140.140625 127.76953125 C-144.5863194 131.61344584 -148.69635702 135.74638174 -152.8125 139.9375 C-159.96595961 147.22125942 -167.44074407 153.94330136 -175.3125 160.4375 C-173.02071345 165.88463342 -168.51388563 169.645843 -164.40917969 173.76635742 C-162.93684584 175.25065947 -161.4841937 176.75260259 -160.03125 178.25585938 C-159.10570312 179.18849609 -158.18015625 180.12113281 -157.2265625 181.08203125 C-156.3804541 181.94159424 -155.5343457 182.80115723 -154.66259766 183.68676758 C-152.50511556 185.68898841 -152.50511556 185.68898841 -150.11181641 185.29345703 C-148.012229 184.29465738 -146.67853439 183.16908603 -145.0625 181.5 C-144.54171875 180.97535156 -144.0209375 180.45070313 -143.484375 179.91015625 C-142.104944 178.49034165 -142.104944 178.49034165 -142.3125 176.4375 C-141.6525 176.4375 -140.9925 176.4375 -140.3125 176.4375 C-138.74385918 174.8867093 -138.74385918 174.8867093 -137.125 172.875 C-134.77970242 170.1121132 -132.40420595 167.47070243 -129.8125 164.9375 C-126.09835398 161.28125826 -122.7162908 157.38064951 -119.3125 153.4375 C-115.10339845 148.63284679 -110.88685027 143.90028075 -106.3125 139.4375 C-101.34746681 134.56667996 -96.54734096 129.64786487 -92.01953125 124.3671875 C-89.26028419 121.24803864 -86.29662025 118.33998778 -83.3125 115.4375 C-84.50355656 111.86433033 -85.23362294 111.65529752 -88.375 109.8125 C-94.61079412 105.83792835 -99.22901945 100.56272082 -103.3125 94.4375 C-105.6221028 94.20997674 -105.6221028 94.20997674 -107.73828125 96.703125 Z M-217.3125 173.4375 C-218.47703298 174.7726973 -219.64353622 176.10618014 -220.8125 177.4375 C-221.37195313 178.08074219 -221.93140625 178.72398437 -222.5078125 179.38671875 C-224.54208141 181.69838797 -226.6147231 183.9728143 -228.6875 186.25 C-231.79778851 189.69128205 -234.77728312 193.20071298 -237.6875 196.8125 C-240.97818328 200.87983056 -244.3886538 204.784808 -247.9375 208.625 C-248.40115967 209.12676758 -248.86481934 209.62853516 -249.3425293 210.14550781 C-249.79539307 210.6350293 -250.24825684 211.12455078 -250.71484375 211.62890625 C-252.99341446 214.09250375 -255.26187662 216.56213185 -257.5 219.0625 C-258.05042969 219.67351562 -258.60085938 220.28453125 -259.16796875 220.9140625 C-260.5127186 222.38642434 -260.5127186 222.38642434 -260.3125 224.4375 C-260.9725 224.4375 -261.6325 224.4375 -262.3125 224.4375 C-263.68462301 225.96945272 -264.9840446 227.56671081 -266.25 229.1875 C-270.53365815 234.55072304 -275.05255678 239.59606962 -279.734375 244.61328125 C-284.83996262 249.44833722 -284.83996262 249.44833722 -287.3125 255.4375 C-287.9725 255.4375 -288.6325 255.4375 -289.3125 255.4375 C-290.74799726 257.03084239 -292.11077327 258.69001082 -293.4375 260.375 C-297.08374637 264.94165807 -300.84548443 269.34174681 -304.78125 273.66015625 C-307.95161357 277.34004254 -307.7701628 280.8464216 -307.71484375 285.5546875 C-306.70736556 292.77331762 -300.72181502 297.14649213 -295.40625 301.5625 C-292.29160578 304.35173363 -289.65848228 307.51470441 -286.9765625 310.71484375 C-286.42742187 311.28332031 -285.87828125 311.85179687 -285.3125 312.4375 C-284.6525 312.4375 -283.9925 312.4375 -283.3125 312.4375 C-283.3125 313.0975 -283.3125 313.7575 -283.3125 314.4375 C-278.53657323 318.79812879 -275.26409782 319.99349417 -268.83984375 320.00390625 C-263.02109134 318.69985818 -258.79903885 314.21151492 -254.5625 310.25 C-249.51123817 305.53686909 -249.51123817 305.53686909 -247.3125 304.4375 C-247.3125 303.7775 -247.3125 303.1175 -247.3125 302.4375 C-246.755625 302.19 -246.19875 301.9425 -245.625 301.6875 C-242.88839087 300.20825182 -240.63599131 298.50282561 -238.3125 296.4375 C-238.3125 295.7775 -238.3125 295.1175 -238.3125 294.4375 C-237.78140625 294.22480469 -237.2503125 294.01210938 -236.703125 293.79296875 C-233.39101498 291.91502402 -230.80317632 289.35708177 -228.0625 286.75 C-226.89524649 285.65548673 -225.72728071 284.56173255 -224.55859375 283.46875 C-223.99769043 282.9428125 -223.43678711 282.416875 -222.85888672 281.875 C-220.37321073 279.5643495 -217.81265239 277.34472639 -215.24609375 275.125 C-213.03397948 273.19442755 -210.8616109 271.22326111 -208.6875 269.25 C-204.66331482 265.61465479 -200.56738227 262.07616688 -196.4375 258.5625 C-190.83161806 253.78943105 -185.37641376 248.87819627 -179.96875 243.8828125 C-175.38716806 239.66506207 -170.69203378 235.59234583 -165.921875 231.58984375 C-165.30812012 231.07156006 -164.69436523 230.55327637 -164.06201172 230.01928711 C-162.84898944 228.99569094 -161.63210097 227.97665158 -160.41064453 226.96313477 C-152.13281027 220.29299057 -152.13281027 220.29299057 -148.1875 210.9375 C-148.05988281 209.90109375 -148.05988281 209.90109375 -147.9296875 208.84375 C-149.15319156 201.15315305 -155.5845064 195.72690623 -160.83984375 190.51171875 C-161.6657753 189.68291702 -162.49170685 188.8541153 -163.34266663 188.00019836 C-165.0830759 186.25775502 -166.82724979 184.51906469 -168.57495117 182.78393555 C-171.2481708 180.12681819 -173.90496441 177.4540284 -176.56054688 174.77929688 C-178.25685108 173.08497441 -179.95408531 171.39158244 -181.65234375 169.69921875 C-182.44519272 168.90029709 -183.23804169 168.10137543 -184.05491638 167.27824402 C-185.17616661 166.17117851 -185.17616661 166.17117851 -186.32006836 165.04174805 C-186.9719664 164.39223679 -187.62386444 163.74272552 -188.29551697 163.0735321 C-191.37275162 160.57749986 -194.2861176 159.57137597 -198.1875 159.0625 C-207.08896055 160.13067527 -211.85190689 167.00180097 -217.3125 173.4375 Z " fill="#000000" transform="translate(361.3125,36.5625)"/>
<path d="M0 0 C5.25487331 2.44504424 8.19244076 5.44248712 11.01953125 10.53125 C12.77241446 16.95848842 12.38238676 22.63891747 9.11328125 28.48828125 C6.16903689 32.41679335 2.373095 34.74672875 -2.23046875 36.28125 C-9.35751655 36.75638652 -14.17252218 35.64420871 -19.98046875 31.15625 C-23.69708017 26.40724652 -25.65266949 21.24456412 -25.16796875 15.15625 C-23.97677849 10.23266359 -22.68337813 6.08808057 -18.48046875 2.9921875 C-16.77614179 2.00509814 -15.00502483 1.13566589 -13.23046875 0.28125 C-9.17881947 -1.74457464 -4.23985291 -1.36625733 0 0 Z M-12.23046875 11.28125 C-14.71085782 15.0018336 -14.69384078 16.87921571 -14.23046875 21.28125 C-12.18156169 24.27580648 -10.7209532 25.11427657 -7.29296875 26.28125 C-4.14042246 26.52913025 -4.14042246 26.52913025 -1.41796875 24.71875 C1.23022037 21.7679107 1.76953125 20.23085942 1.76953125 16.28125 C0.48891861 13.31562073 -0.52684019 11.74300625 -3.23046875 9.96875 C-6.84917055 8.72482126 -9.07582067 9.34775602 -12.23046875 11.28125 Z " fill="#000000" transform="translate(173.23046875,224.71875)"/>
<path d="M0 0 C4.26648531 3.68469186 7.29972615 6.49324734 8.19921875 12.25 C8.49088806 20.29604989 6.90584665 24.48278913 1.875 30.6875 C-2.31054819 34.01131768 -6.86517722 34.84972689 -12.16796875 34.6875 C-17.46669804 33.89219354 -21.7025676 31.3281836 -25.1875 27.3125 C-28.92462124 21.98993339 -29.00102145 16.69393909 -28.25 10.375 C-26.52540624 5.70390301 -23.94643943 2.50754966 -19.6875 -0.0625 C-12.8442237 -3.17308014 -6.83441971 -3.41720985 0 0 Z M-16.8125 10.4375 C-18.68625505 14.26647772 -18.37962701 16.30834276 -17.25 20.375 C-15.54854424 23.06150909 -14.40782031 23.33134757 -11.3125 24.1875 C-8.09262343 24.3846353 -6.83950198 24.22464427 -4.25 22.375 C-1.90831236 18.86246854 -1.75376323 17.51030644 -2.25 13.375 C-3.59115399 10.36520117 -3.59115399 10.36520117 -6.25 8.375 C-10.56402064 7.27881443 -13.33617368 7.63948126 -16.8125 10.4375 Z " fill="#000000" transform="translate(103.25,300.625)"/>
<path d="M0 0 C4.17445892 3.57810765 7.31317668 6.81994346 7.828125 12.484375 C7.93290484 18.10755969 7.55109809 22.27563325 4.625 27.25 C-0.75361109 32.77204072 -4.97380891 33.66310813 -12.54956055 33.78222656 C-18.20798053 33.64900731 -21.09649464 32.16024394 -24.95703125 28.171875 C-29.30975268 22.27231868 -29.09672909 16.40491927 -28.375 9.25 C-25.80771571 3.8301776 -22.04545756 0.55417695 -16.6875 -2.0625 C-10.71296315 -3.30249821 -5.43082141 -2.81598147 0 0 Z M-17.375 10.25 C-18.92086876 13.34173752 -18.66859521 15.84429552 -18.375 19.25 C-16.32609294 22.24455648 -14.86548445 23.08302657 -11.4375 24.25 C-8.29411765 24.49019608 -8.29411765 24.49019608 -5.5625 22.75 C-2.71534872 19.49611283 -2.29951094 17.55287623 -2.375 13.25 C-4.15429201 10.10202182 -5.41330611 8.65492374 -8.75 7.25 C-12.28240001 7.25 -14.39389329 8.42068452 -17.375 10.25 Z " fill="#000000" transform="translate(140.375,263.75)"/>
<path d="M0 0 C0 0.66 0 1.32 0 2 C-1.3921875 2.4021875 -1.3921875 2.4021875 -2.8125 2.8125 C-5.92704923 3.7102102 -5.92704923 3.7102102 -7.41796875 5.4765625 C-9.34726786 7.33440608 -10.94287817 7.8166728 -13.5 8.5625 C-16.5258466 9.45512475 -18.3126529 10.20843526 -21 12 C-21.70125 12.309375 -22.4025 12.61875 -23.125 12.9375 C-25.34495729 13.91908645 -25.34495729 13.91908645 -26 17 C-27.7421875 18.60546875 -27.7421875 18.60546875 -29.875 20.1875 C-30.57367188 20.71730469 -31.27234375 21.24710938 -31.9921875 21.79296875 C-34 23 -34 23 -37 23 C-37 23.66 -37 24.32 -37 25 C-39.31 25 -41.62 25 -44 25 C-43.49396008 22.83125748 -43.00016187 21.00032373 -42 19 C-41.34 19 -40.68 19 -40 19 C-39.75636719 18.4328125 -39.51273438 17.865625 -39.26171875 17.28125 C-35.5198566 10.51577788 -28.89805322 5.26089788 -22 2 C-21.39800781 1.70351562 -20.79601562 1.40703125 -20.17578125 1.1015625 C-13.83990346 -1.70010354 -6.59585553 -2.19861851 0 0 Z " fill="#030303" transform="translate(171,148)"/>
<path d="M0 0 C1.5625 1.1875 1.5625 1.1875 3 3 C3.125 5.375 3.125 5.375 2 8 C-0.81305602 10.62501751 -3.85040789 12.55784919 -7.4375 13.9375 C-10.82119066 15.34049369 -13.38113881 17.48052777 -16.23046875 19.7578125 C-18 21 -18 21 -20 21 C-19.88075457 17.06490078 -18.48269633 15.1878408 -15.8125 12.5 C-14.55329831 11.32078858 -13.2825522 10.15377135 -12 9 C-11.4534375 8.48566406 -10.906875 7.97132812 -10.34375 7.44140625 C-7.24135955 4.64767199 -6.33974768 4 -2 4 C-1.34 2.68 -0.68 1.36 0 0 Z " fill="#121212" transform="translate(259,116)"/>
<path d="M0 0 C1.45922693 0.11409593 2.91740598 0.24165544 4.375 0.375 C5.59316406 0.47941406 5.59316406 0.47941406 6.8359375 0.5859375 C9 1 9 1 11 3 C9.865625 3.433125 8.73125 3.86625 7.5625 4.3125 C6.386875 4.869375 5.21125 5.42625 4 6 C3.67 6.99 3.34 7.98 3 9 C1.2578125 10.60546875 1.2578125 10.60546875 -0.875 12.1875 C-1.57367188 12.71730469 -2.27234375 13.24710938 -2.9921875 13.79296875 C-5 15 -5 15 -8 15 C-8 15.66 -8 16.32 -8 17 C-9.65 17 -11.3 17 -13 17 C-13 16.34 -13 15.68 -13 15 C-5.3 8 -5.3 8 0 8 C-0.185625 7.05125 -0.37125 6.1025 -0.5625 5.125 C-1 2 -1 2 0 0 Z " fill="#161616" transform="translate(142,156)"/>
<path d="M0 0 C0.79921875 0.01804688 1.5984375 0.03609375 2.421875 0.0546875 C3.02515625 0.07789063 3.6284375 0.10109375 4.25 0.125 C4.58 2.435 4.91 4.745 5.25 7.125 C4.156875 6.795 3.06375 6.465 1.9375 6.125 C-1.59578884 4.99413351 -1.59578884 4.99413351 -4.75 5.125 C-4.75 4.465 -4.75 3.805 -4.75 3.125 C-6.07 2.795 -7.39 2.465 -8.75 2.125 C-5.68753253 0.34090198 -3.52920727 -0.10380021 0 0 Z " fill="#141414" transform="translate(176.75,153.875)"/>
<path d="M0 0 C3.23027335 1.07675778 5.42898506 1.85797013 7 5 C6.01 5.33 5.02 5.66 4 6 C3.67 6.66 3.34 7.32 3 8 C2.01 8 1.02 8 0 8 C0 5.36 0 2.72 0 0 Z " fill="#151515" transform="translate(184,159)"/>
<path d="M0 0 C0.66 0 1.32 0 2 0 C1.67 1.32 1.34 2.64 1 4 C0.34 4 -0.32 4 -1 4 C-1.226875 4.639375 -1.45375 5.27875 -1.6875 5.9375 C-3 8 -3 8 -5.625 8.75 C-6.40875 8.8325 -7.1925 8.915 -8 9 C-7.04270084 7.87411986 -6.08412105 6.7493285 -5.125 5.625 C-4.59132812 4.99851563 -4.05765625 4.37203125 -3.5078125 3.7265625 C-2.38567993 2.44163349 -1.20628025 1.20628025 0 0 Z " fill="#030303" transform="translate(247,125)"/>
<path d="M0 0 C1.32 0.33 2.64 0.66 4 1 C3.625 2.9375 3.625 2.9375 3 5 C0.29120665 6.35439668 -2.00933268 6.06501451 -5 6 C-3.35 4.02 -1.7 2.04 0 0 Z " fill="#161616" transform="translate(161,149)"/>
</svg>
