<?xml version="1.0" encoding="UTF-8"?>
<svg version="1.1" xmlns="http://www.w3.org/2000/svg" width="321" height="346">
<path d="M0 0 C1.21486383 0.00669217 1.21486383 0.00669217 2.45427036 0.01351953 C3.31211408 0.01039954 4.16995779 0.00727956 5.05379677 0.00406504 C7.94508778 -0.00394947 10.83617093 0.00242206 13.72746372 0.00869775 C15.79345416 0.00598942 17.85944363 0.00242938 19.92543125 -0.00192237 C25.54925863 -0.01106743 31.17301291 -0.00749341 36.79684162 -0.0011642 C42.67093452 0.00388487 48.54502098 -0.00079259 54.41911411 -0.00393653 C64.28525515 -0.00757938 74.15136628 -0.00276873 84.01750278 0.00674462 C95.43848568 0.01762977 106.85939718 0.01410442 118.28037834 0.00309181 C128.07060865 -0.005972 137.86081742 -0.00727078 147.65105057 -0.00203085 C153.50515698 0.00109385 159.3592298 0.00148455 165.21333408 -0.00510383 C170.71588212 -0.01086352 176.21833773 -0.00690573 181.72087574 0.00468469 C183.74540777 0.00733867 185.76994751 0.00655369 187.79447651 0.00215936 C190.54820571 -0.00326853 193.30163475 0.00350427 196.05534458 0.01351953 C196.8652538 0.00905808 197.67516302 0.00459664 198.50961494 0 C204.0265074 0.03918674 204.0265074 0.03918674 206.25480747 2.26748681 C206.5130685 4.62198943 206.5130685 4.62198943 206.52490044 7.64331746 C206.53421603 8.79148661 206.54353161 9.93965575 206.55312949 11.1226179 C206.55324112 12.39486785 206.55335274 13.66711779 206.55346775 14.97792077 C206.56061319 16.33457283 206.56862562 17.69122055 206.57743472 19.04786283 C206.59914327 22.78867143 206.60830568 26.5294236 206.61545885 30.27028453 C206.62529369 34.29968821 206.64654281 38.32903371 206.6663065 42.35839868 C206.70312332 50.25727811 206.72895497 58.15615727 206.75069664 66.05509119 C206.76847863 72.47284295 206.78976295 78.89057378 206.81355953 85.30830598 C206.81693008 86.22026268 206.82030063 87.13221938 206.82377332 88.07181113 C206.83062215 89.92420388 206.83747328 91.77659662 206.8443267 93.62898935 C206.9081262 111.01706055 206.95888502 128.40515216 207.00574722 145.79327602 C207.04906649 161.71500928 207.10882738 177.63663123 207.17634229 193.55827867 C207.24544792 209.89039676 207.30345245 226.22251952 207.34938067 242.55471975 C207.37538326 251.7305108 207.4058504 260.90623582 207.44793224 270.08196855 C207.483635 277.89326194 207.50890001 285.70450252 207.52050779 293.51587038 C207.52672494 297.5040839 207.53785307 301.49212743 207.56196499 305.48027635 C207.58388958 309.12759763 207.5920531 312.77467495 207.58901092 316.42205847 C207.59100833 318.37427934 207.6078867 320.32646722 207.62520248 322.27861232 C207.62147933 323.42938921 207.61775618 324.5801661 207.61392021 325.76581502 C207.61701299 326.76301562 207.62010577 327.76021623 207.62329227 328.78763503 C207.25480747 331.26748681 207.25480747 331.26748681 205.95407027 333.08753186 C203.03328063 335.1157056 199.63785178 334.68256976 196.20671177 334.6556704 C194.97693104 334.66355584 194.97693104 334.66355584 193.72230625 334.67160058 C191.00768661 334.6848209 188.29365201 334.67605299 185.57902622 334.66592431 C183.69196555 334.66794505 181.80490563 334.67085649 179.91784763 334.67462182 C175.95920993 334.67904841 172.00077513 334.67260553 168.04216099 334.65860009 C162.97461902 334.64154313 157.90755493 334.65132511 152.84003067 334.66931748 C148.94089272 334.68017627 145.04186735 334.67669875 141.14272594 334.66893411 C139.27486521 334.66693607 137.40699417 334.66937744 135.53914547 334.67637277 C132.92285221 334.68401778 130.30732333 334.67233901 127.69108677 334.6556704 C126.92255878 334.6617431 126.1540308 334.66781579 125.36221409 334.6740725 C120.60295594 334.61808594 117.26012465 333.87372845 113.25480747 331.26748681 C110.73110398 325.53932555 110.71233574 319.27832589 110.32511997 313.09170556 C110.21259388 311.44709344 110.21259388 311.44709344 110.09779453 309.76925683 C109.93649653 307.40298628 109.77849924 305.03648889 109.62345982 302.66980004 C109.20636803 296.3106653 108.76428826 289.9532535 108.32511997 283.59561181 C108.23627537 282.30054208 108.14743076 281.00547235 108.0558939 279.67115808 C107.21606079 267.50782945 106.25089204 255.35635669 105.25480747 243.20498681 C103.08049769 216.57171978 101.16571203 189.92068643 99.25480747 163.26748681 C99.11779423 165.14595048 99.11779423 165.14595048 98.97801304 167.06236291 C98.09773303 179.12853818 97.21594559 191.19460257 96.33284473 203.26057172 C95.8793704 209.45708014 95.42634763 215.65362073 94.97453403 221.85025048 C93.13385364 247.09011953 91.27636722 272.32859258 89.31412601 297.55934739 C89.14087795 299.78803326 88.9683225 302.01677308 88.79650211 304.24556947 C88.55939811 307.31581066 88.31922559 310.38579555 88.07804966 313.45571923 C88.00921825 314.35185874 87.94038685 315.24799825 87.86946964 316.1712935 C87.73957902 317.80647878 87.59824875 319.44081499 87.44294071 321.07378221 C87.27021077 323.08787859 87.20045615 325.11011159 87.14085484 327.13072228 C86.25480747 330.26748681 86.25480747 330.26748681 83.22667027 332.67363 C79.07193992 334.65352991 75.24593067 334.82658849 70.70500278 334.7691958 C69.46711758 334.77730027 69.46711758 334.77730027 68.20422459 334.78556848 C65.49675415 334.79800099 62.79035811 334.78160757 60.08293247 334.76358056 C58.19440245 334.76373562 56.3058721 334.7652257 54.41734409 334.76799035 C50.46995479 334.76937168 46.52293004 334.7568562 42.57560825 334.73403955 C37.51234921 334.70557765 32.44969197 334.70841687 27.38638783 334.72112966 C23.49165277 334.72807617 19.59705735 334.72031064 15.70234013 334.70787263 C13.83479694 334.70335361 11.9672388 334.70302526 10.09969425 334.70693803 C7.49515977 334.70984216 4.89146277 334.69338483 2.28703403 334.67153955 C1.12748959 334.67829202 1.12748959 334.67829202 -0.05548 334.6851809 C-5.24840879 334.61265798 -5.24840879 334.61265798 -7.44403476 333.08711129 C-9.24514916 330.56831462 -9.11387042 328.84989531 -9.10430527 325.76581502 C-9.10802841 324.61503813 -9.11175156 323.46426123 -9.11558753 322.27861232 C-9.1043223 321.00859309 -9.09305707 319.73857386 -9.08145046 318.43006921 C-9.0800608 317.07184681 -9.07998686 315.71362254 -9.08111972 314.35539991 C-9.08037708 310.61479685 -9.06077931 306.87449053 -9.0381645 303.13396442 C-9.01704105 299.1032885 -9.01320615 295.07259199 -9.00721645 291.04187036 C-8.99269122 283.14270579 -8.96199 275.24368217 -8.92576311 267.34459048 C-8.88413739 258.15333085 -8.85778395 248.96204678 -8.8319368 239.77073158 C-8.78524746 223.37611954 -8.72364821 206.98159651 -8.65412807 190.58706689 C-8.58661183 174.66391343 -8.53102669 158.74077457 -8.48811245 142.81753564 C-8.44140477 125.49349013 -8.38850817 108.16948576 -8.32441348 90.84549505 C-8.31758929 88.99976536 -8.31076632 87.15403567 -8.30394459 85.30830598 C-8.30057694 84.40008009 -8.29720929 83.4918542 -8.29373959 82.55610631 C-8.27033329 76.14298176 -8.2511964 69.72985244 -8.23354435 63.31670976 C-8.21185291 55.50645946 -8.18287338 47.69627578 -8.14456508 39.88608866 C-8.12516464 35.89806577 -8.1089795 31.91009785 -8.10135365 27.92203355 C-8.09428099 24.27602103 -8.07809419 20.63017045 -8.05441996 16.98422898 C-8.04412912 15.03038234 -8.04368598 13.07649163 -8.04351455 11.1226179 C-8.03419896 9.97444876 -8.02488337 8.82627961 -8.01528549 7.64331746 C-8.01138095 6.64627921 -8.00747641 5.64924096 -8.00345355 4.62198943 C-7.45302718 -0.39611327 -4.30310127 0.03056512 0 0 Z M1.25480747 9.26748681 C1.25480747 11.57748681 1.25480747 13.88748681 1.25480747 16.26748681 C66.26480747 16.26748681 131.27480747 16.26748681 198.25480747 16.26748681 C198.25480747 13.95748681 198.25480747 11.64748681 198.25480747 9.26748681 C133.24480747 9.26748681 68.23480747 9.26748681 1.25480747 9.26748681 Z M1.25480747 25.26748681 C1.25480747 30.21748681 1.25480747 35.16748681 1.25480747 40.26748681 C2.91250156 40.29721581 2.91250156 40.29721581 4.60368443 40.3275454 C8.7020616 40.4035913 12.80008326 40.4923101 16.89811802 40.58486962 C18.67213518 40.6231636 20.44623011 40.65801577 22.22038364 40.68936181 C24.76990146 40.73500353 27.31888377 40.79299867 29.86808872 40.85342431 C30.6619347 40.86497552 31.45578068 40.87652673 32.27368259 40.88842797 C36.09804656 40.99104066 38.00076846 41.09812747 41.25480747 43.26748681 C41.65886021 45.07656884 41.65886021 45.07656884 41.68840122 47.27529931 C41.70000278 48.08918115 41.71160435 48.90306298 41.72355747 49.7416079 C41.71324497 50.61639794 41.70293247 51.49118798 41.69230747 52.39248681 C41.68328403 53.29176904 41.6742606 54.19105126 41.66496372 55.11758447 C41.19416783 73.59305365 34.2077938 89.90971966 21.25480747 103.26748681 C14.95416298 108.5836556 9.37216117 109.26748681 1.25480747 109.26748681 C1.25480747 175.92748681 1.25480747 242.58748681 1.25480747 311.26748681 C26.99480747 311.26748681 52.73480747 311.26748681 79.25480747 311.26748681 C81.77572972 278.71157667 84.28146786 246.15603223 86.66130161 213.58962274 C88.14501733 193.28786683 89.63570959 172.98676535 91.18983555 152.69024682 C91.35404126 150.5454102 91.51774441 148.40053502 91.68086338 146.25561547 C92.11623605 140.53765187 92.56246034 134.82074443 93.02623081 129.10501122 C93.18551868 127.12762993 93.34156068 125.14998563 93.49510288 123.1721499 C93.73538675 120.09634983 93.98782849 117.02176346 94.24308872 113.94717431 C94.35054668 112.53167794 94.35054668 112.53167794 94.46017551 111.08758569 C94.53460377 110.22124505 94.60903202 109.35490441 94.68571568 108.46231103 C94.747495 107.69828973 94.80927433 106.93426843 94.87292576 106.14709496 C95.25480747 104.26748681 95.25480747 104.26748681 97.25480747 102.26748681 C101.81036303 102.82304237 101.81036303 102.82304237 103.25480747 104.26748681 C103.49048721 106.06644191 103.66169289 107.87386536 103.80803013 109.68228173 C103.90575214 110.86394921 104.00347416 112.04561669 104.10415745 113.26309228 C104.25994015 115.2355996 104.25994015 115.2355996 104.41886997 117.24795556 C104.53243951 118.64764035 104.64634512 120.0472979 104.76056004 121.44693017 C105.07375805 125.30280434 105.3806177 129.1591604 105.68610859 133.01565194 C105.87990409 135.4562036 106.07544067 137.89660951 106.27156162 140.33697534 C108.91704527 173.26805197 111.37762406 206.21310113 113.806077 239.16079736 C113.87680266 240.11980762 113.94752832 241.07881787 114.02039719 242.06688905 C114.34826054 246.51372628 114.67549296 250.96060707 115.00091648 255.40762353 C116.37009179 274.03155911 117.82252865 292.64786215 119.25480747 311.26748681 C145.32480747 311.26748681 171.39480747 311.26748681 198.25480747 311.26748681 C197.92480747 216.88748681 197.59480747 122.50748681 197.25480747 25.26748681 C132.57480747 25.26748681 67.89480747 25.26748681 1.25480747 25.26748681 Z M1.25480747 49.26748681 C1.18605056 56.35199509 1.12628171 63.43535247 1.09001255 70.51992822 C1.07489802 72.93142639 1.05440594 75.34289695 1.02848911 77.75430322 C0.99222322 81.21449609 0.97510792 84.67432652 0.96183872 88.13467431 C0.94635487 89.2180407 0.93087101 90.3014071 0.91491795 91.41760278 C0.91469135 92.41848931 0.91446476 93.41937585 0.9142313 94.45059228 C0.90756947 95.33439569 0.90090763 96.21819909 0.89404392 97.12878442 C1.01309589 97.83455621 1.13214787 98.540328 1.25480747 99.26748681 C4.86728888 101.67580775 5.99355715 101.99109536 10.25480747 101.26748681 C21.2500101 94.04708429 29.02198574 80.58513779 32.69230747 68.14248681 C33.59086227 61.95244265 34.25523682 55.26877484 32.25480747 49.26748681 C22.02480747 49.26748681 11.79480747 49.26748681 1.25480747 49.26748681 Z M1.25480747 320.26748681 C1.25480747 321.91748681 1.25480747 323.56748681 1.25480747 325.26748681 C26.66480747 325.26748681 52.07480747 325.26748681 78.25480747 325.26748681 C78.25480747 323.61748681 78.25480747 321.96748681 78.25480747 320.26748681 C52.84480747 320.26748681 27.43480747 320.26748681 1.25480747 320.26748681 Z M120.25480747 320.26748681 C120.25480747 321.91748681 120.25480747 323.56748681 120.25480747 325.26748681 C145.99480747 325.26748681 171.73480747 325.26748681 198.25480747 325.26748681 C198.25480747 323.61748681 198.25480747 321.96748681 198.25480747 320.26748681 C172.51480747 320.26748681 146.77480747 320.26748681 120.25480747 320.26748681 Z " fill="#0B1A1A" transform="translate(39.745192527770996,10.732513189315796)"/>
<path d="M0 0 C1.32 0 2.64 0 4 0 C4 4.29 4 8.58 4 13 C3.67 13 3.34 13 3 13 C2.67 10.03 2.34 7.06 2 4 C1.67 7.96 1.34 11.92 1 16 C0.67 16 0.34 16 0 16 C0 10.72 0 5.44 0 0 Z " fill="#000E0D" transform="translate(137,170)"/>
</svg>
