<?xml version="1.0" encoding="UTF-8"?>
<svg version="1.1" xmlns="http://www.w3.org/2000/svg" width="410" height="308">
<path d="M0 0 C0.99551644 -0.00384115 1.99103288 -0.00768229 3.01671648 -0.01163983 C4.66931199 -0.01034011 4.66931199 -0.01034011 6.35529327 -0.00901413 C7.51940341 -0.01198525 8.68351356 -0.01495637 9.88289976 -0.01801753 C13.12397684 -0.02521278 16.3650217 -0.027878 19.60610557 -0.028615 C23.09762656 -0.03046267 26.58913599 -0.03800843 30.08065033 -0.04475021 C37.71885075 -0.05834456 45.35704592 -0.06435966 52.99525642 -0.06876087 C57.76093533 -0.07152083 62.5266122 -0.07575766 67.29228973 -0.08026505 C80.4773038 -0.092458 93.66231623 -0.10275801 106.84733582 -0.10614014 C107.69153166 -0.1063597 108.5357275 -0.10657927 109.40550503 -0.10680549 C110.67488462 -0.10713291 110.67488462 -0.10713291 111.96990824 -0.10746694 C113.68483639 -0.10791041 115.39976454 -0.10835697 117.11469269 -0.10880661 C117.96536227 -0.10902804 118.81603186 -0.10924947 119.69247931 -0.10947761 C133.4873596 -0.11342864 147.28218715 -0.13089181 161.07704705 -0.15416613 C175.22713742 -0.17784793 189.37720129 -0.1903405 203.5273118 -0.19150805 C211.47736132 -0.19242648 219.4273421 -0.19822101 227.37737274 -0.21632767 C234.14459195 -0.23168578 240.91172118 -0.23687456 247.67895448 -0.22858956 C251.13438864 -0.22466804 254.58964136 -0.2256852 258.04505348 -0.23964691 C261.78412408 -0.25222997 265.52272119 -0.24656427 269.26178741 -0.23606491 C270.36351776 -0.24412132 271.4652481 -0.25217772 272.60036421 -0.26047826 C274.09363887 -0.25059349 274.09363887 -0.25059349 275.61708069 -0.24050903 C276.48099946 -0.24110612 277.34491822 -0.24170321 278.23501635 -0.24231839 C278.91927927 -0.11898216 279.60354218 0.00435407 280.30854034 0.13142776 C282.38222225 3.24195063 282.54531775 3.79582337 282.43354034 7.29158401 C282.41807159 8.08500198 282.40260284 8.87841995 282.38666534 9.69588089 C282.36088409 10.52023636 282.33510284 11.34459183 282.30854034 12.19392776 C282.25760007 13.83038414 282.21550657 15.46714708 282.18354034 17.10408401 C282.14873566 18.19088455 282.14873566 18.19088455 282.11322784 19.29964066 C282.14141825 21.38307346 282.14141825 21.38307346 284.30854034 23.13142776 C284.7090683 25.51430341 284.98931054 27.81317234 285.19867706 30.21467972 C285.30652967 31.33166905 285.30652967 31.33166905 285.41656113 32.47122383 C285.65786804 34.99911807 285.88566257 37.52804309 286.11322784 40.05720901 C286.28359058 41.88085133 286.45449429 43.70444317 286.62589264 45.52798843 C287.20363401 51.72764718 287.7583788 57.92926755 288.30854034 64.13142776 C288.40754135 65.24700813 288.50654236 66.3625885 288.6085434 67.51197433 C290.14070856 84.81754803 291.62566316 102.12712797 293.10224152 119.43751907 C293.98284418 129.75442493 294.86814859 140.07092886 295.75271988 150.38749504 C296.05582218 153.92644304 296.35796848 157.46547145 296.65988922 161.00452042 C296.75476561 162.11176122 296.84964199 163.21900202 296.94739342 164.35979557 C297.13133435 166.51513096 297.31331093 168.67063505 297.49315834 170.82631588 C297.93442966 176.05936338 298.4222242 181.28111633 298.99793243 186.50120926 C299.15845754 188.0208237 299.15845754 188.0208237 299.32222557 189.57113743 C299.52579198 191.47770649 299.74267543 193.38291905 299.9752903 195.28616238 C300.63082886 201.55641851 300.63082886 201.55641851 298.85056305 204.73266983 C298.08726181 205.42505501 298.08726181 205.42505501 297.30854034 206.13142776 C292.52129774 205.67344246 290.35127768 203.71966742 286.93354034 200.44392776 C285.97834503 199.5454512 285.02314972 198.64697464 284.03900909 197.72127151 C282.68742706 196.43929886 282.68742706 196.43929886 281.30854034 195.13142776 C277.33417639 190.93992129 277.33417639 190.93992129 272.30854034 189.13142776 C270.97283723 190.64548109 270.97283723 190.64548109 269.66400909 192.63924026 C268.89540558 193.74912308 268.89540558 193.74912308 268.11127472 194.88142776 C267.3117337 196.05705276 267.3117337 196.05705276 266.49604034 197.25642776 C262.96012028 202.41388843 259.39969202 207.39748885 255.30854034 212.13142776 C252.02762454 211.84243518 250.64352124 211.48780464 248.35150909 209.04939651 C247.73920441 208.14834183 247.12689972 207.24728714 246.49604034 206.31892776 C245.47703644 204.84166214 245.47703644 204.84166214 244.43744659 203.33455276 C243.73490753 202.27752151 243.03236847 201.22049026 242.30854034 200.13142776 C241.567729 199.0220033 240.8268434 197.91262841 240.08588409 196.80330276 C238.70598999 194.72970509 237.33413798 192.65071976 235.97260284 190.56502151 C234.38989846 188.0897383 234.38989846 188.0897383 232.30854034 186.13142776 C231.83545441 186.72568558 231.36236847 187.31994339 230.87494659 187.93220901 C227.13889701 192.61501581 223.39101618 197.28838713 219.62104034 201.94392776 C218.56336456 203.25297073 218.56336456 203.25297073 217.48432159 204.58845901 C215.20409552 207.25349882 212.88959739 209.7551488 210.30854034 212.13142776 C207.7615235 212.13142776 206.7961747 211.55748401 204.90106964 209.90169144 C202.91654209 207.69568051 201.48408796 205.34953894 199.95307159 202.80720901 C199.33109894 201.77918167 198.70912628 200.75115433 198.06830597 199.69197464 C197.42570831 198.62011917 196.78311066 197.5482637 196.12104034 196.44392776 C195.46684113 195.36047073 194.81264191 194.2770137 194.13861847 193.16072464 C192.52471663 190.48659532 190.91486445 187.81011343 189.30854034 185.13142776 C186.6610203 187.70927623 184.36421969 190.04790874 182.30854034 193.13142776 C181.64854034 193.13142776 180.98854034 193.13142776 180.30854034 193.13142776 C179.92955597 193.96093948 179.92955597 193.96093948 179.54291534 194.80720901 C178.1002196 197.52367726 176.4232483 199.87240201 174.55854034 202.31892776 C173.90369659 203.19935745 173.24885284 204.07978714 172.57416534 204.98689651 C169.8349162 207.57973752 168.01145548 207.86164395 164.30854034 208.13142776 C160.80999979 203.3267396 158.66205606 198.46942432 156.55854034 192.92830276 C156.21855011 192.05047134 155.87855988 191.17263992 155.52826691 190.26820755 C154.44818151 187.47519747 153.37812661 184.67847309 152.30854034 181.88142776 C151.59047161 180.01788386 150.87172778 178.15459995 150.15229034 176.29158401 C149.13193974 173.64917813 148.11246872 171.00648355 147.09857941 168.36159134 C145.14611522 163.27107365 143.13275021 158.21152099 141.05170441 153.17201614 C140.30854034 151.13142776 140.30854034 151.13142776 140.30854034 149.13142776 C137.99854034 149.13142776 135.68854034 149.13142776 133.30854034 149.13142776 C133.07397125 149.98148392 133.07397125 149.98148392 132.83466339 150.84871292 C130.71021695 158.2543485 127.97705282 165.35582967 125.12104034 172.50642776 C124.13370145 174.97894134 123.14667882 177.45157868 122.16010284 179.92439651 C121.67573761 181.13788773 121.19137238 182.35137894 120.69232941 183.60164261 C119.42167212 186.84284992 118.20770884 190.09756085 117.01947784 193.36970901 C116.67425079 194.29799515 116.32902374 195.22628128 115.97333527 196.1826973 C115.33696811 197.89928299 114.71891807 199.6228069 114.12226105 201.35359573 C113.25775909 203.64314651 113.25775909 203.64314651 111.30854034 207.13142776 C108.27729034 208.31111526 108.27729034 208.31111526 105.30854034 208.13142776 C103.57807159 207.19002151 103.57807159 207.19002151 102.12104034 205.56892776 C101.54482941 204.93470901 100.96861847 204.30049026 100.37494659 203.64705276 C97.21657559 199.80207936 94.13410214 195.89735703 91.12812042 191.93196487 C88.99101809 189.1342967 87.26433911 187.10196027 84.30854034 185.13142776 C83.94091583 185.771689 83.57329132 186.41195023 83.19452667 187.07161331 C81.51148291 189.99215036 79.81640806 192.90552888 78.12104034 195.81892776 C77.54289581 196.82633011 76.96475128 197.83373245 76.36908722 198.87166214 C70.40490916 209.08152628 70.40490916 209.08152628 66.30854034 212.13142776 C63.39331308 212.23653083 62.47715198 211.28468072 60.33588409 209.33845901 C59.30141144 208.15316605 59.30141144 208.15316605 58.24604034 206.94392776 C57.47002472 206.0557637 56.69400909 205.16759964 55.89447784 204.25252151 C52.44149827 200.14522246 49.16492067 195.89062165 45.93915558 191.60335159 C44.77346241 190.0776494 43.54603223 188.59949506 42.30854034 187.13142776 C41.64854034 187.13142776 40.98854034 187.13142776 40.30854034 187.13142776 C38.64469017 189.18388831 38.64469017 189.18388831 36.93744659 191.83845901 C36.28066925 192.81750198 35.62389191 193.79654495 34.94721222 194.80525589 C33.91950714 196.35889847 33.91950714 196.35889847 32.87104034 197.94392776 C31.52114078 199.97324697 30.16839143 202.00067413 28.81244659 204.02595901 C28.21246857 204.93192825 27.61249054 205.83789749 26.99433136 206.77132034 C25.54047381 208.80672091 24.22422315 210.53010332 22.30854034 212.13142776 C19.99994659 212.29939651 19.99994659 212.29939651 17.30854034 211.13142776 C15.00391323 208.76982022 13.14285425 206.13764211 11.24604034 203.44392776 C10.72977081 202.73558792 10.21350128 202.02724808 9.68158722 201.29744339 C6.78955145 197.30753927 4.01327354 193.25014617 1.30854034 189.13142776 C-1.59531475 190.45211769 -3.73463705 191.90135908 -6.03911591 194.10017776 C-6.64433075 194.67123245 -7.24954559 195.24228714 -7.87310028 195.83064651 C-8.49378387 196.42490433 -9.11446747 197.01916214 -9.75395966 197.63142776 C-10.99304143 198.81040959 -12.23386279 199.9875665 -13.47661591 201.16267776 C-14.02196991 201.68410355 -14.56732391 202.20552933 -15.1292038 202.74275589 C-16.69145966 204.13142776 -16.69145966 204.13142776 -19.69145966 206.13142776 C-24.2320002 205.59088722 -24.2320002 205.59088722 -25.69145966 204.13142776 C-26.09571268 197.09591643 -25.56671553 190.04191994 -24.95708466 183.03377151 C-24.87928268 182.09930695 -24.80148071 181.16484238 -24.72132111 180.2020607 C-24.46619869 177.15725295 -24.20407147 174.11309799 -23.94145966 171.06892776 C-23.75828963 168.90715627 -23.57526792 166.74537221 -23.39238739 164.5835762 C-22.19397 150.51523223 -20.8864003 136.45931243 -19.51195526 122.40721512 C-17.61679705 102.98479653 -16.02494904 83.53730503 -14.4417038 64.08748245 C-14.24141024 61.63595982 -14.04081469 59.18446184 -13.83989716 56.73299026 C-13.74335846 55.55507416 -13.64681976 54.37715805 -13.54735565 53.16354752 C-12.89448525 45.30390989 -12.16659256 37.45513916 -11.32009125 29.61388016 C-10.6861601 23.62135797 -10.33638044 17.63221267 -10.210289 11.60722733 C-10.04205754 7.32253043 -9.29892995 4.55893786 -6.69145966 1.13142776 C-4.26100791 -0.08379811 -2.71681993 0.00391994 0 0 Z M-0.69145966 9.13142776 C-0.69145966 12.76142776 -0.69145966 16.39142776 -0.69145966 20.13142776 C89.72854034 20.13142776 180.14854034 20.13142776 273.30854034 20.13142776 C273.30854034 16.50142776 273.30854034 12.87142776 273.30854034 9.13142776 C182.88854034 9.13142776 92.46854034 9.13142776 -0.69145966 9.13142776 Z M-0.69145966 29.13142776 C-2.82767206 32.33574637 -3.04002691 33.6516639 -3.36162567 37.39046097 C-3.45835068 38.4662088 -3.55507568 39.54195663 -3.65473175 40.65030289 C-3.75064102 41.81583191 -3.84655029 42.98136093 -3.94536591 44.18220901 C-4.05114456 45.38773926 -4.15692322 46.5932695 -4.26590729 47.83533096 C-4.60329632 51.70421564 -4.92864143 55.57401135 -5.25395966 59.44392776 C-5.47650457 62.00974921 -5.69980326 64.5755054 -5.92388153 67.14119339 C-6.93447584 78.79934668 -7.88233735 90.4573619 -8.69145966 102.13142776 C3.14400698 100.33308452 16.50385673 90.39518218 23.93354034 81.00642776 C33.52767392 66.42795452 30.44454618 45.83712936 30.30854034 29.13142776 C25.93032126 29.05735586 21.55243252 29.00286401 17.17377472 28.96663284 C15.68380126 28.95153176 14.19387234 28.93104918 12.70404816 28.90510941 C10.56428804 28.86878192 8.42511468 28.85171556 6.28510284 28.83845901 C4.99684601 28.82274857 3.70858917 28.80703812 2.38129425 28.79085159 C1.36728546 28.90324173 0.35327667 29.01563187 -0.69145966 29.13142776 Z M39.30854034 29.13142776 C38.64854034 41.67142776 37.98854034 54.21142776 37.30854034 67.13142776 C33.90077335 80.76249573 33.90077335 80.76249573 30.30854034 85.13142776 C29.79936066 85.79271683 29.29018097 86.45400589 28.76557159 87.13533401 C18.60857912 99.58793673 4.94746582 106.28385951 -9.69145966 112.13142776 C-12.10659115 138.45802162 -14.47141804 164.78761598 -16.69145966 191.13142776 C-13.12956403 188.79636359 -9.93290307 186.60605553 -7.00395966 183.50642776 C-4.92874286 181.32148686 -3.23698898 179.82844732 -0.69145966 178.13142776 C2.58392418 178.26223383 3.93443215 178.76832275 6.30072784 181.06502151 C6.92205597 181.89131058 7.54338409 182.71759964 8.18354034 183.56892776 C8.86158722 184.46224808 9.53963409 185.35556839 10.23822784 186.27595901 C13.31786192 190.52352979 16.35577882 194.79455928 19.30854034 199.13142776 C22.62555223 198.02575714 22.98311246 197.55568615 24.83197784 194.77986526 C25.29604034 194.09279495 25.76010284 193.40572464 26.23822784 192.69783401 C26.71518097 191.97466995 27.19213409 191.25150589 27.68354034 190.50642776 C29.09605733 188.39929391 30.5102529 186.29348912 31.93256378 184.1929512 C32.84479434 182.82622394 33.73398869 181.44381821 34.59857941 180.04646683 C37.64681074 175.31563086 37.64681074 175.31563086 40.89057159 174.41267776 C44.15767004 175.38383465 45.08391065 176.84702317 46.99604034 179.63142776 C48.06003612 181.16018445 49.15600752 182.66826266 50.30854034 184.13142776 C50.96854034 184.13142776 51.62854034 184.13142776 52.30854034 184.13142776 C52.55732941 184.68572464 52.80611847 185.24002151 53.06244659 185.81111526 C54.53404887 188.55134018 56.30117103 190.82986829 58.24604034 193.25642776 C58.93568878 194.12525589 59.62533722 194.99408401 60.33588409 195.88924026 C62.29133151 198.30650146 62.29133151 198.30650146 65.30854034 200.13142776 C65.95085602 199.01115189 65.95085602 199.01115189 66.60614777 197.86824417 C68.2069397 195.09209697 69.82034046 192.32380301 71.44257355 189.5601387 C72.1410548 188.36422226 72.83448345 187.1653395 73.52265167 185.96345901 C74.51464683 184.23301837 75.52662148 182.51407997 76.53900909 180.79549026 C77.44235992 179.24015579 77.44235992 179.24015579 78.36396027 177.65340042 C80.51085667 174.86903886 81.9719361 174.0833043 85.30854034 173.13142776 C92.36276052 180.09747018 99.06371855 187.42948088 105.30854034 195.13142776 C108.43688282 193.56725652 108.94778258 190.46169301 110.13666534 187.34236526 C110.40815399 186.64688583 110.67964264 185.9514064 110.95935822 185.23485184 C111.83230478 182.99452632 112.69564124 180.75063997 113.55854034 178.50642776 C114.40929183 176.31307649 115.2620109 174.1204973 116.11487579 171.92796707 C116.64429358 170.56483926 117.17218645 169.20111742 117.69800568 167.83659744 C117.95136688 167.18027328 118.20472809 166.52394913 118.46576691 165.84773636 C118.7356543 165.11940094 119.00554169 164.39106552 119.28360748 163.64065933 C120.30854034 161.13142776 120.30854034 161.13142776 121.83371735 158.20264053 C127.91256532 145.58667011 127.06953385 132.82180216 126.89447784 119.07283401 C126.88326783 116.47111369 126.87473619 113.86938057 126.86875153 111.26764297 C126.84831198 105.15854061 126.80119944 99.05019725 126.74065459 92.94137853 C126.66650455 85.29066287 126.63405625 77.63983597 126.60150909 69.98884964 C126.54339054 56.36919832 126.42315089 42.75098052 126.30854034 29.13142776 C97.59854034 29.13142776 68.88854034 29.13142776 39.30854034 29.13142776 Z M135.30854034 29.13142776 C135.30854034 66.09142776 135.30854034 103.05142776 135.30854034 141.13142776 C137.28854034 140.63642776 137.28854034 140.63642776 139.30854034 140.13142776 C139.30854034 103.50142776 139.30854034 66.87142776 139.30854034 29.13142776 C137.98854034 29.13142776 136.66854034 29.13142776 135.30854034 29.13142776 Z M147.30854034 29.13142776 C147.08737753 43.08032262 146.86651534 57.02437933 146.7557478 70.97364044 C146.69529137 78.46942413 146.61879272 85.96381349 146.47870636 93.4585762 C144.71922108 133.28708726 144.71922108 133.28708726 156.86901093 170.4382515 C159.51725255 175.39277441 161.44689093 180.65820922 163.49604034 185.88142776 C164.23594146 187.6901915 164.9787594 189.49776951 165.72650909 191.30330276 C166.03354767 192.04676956 166.34058624 192.79023636 166.65692902 193.55623245 C166.87196075 194.07604691 167.08699249 194.59586136 167.30854034 195.13142776 C171.66450044 191.57657271 175.45237838 188.0184857 178.93354034 183.56892776 C184.80073955 176.1025461 184.80073955 176.1025461 188.30854034 173.13142776 C190.42182159 173.06111526 190.42182159 173.06111526 192.30854034 174.13142776 C193.91400909 175.88924026 193.91400909 175.88924026 195.49604034 178.25642776 C196.09158722 179.14459183 196.68713409 180.03275589 197.30072784 180.94783401 C200.05535947 185.3155865 202.70690172 189.74322759 205.28778839 194.21590042 C207.19206712 197.76738412 207.19206712 197.76738412 210.30854034 200.13142776 C210.78162628 199.53716995 211.25471222 198.94291214 211.74213409 198.33064651 C216.22698389 192.70928507 220.75627269 187.12763238 225.32807159 181.57674026 C226.57389695 180.03850226 227.77813322 178.46465147 228.91791534 176.84627151 C230.30854034 175.13142776 230.30854034 175.13142776 232.74604034 174.56892776 C239.26688251 176.00033214 244.13235798 187.18758894 247.70697784 192.53377151 C248.26900909 193.36521683 248.83104034 194.19666214 249.41010284 195.05330276 C249.91879913 195.81223831 250.42749542 196.57117386 250.95160675 197.35310745 C252.20115612 199.26097693 252.20115612 199.26097693 254.30854034 200.13142776 C255.04459503 199.04603714 255.78064972 197.96064651 256.53900909 196.84236526 C257.52452457 195.39694257 258.51021075 193.95163624 259.49604034 192.50642776 C259.97879425 191.7935762 260.46154816 191.08072464 260.95893097 190.34627151 C262.38630645 188.25789665 263.84338978 186.1934169 265.30854034 184.13142776 C265.72700226 183.50526566 266.14546417 182.87910355 266.57660675 182.23396683 C267.79682159 180.54549026 267.79682159 180.54549026 270.30854034 178.13142776 C273.59550244 177.84231743 275.32839531 178.41250265 277.986763 180.3623848 C279.76931053 181.91165441 281.44925758 183.5259575 283.12104034 185.19392776 C286.39968809 189.02846421 286.39968809 189.02846421 290.30854034 191.13142776 C289.35106732 178.57205924 288.34318725 166.01690259 287.32246399 153.46254349 C287.03505438 149.92733725 286.74882668 146.39204366 286.46527863 142.85652542 C286.18790989 139.39837501 285.90766484 135.94046882 285.6253891 132.48271561 C285.46781052 130.54359323 285.3131348 128.60423565 285.15851593 126.66487503 C285.01331512 124.8964827 285.01331512 124.8964827 284.86518097 123.09236526 C284.78159332 122.05902054 284.69800568 121.02567581 284.61188507 119.96101761 C284.20054512 115.99949307 284.20054512 115.99949307 283.30854034 112.13142776 C280.8751425 110.82443295 278.69412504 109.87469361 276.12104034 108.94392776 C267.52103513 105.5283366 260.55030653 100.83317278 253.30854034 95.13142776 C252.51661285 94.51376541 252.51661285 94.51376541 251.70868683 93.88362503 C248.48957914 91.30503106 245.96739351 88.70445832 243.62104034 85.31892776 C243.06029816 84.52873245 242.49955597 83.73853714 241.92182159 82.92439651 C237.11733792 74.60670687 236.63065203 66.91148429 236.12104034 57.44392776 C236.03918488 56.15808792 235.95732941 54.87224808 235.87299347 53.54744339 C235.38099806 45.36543574 235.30854034 37.3636137 235.30854034 29.13142776 C206.26854034 29.13142776 177.22854034 29.13142776 147.30854034 29.13142776 Z M243.30854034 29.13142776 C241.32653585 58.01639505 241.32653585 58.01639505 252.30072784 83.19783401 C253.29459503 84.15496292 253.29459503 84.15496292 254.30854034 85.13142776 C255.33334503 86.13496292 255.33334503 86.13496292 256.37885284 87.15877151 C263.06541617 93.40196057 272.67539641 102.13142776 282.30854034 102.13142776 C281.62435714 86.54451408 280.19196684 71.03831463 278.74604034 55.50642776 C278.50941537 52.93874677 278.27308512 50.3710386 278.03705597 47.80330276 C277.46481885 41.57896917 276.88655699 35.35523798 276.30854034 29.13142776 C265.41854034 29.13142776 254.52854034 29.13142776 243.30854034 29.13142776 Z " fill="#0A1A19" transform="translate(79.69145965576172,51.86857223510742)"/>
<path d="M0 0 C0.02333956 14.69882491 0.04098439 29.39764738 0.05181217 44.09648705 C0.05697288 50.92110182 0.06401129 57.7457051 0.07543945 64.5703125 C0.08645465 71.15143433 0.09227777 77.73254731 0.09487724 84.31367874 C0.0967307 86.82958795 0.10034981 89.34549647 0.10573006 91.8614006 C0.11294622 95.37424913 0.11399069 98.88704765 0.11352539 102.39990234 C0.11712067 103.44934525 0.12071594 104.49878815 0.12442017 105.58003235 C0.1230455 106.53358109 0.12167084 107.48712982 0.12025452 108.46957397 C0.12117631 109.30103125 0.1220981 110.13248852 0.12304783 110.98914146 C0 113 0 113 -1 115 C-1.66 115 -2.32 115 -3 115 C-3 77.38 -3 39.76 -3 1 C-1 0 -1 0 0 0 Z " fill="#0F1F1E" transform="translate(227,80)"/>
</svg>
