<?xml version="1.0" encoding="UTF-8"?>
<svg version="1.1" xmlns="http://www.w3.org/2000/svg" width="392" height="368">
<path d="M0 0 C4.6773439 1.15016653 6.89239626 4.07560369 9.97265625 7.63671875 C10.565625 8.28769531 11.15859375 8.93867188 11.76953125 9.609375 C16.09765625 14.44610455 16.09765625 14.44610455 16.09765625 16.76171875 C16.75765625 16.76171875 17.41765625 16.76171875 18.09765625 16.76171875 C19.69140625 18.5625 19.69140625 18.5625 21.59765625 21.07421875 C25.42948758 25.99092428 29.51042982 30.59135437 33.7265625 35.1796875 C36.91614387 38.65302075 40.02053521 42.18891085 43.09765625 45.76171875 C44.39316406 47.22158203 44.39316406 47.22158203 45.71484375 48.7109375 C46.63477568 49.7689568 47.55404779 50.82755017 48.47265625 51.88671875 C49.75269531 53.34464844 49.75269531 53.34464844 51.05859375 54.83203125 C53.25989849 57.99482541 53.9808868 59.92955766 54.09765625 63.76171875 C52.09765625 66.76171875 52.09765625 66.76171875 49.09765625 67.76171875 C47.47046143 67.8431573 45.84013906 67.86924895 44.2109375 67.859375 C43.27314453 67.85615234 42.33535156 67.85292969 41.36914062 67.84960938 C39.90444336 67.83704102 39.90444336 67.83704102 38.41015625 67.82421875 C37.42208984 67.81970703 36.43402344 67.81519531 35.41601562 67.81054688 C32.97650151 67.79876178 30.53710936 67.78230886 28.09765625 67.76171875 C28.07238623 74.29450661 28.05482333 80.82728196 28.04272461 87.36010742 C28.03768308 89.58439607 28.03085002 91.80868138 28.0222168 94.03295898 C28.01014327 97.22250184 28.00442629 100.41200104 28 103.6015625 C27.99483871 104.60259506 27.98967743 105.60362762 27.98435974 106.63499451 C27.98428421 107.55587357 27.98420868 108.47675262 27.98413086 109.42553711 C27.98191025 110.24050156 27.97968964 111.055466 27.97740173 111.89512634 C27.8923738 113.77649731 27.8923738 113.77649731 29.09765625 114.76171875 C32.29919344 114.92660479 35.49822021 115.01658878 38.703125 115.08984375 C42.90638768 115.92178987 45.46989045 117.44800932 48.09765625 120.76171875 C49.68477805 123.82743514 50.77863533 126.98439171 51.84765625 130.26171875 C52.42554598 131.93888317 53.00366435 133.61596883 53.58203125 135.29296875 C53.82663086 136.03095703 54.07123047 136.76894531 54.32324219 137.52929688 C55.17129213 139.97399066 56.13026928 142.36208282 57.09765625 144.76171875 C57.82126846 144.76758499 58.54488068 144.77345123 59.29042053 144.77949524 C66.13144752 144.83755503 72.97219872 144.90970738 79.81290531 144.99743366 C83.32926678 145.04203781 86.84551505 145.08131513 90.36206055 145.1081543 C94.41093725 145.13929518 98.45920163 145.19407974 102.5078125 145.25 C104.38944847 145.25958488 104.38944847 145.25958488 106.30909729 145.2693634 C112.66625299 145.37594002 117.49518526 145.66630306 123.09765625 148.76171875 C123.77054687 149.11492187 124.4434375 149.468125 125.13671875 149.83203125 C131.11594068 153.8083611 134.66217205 159.74325613 136.09765625 166.76171875 C136.19152562 168.54736199 136.23246712 170.33610656 136.23809814 172.12420654 C136.24380829 173.21198395 136.24951843 174.29976135 136.25540161 175.42050171 C136.25651947 176.60914825 136.25763733 177.7977948 136.25878906 179.02246094 C136.26375397 180.27815887 136.26871887 181.53385681 136.27383423 182.8276062 C136.28693456 186.26994495 136.29339871 189.71226421 136.29784489 193.15462399 C136.30077982 195.30754545 136.30488545 197.46046163 136.30934906 199.61338043 C136.32301861 206.35592649 136.33268756 213.09846044 136.33655095 219.84101939 C136.34102861 227.61196554 136.35856508 235.38273552 136.38755155 243.15362811 C136.40920426 249.16822502 136.41925716 255.18277251 136.42059207 261.19740796 C136.42163766 264.7858974 136.42749257 268.37422113 136.44541168 271.96266937 C136.46503204 275.96968687 136.46058915 279.97633812 136.45410156 283.98339844 C136.46331635 285.16394806 136.47253113 286.34449768 136.48202515 287.56082153 C136.43087487 297.65518608 134.16136143 305.31625859 127.09765625 312.76171875 C121.01349699 317.26298597 115.67533825 318.49162103 108.23034668 318.39663696 C106.80113553 318.40833689 106.80113553 318.40833689 105.34305143 318.42027318 C102.17165914 318.44011035 99.00147789 318.42446068 95.83007812 318.40869141 C93.54780887 318.41547117 91.26554509 318.42437632 88.98329163 318.4352417 C82.79939625 318.45799847 76.61591887 318.4492133 70.43201637 318.43334627 C63.95397457 318.42066871 57.47596805 318.43243256 50.9979248 318.4402771 C39.42379891 318.44995016 27.8498634 318.43443263 16.27576751 318.40898041 C5.79393983 318.38664331 -4.68761092 318.39052399 -15.16943359 318.41357422 C-27.35864573 318.44036679 -39.54766081 318.45027337 -51.73690176 318.4355129 C-58.18307231 318.42772627 -64.62905234 318.4266554 -71.07521057 318.44319534 C-77.13615932 318.45766118 -83.19658621 318.44757884 -89.25747871 318.41872406 C-91.47902625 318.41212467 -93.70061787 318.41399118 -95.92214775 318.42503738 C-98.9603652 318.43874919 -101.99692188 318.42150782 -105.03503418 318.39663696 C-105.90927048 318.40779057 -106.78350678 318.41894418 -107.6842351 318.43043578 C-115.13847206 318.31248214 -120.67334649 315.60798011 -126.2421875 310.69921875 C-134.84678312 300.26430572 -134.05438683 289.43128641 -134.03515625 276.4375 C-134.03638558 274.91077138 -134.03795507 273.38404301 -134.0398407 271.85731506 C-134.04371536 266.92959737 -134.03625756 262.00192751 -134.02734375 257.07421875 C-134.02543848 255.82077038 -134.02543848 255.82077038 -134.02349472 254.54199982 C-134.00795018 244.35062936 -133.97793479 234.15937604 -133.9327898 223.96809387 C-133.91258609 219.39511443 -133.89651473 214.8221607 -133.88546371 210.24915028 C-133.86838487 203.33674249 -133.82505383 196.42506331 -133.7477417 189.51303101 C-133.72597927 187.27955557 -133.71238053 185.04598421 -133.70733643 182.81240845 C-133.69818597 179.74004114 -133.65802075 176.66961703 -133.609375 173.59765625 C-133.61329758 172.72287125 -133.61722015 171.84808624 -133.6212616 170.9467926 C-133.45068264 163.81244466 -131.07633947 158.12554325 -126.14729309 152.90170288 C-118.39375412 145.6505573 -110.75544833 145.30300542 -100.53125 145.25 C-99.25378403 145.2320488 -97.97631805 145.2140976 -96.66014099 145.19560242 C-93.28506044 145.15075243 -89.91033843 145.11837818 -86.53509521 145.09216309 C-83.0825096 145.06223708 -79.63014997 145.01574857 -76.17773438 144.97070312 C-69.41937565 144.8858615 -62.66100165 144.81747575 -55.90234375 144.76171875 C-55.2668408 143.18109039 -54.63215324 141.60013419 -53.99780273 140.01904297 C-53.64427231 139.13868378 -53.29074188 138.25832458 -52.92649841 137.35128784 C-52.04610847 135.12522702 -51.19841001 132.89212426 -50.375 130.64453125 C-50.13974609 130.01804688 -49.90449219 129.3915625 -49.66210938 128.74609375 C-49.19002329 127.48719752 -48.72938908 126.22395746 -48.27929688 124.95703125 C-46.59296998 120.54593093 -45.10503193 117.98382974 -40.90234375 115.76171875 C-34.96234375 115.26671875 -34.96234375 115.26671875 -28.90234375 114.76171875 C-28.90234375 99.25171875 -28.90234375 83.74171875 -28.90234375 67.76171875 C-34.51234375 67.76171875 -40.12234375 67.76171875 -45.90234375 67.76171875 C-51.90234375 65.76171875 -51.90234375 65.76171875 -53.90234375 63.76171875 C-53.72846553 58.567107 -51.96927061 56.21270432 -48.40234375 52.57421875 C-47.49355469 51.6203125 -46.58476562 50.66640625 -45.6484375 49.68359375 C-45.18550293 49.19826172 -44.72256836 48.71292969 -44.24560547 48.21289062 C-42.20416853 46.00745602 -40.34035626 43.67115303 -38.46484375 41.32421875 C-34.8066336 36.78855432 -30.9549141 32.50470705 -26.98852539 28.24243164 C-23.99807375 25.009779 -21.16455368 21.69475109 -18.40234375 18.26171875 C-15.05996357 14.15125121 -11.69677154 10.0670816 -8.21484375 6.07421875 C-7.77527344 5.54441406 -7.33570313 5.01460937 -6.8828125 4.46875 C-4.71752498 2.03118082 -3.17176828 0.83242909 0 0 Z M-3.1875 17 C-4.11970171 18.0189024 -5.04503523 19.04411467 -5.96484375 20.07421875 C-6.45654053 20.61747803 -6.9482373 21.1607373 -7.45483398 21.72045898 C-11.33173524 26.03864375 -15.00203978 30.50687521 -18.640625 35.02734375 C-21.8507039 38.90826816 -25.25665655 42.59761277 -28.66015625 46.30859375 C-33.58361898 50.95168509 -33.58361898 50.95168509 -35.90234375 56.76171875 C-34.68675781 56.82230469 -33.47117187 56.88289063 -32.21875 56.9453125 C-30.63410147 57.02970207 -29.04946673 57.11435085 -27.46484375 57.19921875 C-26.66240234 57.23853516 -25.85996094 57.27785156 -25.03320312 57.31835938 C-19.015625 57.6484375 -19.015625 57.6484375 -17.90234375 58.76171875 C-17.80179073 61.61198956 -17.76618838 64.43806384 -17.77294922 67.28881836 C-17.77032074 68.63021126 -17.77032074 68.63021126 -17.76763916 69.998703 C-17.76321882 72.97050894 -17.76615952 75.9422559 -17.76953125 78.9140625 C-17.7688582 80.97050488 -17.76788817 83.02694718 -17.76663208 85.08338928 C-17.76515481 89.40024572 -17.76731037 93.71708151 -17.77197266 98.03393555 C-17.77766639 103.57708603 -17.77439337 109.12018806 -17.76840019 114.66333675 C-17.76479232 118.91228096 -17.76593428 123.16121361 -17.76852798 127.41015816 C-17.76919681 129.45437183 -17.76837037 131.49858653 -17.76604843 133.542799 C-17.7635186 136.39696924 -17.76736738 139.25106029 -17.77294922 142.10522461 C-17.77092499 142.95673096 -17.76890076 143.8082373 -17.76681519 144.68554688 C-17.78808059 150.53319244 -17.78808059 150.53319244 -18.90234375 152.76171875 C-21.77734375 152.94921875 -21.77734375 152.94921875 -24.90234375 152.76171875 C-27.12770169 149.42368184 -27.19212779 148.13352164 -27.31640625 144.21875 C-27.35507813 143.14560547 -27.39375 142.07246094 -27.43359375 140.96679688 C-27.46453125 139.84724609 -27.49546875 138.72769531 -27.52734375 137.57421875 C-27.56601563 136.44306641 -27.6046875 135.31191406 -27.64453125 134.14648438 C-27.73886908 131.35172625 -27.82446027 128.55697597 -27.90234375 125.76171875 C-29.16046875 125.65859375 -30.41859375 125.55546875 -31.71484375 125.44921875 C-32.42253906 125.39121094 -33.13023437 125.33320313 -33.859375 125.2734375 C-36.13648467 125.58732641 -36.13648467 125.58732641 -37.54077148 127.9543457 C-38.82775075 130.60791833 -39.90747722 133.20754155 -40.875 135.9921875 C-41.21724609 136.95962891 -41.55949219 137.92707031 -41.91210938 138.92382812 C-42.6179915 140.95242074 -43.32371893 142.98106719 -44.02929688 145.00976562 C-44.37025391 145.97333984 -44.71121094 146.93691406 -45.0625 147.9296875 C-45.36808838 148.80906982 -45.67367676 149.68845215 -45.98852539 150.59448242 C-46.90234375 152.76171875 -46.90234375 152.76171875 -48.90234375 154.76171875 C-51.36685181 155.02000427 -51.36685181 155.02000427 -54.51025391 155.03295898 C-56.27316269 155.04823891 -56.27316269 155.04823891 -58.07168579 155.06382751 C-59.34869354 155.06596756 -60.62570129 155.0681076 -61.94140625 155.0703125 C-63.94322207 155.08903408 -65.9450379 155.10777269 -67.9468441 155.12749577 C-72.88910772 155.17285906 -77.83151034 155.19636905 -82.77392578 155.21801758 C-85.54255344 155.23087522 -88.31092851 155.25163226 -91.07943726 155.2802887 C-93.68596908 155.30645477 -96.29265936 155.32042478 -98.89932251 155.32066345 C-110.02736969 155.42649801 -110.02736969 155.42649801 -119.27734375 161.07421875 C-123.33003717 167.77675018 -123.19377196 174.08105874 -123.17700195 181.69873047 C-123.18211288 182.89619904 -123.18722382 184.0936676 -123.19248962 185.3274231 C-123.20398407 188.60027542 -123.20646296 191.87297017 -123.20392632 195.14583731 C-123.2028536 197.8842254 -123.20774775 200.62259036 -123.21253175 203.36097348 C-123.22361267 209.82513938 -123.22407253 216.28924717 -123.21801758 222.75341797 C-123.2119803 229.40745468 -123.22428566 236.0612798 -123.24558765 242.71528041 C-123.26323999 248.44118271 -123.26919924 254.16701788 -123.2659499 259.89294636 C-123.26414244 263.30701462 -123.26671904 266.72093198 -123.28066444 270.13497543 C-123.29302087 273.94545468 -123.28624111 277.75544634 -123.2746582 281.56591797 C-123.28230194 282.68722107 -123.28994568 283.80852417 -123.29782104 284.96380615 C-123.255508 291.27176117 -122.65088048 296.04859927 -119.90234375 301.76171875 C-114.29463484 307.22564025 -109.54773585 308.0566244 -101.91983032 308.02914429 C-101.00184674 308.0336754 -100.08386315 308.03820651 -99.13806188 308.04287493 C-96.0550438 308.05555824 -92.97220148 308.05389602 -89.88916016 308.05224609 C-87.68158236 308.05822887 -85.47400665 308.06503383 -83.26643372 308.07260132 C-77.26438186 308.0902936 -71.26238701 308.09495805 -65.2603116 308.09623289 C-60.25273388 308.09813034 -55.24516948 308.10548606 -50.23759687 308.11257708 C-39.09998113 308.12793971 -27.96238649 308.1339139 -16.82476242 308.13256638 C-16.15652637 308.13248647 -15.48829032 308.13240655 -14.79980469 308.13232422 C-13.79622601 308.13220158 -13.79622601 308.13220158 -12.77237301 308.13207646 C-1.92902288 308.13126353 8.91418836 308.15040305 19.75749831 308.17860095 C30.89279909 308.20732956 42.02804899 308.22077499 53.16339171 308.2194134 C59.41447579 308.21890298 65.6654027 308.22463052 71.91645432 308.2457695 C77.79502156 308.26510563 83.67328093 308.26530788 89.5518589 308.25073624 C91.7101734 308.24864133 93.86850693 308.2533894 96.02678871 308.26545715 C98.97194825 308.28085884 101.91603953 308.27163477 104.86117554 308.25619507 C106.1440623 308.27162576 106.1440623 308.27162576 107.45286596 308.28736818 C112.81318688 308.22521571 115.83545248 307.30323151 120.09765625 303.76171875 C123.83137935 299.52343848 125.2196049 297.22750887 125.24482727 291.62628174 C125.25198257 290.53836334 125.25913788 289.45044495 125.26651001 288.32955933 C125.26919891 287.13058014 125.27188782 285.93160095 125.2746582 284.69628906 C125.284515 282.80836136 125.284515 282.80836136 125.29457092 280.8822937 C125.31562024 276.70149004 125.32597509 272.52068598 125.3359375 268.33984375 C125.33998493 266.90054047 125.34410185 265.46123739 125.34828758 264.02193451 C125.36734232 257.25909949 125.38157193 250.49627541 125.38989955 243.7334187 C125.39966913 235.92842079 125.42597985 228.12370671 125.46640044 220.31880879 C125.49657252 214.28560116 125.51136951 208.25247483 125.51468056 202.21919322 C125.51703014 198.61614697 125.52597771 195.01340381 125.55114174 191.41043854 C125.57877848 187.38835328 125.57458806 183.36690076 125.56762695 179.34472656 C125.58043701 178.1538443 125.59324707 176.96296204 125.60644531 175.73599243 C125.56662166 169.43195802 125.3863018 165.52533925 121.09765625 160.76171875 C116.05059634 155.97348243 111.73987369 155.63868761 104.97802734 155.63574219 C103.7668222 155.63193542 102.55561707 155.62812866 101.30770874 155.62420654 C99.35908432 155.62266571 99.35908432 155.62266571 97.37109375 155.62109375 C95.32437805 155.60916203 93.27770447 155.59380299 91.23101234 155.57838821 C86.19108302 155.54043629 81.15141705 155.50911201 76.11132812 155.51123047 C72.59741491 155.51201638 69.08438133 155.48871911 65.57069778 155.44934845 C63.5837621 155.43379082 61.59667805 155.44423747 59.60971069 155.45501709 C58.40480988 155.43860168 57.19990906 155.42218628 55.95849609 155.40527344 C54.36562271 155.39980499 54.36562271 155.39980499 52.74057007 155.39422607 C50.09765625 154.76171875 50.09765625 154.76171875 48.29754639 152.38793945 C47.07514782 149.71245416 46.02749543 147.06568725 45.08984375 144.27734375 C44.74308594 143.26027344 44.39632812 142.24320312 44.0390625 141.1953125 C43.68714844 140.14472656 43.33523437 139.09414062 42.97265625 138.01171875 C42.2642542 135.91190334 41.55344899 133.8128966 40.83984375 131.71484375 C40.52901855 130.78833008 40.21819336 129.86181641 39.89794922 128.90722656 C39.28514943 126.81074769 39.28514943 126.81074769 38.09765625 125.76171875 C36.62116749 125.66347879 35.13990208 125.63198356 33.66015625 125.63671875 C32.85707031 125.63414062 32.05398437 125.6315625 31.2265625 125.62890625 C29.04367694 125.62593549 29.04367694 125.62593549 27.09765625 126.76171875 C27.06007202 127.88984985 27.06007202 127.88984985 27.02172852 129.04077148 C26.90615111 132.42711071 26.7832528 135.81314488 26.66015625 139.19921875 C26.62083984 140.38322266 26.58152344 141.56722656 26.54101562 142.78710938 C26.49912109 143.91181641 26.45722656 145.03652344 26.4140625 146.1953125 C26.35907593 147.7585022 26.35907593 147.7585022 26.30297852 149.35327148 C26.09765625 151.76171875 26.09765625 151.76171875 25.09765625 152.76171875 C23.09807261 152.80252658 21.09720371 152.80426231 19.09765625 152.76171875 C17.42790198 149.42221022 17.96882619 145.66881389 17.98413086 141.99755859 C17.98398483 141.09018448 17.98383881 140.18281036 17.98368835 139.24794006 C17.98438674 136.23948807 17.99217571 133.23109747 18 130.22265625 C18.00186444 128.14043207 18.00328822 126.05820744 18.00428772 123.97598267 C18.00811084 118.48835037 18.01793939 113.00074442 18.0289917 107.51312256 C18.03921023 101.91630408 18.04378629 96.31948136 18.04882812 90.72265625 C18.05956182 79.73566363 18.07715698 68.7486975 18.09765625 57.76171875 C24.36765625 57.43171875 30.63765625 57.10171875 37.09765625 56.76171875 C36.10765625 55.11171875 35.11765625 53.46171875 34.09765625 51.76171875 C33.43765625 51.76171875 32.77765625 51.76171875 32.09765625 51.76171875 C31.75927734 50.94380859 31.75927734 50.94380859 31.4140625 50.109375 C29.70622351 47.06364434 27.42710288 44.70852153 25.03515625 42.19921875 C21.36898788 38.28278355 17.84296712 34.3154287 14.47265625 30.13671875 C11.43956947 26.38224916 8.35275413 22.69453309 5.16015625 19.07421875 C4.42925781 18.24535156 3.69835937 17.41648437 2.9453125 16.5625 C0.1293327 13.81796155 -0.40146301 14.27111249 -3.1875 17 Z " fill="#000000" transform="translate(177.90234375,9.23828125)"/>
<path d="M0 0 C13.82802606 10.27474848 22.22236158 25.23917511 24.78125 42.265625 C25.99612125 57.45151559 21.02996341 72.89440591 11.77734375 84.87890625 C1.8927852 96.39261549 -11.71005775 104.52585138 -27.00952148 106.22290039 C-43.76820453 107.17088698 -59.62088491 102.86508328 -72.76953125 92.13671875 C-85.15743464 80.26949782 -91.73219253 64.71599922 -92.1875 47.6875 C-91.90999246 31.48105961 -85.24251406 17.52436058 -74.25 5.8125 C-53.36806207 -14.0654986 -23.85510276 -14.55983858 0 0 Z M-63 11 C-63.86625 11.5775 -64.7325 12.155 -65.625 12.75 C-74.8621127 21.50094888 -80.24645974 32.92139902 -81.1875 45.5078125 C-81.5210758 58.80914737 -77.39605584 70.23531786 -68.6875 80.375 C-59.56805702 89.8592207 -48.25489625 95.36881446 -35 96 C-21.64878 95.8338884 -10.32577422 91.59813571 -0.49560547 82.54492188 C8.79815169 72.94471044 13.58993674 61.4593161 13.5 48.25 C13.49141968 46.79074097 13.49141968 46.79074097 13.48266602 45.30200195 C13.14152248 31.54943779 7.19373745 21.77684421 -2.5625 12.375 C-20.65024805 -2.83434414 -44.36789453 -3.04158673 -63 11 Z " fill="#010101" transform="translate(213,193)"/>
<path d="M0 0 C7.44271307 5.14461219 12.90206536 11.96669802 14.71875 20.9453125 C15.93888782 29.85909712 14.47474362 38.14569521 10.375 46.1875 C3.08990658 54.81458432 -3.5268572 59.41426266 -14.6875 60.9375 C-24.55283541 61.52294288 -33.61919925 58.40345844 -41.12890625 51.99609375 C-44.20369866 48.71588723 -46.19880355 45.09428591 -48 41 C-48.36480469 40.24460938 -48.72960937 39.48921875 -49.10546875 38.7109375 C-51.40246891 31.74972305 -51.19325974 21.76521275 -48.4375 15 C-43.92706256 6.63489795 -36.99628529 -0.41027286 -27.875 -3.3125 C-17.96164353 -6.14009773 -9.04809967 -4.95992175 0 0 Z M-33 12 C-37.40516435 16.65688802 -39.71685851 21.49217538 -40.4375 27.875 C-40.0992351 34.87031808 -37.1888358 40.26662314 -32.0625 44.9375 C-26.56378009 49.56167201 -21.68090224 50.40083034 -14.6484375 50.25 C-8.76491537 49.69462328 -3.96565534 46.25528185 0 42 C4.56460504 35.94203652 4.97668509 29.3658334 4 22 C2.17890116 15.94484636 -2.87054595 11.43200361 -8 8 C-16.9086014 4.41115166 -25.61024331 6.12178445 -33 12 Z " fill="#010101" transform="translate(197,213)"/>
<path d="M0 0 C4.68729816 2.74953244 8.2044191 6.13149445 10.66015625 11.04296875 C11.59754953 23.0293091 11.59754953 23.0293091 8.97265625 28.66796875 C3.83528576 33.94418709 -0.319912 36.67752041 -7.77734375 37.35546875 C-13.20812072 36.87908481 -16.92447871 35.23316208 -21.08984375 31.73046875 C-25.66688352 26.26344902 -26.97635528 21.8543224 -26.74609375 14.79296875 C-25.9582611 9.45994773 -23.50501471 6.05138525 -19.61328125 2.44140625 C-13.76670937 -1.86532777 -6.77208135 -2.76988302 0 0 Z M-14.33984375 12.04296875 C-16.5285352 14.7074627 -16.33772221 16.10343276 -16.21484375 19.60546875 C-15.64351477 23.0391198 -15.64351477 23.0391198 -13.52734375 24.91796875 C-10.18663086 26.63604966 -8.49117462 27.3518624 -4.77734375 26.35546875 C-1.98928388 24.85420575 -0.81699696 23.84178537 0.66015625 21.04296875 C1.32695993 18.08576247 1.32695993 18.08576247 0.66015625 15.04296875 C-1.45389427 12.40040559 -3.26519285 10.59762728 -6.27734375 9.04296875 C-9.55428263 9.04296875 -11.60717597 10.32019993 -14.33984375 12.04296875 Z " fill="#000000" transform="translate(276.33984375,180.95703125)"/>
<path d="M0 0 C1.24330078 -0.01836914 1.24330078 -0.01836914 2.51171875 -0.03710938 C3.70861328 -0.04000977 3.70861328 -0.04000977 4.9296875 -0.04296875 C5.66171387 -0.04707764 6.39374023 -0.05118652 7.14794922 -0.05541992 C9.125 0.1875 9.125 0.1875 12.125 2.1875 C9.20735 4.1326 7.49962715 4.64026317 4.125 5.1875 C3.795 6.1775 3.465 7.1675 3.125 8.1875 C1.805 7.8575 0.485 7.5275 -0.875 7.1875 C-0.545 5.8675 -0.215 4.5475 0.125 3.1875 C-1.525 2.8575 -3.175 2.5275 -4.875 2.1875 C-4.215 4.1675 -3.555 6.1475 -2.875 8.1875 C-3.596875 8.001875 -4.31875 7.81625 -5.0625 7.625 C-7.86285845 7.01997571 -7.86285845 7.01997571 -10.5625 7.75 C-11.325625 7.894375 -12.08875 8.03875 -12.875 8.1875 C-13.535 7.5275 -14.195 6.8675 -14.875 6.1875 C-14.875 5.1975 -14.875 4.2075 -14.875 3.1875 C-13.905625 3.373125 -12.93625 3.55875 -11.9375 3.75 C-10.926875 3.894375 -9.91625 4.03875 -8.875 4.1875 C-8.545 3.8575 -8.215 3.5275 -7.875 3.1875 C-8.535 2.5275 -9.195 1.8675 -9.875 1.1875 C-7.72488047 -0.96261953 -2.97702202 0.00229355 0 0 Z " fill="#111111" transform="translate(175.875,316.8125)"/>
<path d="M0 0 C0.99 0.99 1.98 1.98 3 3 C3 3.66 3 4.32 3 5 C3.66 5 4.32 5 5 5 C5.33 4.34 5.66 3.68 6 3 C6.125 10.75 6.125 10.75 5 13 C4.34 13 3.68 13 3 13 C2.67 12.34 2.34 11.68 2 11 C1.94577053 12.4370809 1.90710277 13.87475462 1.875 15.3125 C1.84019531 16.51326172 1.84019531 16.51326172 1.8046875 17.73828125 C1.84182678 20.28388576 1.84182678 20.28388576 4 23 C4.72583618 25.65776107 5.06653886 28.24418239 5 31 C3.5625 33.5 3.5625 33.5 2 35 C-0.75668002 31.04476345 -1.5317879 27.77576339 -2 23 C-1.67 23 -1.34 23 -1 23 C-0.67 15.41 -0.34 7.82 0 0 Z " fill="#151515" transform="translate(228,230)"/>
<path d="M0 0 C0.99 0.66 1.98 1.32 3 2 C2.54177532 5.46941546 2.10868317 8.67395049 1 12 C-3.33333333 15 -3.33333333 15 -6 15 C-6 15.66 -6 16.32 -6 17 C-6.99 16.67 -7.98 16.34 -9 16 C-9.3721042 14.67696283 -9.70630173 13.34262065 -10 12 C-10.66 11.67 -11.32 11.34 -12 11 C-7.25 10 -7.25 10 -5 10 C-3.66216607 9.68521554 -2.32796291 9.35412344 -1 9 C-1.33 6.36 -1.66 3.72 -2 1 C-1.34 0.67 -0.68 0.34 0 0 Z " fill="#151515" transform="translate(202,250)"/>
<path d="M0 0 C1.46373047 0.04060547 1.46373047 0.04060547 2.95703125 0.08203125 C3.88902344 0.12199219 4.82101563 0.16195313 5.78125 0.203125 C6.63783203 0.23567383 7.49441406 0.26822266 8.37695312 0.30175781 C10.5 0.75 10.5 0.75 12.5 3.75 C12.5 4.74 12.5 5.73 12.5 6.75 C10.19 6.75 7.88 6.75 5.5 6.75 C5.5 6.09 5.5 5.43 5.5 4.75 C1.71332311 2.19301715 -1.9122334 2.71500316 -6.25 3.125 C-7.29607422 3.21007812 -7.29607422 3.21007812 -8.36328125 3.296875 C-10.07639312 3.43767872 -11.78834611 3.59245972 -13.5 3.75 C-13.17 2.76 -12.84 1.77 -12.5 0.75 C-8.72837813 -1.13581093 -4.13172752 -0.18011494 0 0 Z " fill="#1C1C1C" transform="translate(175.5,263.25)"/>
<path d="M0 0 C-0.33 0.33 -0.66 0.66 -1 1 C-1.04063832 2.66617115 -1.042721 4.33388095 -1 6 C-1.639375 5.814375 -2.27875 5.62875 -2.9375 5.4375 C-3.9584375 5.2209375 -3.9584375 5.2209375 -5 5 C-5.33 5.33 -5.66 5.66 -6 6 C-8.18639453 6.07258946 -10.37500389 6.08373783 -12.5625 6.0625 C-14.35880859 6.04896484 -14.35880859 6.04896484 -16.19140625 6.03515625 C-17.11824219 6.02355469 -18.04507813 6.01195312 -19 6 C-19 5.34 -19 4.68 -19 4 C-18.34773437 3.80664062 -17.69546875 3.61328125 -17.0234375 3.4140625 C-16.14945313 3.15367187 -15.27546875 2.89328125 -14.375 2.625 C-13.00794922 2.21894531 -13.00794922 2.21894531 -11.61328125 1.8046875 C-9.57756384 1.17784477 -7.56429908 0.47792694 -5.5625 -0.25 C-3 -1 -3 -1 0 0 Z " fill="#121212" transform="translate(160,319)"/>
<path d="M0 0 C3.56016341 0.56869131 5.05123195 1.7867034 7.4375 4.4375 C10.10167891 7.23948126 12.18240549 8.95883786 16 10 C16 10.33 16 10.66 16 11 C13.36 11 10.72 11 8 11 C8 10.34 8 9.68 8 9 C5.36 8.67 2.72 8.34 0 8 C0 5.36 0 2.72 0 0 Z " fill="#161616" transform="translate(154,284)"/>
<path d="M0 0 C-1 3 -1 3 -3.25 4.6875 C-8.79695277 6.62893347 -14.17955605 6.23316318 -20 6 C-17.18372735 4.51470552 -14.40632675 3.40569968 -11.375 2.4375 C-3.4858871 -0.09173387 -3.4858871 -0.09173387 0 0 Z " fill="#151515" transform="translate(188,291)"/>
<path d="M0 0 C-2.875 4.875 -2.875 4.875 -4 6 C-6.33297433 6.04092937 -8.66705225 6.04241723 -11 6 C-11 5.34 -11 4.68 -11 4 C-9.35546875 2.67578125 -9.35546875 2.67578125 -7.1875 1.3125 C-6.47980469 0.85488281 -5.77210938 0.39726562 -5.04296875 -0.07421875 C-3 -1 -3 -1 0 0 Z " fill="#131313" transform="translate(138,319)"/>
<path d="M0 0 C1.953125 0.7109375 1.953125 0.7109375 4 2 C4.609375 4.1640625 4.609375 4.1640625 4.75 6.625 C4.80671875 7.44226563 4.8634375 8.25953125 4.921875 9.1015625 C4.94765625 9.72804688 4.9734375 10.35453125 5 11 C4.01 11 3.02 11 2 11 C-0.67927341 6.98108988 -0.15601248 4.75838077 0 0 Z " fill="#151515" transform="translate(144,276)"/>
<path d="M0 0 C0.66 0 1.32 0 2 0 C2.71033431 5.52967941 3.30267176 10.49983036 2 16 C1.34 16 0.68 16 0 16 C0 10.72 0 5.44 0 0 Z " fill="#121212" transform="translate(235,233)"/>
<path d="M0 0 C2 3 2 3 2 5 C3.32 4.67 4.64 4.34 6 4 C6 4.99 6 5.98 6 7 C5.34 7 4.68 7 4 7 C3.67 7.99 3.34 8.98 3 10 C1.68 9.34 0.36 8.68 -1 8 C-0.67 5.36 -0.34 2.72 0 0 Z " fill="#131313" transform="translate(223,261)"/>
<path d="M0 0 C4.21912747 0.4794463 6.79663178 1.16625119 10 4 C9 5 9 5 5.4375 5.0625 C4.303125 5.041875 3.16875 5.02125 2 5 C1.34 3.35 0.68 1.7 0 0 Z " fill="#141414" transform="translate(108,320)"/>
<path d="M0 0 C1.22589844 0.15275391 1.22589844 0.15275391 2.4765625 0.30859375 C3.41628906 0.43427734 3.41628906 0.43427734 4.375 0.5625 C4.045 1.2225 3.715 1.8825 3.375 2.5625 C0.87109375 2.9765625 0.87109375 2.9765625 -2.1875 3.1875 C-3.19941406 3.26226562 -4.21132812 3.33703125 -5.25390625 3.4140625 C-6.03636719 3.46304687 -6.81882813 3.51203125 -7.625 3.5625 C-7.295 2.5725 -6.965 1.5825 -6.625 0.5625 C-4.10446405 -0.69776798 -2.7707902 -0.35624445 0 0 Z " fill="#141414" transform="translate(169.625,263.4375)"/>
<path d="M0 0 C1.32 0.99 2.64 1.98 4 3 C-0.62 3 -5.24 3 -10 3 C-10 2.34 -10 1.68 -10 1 C-6.59826233 -0.04668851 -3.54949951 -0.29579163 0 0 Z " fill="#0C0C0C" transform="translate(182,208)"/>
<path d="M0 0 C2.79828356 0.38597015 3.8205884 0.80136573 5.75 2.9375 C7 5 7 5 7 7 C5.35 6.67 3.7 6.34 2 6 C1.34 4.02 0.68 2.04 0 0 Z " fill="#131313" transform="translate(92,318)"/>
<path d="M0 0 C1.65 0 3.3 0 5 0 C5 2.31 5 4.62 5 7 C2.525 6.01 2.525 6.01 0 5 C0 3.35 0 1.7 0 0 Z " fill="#141414" transform="translate(204,240)"/>
<path d="M0 0 C1.875 0.3125 1.875 0.3125 4 1 C6 4 6 4 6 7 C4.125 6.875 4.125 6.875 2 6 C0.75 2.9375 0.75 2.9375 0 0 Z " fill="#151515" transform="translate(82,318)"/>
<path d="M0 0 C1.32 0.66 2.64 1.32 4 2 C3.01 2 2.02 2 1 2 C1 2.66 1 3.32 1 4 C-0.3125 5.625 -0.3125 5.625 -2 7 C-2.99 7 -3.98 7 -5 7 C-3.70700306 4.11562221 -2.34058637 2.12780579 0 0 Z " fill="#141414" transform="translate(215,280)"/>
<path d="M0 0 C0.86625 0.3403125 0.86625 0.3403125 1.75 0.6875 C0.75 2.6875 0.75 2.6875 -2.25 4.6875 C-3.57 4.6875 -4.89 4.6875 -6.25 4.6875 C-6.25 4.0275 -6.25 3.3675 -6.25 2.6875 C-3.02697842 -0.42041367 -3.02697842 -0.42041367 0 0 Z " fill="#141414" transform="translate(207.25,287.3125)"/>
</svg>
