<?xml version="1.0" encoding="UTF-8"?>
<svg version="1.1" xmlns="http://www.w3.org/2000/svg" width="398" height="367">
<path d="M0 0 C1.87034079 -0.0098083 3.74067303 -0.02139376 5.61099243 -0.03466797 C9.52327243 -0.05396485 13.43443841 -0.0470732 17.34667969 -0.02246094 C22.33978082 0.00619475 27.32921475 -0.03746488 32.32187462 -0.10186768 C36.18276404 -0.14234608 40.04278589 -0.14043911 43.90382767 -0.12646484 C45.7433078 -0.12549686 47.58285217 -0.13826916 49.42213058 -0.16552734 C65.53158077 -0.36902765 65.53158077 -0.36902765 72.05712891 5.4453125 C73.40630881 6.92572386 74.7230418 8.4377612 75.9765625 10 C78.80964621 12.83308371 82.13323582 13.29334451 85.9140625 14.25 C86.74019043 14.46470947 87.56631836 14.67941895 88.41748047 14.90063477 C94.61610934 16.48115488 100.85013814 17.85253224 107.10546875 19.18823242 C123.68605577 22.74171158 138.60848762 26.6493481 152.9765625 36 C153.94722656 36.60714844 153.94722656 36.60714844 154.9375 37.2265625 C157.5547075 38.89902193 160.00011746 40.58434495 161.9765625 43 C161.9765625 43.66 161.9765625 44.32 161.9765625 45 C162.6365625 45 163.2965625 45 163.9765625 45 C165.85582477 47.27409099 167.6138979 49.55800771 169.3515625 51.9375 C169.88322021 52.65462158 170.41487793 53.37174316 170.96264648 54.1105957 C174.7459345 59.24056272 178.40022453 64.45469214 182.0390625 69.6875 C186.59050117 76.22930487 191.45542289 82.36539751 196.69921875 88.36328125 C197.82650391 89.66845703 197.82650391 89.66845703 198.9765625 91 C199.59402344 91.67417969 200.21148437 92.34835938 200.84765625 93.04296875 C201.9765625 95 201.9765625 95 201.953125 97.5 C200.68496468 100.74649042 199.12806098 101.90329319 196.3515625 104 C195.36542969 104.76828125 194.37929688 105.5365625 193.36328125 106.328125 C192.8223584 106.74900391 192.28143555 107.16988281 191.72412109 107.60351562 C188.45187435 110.21838729 185.31617922 112.99258175 182.1640625 115.75 C179.77251931 117.83833743 177.37666345 119.92150575 174.9765625 122 C174.41146973 122.49564453 173.84637695 122.99128906 173.26416016 123.50195312 C169.20401503 127 169.20401503 127 166.9765625 127 C166.9765625 127.66 166.9765625 128.32 166.9765625 129 C165.30120791 130.51984883 163.55950628 131.96706453 161.7890625 133.375 C160.82613281 134.14585937 159.86320312 134.91671875 158.87109375 135.7109375 C156.99503435 137.19456882 155.10883517 138.66550274 153.2109375 140.12109375 C150.82457052 141.91282462 150.82457052 141.91282462 149.4140625 144.6875 C147.9765625 147 147.9765625 147 146.15234375 147.8203125 C143.13848891 148.06921254 142.06609558 147.03746412 139.7265625 145.1875 C138.66695313 144.37345703 138.66695313 144.37345703 137.5859375 143.54296875 C137.05484375 143.03378906 136.52375 142.52460938 135.9765625 142 C135.9765625 141.34 135.9765625 140.68 135.9765625 140 C135.45191406 139.79375 134.92726563 139.5875 134.38671875 139.375 C130.93272257 137.40448678 128.28063188 134.7343654 125.4140625 132 C124.26870368 130.91478852 123.12162818 129.83138535 121.97265625 128.75 C121.46919678 128.27046875 120.9657373 127.7909375 120.44702148 127.296875 C118.79776925 125.78377818 118.79776925 125.78377818 115.9765625 124 C115.95321627 145.83539445 115.93557483 167.67078686 115.92475033 189.50619125 C115.91959105 199.64443122 115.91255532 209.78266344 115.90112305 219.92089844 C115.89116501 228.75596886 115.88470639 237.59103367 115.88247401 246.42610955 C115.88116881 251.10546834 115.87809496 255.78481108 115.87083244 260.46416473 C115.8640546 264.86682474 115.86194916 269.26946204 115.86345482 273.67212677 C115.86317929 275.2894554 115.86118461 276.90678477 115.85735703 278.52410889 C115.85239226 280.72978471 115.85357454 282.93537449 115.85630798 285.14105225 C115.85538619 286.37625484 115.8544644 287.61145744 115.85351467 288.88409042 C115.85071345 291.88763468 115.85071345 291.88763468 116.60907841 294.24118423 C116.79098303 295.11179804 116.79098303 295.11179804 116.9765625 296 C116.3165625 296.99 115.6565625 297.98 114.9765625 299 C112.50066995 299.29693391 110.27376602 299.39579282 107.7953949 299.36749268 C107.04710153 299.37076152 106.29880817 299.37403036 105.52783924 299.37739825 C103.00720749 299.38471187 100.48714947 299.37049092 97.96655273 299.35644531 C96.1649465 299.35723572 94.36334043 299.35933152 92.56173706 299.36264038 C87.65897131 299.36778738 82.7564144 299.35421364 77.85368228 299.33711338 C72.73319416 299.32211436 67.61270917 299.3232523 62.49220276 299.32244873 C53.89295876 299.31875271 45.29379442 299.30376785 36.69458008 299.28125 C25.64163684 299.25236663 14.58875778 299.24202664 3.53578091 299.2375679 C-5.9477164 299.23359362 -15.43119965 299.22109095 -24.91468692 299.20722103 C-27.97245232 299.20311478 -31.03021721 299.20019286 -34.08798409 299.19742584 C-38.8838264 299.19254576 -43.67962946 299.18236432 -48.47545242 299.16798782 C-50.24078072 299.16345102 -52.00611431 299.16062291 -53.77144814 299.15958023 C-56.17075653 299.15784451 -58.56996541 299.14998824 -60.96925354 299.14044189 C-61.67702 299.14130838 -62.38478645 299.14217486 -63.11400038 299.1430676 C-67.90923017 299.11420733 -67.90923017 299.11420733 -69.0234375 298 C-69.12048391 295.75975357 -69.14530406 293.51637946 -69.14369202 291.27403259 C-69.14454644 290.56264006 -69.14540087 289.85124752 -69.14628118 289.11829764 C-69.14793807 286.71677952 -69.14241124 284.31533012 -69.13696289 281.91381836 C-69.13668104 280.19940696 -69.13683872 278.48499544 -69.1374054 276.77058411 C-69.13769344 272.10136027 -69.13179554 267.43216188 -69.12483144 262.76294398 C-69.11859911 257.88888473 -69.1179942 253.01482495 -69.11680603 248.14076233 C-69.11369236 238.9043057 -69.10547848 229.66786085 -69.09545654 220.43140942 C-69.08429652 209.91889135 -69.07878524 199.40637272 -69.07376111 188.89385021 C-69.0632959 167.26256022 -69.04569576 145.63128085 -69.0234375 124 C-69.64992188 124.5775 -70.27640625 125.155 -70.921875 125.75 C-71.73914063 126.4925 -72.55640625 127.235 -73.3984375 128 C-74.61660156 129.11375 -74.61660156 129.11375 -75.859375 130.25 C-78.0234375 132 -78.0234375 132 -80.0234375 132 C-80.0234375 132.66 -80.0234375 133.32 -80.0234375 134 C-82.49155803 136.54882202 -85.29687384 138.73388252 -88.0234375 141 C-88.80203125 141.68835938 -89.580625 142.37671875 -90.3828125 143.0859375 C-91.15109375 143.73820313 -91.919375 144.39046875 -92.7109375 145.0625 C-93.41605469 145.67222656 -94.12117188 146.28195313 -94.84765625 146.91015625 C-97.0234375 148 -97.0234375 148 -99.60546875 147.49609375 C-102.52022421 145.69261824 -103.33949362 143.95344561 -105.0234375 141 C-107.40989774 138.76408066 -107.40989774 138.76408066 -110.1484375 136.6875 C-113.69370503 133.87268786 -117.1658109 131.03640962 -120.5234375 128 C-126.22453245 122.87415066 -132.07503598 117.78047099 -138.34765625 113.36328125 C-138.90066406 112.91339844 -139.45367187 112.46351563 -140.0234375 112 C-140.0234375 111.34 -140.0234375 110.68 -140.0234375 110 C-140.56355469 109.76925781 -141.10367188 109.53851563 -141.66015625 109.30078125 C-144.74001305 107.60558734 -147.19012177 105.50042149 -149.8359375 103.1875 C-150.83238281 102.33542969 -151.82882813 101.48335938 -152.85546875 100.60546875 C-155.0234375 98 -155.0234375 98 -155.125 95.484375 C-153.74247342 92.36633634 -151.98404294 90.49053499 -149.5859375 88.0625 C-145.77733346 84.06520906 -142.37841732 79.95988177 -139.2109375 75.4375 C-138.80834717 74.86306152 -138.40575684 74.28862305 -137.9909668 73.69677734 C-137.13396284 72.46878677 -136.27846706 71.23974257 -135.42431641 70.00976562 C-114.34855161 39.77349937 -94.39442083 26.5669666 -58.45410156 18.54443359 C-55.71215664 17.93027759 -52.97321445 17.30363795 -50.234375 16.67578125 C-46.39905144 15.79806417 -42.56354711 14.92121153 -38.7265625 14.05078125 C-37.93926758 13.87200439 -37.15197266 13.69322754 -36.34082031 13.5090332 C-34.0234375 13 -34.0234375 13 -31.35449219 12.68432617 C-30.58524414 12.45849854 -29.81599609 12.2326709 -29.0234375 12 C-28.32440019 10.6833493 -27.66236172 9.34684745 -27.0234375 8 C-20.65804135 -1.40816782 -10.12748786 -0.05614068 0 0 Z M-9.0234375 10 C-7.49853732 13.81225045 -6.21359067 16.45364381 -3.9765625 19.765625 C-3.3784375 20.65636719 -2.7803125 21.54710937 -2.1640625 22.46484375 C-1.54015625 23.38394531 -0.91625 24.30304687 -0.2734375 25.25 C0.335 26.15363281 0.9434375 27.05726562 1.5703125 27.98828125 C3.94969224 31.52176184 6.33073993 35.05389508 8.73242188 38.57226562 C9.27189453 39.36826172 9.81136719 40.16425781 10.3671875 40.984375 C10.84704102 41.68788086 11.32689453 42.39138672 11.82128906 43.11621094 C12.9765625 45 12.9765625 45 13.9765625 48 C17.01085927 49.51714839 20.15257917 49.14363916 23.4765625 49.125 C24.16621094 49.12886719 24.85585937 49.13273437 25.56640625 49.13671875 C29.39822464 49.19040866 29.39822464 49.19040866 32.9765625 48 C33.91310126 46.11632815 34.84597898 44.23073342 35.75878906 42.33544922 C37.92826812 38.17481637 40.66308013 34.40009177 43.3515625 30.5625 C45.56297982 27.37712902 47.77226061 24.19029956 49.9765625 21 C50.55438477 20.16452637 51.13220703 19.32905273 51.72753906 18.46826172 C52.27635742 17.66275879 52.82517578 16.85725586 53.390625 16.02734375 C54.13626709 14.93860962 54.13626709 14.93860962 54.89697266 13.82788086 C56.14607823 12.06680366 56.14607823 12.06680366 55.9765625 10 C34.5265625 10 13.0765625 10 -9.0234375 10 Z M-19.0234375 12 C-21.60479794 14.90403049 -23.4802267 17.11785351 -24.0234375 21 C-22.61009134 27.6907029 -18.56675572 33.68681569 -15.0234375 39.4375 C-14.59635498 40.13584961 -14.16927246 40.83419922 -13.72924805 41.55371094 C-10.61486199 46.48537661 -10.61486199 46.48537661 -6.0234375 50 C-2.00729687 49.79404407 0.61554346 48.07608856 3.9765625 46 C-0.26182002 39.27156775 -4.59444731 32.61744347 -9.02734375 26.015625 C-11.65139702 22.05130186 -14.17059781 18.02462528 -16.67578125 13.984375 C-17.34287109 13.00210938 -17.34287109 13.00210938 -18.0234375 12 C-18.3534375 12 -18.6834375 12 -19.0234375 12 Z M64.9765625 12 C63.35027407 14.40920424 61.8371927 16.81830499 60.3515625 19.3125 C56.70672936 25.30479661 52.86939882 31.0234157 48.671875 36.6484375 C46.50719642 39.65105618 44.71705029 42.73658539 42.9765625 46 C47.46341493 49.03983309 47.46341493 49.03983309 52.6015625 50.125 C58.76471439 47.20561226 62.06840398 39.73007205 65.2265625 34 C65.67257813 33.21882813 66.11859375 32.43765625 66.578125 31.6328125 C68.88611474 27.47843098 70.82790021 23.85630151 70.9765625 19 C70.28529377 16.86702301 70.28529377 16.86702301 69.0390625 15.125 C68.3584375 14.09375 67.6778125 13.0625 66.9765625 12 C66.3165625 12 65.6565625 12 64.9765625 12 Z M-42.484375 23.390625 C-43.76183594 23.68839844 -45.03929687 23.98617187 -46.35546875 24.29296875 C-47.02143066 24.45071777 -47.68739258 24.6084668 -48.37353516 24.77099609 C-50.35577784 25.23990858 -52.33978689 25.70060883 -54.32421875 26.16015625 C-86.32914441 33.6352545 -106.54793972 43.56406931 -125.46679688 70.82519531 C-127.54414361 73.72748589 -129.77224814 76.50397024 -132.02832031 79.26904297 C-132.35670898 79.84025879 -132.68509766 80.41147461 -133.0234375 81 C-131.78554121 84.71368887 -130.17118873 85.77354181 -127.0234375 88 C-126.3634375 88 -125.7034375 88 -125.0234375 88 C-125.0234375 88.66 -125.0234375 89.32 -125.0234375 90 C-123.53605515 91.35382149 -121.97913199 92.63139886 -120.3984375 93.875 C-115.86267477 97.50127817 -111.4166457 101.20246057 -107.0234375 105 C-101.86507992 109.45070776 -96.64235756 113.79819181 -91.328125 118.0625 C-89.0234375 120 -89.0234375 120 -86.96875 122.3125 C-86.32679687 122.869375 -85.68484375 123.42625 -85.0234375 124 C-81.86569929 123.62579984 -80.19641639 122.54706208 -77.96484375 120.34765625 C-77.41376953 119.81849609 -76.86269531 119.28933594 -76.29492188 118.74414062 C-75.73095703 118.18919922 -75.16699219 117.63425781 -74.5859375 117.0625 C-67.34915954 109.94230995 -67.34915954 109.94230995 -63.0234375 109 C-61.5384375 109.99 -61.5384375 109.99 -60.0234375 111 C-59.63867664 113.72925758 -59.63867664 113.72925758 -59.62471008 117.27676392 C-59.61806839 117.92618454 -59.6114267 118.57560516 -59.60458374 119.2447052 C-59.58582969 121.43754405 -59.58858777 123.62984337 -59.59106445 125.82275391 C-59.58196527 127.41496232 -59.57155383 129.0071637 -59.55993176 130.5993557 C-59.53237417 134.87352256 -59.5228412 139.14755428 -59.51696014 143.42179871 C-59.50873962 147.42865188 -59.48437301 151.43534225 -59.46130371 155.44213867 C-59.40323809 167.16968982 -59.37118682 178.89735808 -59.3359375 190.625 C-59.2328125 216.81875 -59.1296875 243.0125 -59.0234375 270 C-4.5734375 270 49.8765625 270 105.9765625 270 C106.3065625 217.53 106.6365625 165.06 106.9765625 111 C108.2965625 110.34 109.6165625 109.68 110.9765625 109 C115.62628839 110.97711034 119.16016833 114.75279415 122.7890625 118.1875 C123.38654297 118.74630859 123.98402344 119.30511719 124.59960938 119.88085938 C126.06230975 121.24994693 127.51995412 122.62443279 128.9765625 124 C133.01462116 122.63733356 135.52024368 120.8590849 138.6015625 117.9375 C142.03961066 114.75262181 145.51555473 111.69164338 149.1640625 108.75 C154.42627909 104.49687324 159.51784583 100.06840548 164.60644531 95.61108398 C167.9505911 92.69859451 171.31759709 89.91419838 174.9140625 87.3125 C176.43 86.1678125 176.43 86.1678125 177.9765625 85 C177.9765625 84.34 177.9765625 83.68 177.9765625 83 C178.6365625 83 179.2965625 83 179.9765625 83 C169.97066159 61.92241047 152.33009393 42.01234075 130.3203125 33.73046875 C119.99796623 30.18216222 109.14030962 28.10454593 98.48974609 25.79101562 C94.1244125 24.80813301 89.79926267 23.69411264 85.47583008 22.54199219 C82.75126666 21.85871054 82.75126666 21.85871054 78.9765625 22 C78.76902344 22.57105469 78.56148437 23.14210938 78.34765625 23.73046875 C73.94835192 35.3085542 68.29966287 48.46699083 58.1640625 56.125 C51.68052299 57.90479516 46.10181644 56.45010158 39.9765625 54 C39.6465625 73.14 39.3165625 92.28 38.9765625 112 C36.0545856 113.46098845 33.47762775 113.11134901 30.21875 113.09765625 C29.00558105 113.09515869 27.79241211 113.09266113 26.54248047 113.09008789 C24.99447754 113.08098389 23.44647461 113.07187988 21.8515625 113.0625 C16.9428125 113.041875 12.0340625 113.02125 6.9765625 113 C6.6465625 93.86 6.3165625 74.72 5.9765625 55 C3.3365625 55.66 0.6965625 56.32 -2.0234375 57 C-4.59765625 57.1171875 -4.59765625 57.1171875 -6.7109375 56.875 C-7.76861328 56.77832031 -7.76861328 56.77832031 -8.84765625 56.6796875 C-14.46435633 54.92509896 -17.48236279 50.33997012 -20.4609375 45.5625 C-20.84636719 44.9543042 -21.23179687 44.3461084 -21.62890625 43.71948242 C-25.86796659 36.87781565 -29.47470233 29.6462055 -32.0234375 22 C-35.84282084 22 -38.78293832 22.52624566 -42.484375 23.390625 Z M14.9765625 57 C14.9765625 72.84 14.9765625 88.68 14.9765625 105 C20.5865625 105 26.1965625 105 31.9765625 105 C31.9765625 89.16 31.9765625 73.32 31.9765625 57 C26.3665625 57 20.7565625 57 14.9765625 57 Z M-139.0234375 89 C-141.71737271 91.78266213 -141.71737271 91.78266213 -144.0234375 95 C-143.6934375 95.99 -143.3634375 96.98 -143.0234375 98 C-142.3634375 98 -141.7034375 98 -141.0234375 98 C-141.0234375 98.66 -141.0234375 99.32 -141.0234375 100 C-139.51285473 101.37015004 -139.51285473 101.37015004 -137.4609375 102.8125 C-132.24379318 106.7460612 -127.34485391 110.99369123 -122.42944336 115.29223633 C-120.63041084 116.86493972 -118.82757438 118.43315674 -117.0234375 120 C-116.45544434 120.49854492 -115.88745117 120.99708984 -115.30224609 121.51074219 C-112.55730415 124.16397127 -112.55730415 124.16397127 -109.0234375 125 C-109.0234375 125.66 -109.0234375 126.32 -109.0234375 127 C-107.24239032 128.60178593 -105.39806472 130.13381926 -103.5234375 131.625 C-102.5025 132.44226563 -101.4815625 133.25953125 -100.4296875 134.1015625 C-99.635625 134.72804687 -98.8415625 135.35453125 -98.0234375 136 C-94.10940801 134.73058503 -92.23270877 133.48832306 -90.0234375 130 C-96.88918964 123.54903098 -103.79148698 117.25053533 -111.140625 111.34765625 C-114.50940107 108.60424918 -117.7980939 105.77688067 -121.0859375 102.9375 C-129.50315002 94.1816199 -129.50315002 94.1816199 -139.0234375 89 Z M182.9765625 90 C182.9765625 90.66 182.9765625 91.32 182.9765625 92 C182.45191406 92.21527344 181.92726563 92.43054688 181.38671875 92.65234375 C178.0312226 94.52859363 175.28561525 97.03482939 172.4140625 99.5625 C171.15846025 100.65469075 169.90193997 101.74582697 168.64453125 102.8359375 C168.02368652 103.37444336 167.4028418 103.91294922 166.76318359 104.46777344 C164.28951197 106.58922234 161.76192148 108.64040558 159.2265625 110.6875 C154.7818858 114.29553167 150.51362531 118.06030223 146.28125 121.9140625 C143.23225544 124.67366097 140.11315703 127.34071334 136.9765625 130 C137.6365625 130.99 138.2965625 131.98 138.9765625 133 C139.6365625 133 140.2965625 133 140.9765625 133 C140.9765625 133.66 140.9765625 134.32 140.9765625 135 C142.80665032 135.72926667 142.80665032 135.72926667 144.9765625 136 C146.71970147 135.09601747 146.71970147 135.09601747 148.26171875 133.5703125 C149.17304565 132.75481934 149.17304565 132.75481934 150.1027832 131.92285156 C150.74175537 131.32956055 151.38072754 130.73626953 152.0390625 130.125 C153.38688184 128.91279488 154.73584739 127.70186304 156.0859375 126.4921875 C156.74787109 125.89374023 157.40980469 125.29529297 158.09179688 124.67871094 C160.59463289 122.44950104 163.17544113 120.34836458 165.7890625 118.25 C170.15731638 114.71533303 174.32114722 111.00375342 178.47265625 107.21875 C182.5061814 103.64458107 186.7299676 100.31595815 190.9765625 97 C190.3165625 95.35 189.6565625 93.7 188.9765625 92 C188.3165625 92 187.6565625 92 186.9765625 92 C186.4815625 90.515 186.4815625 90.515 185.9765625 89 C184.7529557 88.9254644 184.7529557 88.9254644 182.9765625 90 Z M-59.0234375 279 C-59.0234375 282.96 -59.0234375 286.92 -59.0234375 291 C-4.5734375 291 49.8765625 291 105.9765625 291 C105.9765625 287.04 105.9765625 283.08 105.9765625 279 C51.5265625 279 -2.9234375 279 -59.0234375 279 Z " fill="#091818" transform="translate(175.0234375,20)"/>
<path d="M0 0 C0.66 0.33 1.32 0.66 2 1 C-0.64 3.64 -3.28 6.28 -6 9 C-6.99 8.67 -7.98 8.34 -9 8 C-6.03 5.36 -3.06 2.72 0 0 Z " fill="#021212" transform="translate(319,132)"/>
</svg>
