<?xml version="1.0" standalone="no"?>
<!DOCTYPE svg PUBLIC "-//W3C//DTD SVG 20010904//EN"
 "http://www.w3.org/TR/2001/REC-SVG-20010904/DTD/svg10.dtd">
<svg version="1.0" xmlns="http://www.w3.org/2000/svg"
 width="423.000000pt" height="362.000000pt" viewBox="0 0 423.000000 362.000000"
 preserveAspectRatio="xMidYMid meet">

<g transform="translate(0.000000,362.000000) scale(0.100000,-0.100000)"
fill="#000000" stroke="none">
<path d="M1461 3034 c-744 -90 -1155 -299 -1222 -621 -7 -33 -10 -66 -7 -75 9
-22 653 -558 672 -558 9 0 70 27 136 60 66 33 124 60 130 60 7 0 10 -260 10
-784 0 -701 2 -784 16 -790 30 -12 1956 -7 1971 5 11 9 13 151 13 790 0 521 3
779 10 779 6 0 65 -27 131 -61 67 -33 129 -59 139 -57 26 4 658 536 665 559 9
26 -13 125 -37 174 -60 120 -180 225 -350 308 -113 55 -208 87 -364 126 -208
51 -591 109 -630 95 -20 -8 -141 -106 -407 -332 l-157 -133 -183 153 c-100 84
-226 190 -280 235 -62 53 -106 83 -120 82 -12 -1 -73 -7 -136 -15z m85 -80
c-68 -177 8 -351 192 -437 56 -26 82 -32 158 -35 82 -4 158 5 207 23 16 7 17
-46 15 -1049 l-3 -1056 -430 -2 -430 -2 -5 793 c-5 727 -6 795 -22 804 -13 9
-49 -5 -168 -61 l-152 -73 -58 48 c-602 497 -559 451 -518 560 27 74 143 193
240 247 196 109 490 194 833 240 140 19 148 19 141 0z m1504 -15 c287 -46 495
-106 680 -196 97 -48 126 -69 190 -132 82 -82 120 -148 123 -214 l2 -40 -298
-250 -299 -251 -147 73 c-81 40 -155 72 -166 70 -20 -4 -20 -19 -25 -802 l-5
-797 -430 -1 -430 -2 -3 1052 -2 1052 47 -7 c80 -13 179 -7 247 16 118 39 190
102 244 210 24 49 27 67 27 154 l0 98 60 -6 c33 -4 116 -16 185 -27z m-1194
-184 c246 -205 244 -200 74 -200 -92 0 -112 3 -160 26 -77 36 -115 71 -147
137 -21 42 -27 71 -27 112 1 61 18 114 35 108 6 -2 107 -84 225 -183z m880 93
c-8 -73 -43 -142 -97 -193 -74 -69 -125 -88 -246 -93 -67 -3 -103 -1 -103 6 0
6 98 92 217 191 204 170 218 180 226 159 5 -13 6 -44 3 -70z"/>
</g>
</svg>
