<?xml version="1.0" encoding="UTF-8"?>
<svg version="1.1" xmlns="http://www.w3.org/2000/svg" width="453" height="368">
<path d="M0 0 C8.80017122 9.05805169 14.0506503 20.3946014 17.12109375 32.50390625 C17.4962487 33.93083046 17.4962487 33.93083046 17.87898254 35.38658142 C18.64463838 38.31935795 19.39207934 41.25615035 20.1328125 44.1953125 C20.3564447 45.07954895 20.5800769 45.9637854 20.81048584 46.87481689 C22.35033705 52.99371071 23.83893875 59.12454851 25.3203125 65.2578125 C25.79759992 67.22306268 26.2752293 69.18822984 26.75317383 71.15332031 C27.73653886 75.19775313 28.71848822 79.24252521 29.69921875 83.28759766 C31.67862088 91.44880699 33.67078622 99.60688967 35.66497803 107.76449585 C36.10378951 109.5595687 36.54246837 111.35467397 36.98101807 113.14981079 C40.84347465 128.95949442 44.73127087 144.76290383 48.62399387 160.56515503 C49.83834457 165.49504316 51.05166119 170.42518493 52.2644043 175.35546875 C52.77302775 177.42305712 53.28166066 179.49064317 53.79030037 181.55822754 C54.12465087 182.91735435 54.458985 184.27648519 54.79330254 185.63562012 C56.72753672 193.49834789 58.6673841 201.35964856 60.61753845 209.21844482 C61.57569274 213.08270793 62.52958045 216.94801496 63.48239136 220.81359863 C63.91106512 222.54808511 64.34178277 224.28206791 64.77468872 226.01550293 C65.35761907 228.3502269 65.93357483 230.68656301 66.5078125 233.0234375 C66.82492187 234.3012207 67.14203125 235.57900391 67.46875 236.89550781 C68.05882313 239.82765061 68.52633308 242.23194298 68.1328125 245.1953125 C64.53284989 247.59528758 62.87958183 247.45846116 58.59765625 247.48583984 C57.93879425 247.49255707 57.27993225 247.49927429 56.60110474 247.50619507 C54.42409723 247.52518695 52.24739767 247.52909945 50.0703125 247.53125 C48.55720899 247.53767591 47.04410674 247.54440412 45.53100586 247.55142212 C42.36015948 247.56339697 39.18942208 247.56710262 36.01855469 247.56591797 C31.95277153 247.56571449 27.88768509 247.59304502 23.82206726 247.62746239 C20.69768046 247.64968133 17.57346286 247.65375711 14.44900513 247.65269852 C12.94985548 247.65506095 11.45070161 247.66392059 9.95162964 247.67936325 C7.85657644 247.69892868 5.76304569 247.69322522 3.66796875 247.68115234 C1.87951538 247.6854274 1.87951538 247.6854274 0.05493164 247.68978882 C-2.8671875 247.1953125 -2.8671875 247.1953125 -4.68968201 245.48146057 C-5.96086524 243.01343549 -6.6480812 240.84307506 -7.24243164 238.13110352 C-7.47055038 237.11385696 -7.69866913 236.09661041 -7.93370056 235.04853821 C-8.17085281 233.94326279 -8.40800507 232.83798737 -8.65234375 231.69921875 C-9.03846581 229.95822151 -9.03846581 229.95822151 -9.43238831 228.18205261 C-10.12960061 225.02986481 -10.81797303 221.87590488 -11.50244904 218.72093201 C-12.21685045 215.43832645 -12.94261039 212.1582364 -13.66748047 208.87792969 C-14.84341596 203.55080805 -16.01336056 198.22240626 -17.17919922 192.89306641 C-18.71636596 185.86905231 -20.27348683 178.84958983 -21.83984375 171.83203125 C-22.06815384 170.80876236 -22.29646393 169.78549347 -22.5316925 168.73121643 C-22.97370191 166.75039508 -23.41576265 164.76958518 -23.85787964 162.78878784 C-24.85575889 158.31549466 -25.8507613 153.84156865 -26.84375 149.3671875 C-27.08672569 148.27521309 -27.08672569 148.27521309 -27.33460999 147.16117859 C-28.38813742 142.41028156 -29.41432579 137.65383066 -30.43295288 132.89532471 C-30.7018955 131.63926044 -30.97083813 130.38319618 -31.24793053 129.08906937 C-31.45228533 128.1341296 -31.65664013 127.17918983 -31.8671875 126.1953125 C-31.87049765 126.94591383 -31.87380779 127.69651516 -31.87721825 128.46986198 C-31.95835296 146.71324109 -32.05041383 164.95653489 -32.15471458 183.19979668 C-32.20488821 192.02201469 -32.25133047 200.84422319 -32.2890625 209.66650391 C-32.32194982 217.35382833 -32.36176277 225.04107992 -32.40997756 232.72832406 C-32.43527513 236.80062887 -32.45704665 240.87288516 -32.47053146 244.94524765 C-32.48332244 248.77507968 -32.50534433 252.60474559 -32.53457069 256.43448639 C-32.54366978 257.84300318 -32.54934211 259.25154673 -32.55140114 260.6600914 C-32.55470712 262.57745804 -32.57133045 264.49478817 -32.5887146 266.41207886 C-32.59424536 267.48688948 -32.59977612 268.5617001 -32.60547447 269.66908073 C-32.8671875 272.1953125 -32.8671875 272.1953125 -34.8671875 274.1953125 C-37.45837737 274.3928451 -39.94277968 274.46458981 -42.53515625 274.44927979 C-43.33583023 274.45239977 -44.13650421 274.45551975 -44.96144104 274.45873427 C-47.65926353 274.46674693 -50.35686312 274.46037799 -53.0546875 274.45410156 C-54.98274874 274.45680998 -56.91080895 274.46037006 -58.83886719 274.46472168 C-64.08667521 274.47386576 -69.3344049 274.47029313 -74.58221436 274.46396351 C-80.06392636 274.45891394 -85.54563149 274.46359205 -91.02734375 274.46673584 C-100.2343873 274.47037854 -109.44139881 274.46556844 -118.6484375 274.45605469 C-129.3059801 274.44516956 -139.96344619 274.44869493 -150.62098694 274.4597075 C-159.7572953 274.46877174 -168.89358057 274.47006989 -178.02989197 274.46483016 C-183.49275975 274.4617057 -188.95559153 274.46131413 -194.41845703 274.46790314 C-199.55329994 274.47366344 -204.68804381 274.46970392 -209.82287598 274.45811462 C-211.71195308 274.45546097 -213.60103845 274.45624507 -215.4901123 274.46063995 C-218.05992852 274.46606916 -220.62942326 274.45929349 -223.19921875 274.44927979 C-223.95465469 274.45374123 -224.71009064 274.45820267 -225.48841858 274.46279931 C-230.63888737 274.42361263 -230.63888737 274.42361263 -232.8671875 272.1953125 C-233.11328316 269.60661125 -233.11328316 269.60661125 -233.10769653 266.26022339 C-233.11044586 264.99535095 -233.11319519 263.73047852 -233.11602783 262.42727661 C-233.10894906 261.01776029 -233.10167944 259.60824492 -233.09423828 258.19873047 C-233.09367439 256.72062182 -233.0939903 255.24251262 -233.09512329 253.7644043 C-233.09569867 249.74394104 -233.08391458 245.72359638 -233.06997538 241.70316076 C-233.05749871 237.50443461 -233.05629994 233.30570594 -233.05392456 229.10696411 C-233.04770076 221.15257815 -233.0312778 213.19824697 -233.01122558 205.24388516 C-232.98889454 196.1896052 -232.9778802 187.13532266 -232.96783471 178.08102202 C-232.94691233 159.45242109 -232.91171891 140.8238712 -232.8671875 122.1953125 C-234.2196065 128.12021183 -235.57043459 134.04547106 -236.91992188 139.97103882 C-237.37718942 141.97792861 -237.83485776 143.98472713 -238.29296875 145.99142456 C-241.08455027 158.22104629 -243.81832864 170.45979189 -246.42272949 182.73070145 C-249.32217552 196.36239298 -252.37404117 209.95529962 -255.56884766 223.52093506 C-256.01523542 225.41820444 -256.45927338 227.31602832 -256.90087891 229.2144165 C-257.51499107 231.84920285 -258.13876063 234.48150383 -258.765625 237.11328125 C-259.04011978 238.29948814 -259.04011978 238.29948814 -259.32015991 239.50965881 C-260.63788186 244.96600686 -260.63788186 244.96600686 -262.8671875 247.1953125 C-265.71374512 247.45600891 -265.71374512 247.45600891 -269.39648438 247.4699707 C-270.40159813 247.4776371 -270.40159813 247.4776371 -271.42701721 247.48545837 C-273.6467476 247.49938333 -275.86616857 247.49839567 -278.0859375 247.49609375 C-279.62528601 247.49997876 -281.16463345 247.50431302 -282.70397949 247.50907898 C-285.93208286 247.51654718 -289.16007687 247.51624537 -292.38818359 247.51098633 C-296.53132932 247.50518717 -300.67402865 247.52213019 -304.81710052 247.545331 C-307.99634431 247.56003925 -311.17547982 247.56094411 -314.35475159 247.55782127 C-315.88262314 247.55833584 -317.41050054 247.56359877 -318.93833923 247.57363319 C-321.07182112 247.58592627 -323.20442355 247.57925038 -325.33789062 247.56762695 C-326.55319458 247.56825638 -327.76849854 247.5688858 -329.02062988 247.5695343 C-329.9599939 247.44604111 -330.89935791 247.32254791 -331.8671875 247.1953125 C-334.94940832 242.57198127 -333.49278999 238.34431737 -332.44707108 233.08063316 C-331.96659064 230.9451745 -331.4454527 228.82390119 -330.90869141 226.7019043 C-330.71163605 225.90319916 -330.51458069 225.10449402 -330.31155396 224.28158569 C-329.66111669 221.6511696 -329.00248849 219.02287961 -328.34375 216.39453125 C-327.8777909 214.51752287 -327.41233755 212.64038889 -326.94735718 210.76313782 C-325.71715603 205.80247235 -324.47997302 200.84357382 -323.24133301 195.88500977 C-322.02510686 191.01098891 -320.81560351 186.13530169 -319.60546875 181.25976562 C-315.68982921 165.49383913 -311.7550778 149.73271798 -307.80517578 133.9753418 C-307.30446025 131.97667273 -306.80375816 129.97800029 -306.30307007 127.97932434 C-305.36487337 124.23429112 -304.42491417 120.48970689 -303.48379517 116.7454071 C-300.55191848 105.06037596 -297.78620496 93.34755272 -295.125 81.59765625 C-293.80677836 75.84587656 -292.30773693 70.15065361 -290.75805664 64.45751953 C-289.24029238 58.81286182 -287.94615578 53.13434604 -286.68823242 47.42651367 C-281.83589077 25.55739874 -275.91286819 6.01461357 -256.8671875 -7.8046875 C-243.83491694 -15.79759096 -232.25970259 -18.1119056 -217.01586914 -18.04760742 C-215.53012 -18.04868204 -214.04437128 -18.05062338 -212.55862427 -18.05335999 C-208.54877825 -18.05817987 -204.53904466 -18.05059069 -200.52921224 -18.04040694 C-196.32745455 -18.03158868 -192.12569999 -18.03338455 -187.92393494 -18.0337677 C-180.87724945 -18.03283337 -173.83060722 -18.0241768 -166.78393555 -18.01049805 C-158.63187421 -17.99473228 -150.47986007 -17.98950154 -142.3277846 -17.9902336 C-134.48050917 -17.99084314 -126.63324913 -17.98574719 -118.78597832 -17.97744179 C-115.44669919 -17.97390762 -112.10742551 -17.97207837 -108.76814461 -17.97154808 C-104.84387221 -17.97054609 -100.91963966 -17.96446137 -96.9953804 -17.95438194 C-95.55297655 -17.95145385 -94.1105681 -17.9502322 -92.66816139 -17.95080948 C-90.70532941 -17.95129793 -88.74249915 -17.94504276 -86.77967834 -17.93840027 C-85.67968537 -17.93672442 -84.5796924 -17.93504858 -83.44636631 -17.93332195 C-80.8671875 -17.8046875 -80.8671875 -17.8046875 -78.8671875 -16.8046875 C-78.2071875 -17.1346875 -77.5471875 -17.4646875 -76.8671875 -17.8046875 C-48.83374685 -21.18371829 -21.70842694 -19.8930881 0 0 Z M-225.47558594 -9.67871094 C-238.99017516 -8.86747503 -250.20855625 -3.22856035 -259.8671875 6.1953125 C-267.29737284 15.04768175 -271.9973803 25.13836124 -274.67578125 36.3125 C-274.92001328 37.28798798 -275.1642453 38.26347595 -275.4158783 39.26852417 C-275.95275798 41.4170217 -276.48454885 43.56679567 -277.01190186 45.71765137 C-277.91443045 49.38740617 -278.83623205 53.05191402 -279.76220703 56.71582031 C-281.65628686 64.21342467 -283.53203719 71.71553404 -285.40472412 79.21850586 C-286.1051964 82.02300108 -286.80742792 84.82705463 -287.50959301 87.6311264 C-290.71115979 100.41959685 -293.90373199 113.20919667 -296.93322754 126.0397644 C-298.82843993 134.0629403 -300.76984957 142.07472281 -302.71484375 150.0859375 C-303.06008564 151.50849367 -303.40532591 152.93105023 -303.75056458 154.35360718 C-304.98879704 159.45487136 -306.2277615 164.55595768 -307.46697998 169.65698242 C-308.52768624 174.02322106 -309.58790249 178.3895781 -310.64745903 182.75609589 C-311.13210621 184.75257021 -311.61743483 186.74887798 -312.10279846 188.74517822 C-314.40176112 198.21895685 -316.63419103 207.70507749 -318.8671875 217.1953125 C-300.7171875 217.1953125 -282.5671875 217.1953125 -263.8671875 217.1953125 C-261.4968881 208.8992646 -259.41221797 201.22592366 -257.81005859 192.85693359 C-256.60780288 186.758617 -255.18857896 180.70872105 -253.79296875 174.65234375 C-253.50612717 173.40751221 -253.21928558 172.16268066 -252.92375183 170.88012695 C-252.32094458 168.26850797 -251.71761872 165.65701529 -251.11343384 163.04571533 C-249.53569243 156.22588771 -247.96722033 149.40392412 -246.3984375 142.58203125 C-246.24399988 141.91069153 -246.08956226 141.23935181 -245.93044472 140.54766846 C-243.30829614 129.14709184 -240.71747779 117.73997036 -238.1796875 106.3203125 C-238.02569489 105.63006989 -237.87170227 104.93982727 -237.71304321 104.22866821 C-235.63556354 94.90794993 -233.70675666 85.56538392 -231.8671875 76.1953125 C-229.5571875 76.1953125 -227.2471875 76.1953125 -224.8671875 76.1953125 C-224.5371875 133.9453125 -224.2071875 191.6953125 -223.8671875 251.1953125 C-199.7771875 251.5253125 -175.6871875 251.8553125 -150.8671875 252.1953125 C-150.8671875 256.4853125 -150.8671875 260.7753125 -150.8671875 265.1953125 C-146.2471875 265.1953125 -141.6271875 265.1953125 -136.8671875 265.1953125 C-136.57046564 235.15647322 -136.3404817 205.11768425 -136.20333822 175.07770241 C-136.18707951 171.52925687 -136.17025328 167.98081425 -136.15307617 164.43237305 C-136.14796112 163.37275069 -136.14796112 163.37275069 -136.14274273 162.29172181 C-136.08621261 150.86129747 -135.9837361 139.43172522 -135.86420115 128.00180597 C-135.74252319 116.26889695 -135.67040145 104.53643338 -135.64403707 92.80291933 C-135.62708961 86.21386853 -135.58727579 79.62674851 -135.49269676 73.03831673 C-135.40436826 66.83496775 -135.37725194 60.63434184 -135.39678764 54.43042374 C-135.39321477 52.15550997 -135.3673986 49.88050403 -135.31751633 47.60613441 C-134.60895126 36.5457359 -134.60895126 36.5457359 -138.11448693 26.43137813 C-141.55095759 23.08237077 -145.52976885 21.20360506 -149.8671875 19.1953125 C-151.94460765 17.85024302 -154.00421092 16.4767657 -156.03515625 15.0625 C-158.04086074 13.73055643 -160.04736705 12.39981947 -162.0546875 11.0703125 C-167.74333101 7.30227211 -173.41880013 3.5319796 -178.98046875 -0.421875 C-179.79451172 -0.98438965 -180.60855469 -1.5469043 -181.44726562 -2.12646484 C-183.05567558 -3.24190169 -184.64482747 -4.38565125 -186.21289062 -5.55712891 C-193.33536513 -10.48035771 -199.56706693 -10.5991706 -208.0546875 -10.3046875 C-209.34173584 -10.27842285 -210.62878418 -10.2521582 -211.95483398 -10.22509766 C-216.46587314 -10.10804645 -220.96858063 -9.8963836 -225.47558594 -9.67871094 Z M-177.8671875 -9.8046875 C-173.62776896 -6.41095053 -173.62776896 -6.41095053 -169.24194336 -3.28686523 C-168.24081764 -2.61112709 -168.24081764 -2.61112709 -167.21946716 -1.92173767 C-166.51411331 -1.44869705 -165.80875946 -0.97565643 -165.08203125 -0.48828125 C-164.34392715 0.00945297 -163.60582306 0.50718719 -162.84535217 1.02000427 C-160.49982628 2.60130733 -158.15239122 4.179745 -155.8046875 5.7578125 C-153.45367843 7.33983817 -151.10309753 8.92249119 -148.75331116 10.5063324 C-147.29496675 11.48913816 -145.83588254 12.4708473 -144.3759613 13.4513092 C-141.70345766 15.25106929 -139.07199912 17.03541045 -136.53125 19.01904297 C-134.89688098 20.41381805 -134.89688098 20.41381805 -132.58984375 20.19921875 C-128.71557839 18.77068762 -125.64248749 16.53312675 -122.3046875 14.1328125 C-120.86894223 13.123054 -119.43274084 12.11394376 -117.99609375 11.10546875 C-117.29242676 10.60805176 -116.58875977 10.11063477 -115.86376953 9.59814453 C-110.01905048 5.49154687 -104.04212692 1.57211165 -98.015625 -2.26171875 C-97.3673877 -2.67470215 -96.71915039 -3.08768555 -96.05126953 -3.51318359 C-94.78100777 -4.32036583 -93.50860413 -5.12418914 -92.23388672 -5.92431641 C-90.76155548 -6.85852828 -89.31176199 -7.82810386 -87.8671875 -8.8046875 C-87.8671875 -9.1346875 -87.8671875 -9.4646875 -87.8671875 -9.8046875 C-117.5671875 -9.8046875 -147.2671875 -9.8046875 -177.8671875 -9.8046875 Z M-81.8671875 -3.8046875 C-83.02804724 -3.02515714 -84.19185228 -2.24998394 -85.359375 -1.48046875 C-86.48887645 -0.6954311 -87.61640192 0.09245533 -88.7421875 0.8828125 C-96.6826346 6.39860352 -104.67721231 11.83264512 -112.6796875 17.2578125 C-113.93930167 18.11220664 -115.19890475 18.96661713 -116.45849609 19.82104492 C-125.32619783 25.83465272 -125.32619783 25.83465272 -128.8671875 28.1953125 C-129.16122157 31.33954723 -129.25795829 34.28667366 -129.22795105 37.43325806 C-129.23051432 38.40276882 -129.2330776 39.37227957 -129.23571855 40.37116945 C-129.24068478 43.64035303 -129.22411669 46.90908118 -129.20776367 50.17822266 C-129.20691801 52.51346323 -129.20739134 54.8487046 -129.20909119 57.1839447 C-129.20995495 63.5411308 -129.19226751 69.89814846 -129.17136931 76.25529528 C-129.15455922 82.22054336 -129.15150308 88.18578466 -129.1484137 94.15105323 C-129.14184337 105.9685726 -129.12186649 117.78602995 -129.09350586 129.60351562 C-129.0659803 141.08495777 -129.04473938 152.56638309 -129.03198242 164.04785156 C-129.03119425 164.75524407 -129.03040608 165.46263657 -129.02959403 166.19146521 C-129.02567899 169.74014873 -129.02188785 173.28883236 -129.01815832 176.83751607 C-128.98704433 206.29015489 -128.93397017 235.74273303 -128.8671875 265.1953125 C-124.2471875 265.1953125 -119.6271875 265.1953125 -114.8671875 265.1953125 C-114.5371875 260.9053125 -114.2071875 256.6153125 -113.8671875 252.1953125 C-90.1071875 251.8653125 -66.3471875 251.5353125 -41.8671875 251.1953125 C-41.5371875 193.7753125 -41.2071875 136.3553125 -40.8671875 77.1953125 C-37.4021875 76.7003125 -37.4021875 76.7003125 -33.8671875 76.1953125 C-33.66472412 77.25693604 -33.46226074 78.31855957 -33.25366211 79.41235352 C-30.16647906 95.33359012 -26.54436127 111.1319293 -22.93054199 126.93963623 C-22.26430528 129.85699959 -21.60080347 132.77498188 -20.93734837 135.69297886 C-17.82262142 149.38960554 -14.70504469 163.0850697 -11.39723206 176.73667908 C-9.98198086 182.59906549 -8.77103594 188.48178424 -7.62109375 194.40234375 C-6.71315844 198.97024628 -5.73969215 203.521243 -4.7421875 208.0703125 C-4.57130615 208.86268311 -4.4004248 209.65505371 -4.22436523 210.47143555 C-3.67721345 214.13560072 -3.67721345 214.13560072 -1.8671875 217.1953125 C-0.14853341 217.2889044 1.57396994 217.31275861 3.29516602 217.30883789 C4.94676476 217.30872459 4.94676476 217.30872459 6.63172913 217.30860901 C8.42857399 217.30086708 8.42857399 217.30086708 10.26171875 217.29296875 C11.48108627 217.2915538 12.7004538 217.29013885 13.95677185 217.28868103 C17.8696432 217.28306217 21.78245831 217.27050646 25.6953125 217.2578125 C28.34049397 217.25279993 30.98567633 217.2482366 33.63085938 217.24414062 C40.13152976 217.23308661 46.63216711 217.21633014 53.1328125 217.1953125 C52.91778076 216.31536621 52.70274902 215.43541992 52.48120117 214.52880859 C48.8175639 199.52625723 45.1567508 184.52309712 41.578125 169.5 C41.3643219 168.60245499 41.1505188 167.70490997 40.93023682 166.78016663 C40.49146842 164.93781169 40.05272764 163.09545017 39.61401367 161.25308228 C34.53307071 139.91901158 29.33134108 118.61583016 24.0793457 97.32324219 C23.51763931 95.04494692 22.95603308 92.76662695 22.39453125 90.48828125 C22.12165283 89.3811528 21.84877441 88.27402435 21.56762695 87.13334656 C19.66166329 79.38486082 17.79213206 71.62810375 15.9375 63.8671875 C13.89021984 55.31006574 11.82331045 46.76357514 9.5703125 38.2578125 C9.30541016 37.21431641 9.04050781 36.17082031 8.76757812 35.09570312 C5.05679459 21.10350514 -2.58096747 6.82461017 -15.09765625 -1.2421875 C-17.32562351 -2.49611882 -19.58343607 -3.65645626 -21.8671875 -4.8046875 C-23.2284375 -5.64 -23.2284375 -5.64 -24.6171875 -6.4921875 C-33.90801288 -10.24425159 -44.65157751 -10.22726105 -54.54321289 -10.28515625 C-56.56492478 -10.3047869 -58.58273141 -10.3672016 -60.60351562 -10.4296875 C-69.45562849 -10.49949223 -74.83080285 -9.15914897 -81.8671875 -3.8046875 Z M-320.8671875 226.1953125 C-323.02887792 233.46770562 -323.02887792 233.46770562 -322.8671875 238.1953125 C-305.0471875 238.1953125 -287.2271875 238.1953125 -268.8671875 238.1953125 C-266.77480466 232.28225584 -266.77480466 232.28225584 -265.8671875 226.1953125 C-284.0171875 226.1953125 -302.1671875 226.1953125 -320.8671875 226.1953125 Z M0.1328125 226.1953125 C0.7928125 230.1553125 1.4528125 234.1153125 2.1328125 238.1953125 C20.6128125 238.1953125 39.0928125 238.1953125 58.1328125 238.1953125 C57.1428125 234.2353125 56.1528125 230.2753125 55.1328125 226.1953125 C36.9828125 226.1953125 18.8328125 226.1953125 0.1328125 226.1953125 Z M-223.8671875 259.1953125 C-223.8671875 261.1753125 -223.8671875 263.1553125 -223.8671875 265.1953125 C-202.4171875 265.1953125 -180.9671875 265.1953125 -158.8671875 265.1953125 C-158.8671875 263.2153125 -158.8671875 261.2353125 -158.8671875 259.1953125 C-180.3171875 259.1953125 -201.7671875 259.1953125 -223.8671875 259.1953125 Z M-106.8671875 260.1953125 C-106.90782582 261.86148365 -106.9099085 263.52919345 -106.8671875 265.1953125 C-104.1072776 266.57526745 -101.94444376 266.27239478 -98.85693359 266.21704102 C-97.59577728 266.19694473 -96.33462097 266.17684845 -95.0352478 266.15614319 C-93.6537047 266.12894478 -92.27216381 266.10163397 -90.890625 266.07421875 C-89.48101557 266.04991999 -88.07139822 266.02607631 -86.66177368 266.00267029 C-82.94957474 265.93980494 -79.23751568 265.87074532 -75.52545166 265.80041504 C-71.7383868 265.72975367 -67.95122268 265.66492357 -64.1640625 265.59960938 C-56.73166105 265.47056547 -49.29939769 265.33498056 -41.8671875 265.1953125 C-41.8671875 263.2153125 -41.8671875 261.2353125 -41.8671875 259.1953125 C-50.19447697 259.17218566 -58.52175313 259.15439567 -66.84906673 259.14350033 C-70.71538868 259.13827224 -74.58168871 259.13117596 -78.44799805 259.11987305 C-82.17622151 259.1090415 -85.90442384 259.1030351 -89.63266182 259.10043526 C-91.05808406 259.09858149 -92.48350509 259.09496179 -93.90891838 259.08958244 C-95.89882158 259.08236857 -97.88874584 259.08190442 -99.87866211 259.08178711 C-101.58076088 259.07845619 -101.58076088 259.07845619 -103.31724548 259.07505798 C-105.80178055 258.90556827 -105.80178055 258.90556827 -106.8671875 260.1953125 Z " fill="#0A1A19" transform="translate(360.8671875,53.8046875)"/>
<path d="M0 0 C2.61439828 -0.2810856 4.95303038 -0.37812101 7.5625 -0.3125 C8.29049805 -0.29977051 9.01849609 -0.28704102 9.76855469 -0.27392578 C22.05566814 0.0577879 32.89231919 3.66092398 41.9375 12.375 C53.75330492 25.15230804 55.09619382 38.24915505 55.1328125 55.09375 C55 58 55 58 54 60 C51.07806137 60.97397954 49.16153095 61.13730935 46.1171875 61.16113281 C45.12605957 61.17074036 44.13493164 61.1803479 43.11376953 61.19024658 C42.04497559 61.19449646 40.97618164 61.19874634 39.875 61.203125 C38.22733643 61.21167511 38.22733643 61.21167511 36.54638672 61.22039795 C34.22299157 61.22984633 31.89958304 61.23638129 29.57617188 61.24023438 C26.01408738 61.24996153 22.45257458 61.28099575 18.890625 61.3125 C16.6354201 61.31902789 14.38021107 61.3242792 12.125 61.328125 C10.52180908 61.3466452 10.52180908 61.3466452 8.88623047 61.36553955 C7.89510254 61.36253845 6.90397461 61.35953735 5.8828125 61.35644531 C4.57401123 61.36191376 4.57401123 61.36191376 3.23876953 61.36749268 C1 61 1 61 -0.78190613 59.81158447 C-2.44666233 57.33571085 -2.37426147 55.63200633 -2.37231445 52.65820312 C-2.37854324 51.56697144 -2.38477203 50.47573975 -2.39118958 49.35144043 C-2.38197983 48.17327759 -2.37277008 46.99511475 -2.36328125 45.78125 C-2.36377975 44.57182739 -2.36427826 43.36240479 -2.36479187 42.11633301 C-2.36244981 39.55751911 -2.3527136 36.99870297 -2.33618164 34.43994141 C-2.31259462 30.5157417 -2.31561936 26.59222129 -2.32226562 22.66796875 C-2.31668889 20.18489177 -2.30957905 17.70181766 -2.30078125 15.21875 C-2.30169266 14.04058716 -2.30260406 12.86242432 -2.30354309 11.64855957 C-2.29401108 10.55732788 -2.28447906 9.46609619 -2.2746582 8.34179688 C-2.27005081 7.38043823 -2.26544342 6.41907959 -2.26069641 5.42858887 C-2 3 -2 3 0 0 Z M7 9 C7 23.19 7 37.38 7 52 C19.87 52 32.74 52 46 52 C46 38.88173417 45.44206984 29.91666719 37 20 C27.89824224 11.17722332 19.83229662 9 7 9 Z " fill="#081818" transform="translate(253,211)"/>
<path d="M0 0 C1.30324219 -0.01417969 2.60648438 -0.02835938 3.94921875 -0.04296875 C7.3125 0.1875 7.3125 0.1875 10.3125 2.1875 C10.67999268 4.54052734 10.67999268 4.54052734 10.66894531 7.5234375 C10.67194641 8.63799316 10.67494751 9.75254883 10.67803955 10.90087891 C10.66569275 12.10921387 10.65334595 13.31754883 10.640625 14.5625 C10.63875183 15.79790527 10.63687866 17.03331055 10.63494873 18.30615234 C10.62648842 21.59352717 10.60448495 24.8804674 10.57678223 28.16772461 C10.55312823 31.51284421 10.55179682 34.85792662 10.546875 38.203125 C10.53770407 40.73958814 10.52732801 43.27604728 10.515625 45.8125 C10.51137512 47.02083496 10.50712524 48.22916992 10.50274658 49.47412109 C10.49313904 50.58867676 10.48353149 51.70323242 10.47363281 52.8515625 C10.46680481 53.83592285 10.45997681 54.8202832 10.45294189 55.83447266 C10.3125 58.1875 10.3125 58.1875 9.3125 60.1875 C6.36909532 61.21822064 3.59841277 61.31394135 0.49975586 61.31689453 C-0.92676048 61.32162277 -0.92676048 61.32162277 -2.38209534 61.32644653 C-3.40198044 61.3244223 -4.42186554 61.32239807 -5.47265625 61.3203125 C-7.05160927 61.32174759 -7.05160927 61.32174759 -8.66246033 61.32321167 C-10.88573262 61.32389168 -13.10900692 61.32204987 -15.33227539 61.31787109 C-18.74044232 61.31251502 -22.14847777 61.31782491 -25.55664062 61.32421875 C-27.71614612 61.32355804 -29.87565154 61.32227703 -32.03515625 61.3203125 C-33.56802025 61.32334885 -33.56802025 61.32334885 -35.1318512 61.32644653 C-36.5536393 61.32171829 -36.5536393 61.32171829 -38.00415039 61.31689453 C-38.83813858 61.31609894 -39.67212677 61.31530334 -40.53138733 61.31448364 C-42.6875 61.1875 -42.6875 61.1875 -45.6875 60.1875 C-49.95795599 51.64658801 -46.45610882 35.61869742 -43.6875 27.1875 C-38.20748454 14.91294823 -28.51234291 6.95198008 -16.25 2.01953125 C-10.86244873 0.27021963 -5.63863182 0.02805289 0 0 Z M-28.6875 20.1875 C-36.38383548 29.37941159 -38.61703233 39.34893134 -38.6875 51.1875 C-37.4875901 52.61575986 -37.4875901 52.61575986 -33.99389648 52.30102539 C-32.34878709 52.30077427 -30.70367243 52.29521184 -29.05859375 52.28515625 C-28.29293091 52.28414917 -27.52726807 52.28314209 -26.73840332 52.28210449 C-23.86725373 52.27685663 -20.99612542 52.26289547 -18.125 52.25 C-8.5034375 52.2190625 -8.5034375 52.2190625 1.3125 52.1875 C1.3125 37.9975 1.3125 23.8075 1.3125 9.1875 C-11.50624538 9.1875 -19.59862579 11.35980034 -28.6875 20.1875 Z " fill="#081818" transform="translate(194.6875,210.8125)"/>
<path d="M0 0 C0.87430664 -0.00630432 1.74861328 -0.01260864 2.64941406 -0.019104 C4.06818848 -0.01303131 4.06818848 -0.01303131 5.515625 -0.00683594 C6.48467773 -0.00874939 7.45373047 -0.01066284 8.45214844 -0.01263428 C10.50325785 -0.01399673 12.55437586 -0.01029612 14.60546875 -0.00195312 C17.75280039 0.00874547 20.8995612 -0.00184647 24.046875 -0.01464844 C26.0364596 -0.01332685 28.02604384 -0.01076448 30.015625 -0.00683594 C30.96147461 -0.0108844 31.90732422 -0.01493286 32.88183594 -0.019104 C33.75614258 -0.01279968 34.63044922 -0.00649536 35.53125 0 C36.68802246 0.00238678 36.68802246 0.00238678 37.86816406 0.00482178 C39.765625 0.25878906 39.765625 0.25878906 41.765625 2.25878906 C42.02441406 4.38183594 42.02441406 4.38183594 42.03125 6.97753906 C42.03511719 8.37552734 42.03511719 8.37552734 42.0390625 9.80175781 C42.03132813 10.77757813 42.02359375 11.75339844 42.015625 12.75878906 C42.02722656 14.22251953 42.02722656 14.22251953 42.0390625 15.71582031 C42.03648437 16.6478125 42.03390625 17.57980469 42.03125 18.54003906 C42.02899414 19.39662109 42.02673828 20.25320312 42.02441406 21.13574219 C41.765625 23.25878906 41.765625 23.25878906 39.765625 25.25878906 C37.86816406 25.51275635 37.86816406 25.51275635 35.53125 25.51757812 C34.21979004 25.52703461 34.21979004 25.52703461 32.88183594 25.53668213 C31.46306152 25.53060944 31.46306152 25.53060944 30.015625 25.52441406 C29.04657227 25.52632751 28.07751953 25.52824097 27.07910156 25.5302124 C25.02799215 25.53157485 22.97687414 25.52787424 20.92578125 25.51953125 C17.77844961 25.50883266 14.6316888 25.5194246 11.484375 25.53222656 C9.4947904 25.53090498 7.50520616 25.52834261 5.515625 25.52441406 C4.56977539 25.52846252 3.62392578 25.53251099 2.64941406 25.53668213 C1.77510742 25.53037781 0.90080078 25.52407349 0 25.51757812 C-0.77118164 25.51598694 -1.54236328 25.51439575 -2.33691406 25.51275635 C-4.234375 25.25878906 -4.234375 25.25878906 -6.234375 23.25878906 C-6.49316406 21.13574219 -6.49316406 21.13574219 -6.5 18.54003906 C-6.50257813 17.60804687 -6.50515625 16.67605469 -6.5078125 15.71582031 C-6.50007812 14.74 -6.49234375 13.76417969 -6.484375 12.75878906 C-6.49210938 11.78296875 -6.49984375 10.80714844 -6.5078125 9.80175781 C-6.50523437 8.86976562 -6.50265625 7.93777344 -6.5 6.97753906 C-6.49774414 6.12095703 -6.49548828 5.264375 -6.49316406 4.38183594 C-5.98332492 0.19923107 -3.65652638 0.00754455 0 0 Z M2.765625 9.25878906 C2.765625 11.89878906 2.765625 14.53878906 2.765625 17.25878906 C12.665625 17.25878906 22.565625 17.25878906 32.765625 17.25878906 C32.765625 14.61878906 32.765625 11.97878906 32.765625 9.25878906 C22.865625 9.25878906 12.965625 9.25878906 2.765625 9.25878906 Z " fill="#0A1A19" transform="translate(163.234375,96.7412109375)"/>
<path d="M0 0 C1.89746094 -0.3742218 1.89746094 -0.3742218 4.234375 -0.37231445 C5.10868164 -0.37854324 5.98298828 -0.38477203 6.88378906 -0.39118958 C8.30256348 -0.37737495 8.30256348 -0.37737495 9.75 -0.36328125 C11.2035791 -0.36402901 11.2035791 -0.36402901 12.68652344 -0.36479187 C14.73765104 -0.36244884 16.78878138 -0.35270694 18.83984375 -0.33618164 C21.9872395 -0.31259562 25.13378841 -0.31561814 28.28125 -0.32226562 C30.27083841 -0.31668893 32.26042323 -0.30957911 34.25 -0.30078125 C35.19584961 -0.30169266 36.14169922 -0.30260406 37.11621094 -0.30354309 C38.4276709 -0.28924507 38.4276709 -0.28924507 39.765625 -0.2746582 C40.53680664 -0.27005081 41.30798828 -0.26544342 42.10253906 -0.26069641 C44 0 44 0 46 2 C46.25878906 4.12304688 46.25878906 4.12304688 46.265625 6.71875 C46.26949219 8.11673828 46.26949219 8.11673828 46.2734375 9.54296875 C46.26570313 10.51878906 46.25796875 11.49460937 46.25 12.5 C46.26160156 13.96373047 46.26160156 13.96373047 46.2734375 15.45703125 C46.27085937 16.38902344 46.26828125 17.32101563 46.265625 18.28125 C46.26336914 19.13783203 46.26111328 19.99441406 46.25878906 20.87695312 C46 23 46 23 44 25 C42.10253906 25.26069641 42.10253906 25.26069641 39.765625 25.2746582 C38.45416504 25.28895622 38.45416504 25.28895622 37.11621094 25.30354309 C35.69743652 25.30217598 35.69743652 25.30217598 34.25 25.30078125 C32.7964209 25.30720894 32.7964209 25.30720894 31.31347656 25.31376648 C29.26237775 25.31951558 27.21125854 25.32000579 25.16015625 25.31567383 C22.01266928 25.31251272 18.86612073 25.33596993 15.71875 25.36132812 C13.72916786 25.36360085 11.73958318 25.36430474 9.75 25.36328125 C8.80415039 25.372491 7.85830078 25.38170074 6.88378906 25.39118958 C6.00948242 25.38496078 5.13517578 25.37873199 4.234375 25.37231445 C3.07760254 25.37325859 3.07760254 25.37325859 1.89746094 25.3742218 C1.27129883 25.25072861 0.64513672 25.12723541 0 25 C-2.06935577 21.89596635 -2.25517909 21.18099981 -2.265625 17.65625 C-2.26820313 16.82222656 -2.27078125 15.98820312 -2.2734375 15.12890625 C-2.26570312 14.26136719 -2.25796875 13.39382812 -2.25 12.5 C-2.25773438 11.63246094 -2.26546875 10.76492187 -2.2734375 9.87109375 C-2.26957031 8.62005859 -2.26957031 8.62005859 -2.265625 7.34375 C-2.26336914 6.58255859 -2.26111328 5.82136719 -2.25878906 5.03710938 C-2 3 -2 3 0 0 Z M7 9 C7 11.64 7 14.28 7 17 C11.25414623 17.02465622 15.50825498 17.04283899 19.76245117 17.05493164 C21.21070073 17.05997101 22.65894517 17.06680253 24.10717773 17.07543945 C26.18474588 17.08752247 28.26224697 17.09323211 30.33984375 17.09765625 C31.59144287 17.10289307 32.84304199 17.10812988 34.13256836 17.11352539 C36.89732294 17.32887035 36.89732294 17.32887035 38 16 C38 13.69 38 11.38 38 9 C27.77 9 17.54 9 7 9 Z " fill="#0A1A19" transform="translate(253,97)"/>
<path d="M0 0 C0.33 0 0.66 0 1 0 C1.33 1.65 1.66 3.3 2 5 C2.78482758 4.99555878 3.56965515 4.99111755 4.37826538 4.98654175 C11.76513958 4.94651083 19.15196138 4.91603901 26.53891563 4.89637566 C30.33686312 4.88592679 34.13472118 4.87174764 37.93261719 4.84912109 C41.59601346 4.82743179 45.25932357 4.81543969 48.92277908 4.81024551 C50.32226544 4.80654269 51.72174695 4.79931223 53.12119675 4.78853989 C55.07733331 4.77407775 57.03355609 4.77318353 58.98974609 4.77294922 C60.66186661 4.76628738 60.66186661 4.76628738 62.36776733 4.75949097 C65 5 65 5 67 7 C66.67 7.66 66.34 8.32 66 9 C44.55 9 23.1 9 1 9 C-0.4783226 6.04335481 -0.06032783 3.25770263 0 0 Z " fill="#14201F" transform="translate(253,314)"/>
</svg>
