<?xml version="1.0" encoding="UTF-8"?>
<svg version="1.1" xmlns="http://www.w3.org/2000/svg" width="443" height="363">
<path d="M0 0 C3.5610215 0.00259751 7.12204091 0.00016634 10.68306255 -0.00138617 C16.64972183 -0.00318598 22.61636857 -0.00085899 28.58302593 0.00395441 C35.41435664 0.00940281 42.24565751 0.00762122 49.0769875 0.00212801 C55.02090875 -0.00245436 60.96482118 -0.00302924 66.90874362 -0.00043333 C70.42462924 0.00110034 73.94050097 0.00140548 77.45638561 -0.00196981 C90.24163035 -0.01245638 103.01960696 0.00914859 115.79591656 0.53325129 C116.66022415 0.56568871 117.52453175 0.59812613 118.41503048 0.6315465 C136.20442194 1.48589511 149.46349862 8.23813454 161.41017437 21.29448175 C174.09227391 36.68619287 178.47099608 57.50142917 183.27189922 76.40858698 C184.54595582 81.42369165 185.84211145 86.4330921 187.13673687 91.44291925 C187.53835789 92.9995302 187.53835789 92.9995302 187.94809246 94.58758783 C191.44435997 108.10049545 195.12609353 121.56328259 198.80494976 135.02739191 C201.83021993 146.11532988 204.76825124 157.22249164 207.64013958 168.3511529 C209.97557431 177.39256101 212.3480968 186.42368622 214.73829937 195.45073175 C214.92406473 196.15235123 215.10983009 196.8539707 215.30122471 197.57685137 C216.44460036 201.89434042 217.58903441 206.21154839 218.73378277 210.52867365 C219.68500024 214.11649465 220.63545142 217.70451861 221.58595562 221.29252863 C223.09849678 227.00171662 224.61115618 232.71087325 226.12404156 238.41997004 C226.40490927 239.47988626 226.40490927 239.47988626 226.69145107 240.56121492 C227.89661243 245.10885348 229.10242735 249.65631836 230.3085413 254.20370436 C231.13401905 257.31643833 231.95903499 260.4292946 232.78395748 263.54217577 C233.17536228 265.01873779 233.56696593 266.49524711 233.95878506 267.97169924 C234.14463287 268.6720372 234.33048069 269.37237516 234.52196026 270.09393549 C234.70181784 270.7711575 234.88167542 271.44837952 235.06698322 272.14612341 C235.56978909 274.04847662 236.06512415 275.95279966 236.56013775 277.85719538 C237.08367401 279.82141665 237.63326818 281.77936957 238.23433208 283.72127008 C239.6993082 288.57773086 239.6993082 288.57773086 238.3952055 291.30963373 C235.53520697 293.9700297 233.47066304 293.62898395 229.60719585 293.62016535 C228.91746685 293.62396204 228.22773785 293.62775873 227.51710796 293.63167048 C225.2375111 293.63907952 222.95918914 293.61769285 220.67970562 293.595263 C219.09694856 293.59287892 217.51418864 293.59197318 215.93142986 293.5924859 C212.61500099 293.58935745 209.2990043 293.57278774 205.98268414 293.5459466 C201.72640111 293.51193869 197.4705925 293.50431874 193.21418953 293.50583696 C189.94657116 293.50529382 186.67905703 293.49433616 183.41147327 293.47983408 C181.84175245 293.47345928 180.27201979 293.46952559 178.70228672 293.46804667 C176.51152973 293.46372233 174.32128148 293.44624176 172.13063335 293.42485285 C170.25890705 293.41341745 170.25890705 293.41341745 168.3493681 293.40175104 C165.43361187 293.1343255 165.43361187 293.1343255 163.43361187 291.1343255 C162.81828594 289.36331415 162.81828594 289.36331415 162.29542828 287.18681574 C162.09358425 286.36215311 161.89174023 285.53749048 161.68377972 284.68783808 C161.46973995 283.78201487 161.25570019 282.87619165 161.03517437 281.94291925 C160.80441708 280.99193857 160.57365978 280.04095789 160.33590984 279.06115961 C159.5702681 275.8995893 158.81455974 272.73572638 158.05861187 269.5718255 C157.52233405 267.35061561 156.98529469 265.12958945 156.44752789 262.90873957 C155.32844197 258.2846097 154.21266812 253.6596989 153.09913921 249.03422785 C150.79078648 239.45683432 148.44133783 229.88956486 146.09224224 220.32210016 C144.96342502 215.72347175 143.83705047 211.1242462 142.71095562 206.5249505 C142.37025036 205.1336165 142.37025036 205.1336165 142.02266216 203.71417475 C137.48737461 185.18893002 132.96167393 166.66133732 128.43361187 148.1343255 C128.43729904 148.85216085 128.44098621 149.5699962 128.44478512 150.30958414 C128.53308914 167.76910926 128.59929851 185.22857772 128.64086056 202.68827677 C128.66149345 211.13163757 128.68962782 219.57484939 128.73536968 228.01811457 C128.77521534 235.37652998 128.8010394 242.73483751 128.80996585 250.0933578 C128.8151845 253.99036639 128.82746493 257.88706633 128.8565321 261.78397608 C128.88366558 265.45133001 128.89206123 269.11824791 128.88604259 272.78569269 C128.88766917 274.7745391 128.90920282 276.76333792 128.93129253 278.75206232 C128.92579388 279.93554255 128.92029522 281.11902277 128.91462994 282.33836603 C128.91831711 283.367087 128.92200428 284.39580797 128.92580318 285.4557023 C128.27870681 288.97735602 127.3760833 290.10484215 124.43361187 292.1343255 C121.18552589 292.62931013 121.18552589 292.62931013 117.25317669 292.6220727 C116.16704203 292.62825759 116.16704203 292.62825759 115.05896527 292.63456744 C112.63194923 292.64349974 110.2060123 292.62383515 107.77907085 292.60429621 C106.03952688 292.60480496 104.29998266 292.60706036 102.56044292 292.61093378 C97.83526857 292.61635857 93.11048548 292.59692731 88.38538146 292.57283282 C83.44468849 292.55155999 78.50399729 292.55213255 73.5632658 292.55014277 C65.26680535 292.54369268 56.97049221 292.52243535 48.67409039 292.49101496 C38.01823729 292.45071246 27.36248019 292.4333261 16.70656013 292.42370558 C7.5534071 292.41540891 -1.59972552 292.39817024 -10.75286078 292.37866807 C-13.69916657 292.37259878 -16.64547313 292.36745794 -19.59178066 292.36231661 C-24.21694054 292.35354179 -28.84205278 292.33924117 -33.46718311 292.32060671 C-35.16716902 292.31447841 -36.86716193 292.31003149 -38.56715679 292.30736399 C-40.88246226 292.30338946 -43.1976596 292.29327812 -45.51293659 292.28149652 C-47.45888391 292.2750863 -47.45888391 292.2750863 -49.4441433 292.26854658 C-52.56638813 292.1343255 -52.56638813 292.1343255 -55.56638813 291.1343255 C-56.87803859 288.51102459 -56.70607245 286.55581213 -56.72460651 283.61683893 C-56.73439533 282.44452219 -56.74418415 281.27220545 -56.7542696 280.06436396 C-56.76002506 278.77180185 -56.76578053 277.47923975 -56.7717104 276.1475091 C-56.78128673 274.77777036 -56.79129666 273.40803459 -56.80170918 272.03830194 C-56.82879087 268.31335153 -56.84978272 264.58838841 -56.86971116 260.86339378 C-56.89155061 256.97293727 -56.91894927 253.08252009 -56.9457674 249.19209528 C-56.99572194 241.82212059 -57.04065051 234.4521241 -57.08378977 227.08210671 C-57.13313857 218.6928349 -57.18806543 210.30360254 -57.24346936 201.91436887 C-57.35733178 184.65439087 -57.46416152 167.39437626 -57.56638813 150.1343255 C-57.73737711 150.85558807 -57.90836609 151.57685064 -58.08453655 152.31996965 C-59.73418212 159.27709153 -61.38553537 166.23380563 -63.03859174 173.19011772 C-63.88742254 176.76236861 -64.73569695 180.33474928 -65.58247089 183.90748835 C-71.63231275 209.42996446 -77.93029201 234.88424349 -84.36928654 260.31155252 C-85.62794374 265.28550713 -86.83679958 270.2654336 -87.96775532 275.27006769 C-88.30037876 276.72816355 -88.30037876 276.72816355 -88.63972187 278.21571589 C-89.05275182 280.04055586 -89.45668638 281.86748806 -89.84974384 283.69673395 C-90.03257923 284.50291162 -90.21541462 285.3090893 -90.40379047 286.1396966 C-90.55697742 286.84226587 -90.71016438 287.54483515 -90.86799335 288.2686944 C-91.76358821 290.66110866 -92.44800421 291.67265425 -94.56638813 293.1343255 C-97.56443501 293.51527643 -97.56443501 293.51527643 -101.28513813 293.5225091 C-102.30269184 293.53039454 -102.30269184 293.53039454 -103.34080219 293.53843927 C-105.58289848 293.55164186 -107.82428464 293.54290088 -110.06638813 293.532763 C-111.62433223 293.53478368 -113.1822754 293.53769507 -114.74021626 293.54146051 C-118.00528183 293.54588419 -121.27010118 293.53945159 -124.53513813 293.52543879 C-128.72190162 293.50834663 -132.9080882 293.51818761 -137.09483051 293.53615618 C-140.31187512 293.54699297 -143.52878278 293.54354821 -146.74583149 293.5357728 C-148.28961473 293.53377049 -149.83341038 293.53623117 -151.37717915 293.54321146 C-153.53433417 293.55082451 -155.69055291 293.53922523 -157.84763813 293.5225091 C-159.07547016 293.52012232 -160.30330219 293.51773554 -161.56834126 293.51527643 C-164.56638813 293.1343255 -164.56638813 293.1343255 -166.49572468 291.80121088 C-167.96562563 289.51276404 -167.55577179 287.79816813 -167.05341816 285.20710993 C-166.09781605 281.14009752 -165.06715769 277.10091801 -163.97654438 273.06791925 C-163.71666233 272.09371027 -163.45678028 271.11950129 -163.18902302 270.11577082 C-162.33932141 266.93345969 -161.4841086 263.75265747 -160.62888813 260.5718255 C-159.73413182 257.22693607 -158.84071021 253.88169184 -157.94730854 250.53644037 C-157.3460272 248.28552758 -156.74425964 246.03474461 -156.14201069 243.78409052 C-154.36616899 237.14494854 -152.60508273 230.50224533 -150.86716938 223.8530755 C-150.66213795 223.06875147 -150.45710651 222.28442743 -150.24586201 221.476336 C-149.84269253 219.93361231 -149.43956473 218.39087773 -149.0364809 216.84813166 C-145.19643814 202.15947576 -141.21640533 187.51299105 -137.16895771 172.88020563 C-133.73773453 160.47090601 -130.42560078 148.03939646 -127.22654438 135.56791925 C-125.15374253 127.49769548 -122.99220425 119.45147086 -120.83176899 111.40434504 C-118.79226393 103.78844091 -116.7930017 96.16335578 -114.82420063 88.52885675 C-114.1007894 85.73322605 -113.37700092 82.9376932 -112.65318012 80.14216852 C-112.18743648 78.33764156 -111.72388763 76.53254636 -111.26279926 74.72682428 C-108.90606563 65.49924402 -106.42758609 56.34745026 -103.43748188 47.30229425 C-103.08108128 46.21872644 -103.08108128 46.21872644 -102.71748066 45.11326838 C-97.12584939 28.62703276 -87.25713786 14.79517344 -71.81638813 6.4468255 C-62.48005219 2.06894112 -52.95576884 0.6748978 -42.73142719 0.45512629 C-41.06056238 0.40549581 -41.06056238 0.40549581 -39.35594273 0.35486269 C-26.24008272 0.00342075 -13.11966581 -0.01264362 0 0 Z M-10.56638813 8.1343255 C-9.28670266 10.69369645 -8.32677482 10.85225675 -5.71873188 11.9468255 C-4.89816303 12.29624201 -4.07759418 12.64565851 -3.23215961 13.00566339 C-1.38039545 13.77172207 0.47302051 14.53379767 2.32789898 15.29228449 C7.4949423 17.41752563 12.5099794 19.64595137 17.46486187 22.23198175 C28.46538737 28.1124392 28.46538737 28.1124392 40.51954937 28.3687005 C44.79764769 26.87087465 48.7192265 24.80142811 52.67335796 22.60161066 C58.01241899 19.76349313 63.62996172 17.51535833 69.18361187 15.1343255 C71.34673758 14.17976169 73.50834697 13.22174973 75.66798687 12.2593255 C76.58805523 11.84940363 77.50812359 11.43948175 78.45607281 11.017138 C79.1086607 10.72580988 79.76124859 10.43448175 80.43361187 10.1343255 C80.43361187 9.8043255 80.43361187 9.4743255 80.43361187 9.1343255 C50.40361187 8.8043255 20.37361187 8.4743255 -10.56638813 8.1343255 Z M-81.62888813 24.77104425 C-87.49705286 31.9287855 -91.58597741 39.37469964 -94.41795063 48.126513 C-94.67107014 48.89856073 -94.92418964 49.67060846 -95.18497944 50.46605158 C-98.46120945 60.66036415 -101.1190403 71.02552241 -103.81638813 81.3843255 C-104.38654511 83.55537172 -104.95727328 85.72626801 -105.52854633 87.89702082 C-106.95064161 93.30557148 -108.36643789 98.71574557 -109.78007221 104.126513 C-110.94377755 108.577914 -112.11211215 113.02809399 -113.28123188 117.4780755 C-113.55284893 118.51272943 -113.55284893 118.51272943 -113.82995319 119.56828547 C-114.21874483 121.04853144 -114.60789853 122.52868233 -114.99732685 124.00876093 C-115.41739951 125.60538777 -115.83731799 127.20205528 -116.25661564 128.79888582 C-118.99606536 139.23044239 -121.77431333 149.65058013 -124.59863186 160.05946779 C-129.94287241 179.76126449 -135.21121823 199.48309739 -140.4659853 219.20891047 C-141.36995579 222.60156724 -142.27465311 225.99403004 -143.1793499 229.38649321 C-144.05890481 232.68489186 -144.93813666 235.98337657 -145.81725597 239.28189135 C-146.23222686 240.83882268 -146.64727094 242.39573451 -147.06239223 243.95262575 C-147.63378049 246.09587264 -148.20475984 248.23922803 -148.77561665 250.38261652 C-149.25998943 252.2004439 -149.25998943 252.2004439 -149.75414753 254.05499506 C-150.37541219 256.41030602 -150.97560303 258.77118512 -151.56638813 261.1343255 C-132.42638813 261.1343255 -113.28638813 261.1343255 -93.56638813 261.1343255 C-86.35958205 232.60638426 -86.35958205 232.60638426 -79.61472797 203.96879816 C-77.84399751 196.19189052 -75.85713376 188.48582023 -73.80662251 180.77861261 C-71.99774834 173.92697589 -70.3733997 167.04715348 -68.81638813 160.1343255 C-65.77391042 146.63372547 -62.30544788 133.24811456 -58.81736469 119.85698175 C-58.60254444 119.02908136 -58.38772419 118.20118097 -58.16639423 117.34819269 C-57.7590677 115.77926076 -57.34963279 114.21087428 -56.93781757 112.64311457 C-55.92423748 108.93771586 -55.92423748 108.93771586 -55.56638813 105.1343255 C-52.62888813 105.5093255 -52.62888813 105.5093255 -49.56638813 106.1343255 C-48.07804995 109.11100186 -48.38743816 112.16351702 -48.36106586 115.42973566 C-48.35116627 116.18105265 -48.34126667 116.93236963 -48.33106709 117.7064538 C-48.2994229 120.19539957 -48.27468318 122.68436444 -48.24998188 125.173388 C-48.22941487 126.89689369 -48.20841846 128.62039429 -48.18700886 130.34388971 C-48.13176206 134.8845279 -48.0823643 139.42521181 -48.03416157 143.96592951 C-47.98396557 148.59762383 -47.92826959 153.22925159 -47.87302876 157.860888 C-47.76541529 166.95197701 -47.66397741 176.04312375 -47.56638813 185.1343255 C-46.7400185 185.46988459 -45.91364887 185.80544367 -45.06223774 186.15117121 C-43.97950581 186.59549494 -42.89677387 187.03981867 -41.78123188 187.49760675 C-40.70736225 187.93629084 -39.63349262 188.37497492 -38.52708149 188.82695246 C-30.82572343 192.22769233 -27.7890869 197.55905749 -24.56638813 205.1343255 C-21.2517 215.07838988 -23.16329182 228.22288247 -27.70310688 237.44291925 C-30.45559166 242.17510918 -33.5919257 245.64709429 -38.56638813 248.1343255 C-41.55774883 248.57169052 -44.55713298 248.83339999 -47.56638813 249.1343255 C-47.56638813 255.0743255 -47.56638813 261.0143255 -47.56638813 267.1343255 C-21.49638813 267.1343255 4.57361187 267.1343255 31.43361187 267.1343255 C31.43361187 192.5543255 31.43361187 117.9743255 31.43361187 41.1343255 C24.58234511 43.41808109 18.02777648 45.87849033 11.37501812 48.6343255 C3.18315715 51.83194696 -4.16927451 53.67441156 -13.00388813 53.5718255 C-13.92258686 53.56425226 -14.84128559 53.55667902 -15.78782368 53.54887629 C-27.94712815 53.25364816 -36.60467675 49.24507967 -45.06638813 40.5718255 C-47.92182577 34.02811425 -47.79415665 27.34401116 -45.24998188 20.69291925 C-43.78844817 17.76633006 -42.24207643 14.94261199 -40.56638813 12.1343255 C-40.23638813 11.4743255 -39.90638813 10.8143255 -39.56638813 10.1343255 C-56.128021 9.5308652 -69.80068209 12.10818658 -81.62888813 24.77104425 Z M114.43361187 10.1343255 C115.06589703 11.36409113 115.06589703 11.36409113 115.71095562 12.6187005 C116.25880718 13.69635675 116.80665874 14.774013 117.37111187 15.8843255 C117.91638531 16.95166925 118.46165874 18.019013 119.02345562 19.1187005 C121.5034853 24.42225427 122.11507649 29.31718546 121.43361187 35.1343255 C118.25937015 42.80540965 112.29039824 48.17090911 104.74611187 51.5718255 C81.94604489 58.8034257 61.1402844 47.85292447 40.43361187 39.1343255 C40.43361187 114.3743255 40.43361187 189.6143255 40.43361187 267.1343255 C66.50361187 267.1343255 92.57361187 267.1343255 119.43361187 267.1343255 C119.43361187 260.8643255 119.43361187 254.5943255 119.43361187 248.1343255 C116.71111187 247.360888 116.71111187 247.360888 113.93361187 246.5718255 C106.31738988 244.01212825 100.87724208 240.3256145 97.05861187 233.1343255 C91.71470412 221.54753487 91.99505938 208.91616721 96.17579937 197.017138 C99.07436858 190.37383341 102.54279614 185.99720842 109.11329937 182.82573175 C112.45413273 181.83023091 115.97453212 181.56671047 119.43361187 181.1343255 C119.76361187 156.7143255 120.09361187 132.2943255 120.43361187 107.1343255 C121.75361187 106.4743255 123.07361187 105.8143255 124.43361187 105.1343255 C127.36992022 107.58901985 128.12153233 109.74700478 129.04689312 113.41948175 C129.32597515 114.51067316 129.60505718 115.60186457 129.89259624 116.72612238 C130.1742564 117.87145441 130.45591656 119.01678644 130.74611187 120.1968255 C131.01617046 121.25321222 131.28622906 122.30959894 131.56447124 123.39799738 C133.30003712 130.27305218 134.90746299 137.17372682 136.48852825 144.08560419 C139.59071386 157.64727965 142.89117873 171.1493303 146.2999754 184.63695002 C151.53148655 205.3429297 156.6346516 226.07377888 161.50099468 246.8687005 C161.694631 247.6927035 161.88826733 248.51670649 162.08777142 249.36567926 C162.44519966 250.88790353 162.80046242 252.41063861 163.15310955 253.9339776 C164.00740787 257.63210678 164.00740787 257.63210678 165.43361187 261.1343255 C184.24361187 261.1343255 203.05361187 261.1343255 222.43361187 261.1343255 C219.98529567 250.72898166 217.51009485 240.38835656 214.74611187 230.0718255 C214.37402844 228.67508412 214.00221626 227.27827045 213.63063335 225.88139582 C212.75948073 222.6078103 211.88694731 219.33459628 211.01368999 216.0615716 C208.04075731 204.91451393 205.08160398 193.76378157 202.11970806 182.61378717 C201.36965419 179.79028142 200.61944554 176.96681687 199.86909771 174.14338923 C195.5178389 157.77024743 191.1746743 141.39508309 186.87111187 125.0093255 C183.08204758 110.5872445 179.2816207 96.16865302 175.40577984 81.76957941 C174.56629093 78.6304559 173.73914431 75.48837607 172.91702557 72.34466791 C164.51039273 39.08222488 164.51039273 39.08222488 141.36329937 14.81791925 C132.52715747 10.12263601 124.2688825 9.86445527 114.43361187 10.1343255 Z M93.47218609 12.72319269 C92.68061108 13.07065546 91.88903606 13.41811823 91.07347393 13.77611017 C90.22036633 14.15728998 89.36725872 14.53846979 88.48829937 14.9312005 C87.60385143 15.32124262 86.7194035 15.71128473 85.80815411 16.11314631 C82.97266118 17.36505084 80.14062974 18.62458241 77.30861187 19.8843255 C75.42341745 20.7181615 73.53800317 21.5515006 71.65236187 22.3843255 C66.57655405 24.62784115 61.50440785 26.87950921 56.43361187 29.1343255 C54.73065977 29.89118425 53.02769795 30.64802115 51.32472515 31.40483332 C50.02768406 31.98132321 48.73064499 32.55781766 47.43361187 33.1343255 C60.61539844 41.92218322 78.6086612 47.9034539 94.43361187 46.1343255 C100.90105879 44.52159897 108.60385495 42.13206934 112.59767437 36.48979425 C114.80347499 32.08715968 114.46847948 29.07638552 112.93361187 24.4468255 C110.26552714 18.12215252 106.60041664 14.21772789 100.43361187 11.1343255 C97.41921666 11.1343255 96.1615603 11.53173679 93.47218609 12.72319269 Z M-33.56638813 16.1343255 C-36.87727495 21.1288335 -39.46673131 26.04153231 -39.75388813 32.0718255 C-37.61749172 37.58147941 -32.81183282 41.68194418 -27.44529438 44.08354425 C-9.03742581 49.95047032 7.83743289 42.89810963 24.43361187 35.1343255 C24.43361187 34.4743255 24.43361187 33.8143255 24.43361187 33.1343255 C18.46058768 30.50030117 12.4857096 27.87059653 6.50783062 25.24760675 C1.93976959 23.24197875 -2.61944436 21.21817264 -7.17185688 19.17729425 C-9.21999343 18.26704679 -11.26816884 17.35688676 -13.31638813 16.4468255 C-14.27295307 16.01321711 -15.22951801 15.57960871 -16.21506977 15.13286066 C-17.10959858 14.73760187 -18.00412739 14.34234308 -18.92576313 13.93510675 C-19.70403461 13.58617365 -20.4823061 13.23724054 -21.28416157 12.87773371 C-26.73169058 11.10326582 -29.54251161 12.16943089 -33.56638813 16.1343255 Z M110.30861187 190.6968255 C103.0478784 196.85266475 101.68305909 203.86588506 100.43361187 213.1343255 C100.1596248 220.73219778 102.03007498 228.11426704 107.00783062 233.9937005 C111.36528263 238.10635184 112.81217304 238.18840567 119.43361187 239.1343255 C119.43361187 222.9643255 119.43361187 206.7943255 119.43361187 190.1343255 C113.76599015 188.58521208 113.76599015 188.58521208 110.30861187 190.6968255 Z M-47.56638813 194.1343255 C-47.56638813 208.9843255 -47.56638813 223.8343255 -47.56638813 239.1343255 C-42.07621947 241.726383 -42.07621947 241.726383 -39.00388813 239.9468255 C-32.35031731 232.2696284 -30.13160502 223.15918186 -30.56638813 213.1343255 C-31.53973591 207.31797904 -33.19616083 202.2617624 -37.56638813 198.1343255 C-40.81817174 195.87965632 -43.49835697 194.1343255 -47.56638813 194.1343255 Z M-153.56638813 270.1343255 C-156.69794683 279.71641504 -156.69794683 279.71641504 -156.56638813 284.1343255 C-137.75638813 284.1343255 -118.94638813 284.1343255 -99.56638813 284.1343255 C-96.43482943 274.55223597 -96.43482943 274.55223597 -96.56638813 270.1343255 C-115.37638813 270.1343255 -134.18638813 270.1343255 -153.56638813 270.1343255 Z M167.43361187 270.1343255 C168.75361187 274.7543255 170.07361187 279.3743255 171.43361187 284.1343255 C190.24361187 284.1343255 209.05361187 284.1343255 228.43361187 284.1343255 C227.60388292 276.48570553 227.60388292 276.48570553 224.43361187 270.1343255 C222.65369263 270.04061926 220.87004448 270.0168828 219.0876646 270.02080011 C217.37600361 270.02091341 217.37600361 270.02091341 215.6297636 270.021029 C213.7672974 270.02877092 213.7672974 270.02877092 211.86720562 270.03666925 C210.60344601 270.0380842 209.33968639 270.03949915 208.03763103 270.04095697 C204.67236298 270.04561968 201.30716197 270.0546107 197.94191265 270.06566095 C194.51011517 270.07587704 191.07831078 270.08045502 187.64650249 270.08549738 C180.90885123 270.09655171 174.17124076 270.11382914 167.43361187 270.1343255 Z M-47.56638813 275.1343255 C-47.56638813 277.7743255 -47.56638813 280.4143255 -47.56638813 283.1343255 C-21.49638813 283.1343255 4.57361187 283.1343255 31.43361187 283.1343255 C31.43361187 280.4943255 31.43361187 277.8543255 31.43361187 275.1343255 C5.36361187 275.1343255 -20.70638813 275.1343255 -47.56638813 275.1343255 Z M40.43361187 275.1343255 C40.43361187 277.7743255 40.43361187 280.4143255 40.43361187 283.1343255 C66.50361187 283.1343255 92.57361187 283.1343255 119.43361187 283.1343255 C119.43361187 280.4943255 119.43361187 277.8543255 119.43361187 275.1343255 C93.36361187 275.1343255 67.29361187 275.1343255 40.43361187 275.1343255 Z " fill="#091918" transform="translate(183.566388130188,33.86567449569702)"/>
<path d="M0 0 C0.33 0 0.66 0 1 0 C1 41.58 1 83.16 1 126 C0.67 126 0.34 126 0 126 C-0.33 87.39 -0.66 48.78 -1 9 C-1.33 9 -1.66 9 -2 9 C-2.25 3.375 -2.25 3.375 0 0 Z " fill="#000E0D" transform="translate(127,175)"/>
<path d="M0 0 C0.33 0.66 0.66 1.32 1 2 C-0.36328125 4.6796875 -0.36328125 4.6796875 -2.3125 7.875 C-5.32781149 12.8438586 -5.32781149 12.8438586 -8 18 C-8.33 17.34 -8.66 16.68 -9 16 C-7.8203125 13.21484375 -7.8203125 13.21484375 -6.125 9.9375 C-5.57070312 8.85339844 -5.01640625 7.76929688 -4.4453125 6.65234375 C-3 4 -3 4 -2 3 C-6.95 3 -11.9 3 -17 3 C-17 2.34 -17 1.68 -17 1 C-11.30494264 0.3583034 -5.73266804 -0.12462322 0 0 Z " fill="#000F0E" transform="translate(145,42)"/>
</svg>
