<?xml version="1.0" encoding="UTF-8"?>
<svg version="1.1" xmlns="http://www.w3.org/2000/svg" width="192" height="250">
<path d="M0 0 C0.846194 -0.00671722 1.692388 -0.01343445 2.56422424 -0.02035522 C5.35562041 -0.03931894 8.14677588 -0.04325872 10.93823242 -0.04541016 C12.88490395 -0.05183963 14.83157451 -0.05856811 16.77824402 -0.06558228 C20.85771931 -0.07755127 24.93710995 -0.08126353 29.01660156 -0.08007812 C34.23192108 -0.07987506 39.44669495 -0.10716656 44.66188526 -0.14162254 C48.68290171 -0.16391301 52.70378734 -0.16791499 56.72485924 -0.16685867 C58.64690721 -0.1692118 60.56895894 -0.17801902 62.49094582 -0.19352341 C65.18575323 -0.2132252 67.87939055 -0.20732897 70.57421875 -0.1953125 C71.75359009 -0.21217102 71.75359009 -0.21217102 72.95678711 -0.22937012 C79.91165485 -0.15097333 84.98616735 2.13572541 90.23120117 6.66552734 C95.80540278 13.16876255 97.60024716 17.39146036 97.62164307 25.82989502 C97.62461419 26.48512012 97.62758531 27.14034523 97.63064647 27.81542563 C97.63931262 30.00928763 97.64083995 32.20309491 97.64233398 34.39697266 C97.64696366 35.97077043 97.65198852 37.54456708 97.65737915 39.11836243 C97.67049138 43.39331934 97.6769459 47.66826056 97.68138981 51.94323444 C97.68432264 54.61543552 97.68842787 57.28763232 97.69289398 59.95983124 C97.70656627 68.32447485 97.71623405 76.68910867 97.72009587 85.05376267 C97.72457507 94.70207075 97.74211768 104.35023705 97.77109647 113.99850202 C97.79273059 121.46106926 97.80280109 128.92359668 97.80413699 136.38619494 C97.80518385 140.84098688 97.81106611 145.2956455 97.8289566 149.75040436 C97.84546708 153.94307596 97.84757841 158.13551444 97.8388176 162.32820702 C97.83804879 163.86323611 97.84236923 165.3982779 97.85227585 166.93327522 C97.90916098 176.30010204 97.726237 183.60325336 92.23120117 191.54052734 C85.42233491 198.34939361 78.62384234 199.43448241 69.26953125 199.4675293 C68.45581055 199.47410049 67.64208984 199.48067169 66.80371094 199.48744202 C64.11938369 199.50709943 61.43511223 199.51882144 58.75073242 199.52880859 C57.83003149 199.53288412 56.90933056 199.53695965 55.9607296 199.54115868 C51.08628949 199.56198837 46.21187727 199.57630283 41.33740234 199.58569336 C36.32184264 199.59674442 31.30672819 199.63113826 26.29132557 199.67086506 C22.41779293 199.69710225 18.54436524 199.70539154 14.67075157 199.70897484 C12.82291346 199.71382332 10.97507948 199.72538728 9.12732887 199.74401283 C-12.32461452 199.94679281 -12.32461452 199.94679281 -19.40592957 193.59883118 C-24.72358335 188.03959194 -26.89098495 181.88064871 -26.90647888 174.27650452 C-26.91186442 173.60646548 -26.91724996 172.93642645 -26.92279869 172.2460832 C-26.93700932 170.01990239 -26.92999209 167.79432202 -26.92285156 165.56811523 C-26.92855876 163.96431504 -26.93552438 162.3605189 -26.94364929 160.75672913 C-26.96155709 156.41371096 -26.96041683 152.07089511 -26.95470691 147.72785115 C-26.95161166 144.09717468 -26.95771124 140.46653688 -26.96374565 136.83586591 C-26.97778141 128.26839272 -26.97623745 119.70101926 -26.96484375 111.13354492 C-26.95336279 102.30557681 -26.96743994 93.4779125 -26.99424022 84.64998442 C-27.01641664 77.05995043 -27.02303025 69.47001168 -27.01716381 61.8799476 C-27.01379775 57.35140514 -27.01618595 52.82305742 -27.03341484 48.29454231 C-27.04891296 44.03526326 -27.04489688 39.77643335 -27.0261097 35.51717186 C-27.02243175 33.95795908 -27.02550909 32.3987128 -27.03599548 30.83953094 C-27.14034288 14.0360842 -27.14034288 14.0360842 -20.33520508 7.04833984 C-19.21952148 6.24009766 -19.21952148 6.24009766 -18.08129883 5.41552734 C-17.34008789 4.86123047 -16.59887695 4.30693359 -15.83520508 3.73583984 C-10.61140547 0.47647078 -6.07385993 -0.00694817 0 0 Z M-7.51879883 11.29052734 C21.52120117 11.62052734 50.56120117 11.95052734 80.48120117 12.29052734 C79.98620117 11.30052734 79.98620117 11.30052734 79.48120117 10.29052734 C75.82230886 9.07089657 72.45464314 9.14297038 68.64501953 9.14526367 C67.84800125 9.14190506 67.05098297 9.13854645 66.22981262 9.13508606 C63.59354091 9.12558153 60.9573327 9.12363344 58.32104492 9.12255859 C56.49166335 9.11934652 54.66228203 9.11598249 52.832901 9.11247253 C48.99878341 9.10648312 45.16468835 9.10463253 41.33056641 9.10522461 C36.40846653 9.10532642 31.48651031 9.0916542 26.56444454 9.0744524 C22.7873111 9.06335772 19.01021272 9.06130459 15.23306465 9.06183434 C13.4177151 9.06065116 11.60236474 9.05621059 9.78703117 9.04850197 C7.25391297 9.03874965 4.72111113 9.04156071 2.18798828 9.04760742 C1.43313141 9.04198792 0.67827454 9.03636841 -0.09945679 9.03057861 C-4.26527143 8.91893506 -4.26527143 8.91893506 -7.51879883 11.29052734 Z M-15.51879883 16.29052734 C-17.42008463 19.52570721 -17.80932258 22.02883724 -17.92695618 25.75984192 C-17.96484096 26.85629626 -18.00272573 27.95275061 -18.04175854 29.08243084 C-18.07196748 30.26976724 -18.10217642 31.45710363 -18.13330078 32.68041992 C-18.17082868 33.92540914 -18.20835657 35.17039835 -18.24702168 36.45311451 C-18.63225712 50.31811501 -18.6828536 64.18280084 -18.68676758 78.05224609 C-18.68819814 79.40796235 -18.68979562 80.76367843 -18.69155312 82.1193943 C-18.70068826 89.18433677 -18.70490084 96.2492608 -18.70410156 103.31420898 C-18.70349532 109.85275656 -18.71418327 116.39122313 -18.72984523 122.92975014 C-18.74294412 128.60429759 -18.74828488 134.27881845 -18.74764615 139.95338088 C-18.74739302 143.31739741 -18.75108813 146.68128237 -18.7608242 150.04529381 C-18.77063587 153.77644066 -18.76774411 157.50737503 -18.76171875 161.23852539 C-18.76733826 162.33102097 -18.77295776 163.42351654 -18.77874756 164.54911804 C-18.74936301 171.72049887 -18.55197446 178.77156951 -14.89379883 185.10302734 C-9.19709856 190.34998812 -3.45648557 191.8912637 4.13745117 191.68115234 C4.92518921 191.67549255 5.71292725 191.66983276 6.52453613 191.66400146 C9.01074151 191.64182637 11.49544045 191.59167071 13.98120117 191.54052734 C15.67909685 191.52043774 17.37701538 191.50219131 19.07495117 191.48583984 C23.21093757 191.44202424 27.34581507 191.3731334 31.48120117 191.29052734 C31.14475586 190.54158203 30.80831055 189.79263672 30.46166992 189.02099609 C29.17850724 185.44756696 29.71853315 182.96520054 30.48120117 179.29052734 C30.81120117 178.63052734 31.14120117 177.97052734 31.48120117 177.29052734 C30.49837158 177.27594482 29.51554199 177.2613623 28.50292969 177.24633789 C24.81800955 177.18788144 21.13367061 177.11065676 17.44921875 177.02807617 C15.86175039 176.99504755 14.27417083 176.96694866 12.68652344 176.9440918 C-6.57461658 176.65932502 -6.57461658 176.65932502 -11.51879883 173.29052734 C-14.34539779 169.40577202 -14.89136687 166.6838267 -14.87956238 161.91874695 C-14.88574837 159.99000984 -14.88574837 159.99000984 -14.89205933 158.02230835 C-14.88144322 156.60479525 -14.87053881 155.18728428 -14.859375 153.76977539 C-14.85852844 152.27152015 -14.85900444 150.77326367 -14.86070251 149.27500916 C-14.86156277 145.21334199 -14.84393219 141.15194096 -14.82298064 137.09033561 C-14.80421887 132.84358811 -14.8024638 128.59683443 -14.79890442 124.35005188 C-14.78958248 116.31073502 -14.7649667 108.27154064 -14.73485595 100.23227769 C-14.70131657 91.07878607 -14.68482709 81.92528858 -14.66976964 72.77175081 C-14.63841727 53.9446069 -14.58565388 35.11757697 -14.51879883 16.29052734 C-14.84879883 16.29052734 -15.17879883 16.29052734 -15.51879883 16.29052734 Z M-8.71726799 18.44816208 C-10.81145602 21.75226722 -11.01726509 23.48978313 -11.01327515 27.36964417 C-11.02166412 28.59078918 -11.0300531 29.8119342 -11.03869629 31.07008362 C-11.02773063 32.41513382 -11.01636471 33.76018082 -11.00463867 35.10522461 C-11.0067856 36.52802886 -11.01066488 37.95083139 -11.0161438 39.37362671 C-11.0258258 43.2310875 -11.01054909 47.08808445 -10.99023771 50.94548917 C-10.97265291 54.98350564 -10.97619205 59.02150809 -10.97695923 63.05955505 C-10.97508708 69.83934274 -10.95773398 76.61895122 -10.93041992 83.39868164 C-10.89895735 91.23709799 -10.88842422 99.07531821 -10.88989103 106.91379315 C-10.89124193 115.2601042 -10.87736071 123.60633965 -10.85899782 131.9526279 C-10.85473545 134.35742972 -10.85331551 136.76221935 -10.85251999 139.16702461 C-10.85051082 142.94520748 -10.83829895 146.7232257 -10.81818771 150.50135422 C-10.8123468 151.88807988 -10.80988515 153.27482449 -10.81104279 154.66156197 C-10.81202468 156.55385719 -10.79947274 158.44614506 -10.78622437 160.33839417 C-10.78287268 161.39749276 -10.77952099 162.45659136 -10.77606773 163.54778385 C-10.51485345 166.33258896 -10.04458133 167.96489309 -8.51879883 170.29052734 C-4.49394448 172.58304029 -0.73869377 172.54373419 3.82250977 172.54931641 C4.54351364 172.55282104 5.26451752 172.55632568 6.00737 172.55993652 C8.38155866 172.56871047 10.75544717 172.56291888 13.12963867 172.55615234 C14.7872422 172.55750054 16.44484533 172.55944236 18.10244751 172.56195068 C21.57411469 172.56489632 25.04567881 172.56062344 28.51733398 172.55126953 C32.95463486 172.53989314 37.39169329 172.54642647 41.82898521 172.55841446 C45.25204269 172.56566342 48.67504332 172.56333091 52.09810257 172.55815887 C53.7334763 172.55682984 55.36885528 172.5584438 57.00422287 172.56311798 C59.29665413 172.5682313 61.58870069 172.56040536 63.88110352 172.54931641 C65.83371597 172.54692963 65.83371597 172.54692963 67.82577515 172.54449463 C74.60897446 172.10571495 74.60897446 172.10571495 80.15775204 168.57983494 C81.83288702 165.68217976 81.86109037 163.7679001 81.86888123 160.42778015 C81.87878586 159.22917358 81.88869049 158.03056702 81.89889526 156.79563904 C81.89439362 155.48386185 81.88989197 154.17208466 81.88525391 152.82055664 C81.89095742 151.42246962 81.89792161 150.02438727 81.90605164 148.62631226 C81.92400408 144.83067855 81.92281037 141.03527577 81.91710925 137.23961234 C81.91401924 134.06877567 81.92010802 130.89798347 81.926148 127.72715312 C81.94019954 120.24376436 81.9386278 112.76048972 81.92724609 105.27709961 C81.91577433 97.56421457 81.92982306 89.85167762 81.95664257 82.13883847 C81.97882088 75.51192679 81.98543186 68.8851242 81.97956616 62.25817806 C81.97619922 58.30249852 81.97859347 54.34704191 81.99581718 50.39139366 C82.01131754 46.66892246 82.00729711 42.94696513 81.98851204 39.22451401 C81.98308553 37.21366826 81.99731826 35.20279929 82.01220703 33.19200134 C81.9565037 26.35483798 81.62661552 21.83671433 77.48120117 16.29052734 C66.59815876 16.17472683 55.71526268 16.08585932 44.83172989 16.03146648 C39.77814234 16.00536176 34.72497598 15.96994762 29.67163086 15.91333008 C24.79571132 15.85904168 19.92019713 15.82911341 15.04399872 15.81614113 C13.18279385 15.80689554 11.32161142 15.78884096 9.46057892 15.76187706 C6.85531004 15.7256281 4.25172032 15.72058013 1.64624023 15.72290039 C0.8751593 15.70492401 0.10407837 15.68694763 -0.69036865 15.66842651 C-4.31932396 15.70344464 -6.08153178 15.86138211 -8.71726799 18.44816208 Z M85.48120117 17.29052734 C85.48396655 18.05198091 85.48673193 18.81343447 85.48958111 19.59796238 C85.55586545 38.13508671 85.60549369 56.67218735 85.63663769 75.20940495 C85.65209943 84.17390769 85.6731757 93.13833127 85.70751953 102.1027832 C85.7374431 109.91718853 85.75678121 117.73153653 85.76346666 125.54599756 C85.76737391 129.68281207 85.77654202 133.81946256 85.79839134 137.95622444 C85.81880327 141.85253003 85.82502551 145.74860452 85.82052422 149.6449585 C85.82134732 151.07236933 85.82728501 152.49978815 85.8388176 153.92715263 C85.94253369 167.4299334 85.94253369 167.4299334 82.48120117 173.29052734 C75.98613444 178.4875451 63.87603424 176.86346812 55.91870117 176.97802734 C54.32166887 177.01125495 52.7246624 177.04574951 51.12768555 177.08154297 C47.24566793 177.16582228 43.36370246 177.23292158 39.48120117 177.29052734 C39.97040039 178.20125 39.97040039 178.20125 40.46948242 179.13037109 C42.17365878 182.76901792 41.72724201 185.55240484 40.48120117 189.29052734 C39.82120117 189.62052734 39.16120117 189.95052734 38.48120117 190.29052734 C41.96458379 191.45165488 45.12111616 191.47113771 48.74682617 191.49365234 C49.4584491 191.49935242 50.17007202 191.50505249 50.90325928 191.51092529 C52.40953083 191.520365 53.91582294 191.52690519 55.42211914 191.53076172 C57.70911494 191.54043394 59.99519872 191.57145147 62.28198242 191.60302734 C63.74942503 191.60956143 65.21687404 191.61481031 66.68432617 191.61865234 C67.69876801 191.63717255 67.69876801 191.63717255 68.73370361 191.65606689 C74.4153505 191.62985338 78.8661937 190.24396918 83.44213867 186.82568359 C83.9087793 186.33970703 84.37541992 185.85373047 84.85620117 185.35302734 C85.57936523 184.62792969 85.57936523 184.62792969 86.31713867 183.88818359 C89.50599749 179.51152837 88.83944993 173.18626747 89.04467773 168.01245117 C89.08700657 166.95789891 89.1293354 165.90334665 89.17294693 164.81683826 C89.64991466 151.51272086 89.56671463 138.20731845 89.47946072 124.89736915 C89.46539045 122.71088467 89.45282491 120.52439631 89.44071198 118.33790016 C89.39810727 110.68981653 89.34899438 103.04180435 89.29418945 95.39379883 C89.24346505 88.28724194 89.20850261 81.18071663 89.18025565 74.07403821 C89.1550853 67.93164867 89.11853638 61.78939414 89.07316995 55.64712077 C89.0464201 51.99487083 89.02439298 48.34274166 89.01415253 44.69040489 C89.00240708 40.64371122 88.96706815 36.59756111 88.92944336 32.55102539 C88.9293074 31.34651733 88.92917145 30.14200928 88.92903137 28.90100098 C88.91504807 27.80406418 88.90106476 26.70712738 88.88665771 25.57695007 C88.88074993 24.62272502 88.87484215 23.66849997 88.86875534 22.685359 C88.41824474 19.9014977 87.65614048 19.01554037 85.48120117 17.29052734 Z M34.48120117 182.29052734 C34.48120117 183.28052734 34.48120117 184.27052734 34.48120117 185.29052734 C35.47120117 184.96052734 36.46120117 184.63052734 37.48120117 184.29052734 C37.15120117 183.63052734 36.82120117 182.97052734 36.48120117 182.29052734 C35.82120117 182.29052734 35.16120117 182.29052734 34.48120117 182.29052734 Z " fill="#494848" transform="translate(71.518798828125,28.70947265625)"/>
<path d="M0 0 C1.28195 -0.01511375 1.28195 -0.01511375 2.58979797 -0.03053284 C5.39805396 -0.05888872 8.20577017 -0.0648829 11.01416016 -0.06811523 C12.97799902 -0.07776428 14.94183575 -0.08785734 16.90567017 -0.09837341 C21.01610308 -0.11630337 25.12634716 -0.1218976 29.23681641 -0.12011719 C34.48812895 -0.11981237 39.73822412 -0.16077979 44.98924828 -0.21243382 C49.0437876 -0.245888 53.09803533 -0.25187201 57.15269852 -0.25028801 C59.08789901 -0.25381379 61.0231082 -0.26700274 62.95817184 -0.29028511 C81.10896907 -0.4882504 81.10896907 -0.4882504 87.42788696 4.36634827 C88.29430313 5.39072243 88.29430313 5.39072243 89.17822266 6.43579102 C89.82578726 7.15002637 89.82578726 7.15002637 90.48643398 7.87869072 C95.64642351 14.54574057 94.84449311 22.30000739 94.74584961 30.30688477 C94.74443768 31.91395524 94.74523395 33.52102893 94.74806213 35.12809753 C94.74949206 39.47281204 94.72017151 43.81683116 94.68519235 48.16138458 C94.65385781 52.70838358 94.65099252 57.25539992 94.64506531 61.80249023 C94.62954767 70.4049154 94.58854747 79.00702145 94.53831786 87.60930634 C94.48235954 97.40611641 94.4549216 107.20294201 94.42984068 116.99987221 C94.37762969 137.14535633 94.28972797 157.29055354 94.17822266 177.43579102 C93.51822266 177.43579102 92.85822266 177.43579102 92.17822266 177.43579102 C90.78380014 174.64694598 91.04387626 172.35888249 91.03346252 169.23736572 C91.02993568 168.59468899 91.02640883 167.95201227 91.02277511 167.28986049 C91.01206211 165.12658275 91.00840261 162.963349 91.00463867 160.80004883 C90.99833528 159.25285658 90.99156972 157.70566615 90.984375 156.15847778 C90.9696885 152.82124459 90.95797037 149.48401848 90.9484272 146.14676666 C90.93299341 140.8689494 90.90904349 135.59119244 90.88352966 130.31341553 C90.81228026 115.30346486 90.75257295 100.29347938 90.70141602 85.28344727 C90.67310103 76.99765346 90.63771166 68.71191939 90.59476227 60.42618823 C90.5680019 55.18097451 90.55008902 49.9358284 90.53872502 44.69055986 C90.52958886 41.42342272 90.51222184 38.15636749 90.49254608 34.88927841 C90.4850823 33.37600622 90.48099023 31.86271299 90.48055077 30.34942245 C90.4794648 28.28017004 90.46618667 26.21133218 90.44996643 24.14215088 C90.44573449 22.98513294 90.44150255 21.82811501 90.43714237 20.63603592 C90.1662647 17.28799075 89.37011199 14.56502853 88.17822266 11.43579102 C87.51822266 11.43579102 86.85822266 11.43579102 86.17822266 11.43579102 C86.17822266 10.77579102 86.17822266 10.11579102 86.17822266 9.43579102 C76.60897203 6.97803794 67.24817042 7.14436268 57.43994141 7.17016602 C55.62775114 7.16881663 53.81556123 7.16687382 52.00337219 7.16436768 C48.22364827 7.16143304 44.44401944 7.16566285 40.66430664 7.17504883 C35.82451981 7.18648341 30.98495386 7.17984814 26.14517498 7.1679039 C22.41081579 7.16067521 18.67650898 7.16297717 14.94214821 7.16815948 C13.15719387 7.16949107 11.37223474 7.16786551 9.587286 7.16320038 C7.09622964 7.15811403 4.60553165 7.16587308 2.11450195 7.17700195 C1.01489136 7.17092926 1.01489136 7.17092926 -0.10693359 7.16473389 C-4.11769775 7.19788143 -7.20933853 7.66231744 -10.82177734 9.43579102 C-10.82177734 8.44579102 -10.82177734 7.45579102 -10.82177734 6.43579102 C-14.88202055 8.47381237 -14.88202055 8.47381237 -16.82177734 12.43579102 C-17.48177734 12.43579102 -18.14177734 12.43579102 -18.82177734 12.43579102 C-19.9178084 15.99016228 -19.96082944 19.30582449 -19.98240662 23.01312256 C-19.98749444 23.67243121 -19.99258226 24.33173987 -19.99782425 25.01102757 C-20.01351128 27.2186941 -20.0220638 29.42632798 -20.03051758 31.6340332 C-20.04005898 33.21768398 -20.04995027 34.80133268 -20.06016541 36.38497925 C-20.09151403 41.58418311 -20.11181142 46.78340281 -20.13037109 51.98266602 C-20.13366842 52.86782174 -20.13696574 53.75297747 -20.14036298 54.66495609 C-20.17113917 63.01540625 -20.19784089 71.36586009 -20.21478176 79.71635056 C-20.23669026 90.38933718 -20.27867465 101.06182092 -20.34821934 111.7346065 C-20.39548592 119.24387672 -20.41971873 126.75301136 -20.42697865 134.26242566 C-20.43193033 138.74535096 -20.44696505 143.22770899 -20.48672295 147.71047211 C-20.52365075 151.92959061 -20.53197929 156.14781928 -20.51871681 160.36706924 C-20.51877066 161.91180358 -20.52902509 163.45657799 -20.55046844 165.00116348 C-20.79608973 175.84892276 -20.79608973 175.84892276 -15.56568336 185.00934792 C-10.34770249 189.27744076 -5.04942254 189.87755249 1.46508789 189.82397461 C2.26280609 189.82923157 3.06052429 189.83448853 3.88241577 189.83990479 C6.50075273 189.85303165 9.11847402 189.84439205 11.73681641 189.83422852 C13.5685284 189.83625156 15.4002396 189.83916491 17.23194885 189.84292603 C21.06413468 189.84733965 24.89611018 189.84095011 28.72827148 189.8269043 C33.62511439 189.80982512 38.52146348 189.81965167 43.41828823 189.83762169 C47.19911882 189.84849591 50.9798336 189.84499632 54.7606678 189.83723831 C56.56547162 189.83524572 58.37028615 189.83766229 60.17507744 189.84467697 C62.70431981 189.85235024 65.23277844 189.84060539 67.76196289 189.82397461 C68.86649055 189.83308365 68.86649055 189.83308365 69.99333191 189.84237671 C75.92706193 189.77059151 81.86855669 188.76775106 86.20166016 184.39282227 C86.87068359 183.3312793 86.87068359 183.3312793 87.55322266 182.24829102 C88.38958169 180.9517009 89.25575645 179.6726008 90.17822266 178.43579102 C90.83822266 178.43579102 91.49822266 178.43579102 92.17822266 178.43579102 C91.37190787 183.27367975 90.51513292 186.23960815 86.80322266 189.56079102 C81.92507516 193.04518208 78.40614821 193.73992267 72.43139648 193.77050781 C71.6552298 193.78215973 70.87906311 193.79381165 70.07937622 193.80581665 C67.51469048 193.84178254 64.95009989 193.863673 62.38525391 193.88500977 C60.59648313 193.90627499 58.80772059 193.92824279 57.01896667 193.95088196 C53.26732087 193.99628583 49.51568413 194.03506756 45.76391602 194.06884766 C40.97359155 194.11223387 36.18354582 194.16898875 31.39342213 194.23039532 C27.696694 194.27679044 23.99992052 194.31748891 20.30310631 194.3563633 C18.53818909 194.37531436 16.77328621 194.39565647 15.00840187 194.41745567 C12.52962649 194.44691623 10.05088756 194.46906202 7.57202148 194.48925781 C6.85325333 194.49906174 6.13448517 194.50886566 5.39393616 194.51896667 C-4.22569179 194.57696882 -11.32239867 193.92823908 -18.82177734 187.43579102 C-23.00710057 182.63938754 -23.94650407 178.22065693 -23.96221924 171.97198486 C-23.96519036 171.31282507 -23.96816148 170.65366527 -23.97122264 169.97453094 C-23.97990788 167.76140951 -23.98141774 165.5483422 -23.98291016 163.33520508 C-23.9875385 161.7500802 -23.99256319 160.16495644 -23.99795532 158.57983398 C-24.01108085 154.26976215 -24.01752473 149.9597059 -24.02196598 145.6496172 C-24.02489682 142.95649061 -24.02900168 140.26336828 -24.03347015 137.57024384 C-24.04714629 129.14312836 -24.05681204 120.71602261 -24.06067204 112.2888968 C-24.06515143 102.56302848 -24.08269326 92.83730079 -24.11167264 83.11147523 C-24.13329697 75.5928933 -24.14337675 68.07435091 -24.14471316 60.55573821 C-24.14576077 56.0657522 -24.15165901 51.57589838 -24.16953278 47.08594513 C-24.18602617 42.86045938 -24.18816284 38.63520498 -24.17939377 34.40969849 C-24.17862404 32.86134979 -24.1829577 31.3129886 -24.19285202 29.76467133 C-24.20559768 27.64535113 -24.19968136 25.5268471 -24.18927002 23.40753174 C-24.19073658 22.22323704 -24.19220314 21.03894234 -24.19371414 19.81875992 C-23.59931134 14.4123409 -21.55148564 9.48982177 -17.82177734 5.43579102 C-17.16177734 5.43579102 -16.50177734 5.43579102 -15.82177734 5.43579102 C-15.82177734 4.77579102 -15.82177734 4.11579102 -15.82177734 3.43579102 C-10.34577657 0.70068106 -6.07922232 -0.01042371 0 0 Z " fill="#232223" transform="translate(71.82177734375,31.564208984375)"/>
<path d="M0 0 C0.83121368 -0.00335861 1.66242737 -0.00671722 2.51882935 -0.01017761 C5.2705433 -0.01968749 8.02219641 -0.02163077 10.77392578 -0.02270508 C12.68580144 -0.02591774 14.59767686 -0.02928182 16.509552 -0.03279114 C20.51939463 -0.03878257 24.52921571 -0.04063103 28.5390625 -0.04003906 C33.67609703 -0.03993746 38.81299328 -0.05358727 43.94999504 -0.07081127 C47.89967483 -0.08193258 51.8493212 -0.08395823 55.79901505 -0.08342934 C57.69282635 -0.08460935 59.58663852 -0.08903229 61.48043442 -0.0967617 C64.1302838 -0.10656373 66.77983325 -0.10368264 69.4296875 -0.09765625 C70.2111615 -0.10327576 70.9926355 -0.10889526 71.79779053 -0.11468506 C75.92168145 -0.09086423 79.13474908 0.29470527 82.84423828 2.14526367 C82.84423828 2.80526367 82.84423828 3.46526367 82.84423828 4.14526367 C83.83423828 4.64026367 83.83423828 4.64026367 84.84423828 5.14526367 C86.06338698 8.45980916 85.95904562 11.72456585 85.94189453 15.22338867 C85.93706055 16.96362305 85.93706055 16.96362305 85.93212891 18.73901367 C85.91956055 20.54885742 85.91956055 20.54885742 85.90673828 22.39526367 C85.90222656 23.61729492 85.89771484 24.83932617 85.89306641 26.09838867 C85.88128643 29.11406313 85.86483681 32.12963865 85.84423828 35.14526367 C84.85423828 35.64026367 84.85423828 35.64026367 83.84423828 36.14526367 C83.51423828 49.01526367 83.18423828 61.88526367 82.84423828 75.14526367 C82.18423828 74.81526367 81.52423828 74.48526367 80.84423828 74.14526367 C80.83837204 73.37962601 80.8325058 72.61398834 80.82646179 71.82514954 C80.76849765 64.60086158 80.69640013 57.37691706 80.60852337 50.15293598 C80.56384346 46.43921909 80.52458242 42.72561128 80.49780273 39.01171875 C80.47174551 35.42589694 80.43132685 31.84049548 80.38105202 28.25493431 C80.36439949 26.88869655 80.35287513 25.52238611 80.34662437 24.15606117 C80.33696667 22.2386887 80.30719248 20.32144978 80.27661133 18.40429688 C80.26550827 17.31397659 80.25440521 16.22365631 80.2429657 15.10029602 C79.79503051 11.78057705 78.66980225 9.91378259 76.84423828 7.14526367 C76.84423828 6.48526367 76.84423828 5.82526367 76.84423828 5.14526367 C65.94360501 5.18326674 55.04331663 5.24254951 44.14295483 5.32916641 C39.08169933 5.36871212 34.02061967 5.40086568 28.95922852 5.41625977 C24.07663926 5.43137977 19.19453317 5.4657419 14.31215858 5.51357269 C12.44744371 5.52843471 10.58265988 5.53630744 8.71788597 5.53714752 C6.10998104 5.53950451 3.50342531 5.56647999 0.89575195 5.59936523 C0.12107574 5.59433487 -0.65360046 5.5893045 -1.45175171 5.5841217 C-5.55959221 5.60820769 -5.55959221 5.60820769 -8.85549259 7.79857349 C-10.51137196 10.78705931 -10.52262081 12.79946852 -10.50979614 16.21128845 C-10.51247498 17.45485611 -10.51515381 18.69842377 -10.51791382 19.97967529 C-10.50570203 21.35510496 -10.49321097 22.73053217 -10.48046875 24.10595703 C-10.47798499 25.55654234 -10.47683833 27.00713046 -10.47692871 28.4577179 C-10.47422377 31.58002795 -10.46200229 34.70210493 -10.44238663 37.82435417 C-10.41136871 42.7617753 -10.40108931 47.69910723 -10.39352417 52.63661194 C-10.37903309 60.44689125 -10.35010127 68.25704201 -10.31527698 76.0672546 C-10.25338289 90.05165373 -10.2157525 104.0361293 -10.18368423 118.02062517 C-10.17185677 122.92829255 -10.15367058 127.83588421 -10.13016915 132.74350917 C-10.11632882 135.79749375 -10.10648532 138.85148273 -10.09753418 141.90548515 C-10.09247083 143.32083382 -10.08564899 144.73617746 -10.076931 146.15150833 C-10.06521369 148.08506809 -10.06028786 150.01866544 -10.05569458 151.95225525 C-10.05087633 153.0338539 -10.04605808 154.11545256 -10.04109383 155.22982693 C-10.14932607 157.98163706 -10.53022011 160.46831942 -11.15576172 163.14526367 C-15.03076172 160.52026367 -15.03076172 160.52026367 -16.15576172 157.14526367 C-16.25340705 155.15252723 -16.29075642 153.15664945 -16.29620361 151.16152954 C-16.30191376 149.91092239 -16.3076239 148.66031525 -16.31350708 147.37181091 C-16.31475242 145.98330698 -16.31587752 144.59480294 -16.31689453 143.20629883 C-16.32152314 141.74600601 -16.32654786 140.2857144 -16.3319397 138.82542419 C-16.34506064 134.8563849 -16.35150793 130.88736252 -16.35595036 126.91830492 C-16.35888127 124.43893614 -16.36298609 121.95957199 -16.36745453 119.48020554 C-16.38112799 111.72371779 -16.39079567 103.96724061 -16.39465642 96.21074164 C-16.39913847 87.25515502 -16.41669373 78.29972094 -16.44565701 69.3441807 C-16.46726564 62.42265243 -16.47736024 55.50116711 -16.47869754 48.57960546 C-16.47974606 44.44514756 -16.48566387 40.31083308 -16.50351715 36.17641068 C-16.51998398 32.28744312 -16.52216021 28.39872699 -16.51337814 24.50973701 C-16.51260705 23.08310206 -16.51696009 21.65645366 -16.5268364 20.22985268 C-16.53953658 18.28093116 -16.53189439 16.33190883 -16.52325439 14.38296509 C-16.52472095 13.29269327 -16.52618752 12.20242146 -16.52769852 11.0791111 C-16.10388882 7.73608886 -15.18465739 5.81765856 -13.15576172 3.14526367 C-12.49576172 3.14526367 -11.83576172 3.14526367 -11.15576172 3.14526367 C-11.15576172 2.48526367 -11.15576172 1.82526367 -11.15576172 1.14526367 C-7.40433839 -0.10521077 -3.9077173 -0.00225445 0 0 Z " fill="#555455" transform="translate(72.15576171875,39.854736328125)"/>
<path d="M0 0 C0.33 0 0.66 0 1 0 C1.495 3.465 1.495 3.465 2 7 C2.33 7 2.66 7 3 7 C3.07015226 22.5251256 3.12301861 38.05023931 3.15543652 53.57548618 C3.17089035 60.78450896 3.19195134 67.99343311 3.22631836 75.20239258 C3.25626633 81.48740438 3.27558579 87.77234474 3.28226548 94.05742592 C3.28616866 97.3838453 3.2968955 100.71001327 3.31719017 104.03637886 C3.33897121 107.75427485 3.34196655 111.47174772 3.34057617 115.18969727 C3.351362 116.28661896 3.36214783 117.38354065 3.3732605 118.51370239 C3.34924258 124.45017421 2.94410767 128.79076513 0 134 C-5.28135319 138.16948936 -10.90216223 138.12637694 -17.41723633 138.14526367 C-18.14638748 138.14862228 -18.87553864 138.1519809 -19.62678528 138.15544128 C-22.02855145 138.16491147 -24.43024759 138.1668925 -26.83203125 138.16796875 C-28.5096591 138.17118436 -30.18728667 138.17454866 -31.86491394 138.17805481 C-35.37943166 138.18403646 -38.89392482 138.18589573 -42.40844727 138.18530273 C-46.8971973 138.18520124 -51.38578873 138.198845 -55.87450123 138.21607494 C-59.33962213 138.22723076 -62.80470513 138.22922083 -66.26984215 138.22869301 C-67.92393222 138.22986805 -69.57802344 138.23426294 -71.23209572 138.24202538 C-73.55303458 138.25189666 -75.87363498 138.24891925 -78.19458008 138.24291992 C-79.511866 138.24434494 -80.82915192 138.24576996 -82.18635559 138.24723816 C-86.38923895 137.97476568 -89.95382026 137.13455743 -94 136 C-94 134.02 -94 132.04 -94 130 C-93.34 129.67 -92.68 129.34 -92 129 C-92 129.66 -92 130.32 -92 131 C-83.02737434 132.03427061 -74.0975318 132.16341372 -65.078125 132.16796875 C-63.56361867 132.1711903 -62.04911264 132.17455501 -60.53460693 132.17805481 C-57.38129962 132.18400048 -54.22801954 132.18589914 -51.07470703 132.18530273 C-47.04787748 132.18520066 -43.02122243 132.19892005 -38.99443436 132.21607494 C-35.87507329 132.22721867 -32.75575436 132.22922131 -29.63637543 132.22869301 C-28.1517145 132.22986695 -26.66705226 132.23425555 -25.18241119 132.24202538 C-23.10618398 132.25188628 -21.03033562 132.24892497 -18.95410156 132.24291992 C-17.77704651 132.24434494 -16.59999146 132.24576996 -15.38726807 132.24723816 C-11.65130568 131.97454865 -8.51584555 131.29191568 -5 130 C-2.5453293 126.31799395 -2.7003977 123.51630844 -2.69702148 119.25561523 C-2.68858215 118.46835052 -2.68014282 117.68108582 -2.67144775 116.8699646 C-2.64564469 114.26616825 -2.63352452 111.66248527 -2.62109375 109.05859375 C-2.60492304 107.25162351 -2.5877435 105.44466203 -2.56959534 103.63771057 C-2.52387764 98.87920172 -2.48908705 94.12068126 -2.45739746 89.36206055 C-2.40554819 81.74117138 -2.34047601 74.12041098 -2.26918221 66.49968147 C-2.24630249 63.83292405 -2.2300619 61.16618309 -2.21446228 58.49937439 C-2.20105865 56.87124449 -2.18744411 55.24311631 -2.17358398 53.61499023 C-2.17097061 52.8694841 -2.16835724 52.12397797 -2.16566467 51.35588074 C-2.1136326 46.2272652 -2.1136326 46.2272652 -1 44 C-0.88252522 42.58117119 -0.82314572 41.15728586 -0.79467773 39.73388672 C-0.77473251 38.85312469 -0.75478729 37.97236267 -0.73423767 37.06491089 C-0.71752518 36.11278717 -0.70081268 35.16066345 -0.68359375 34.1796875 C-0.6524221 32.71899338 -0.6524221 32.71899338 -0.62062073 31.22879028 C-0.55511402 28.11093353 -0.49623503 24.99299097 -0.4375 21.875 C-0.39431585 19.76431396 -0.3507016 17.65363667 -0.30664062 15.54296875 C-0.19943153 10.3620705 -0.09766722 5.18108644 0 0 Z " fill="#4C4C4C" transform="translate(155,68)"/>
<path d="M0 0 C0.99 0 1.98 0 3 0 C2.42435345 3.88561424 0.48746646 6.04613357 -2 9 C-3.26782862 11.53565725 -3.20670076 13.4356512 -3.3105011 16.27400208 C-3.35160853 17.37690173 -3.39271597 18.47980139 -3.43506908 19.61612225 C-3.47365693 20.82021646 -3.51224478 22.02431067 -3.55200195 23.26489258 C-3.59404157 24.51890523 -3.63608118 25.77291788 -3.67939472 27.06493092 C-4.1112371 40.96276323 -4.16404512 54.85807692 -4.16796875 68.76171875 C-4.16939931 70.117435 -4.17099679 71.47315109 -4.17275429 72.82886696 C-4.18188944 79.89380942 -4.18610201 86.95873346 -4.18530273 94.02368164 C-4.18469649 100.56222922 -4.19538444 107.10069579 -4.2110464 113.6392228 C-4.22414529 119.31377025 -4.22948605 124.98829111 -4.22884732 130.66285354 C-4.22859419 134.02687007 -4.2322893 137.39075502 -4.24202538 140.75476646 C-4.25183704 144.48591332 -4.24894528 148.21684768 -4.24291992 151.94799805 C-4.24853943 153.04049362 -4.25415894 154.1329892 -4.25994873 155.2585907 C-4.30401405 166.24411598 -4.30401405 166.24411598 0.25 175.875 C5.61738223 180.02252263 10.1203522 181.44900492 16.84130859 181.52416992 C17.60296326 181.54411514 18.36461792 181.56406036 19.14935303 181.58460999 C21.64894212 181.64673055 24.14843212 181.68873016 26.6484375 181.73046875 C28.3886699 181.76977778 30.1288742 181.81034885 31.86904907 181.85212708 C36.43577188 181.9583871 41.00267303 182.04755348 45.56982422 182.13311768 C50.23558137 182.22357002 54.90096471 182.33024889 59.56640625 182.43554688 C68.71064498 182.63954562 77.85515446 182.82548078 87 183 C87 183.33 87 183.66 87 184 C76.70753901 184.09286336 66.41517843 184.16384779 56.12238312 184.20724869 C51.34250543 184.22808372 46.56291533 184.2563264 41.78320312 184.30175781 C37.166633 184.34536171 32.55033872 184.36916781 27.93357849 184.37950897 C26.17617961 184.38687431 24.41879507 184.40125706 22.66151428 184.42292023 C20.19133406 184.45214838 17.72227967 184.45594804 15.25195312 184.45410156 C14.53265625 184.46848267 13.81335938 184.48286377 13.07226562 184.49768066 C6.70967449 184.44654166 2.09207246 182.54998938 -2.80989075 178.50740814 C-8.64632129 172.21125783 -7.81603639 164.32606607 -7.71289062 156.28417969 C-7.71447414 154.69344635 -7.71867409 153.10271381 -7.72528076 151.51199341 C-7.73551073 147.21031 -7.70856019 142.90959053 -7.67422676 138.60806179 C-7.64406836 134.10162715 -7.64650091 129.59520274 -7.64489746 125.08868408 C-7.63752367 117.52640403 -7.60764249 109.96448831 -7.5625 102.40234375 C-7.50467 92.69503603 -7.48404354 82.98802082 -7.4751358 73.28055954 C-7.46717762 64.93005834 -7.44218125 56.5796207 -7.41444206 48.22916508 C-7.40624781 45.5461574 -7.40039487 42.86315196 -7.39485168 40.18013763 C-7.38506332 35.96770937 -7.36465288 31.75545822 -7.33597565 27.54311752 C-7.32693435 25.99675216 -7.32125341 24.450363 -7.31916046 22.90397263 C-7.31566534 20.79491465 -7.29989158 18.6862986 -7.28088379 16.57733154 C-7.27493446 15.39676556 -7.26898514 14.21619957 -7.26285553 12.99985886 C-7.00980343 10.11188235 -6.50859854 8.43987003 -5 6 C-4.34 6 -3.68 6 -3 6 C-2.814375 5.071875 -2.814375 5.071875 -2.625 4.125 C-2 2 -2 2 0 0 Z " fill="#4B494A" transform="translate(58,38)"/>
<path d="M0 0 C0.76816544 -0.0065712 1.53633087 -0.0131424 2.32777405 -0.01991272 C4.85938631 -0.03955623 7.39093955 -0.05128737 9.92260742 -0.0612793 C11.22465905 -0.06739259 11.22465905 -0.06739259 12.55301476 -0.07362938 C17.14634332 -0.09445053 21.73964234 -0.10877012 26.33300781 -0.11816406 C31.06404124 -0.12922903 35.79460443 -0.16364119 40.52547169 -0.20333576 C44.17588649 -0.22953884 47.82618972 -0.23785909 51.47669029 -0.24144554 C53.22012195 -0.24630079 54.96354899 -0.2578844 56.7068882 -0.27648354 C59.15262341 -0.30095785 61.59714735 -0.29989553 64.04296875 -0.29296875 C65.11013123 -0.31218384 65.11013123 -0.31218384 66.19885254 -0.33178711 C72.9682237 -0.26234552 77.93693468 2.2090843 82.96557617 6.55200195 C89.22151531 13.85059761 90.3658924 18.64894023 90.36083984 28.04467773 C90.36419846 28.93937775 90.36755707 29.83407776 90.37101746 30.75588989 C90.38051209 33.71137888 90.3824695 36.66681117 90.38354492 39.62231445 C90.38675737 41.67446923 90.39012143 43.72662378 90.39363098 45.77877808 C90.39961769 50.07770316 90.40147123 54.37660815 90.40087891 58.67553711 C90.40077704 64.19509634 90.4144562 69.71452763 90.43165112 75.23405647 C90.44274304 79.47012937 90.44479902 83.70617099 90.44426918 87.94225693 C90.44545251 89.97810179 90.44989389 92.01394737 90.45760155 94.04977798 C90.46734946 96.88931651 90.46454464 99.7285726 90.45849609 102.56811523 C90.4641156 103.41490845 90.46973511 104.26170166 90.4755249 105.13415527 C90.4438949 110.94868322 90.4438949 110.94868322 88.21557617 113.17700195 C88.20970993 112.04218384 88.20384369 110.90736572 88.19779968 109.73815918 C88.14050875 99.02715957 88.06771369 88.31636174 87.97986126 77.60556793 C87.93519375 72.09944633 87.89592951 66.59339811 87.86914062 61.0871582 C87.84307175 55.7702075 87.80264364 50.45353971 87.75238991 45.13676453 C87.73574549 43.11150134 87.72421615 41.08618924 87.71796227 39.06086731 C87.70829489 36.21711794 87.68020385 33.37408841 87.64794922 30.53051758 C87.64938431 29.69901184 87.6508194 28.8675061 87.65229797 28.01080322 C87.56324507 22.43458928 86.41975586 18.30595306 84.21557617 13.17700195 C83.90620117 12.39325195 83.59682617 11.60950195 83.27807617 10.80200195 C81.88205642 8.66691291 80.54671113 8.17605979 78.21557617 7.17700195 C77.39057617 6.66137695 76.56557617 6.14575195 75.71557617 5.61450195 C71.03151692 2.92116788 66.54081524 3.01227413 61.23413086 2.97167969 C60.03356552 2.95683029 60.03356552 2.95683029 58.80874634 2.94168091 C56.16834451 2.91014254 53.5279247 2.88533882 50.88745117 2.8605957 C49.05470314 2.84001956 47.22195979 2.81902291 45.38922119 2.79762268 C40.56913035 2.74247024 35.74899717 2.69303087 30.92883301 2.64477539 C26.0087508 2.59451049 21.08872996 2.53885047 16.16870117 2.48364258 C6.51771195 2.37614453 -3.13333059 2.27468103 -12.78442383 2.17700195 C-12.78442383 1.84700195 -12.78442383 1.51700195 -12.78442383 1.17700195 C-8.51741079 0.1408313 -4.36625121 0.01636264 0 0 Z " fill="#676767" transform="translate(78.784423828125,28.822998046875)"/>
<path d="M0 0 C0.33 0 0.66 0 1 0 C1 46.2 1 92.4 1 140 C0.67 140 0.34 140 0 140 C-0.33 136.37 -0.66 132.74 -1 129 C-1.33 129 -1.66 129 -2 129 C-2.04674718 113.0664268 -2.08200216 97.13287214 -2.10362434 81.19924736 C-2.11393131 73.80077699 -2.12798056 66.40234925 -2.15087891 59.00390625 C-2.17083053 52.55446536 -2.18372065 46.10505535 -2.18817699 39.65558445 C-2.19078137 36.24151035 -2.1968907 32.8275246 -2.21146011 29.41347885 C-2.2259597 25.59965507 -2.22797855 21.78601484 -2.22705078 17.97216797 C-2.23424133 16.84359879 -2.24143188 15.7150296 -2.24884033 14.55226135 C-2.23502903 9.31178469 -2.14139679 4.89127827 0 0 Z " fill="#656263" transform="translate(58,52)"/>
<path d="M0 0 C-0.47884338 4.60174007 -2.08571208 6.5752411 -5.33618164 9.7902832 C-6.2570607 10.71086014 -7.17793976 11.63143707 -8.12672424 12.57991028 C-9.137656 13.57041727 -10.14880513 14.56070245 -11.16015625 15.55078125 C-12.19092916 16.57409005 -13.22081965 17.59828842 -14.24986267 18.62333679 C-16.95533364 21.31356487 -19.67260169 23.99156242 -22.39251709 26.66717529 C-25.16800328 29.40167992 -27.9321437 32.14760063 -30.69726562 34.89257812 C-36.1204805 40.27294587 -41.55621103 45.64044133 -47 51 C-47.99 50.67 -48.98 50.34 -50 50 C-49.63031354 43.90017347 -45.40546875 40.14739214 -41.0703125 36.27734375 C-39.71962854 35.12374402 -38.36672037 33.97274394 -37.01171875 32.82421875 C-34.30716852 30.3717431 -32.0213899 27.63972215 -29.66796875 24.85546875 C-28.10202808 23.11349727 -26.50805664 21.65540644 -24.6875 20.1875 C-21.85430578 18.10119391 -21.85430578 18.10119391 -20 15 C-19.34 15 -18.68 15 -18 15 C-18 14.34 -18 13.68 -18 13 C-17.34 13 -16.68 13 -16 13 C-16 12.34 -16 11.68 -16 11 C-14.390625 9.4140625 -14.390625 9.4140625 -12.25 7.625 C-9.93074054 5.66914563 -7.81144815 3.79573549 -5.75 1.5625 C-4 0 -4 0 0 0 Z " fill="#363636" transform="translate(132,94)"/>
<path d="M0 0 C0.33 0 0.66 0 1 0 C1.33 53.46 1.66 106.92 2 162 C1.34 162 0.68 162 0 162 C-1.40413514 159.19172972 -1.12597045 156.87246383 -1.12698364 153.72996521 C-1.12854363 153.0796771 -1.13010362 152.42938899 -1.13171089 151.75939518 C-1.13571384 149.57061245 -1.13253398 147.38189853 -1.12939453 145.19311523 C-1.13074887 143.62795979 -1.13252899 142.06280466 -1.13470459 140.49765015 C-1.13927465 136.23956486 -1.13749121 131.98150372 -1.1343255 127.723418 C-1.13180016 123.27557734 -1.13413989 118.8277388 -1.13571167 114.37989807 C-1.13753266 106.91056953 -1.13512869 99.44125087 -1.13037109 91.97192383 C-1.12492662 83.32409513 -1.12669276 74.67629 -1.1321975 66.02846187 C-1.13672825 58.61530176 -1.13737942 51.20214875 -1.13475883 43.7889877 C-1.1331961 39.35623829 -1.13300221 34.92349997 -1.13629532 30.49075127 C-1.13917355 26.32527304 -1.13719923 22.15982535 -1.13140106 17.99435043 C-1.13007329 16.4612273 -1.13046787 14.92810161 -1.13266373 13.39497948 C-1.13537453 11.31096809 -1.13199503 9.22705611 -1.12698364 7.14305115 C-1.12660662 5.9740499 -1.12622959 4.80504866 -1.12584114 3.60062313 C-1 1 -1 1 0 0 Z " fill="#1A1A1A" transform="translate(164,47)"/>
<path d="M0 0 C0.33 0 0.66 0 1 0 C1.33 29.7 1.66 59.4 2 90 C2.33 90 2.66 90 3 90 C3.06969919 98.85827716 3.12291194 107.71645901 3.15543652 116.57495117 C3.17105153 120.68890105 3.19221302 124.80266247 3.22631836 128.91650391 C3.25906131 132.89116249 3.27688429 136.86564048 3.28463173 140.84042358 C3.29014857 142.35219157 3.30092134 143.86395036 3.31719017 145.37564087 C3.47451991 160.60895679 3.47451991 160.60895679 0 167 C-0.99 167.33 -1.98 167.66 -3 168 C-2.51361526 166.7275924 -2.51361526 166.7275924 -2.01740456 165.4294796 C-0.9437664 161.81044709 -0.73905031 158.89581714 -0.7215271 155.12832642 C-0.7128385 154.12833337 -0.7128385 154.12833337 -0.70397437 153.10813844 C-0.68705211 150.88796036 -0.68410465 148.66799113 -0.68115234 146.44775391 C-0.67184878 144.85082494 -0.66167947 143.25390082 -0.65071106 141.65698242 C-0.62344523 137.33103967 -0.60827178 133.00512942 -0.59528303 128.6791234 C-0.57963754 124.15472727 -0.55285183 119.63039737 -0.5272522 115.10604858 C-0.48048953 106.54269245 -0.44373325 97.97932382 -0.41057932 89.41590536 C-0.3723402 79.66500389 -0.32293471 69.91416898 -0.27259517 60.16332364 C-0.16931268 40.10893159 -0.08004028 20.0544974 0 0 Z " fill="#4F4E4F" transform="translate(166,50)"/>
<path d="M0 0 C25.41 0 50.82 0 77 0 C76.67 0.99 76.34 1.98 76 3 C51.25 3 26.5 3 1 3 C0.67 2.01 0.34 1.02 0 0 Z " fill="#3A3A3A" transform="translate(67,35)"/>
<path d="M0 0 C2.125 0.375 2.125 0.375 4 1 C3.13006216 5.61908231 0.36207686 8.10553916 -2.86328125 11.33203125 C-3.45167282 11.92803635 -4.04006439 12.52404144 -4.64628601 13.1381073 C-5.8907621 14.39337581 -7.13922433 15.64470323 -8.39135742 16.89233398 C-10.30913421 18.80913592 -12.20458753 20.74627753 -14.09960938 22.68554688 C-15.3111975 23.90233998 -16.52404648 25.11787921 -17.73828125 26.33203125 C-18.58849602 27.20683891 -18.58849602 27.20683891 -19.45588684 28.09931946 C-21.08325195 29.69848633 -21.08325195 29.69848633 -24 32 C-26.18229675 31.6438446 -26.18229675 31.6438446 -28 31 C-27.41982949 27.59428756 -26.34879518 25.99599671 -23.875 23.6171875 C-23.25109375 23.00746094 -22.6271875 22.39773437 -21.984375 21.76953125 C-21.00210938 20.83173828 -21.00210938 20.83173828 -20 19.875 C-18.70625147 18.6245462 -17.41448494 17.37203752 -16.125 16.1171875 C-15.55007812 15.56659668 -14.97515625 15.01600586 -14.3828125 14.44873047 C-12.89195722 13.02896682 -12.89195722 13.02896682 -12 11 C-11.34 11 -10.68 11 -10 11 C-10 10.34 -10 9.68 -10 9 C-8.3203125 7.34375 -8.3203125 7.34375 -6.125 5.5 C-4.00964496 3.71066742 -1.95980876 1.95980876 0 0 Z " fill="#3A3A3A" transform="translate(131,115)"/>
<path d="M0 0 C0.33 0.99 0.66 1.98 1 3 C-0.05786133 4.65405273 -0.05786133 4.65405273 -1.76953125 6.49609375 C-2.41873535 7.19976074 -3.06793945 7.90342773 -3.73681641 8.62841797 C-4.85709229 9.80235107 -4.85709229 9.80235107 -6 11 C-6.82032715 11.86898926 -7.6406543 12.73797852 -8.48583984 13.63330078 C-11.1935743 16.46971372 -13.93587389 19.26868868 -16.6875 22.0625 C-17.15712158 22.55097412 -17.62674316 23.03944824 -18.1105957 23.54272461 C-19.48212196 24.9686859 -20.87166836 26.37724654 -22.26171875 27.78515625 C-23.07600342 28.61926025 -23.89028809 29.45336426 -24.72924805 30.31274414 C-27 32 -27 32 -29.29614258 31.76342773 C-30.139552 31.38553101 -30.139552 31.38553101 -31 31 C-30.13153635 26.37280576 -27.34752681 23.9148687 -24.1015625 20.703125 C-23.51079926 20.10949158 -22.92003601 19.51585815 -22.31137085 18.90423584 C-21.06250492 17.65333086 -19.80985213 16.40619673 -18.55371094 15.16259766 C-16.6285781 13.25354821 -14.71998836 11.32900532 -12.8125 9.40234375 C-11.59731518 8.18914083 -10.38120034 6.97686856 -9.1640625 5.765625 C-8.59209137 5.18758118 -8.02012024 4.60953735 -7.43081665 4.01397705 C-3.34490151 0 -3.34490151 0 0 0 Z " fill="#373737" transform="translate(110,91)"/>
<path d="M0 0 C1.8871875 0.0309375 1.8871875 0.0309375 3.8125 0.0625 C3.8125 0.7225 3.8125 1.3825 3.8125 2.0625 C33.5125 2.5575 33.5125 2.5575 63.8125 3.0625 C63.8125 3.3925 63.8125 3.7225 63.8125 4.0625 C59.6862764 4.84009383 55.79164078 5.18663958 51.59521484 5.18847656 C50.38731293 5.19228333 49.17941101 5.19609009 47.93490601 5.20001221 C45.9987291 5.20155304 45.9987291 5.20155304 44.0234375 5.203125 C41.28122387 5.2191635 38.53905685 5.24100637 35.796875 5.26171875 C31.48008373 5.29212302 27.16358827 5.31481125 22.84667969 5.31298828 C19.34457632 5.31220144 15.84335359 5.33553733 12.34148026 5.3748703 C10.36511389 5.3903958 8.38859881 5.37999266 6.41220093 5.36920166 C4.60980453 5.39382477 4.60980453 5.39382477 2.77099609 5.41894531 C1.71431732 5.42259094 0.65763855 5.42623657 -0.43106079 5.42999268 C-4.11612786 6.27558793 -5.03492465 8.05929871 -7.1875 11.0625 C-9.9375 11.875 -9.9375 11.875 -12.1875 12.0625 C-11.9375 8.6875 -11.9375 8.6875 -11.1875 5.0625 C-9.125 3.625 -9.125 3.625 -7.1875 3.0625 C-7.1875 2.4025 -7.1875 1.7425 -7.1875 1.0625 C-4.43671116 0.14557039 -2.82801087 -0.04636083 0 0 Z " fill="#484848" transform="translate(68.1875,39.9375)"/>
<path d="M0 0 C10.9442931 -0.13925617 21.88837411 -0.24575098 32.83337402 -0.31087303 C37.9160907 -0.34213475 42.99819953 -0.38451314 48.08056641 -0.45263672 C52.98894186 -0.51801352 57.89673409 -0.55374483 62.80551147 -0.56926346 C64.67460304 -0.58031699 66.54366405 -0.60190256 68.4125061 -0.63438034 C86.08457347 -0.92917406 86.08457347 -0.92917406 91.93115234 4.51278687 C93 6 93 6 93 8 C88.61110675 7.33501617 85.0188515 5.81242323 81 4 C81 3.34 81 2.68 81 2 C80.01472321 2.00444122 79.02944641 2.00888245 78.01431274 2.01345825 C68.74377913 2.05394432 59.47326337 2.08395547 50.20266151 2.10362434 C45.43617706 2.11407612 40.66976379 2.12826064 35.90332031 2.15087891 C31.30625073 2.17255773 26.70924976 2.18455812 22.11213303 2.18975449 C20.35539036 2.19345919 18.59865159 2.20069322 16.84193802 2.21146011 C14.38754312 2.22590924 11.93343427 2.22798073 9.47900391 2.22705078 C8.74748611 2.23424133 8.01596832 2.24143188 7.26228333 2.24884033 C2.22810432 2.22810432 2.22810432 2.22810432 0 0 Z " fill="#1B1B1B" transform="translate(67,32)"/>
<path d="M0 0 C1.216875 0.04125 2.43375 0.0825 3.6875 0.125 C3.6875 0.455 3.6875 0.785 3.6875 1.125 C41.8025 1.62 41.8025 1.62 80.6875 2.125 C80.6875 2.455 80.6875 2.785 80.6875 3.125 C79.11348671 3.13713028 79.11348671 3.13713028 77.50767517 3.14950562 C67.60578377 3.2270796 57.70402787 3.31484723 47.8023138 3.41252708 C42.71206817 3.46241628 37.62184254 3.50874696 32.53149414 3.546875 C27.61659427 3.58382098 22.70186488 3.63020617 17.78711128 3.68306351 C15.91452597 3.70155801 14.04190418 3.71668411 12.16926384 3.72834396 C9.54097003 3.74529121 6.91306244 3.77434632 4.28491211 3.80615234 C3.51526627 3.80831253 2.74562042 3.81047272 1.95265198 3.81269836 C-2.81492106 3.88612666 -6.78095024 4.62592737 -11.3125 6.125 C-11.3125 6.785 -11.3125 7.445 -11.3125 8.125 C-11.9725 8.125 -12.6325 8.125 -13.3125 8.125 C-13.745625 8.99511719 -13.745625 8.99511719 -14.1875 9.8828125 C-14.87906741 11.26114477 -15.58444629 12.63277472 -16.3125 13.9921875 C-19.68689952 20.76734904 -20.50524635 27.65790375 -21.3125 35.125 C-21.6425 35.125 -21.9725 35.125 -22.3125 35.125 C-22.42151505 32.29060863 -22.50027904 29.46049797 -22.5625 26.625 C-22.59601562 25.83351563 -22.62953125 25.04203125 -22.6640625 24.2265625 C-22.76074144 18.32914739 -21.66621625 14.02343258 -18.3125 9.125 C-16.12890625 6.8828125 -16.12890625 6.8828125 -13.875 5.25 C-13.13378906 4.69570313 -12.39257812 4.14140625 -11.62890625 3.5703125 C-7.79310835 1.1769816 -4.54589401 -0.1540981 0 0 Z " fill="#474747" transform="translate(67.3125,28.875)"/>
<path d="M0 0 C2.94365036 0.08013567 3.75101278 0.11218266 6.0625 2.0625 C7.70042196 5.85019452 7.43332016 8.33206829 6.0625 12.1875 C5.7325 12.909375 5.4025 13.63125 5.0625 14.375 C2.01152735 14.66282761 -0.89488549 14.79504236 -3.9375 14.375 C-6.0625 12.3125 -6.0625 12.3125 -6.9375 9.375 C-6.63260327 3.3786977 -6.43620121 0.61297154 0 0 Z M-0.9375 5.375 C-0.9375 6.365 -0.9375 7.355 -0.9375 8.375 C0.0525 8.045 1.0425 7.715 2.0625 7.375 C1.7325 6.715 1.4025 6.055 1.0625 5.375 C0.4025 5.375 -0.2575 5.375 -0.9375 5.375 Z " fill="#272727" transform="translate(106.9375,205.625)"/>
<path d="M0 0 C0.85213015 2.38596441 1.1659886 3.57013209 0.23828125 5.97265625 C-1.96741018 9.58386714 -5.16092895 11.36609136 -9 13 C-12.66973595 13.66547117 -16.27421509 13.92466244 -20 14 C-20 13.67 -20 13.34 -20 13 C-42.77 12.67 -65.54 12.34 -89 12 C-89 11.67 -89 11.34 -89 11 C-88.03613373 10.99635437 -87.07226746 10.99270874 -86.07919312 10.98895264 C-76.98628421 10.95197752 -67.89371318 10.89417742 -58.80106163 10.81609726 C-54.12663768 10.77662353 -49.45240209 10.74443457 -44.77783203 10.72900391 C-40.26479185 10.71383659 -35.75226948 10.67938988 -31.23945999 10.63169098 C-29.51957327 10.61687793 -27.79961262 10.60895903 -26.07966232 10.60811615 C-23.66631918 10.60574444 -21.25440471 10.57865056 -18.84130859 10.54589844 C-18.13352264 10.5509288 -17.42573669 10.55595917 -16.69650269 10.56114197 C-11.66954345 10.45589944 -8.96471911 8.98135538 -5 6 C-4.01 5.67 -3.02 5.34 -2 5 C-0.78130071 2.49552484 -0.78130071 2.49552484 0 0 Z " fill="#323232" transform="translate(163,214)"/>
<path d="M0 0 C0.77097015 0.01936111 1.54194031 0.03872223 2.33627319 0.05867004 C4.8849074 0.12394209 7.43326428 0.19682968 9.98168945 0.26977539 C11.74858895 0.3165137 13.51550105 0.36277727 15.28242493 0.40858459 C19.93337471 0.53043868 24.58412491 0.65874999 29.23486328 0.78839111 C33.98044672 0.91953773 38.72619007 1.04459838 43.47192383 1.17016602 C52.78393974 1.41745343 62.0957562 1.67156041 71.4074707 1.92993164 C71.4074707 2.25993164 71.4074707 2.58993164 71.4074707 2.92993164 C61.01132657 2.97620481 50.6152068 3.01177523 40.21898079 3.03355598 C35.39196265 3.0440079 30.56501479 3.05819269 25.73803711 3.08081055 C21.08261293 3.10248886 16.42725648 3.11448965 11.77178574 3.11968613 C9.99271452 3.12339092 8.21364714 3.13062512 6.43460464 3.14139175 C3.94907777 3.15584018 1.46383337 3.1579124 -1.02172852 3.15698242 C-1.76259705 3.16417297 -2.50346558 3.17136353 -3.26678467 3.17877197 C-8.36442497 3.15803596 -8.36442497 3.15803596 -10.5925293 0.92993164 C-6.97332821 -0.27646872 -3.75683603 -0.1150744 0 0 Z " fill="#5A5A5A" transform="translate(73.592529296875,219.070068359375)"/>
<path d="M0 0 C0.66 0 1.32 0 2 0 C2.36351562 1.21236328 2.36351562 1.21236328 2.734375 2.44921875 C5.20815154 10.33676009 7.17380747 16.02688575 14.79296875 20.16015625 C18.54969544 21.58970712 22.45252942 22.01925707 26.42578125 22.5078125 C29 23 29 23 31 25 C22.2579448 25.54074568 14.10985623 25.3644438 7.15234375 19.421875 C2.77351829 14.64497449 0.12479755 9.62074856 -0.1875 3.0625 C-0.125625 2.051875 -0.06375 1.04125 0 0 Z " fill="#414141" transform="translate(45,203)"/>
<path d="M0 0 C4.29 0 8.58 0 13 0 C13 0.33 13 0.66 13 1 C32.14 1.33 51.28 1.66 71 2 C71 2.33 71 2.66 71 3 C65.16200408 4.69832609 60.06892629 5.25287193 54 5 C54 4.67 54 4.34 54 4 C36.18 3.67 18.36 3.34 0 3 C0 2.01 0 1.02 0 0 Z " fill="#535353" transform="translate(72,40)"/>
<path d="M0 0 C0.33 0.66 0.66 1.32 1 2 C9.01521567 3.5987567 17.62093867 3.20414272 25.76171875 3.31640625 C27.66942802 3.3475779 27.66942802 3.3475779 29.61567688 3.37937927 C32.95772287 3.43326231 36.29978243 3.48363429 39.64190674 3.53222656 C43.06795957 3.5829299 46.49393583 3.63835807 49.91992188 3.69335938 C56.61321981 3.79987258 63.30657595 3.9017487 70 4 C70 4.33 70 4.66 70 5 C49.21 5.33 28.42 5.66 7 6 C6.67 6.66 6.34 7.32 6 8 C3.69 7.67 1.38 7.34 -1 7 C-1.04254356 5.00045254 -1.04080783 2.99958364 -1 1 C-0.67 0.67 -0.34 0.34 0 0 Z " fill="#454545" transform="translate(62,197)"/>
<path d="M0 0 C1.8871875 0.0309375 1.8871875 0.0309375 3.8125 0.0625 C4.1425 1.7125 4.4725 3.3625 4.8125 5.0625 C3.575 5.124375 2.3375 5.18625 1.0625 5.25 C-2.41588068 5.65958085 -2.94584971 5.78632824 -5.375 8.5625 C-5.973125 9.3875 -6.57125 10.2125 -7.1875 11.0625 C-9.9375 11.875 -9.9375 11.875 -12.1875 12.0625 C-11.9375 8.6875 -11.9375 8.6875 -11.1875 5.0625 C-9.125 3.625 -9.125 3.625 -7.1875 3.0625 C-7.1875 2.4025 -7.1875 1.7425 -7.1875 1.0625 C-4.43671116 0.14557039 -2.82801087 -0.04636083 0 0 Z " fill="#404040" transform="translate(68.1875,39.9375)"/>
<path d="M0 0 C0.33 0 0.66 0 1 0 C1.09796875 1.07378906 1.1959375 2.14757812 1.296875 3.25390625 C1.44707486 4.69019245 1.59816414 6.12638583 1.75 7.5625 C1.811875 8.26697266 1.87375 8.97144531 1.9375 9.69726562 C2.58738629 15.57332081 4.13740454 20.6785049 8.921875 24.55859375 C9.52515625 24.84863281 10.1284375 25.13867188 10.75 25.4375 C12.35875 26.2109375 12.35875 26.2109375 14 27 C12.02 27.99 12.02 27.99 10 29 C5.25360268 26.24046667 0.90821912 23.35452864 -1 18 C-1.64977487 12.36068231 -1.43253248 6.64763841 -1 1 C-0.67 0.67 -0.34 0.34 0 0 Z " fill="#3A3A3A" transform="translate(52,192)"/>
<path d="M0 0 C0.99 0 1.98 0 3 0 C2.42435345 3.88561424 0.48746646 6.04613357 -2 9 C-3.52106634 12.04213267 -3.37429338 15.28047572 -3.5625 18.625 C-3.60568359 19.33140625 -3.64886719 20.0378125 -3.69335938 20.765625 C-3.79944751 22.51018537 -3.90022889 24.25506697 -4 26 C-4.99 26 -5.98 26 -7 26 C-7.05407567 23.41638482 -7.093707 20.83390745 -7.125 18.25 C-7.14175781 17.52039063 -7.15851562 16.79078125 -7.17578125 16.0390625 C-7.21072239 12.1955376 -7.17499684 9.25393228 -5 6 C-4.34 6 -3.68 6 -3 6 C-2.814375 5.071875 -2.814375 5.071875 -2.625 4.125 C-2 2 -2 2 0 0 Z " fill="#3D3D3D" transform="translate(58,38)"/>
<path d="M0 0 C7.05078508 0.25639218 11.68888678 2.31610396 17 7 C20.5869249 11.28556585 22.57654087 15.35387832 23 21 C22.01 21 21.02 21 20 21 C19.54625 19.7625 19.0925 18.525 18.625 17.25 C16.36635784 10.78383339 16.36635784 10.78383339 11 7 C8.33333333 5.66666667 5.66666667 4.33333333 3 3 C3 2.34 3 1.68 3 1 C2.01 0.67 1.02 0.34 0 0 Z " fill="#555555" transform="translate(146,29)"/>
<path d="M0 0 C0.99 0.33 1.98 0.66 3 1 C2.5 2.8125 2.5 2.8125 1 5 C-4.81191384 7.66991781 -9.32501645 8.39119914 -15.65625 8.07421875 C-16.44398804 8.04777786 -17.23172607 8.02133698 -18.04333496 7.99409485 C-20.52973541 7.90716349 -23.01453499 7.79773462 -25.5 7.6875 C-27.19786148 7.62415421 -28.89577897 7.56229127 -30.59375 7.50195312 C-34.73001148 7.35175873 -38.8649943 7.18139891 -43 7 C-42.67 6.34 -42.34 5.68 -42 5 C-41.03698975 5.01571045 -40.07397949 5.0314209 -39.08178711 5.04760742 C-35.4830778 5.10221809 -31.88440457 5.13646226 -28.28540039 5.16479492 C-26.7326032 5.17981105 -25.17984791 5.20023028 -23.62719727 5.22631836 C-21.38547376 5.26302073 -19.14431461 5.27979787 -16.90234375 5.29296875 C-15.87378517 5.31619453 -15.87378517 5.31619453 -14.82444763 5.33988953 C-9.75590846 5.34162926 -6.42975588 4.27307785 -2 2 C-1.34 1.34 -0.68 0.68 0 0 Z " fill="#505050" transform="translate(155,214)"/>
<path d="M0 0 C0.33 0 0.66 0 1 0 C1.33 4.62 1.66 9.24 2 14 C2.66 13.01 3.32 12.02 4 11 C4.76173392 15.3164922 5.16063604 18.74433453 4 23 C0.125 20.375 0.125 20.375 -1 17 C-1.09610691 14.28073978 -1.13933225 11.59335046 -1.125 8.875 C-1.12886719 8.13378906 -1.13273437 7.39257812 -1.13671875 6.62890625 C-1.1266598 1.1266598 -1.1266598 1.1266598 0 0 Z " fill="#494848" transform="translate(57,180)"/>
<path d="M0 0 C2.39763185 2.39763185 2.34280586 3.33273498 2.625 6.625 C2.69976562 7.44226563 2.77453125 8.25953125 2.8515625 9.1015625 C2.92503906 10.04128906 2.92503906 10.04128906 3 11 C3.66 11 4.32 11 5 11 C4.67 12.32 4.34 13.64 4 15 C3.67 14.01 3.34 13.02 3 12 C2.34 12 1.68 12 1 12 C0.34 13.32 -0.32 14.64 -1 16 C-2.32 16 -3.64 16 -5 16 C-4.525625 15.01 -4.05125 14.02 -3.5625 13 C-1.8289327 9.01198133 -1.44547566 5.30626471 -1 1 C-0.67 0.67 -0.34 0.34 0 0 Z " fill="#353535" transform="translate(161,198)"/>
<path d="M0 0 C2.00720923 0.28674418 4.0085944 0.61866701 6 1 C6 1.66 6 2.32 6 3 C6.66 3 7.32 3 8 3 C11.00943022 8.01571703 11.46706347 11.30182562 11 17 C10.34 17.99 9.68 18.98 9 20 C7.86515193 17.73030385 7.83573949 16.20757139 7.6875 13.6875 C7.26918849 9.35100405 6.01962111 7.21443538 3 4 C3 3.34 3 2.68 3 2 C1.68 1.67 0.36 1.34 -1 1 C-0.67 0.67 -0.34 0.34 0 0 Z " fill="#3A3A3A" transform="translate(152,40)"/>
<path d="M0 0 C0.66 0 1.32 0 2 0 C3 3 3 3 2.29296875 4.76953125 C1.92816406 5.44371094 1.56335937 6.11789063 1.1875 6.8125 C-1.73338695 12.91705265 -2.27959284 19.33623378 -3 26 C-3.33 26 -3.66 26 -4 26 C-4.10901505 23.16560863 -4.18777904 20.33549797 -4.25 17.5 C-4.28351562 16.70851563 -4.31703125 15.91703125 -4.3515625 15.1015625 C-4.45153439 9.00327706 -3.06910431 5.2682263 0 0 Z " fill="#444444" transform="translate(49,38)"/>
<path d="M0 0 C0 0.33 0 0.66 0 1 C-1.65 1 -3.3 1 -5 1 C-5 1.66 -5 2.32 -5 3 C-9.95 4.485 -9.95 4.485 -15 6 C-15 6.66 -15 7.32 -15 8 C-15.66 8 -16.32 8 -17 8 C-17.33 8.99 -17.66 9.98 -18 11 C-18.66 11 -19.32 11 -20 11 C-20.33 10.01 -20.66 9.02 -21 8 C-13.79107738 2.31156974 -9.2805345 -0.31459439 0 0 Z " fill="#484848" transform="translate(71,29)"/>
<path d="M0 0 C0.66 0 1.32 0 2 0 C1.18839788 4.86961269 0.21275049 7.78724951 -3.3125 11.3125 C-6 13 -6 13 -8.8125 12.75 C-9.8953125 12.37875 -9.8953125 12.37875 -11 12 C-9 9 -9 9 -7.1875 8.25 C-4.24438321 6.56821898 -2.9548103 4.27979952 -1.1484375 1.4609375 C-0.76945313 0.97882813 -0.39046875 0.49671875 0 0 Z " fill="#1E1E1E" transform="translate(162,210)"/>
<path d="M0 0 C1.36745617 2.17184216 1.72128916 4.1625398 2.0625 6.6875 C1.0725 6.6875 0.0825 6.6875 -0.9375 6.6875 C-3.9375 2.46527778 -3.9375 2.46527778 -3.9375 -0.3125 C-8.5575 -0.3125 -13.1775 -0.3125 -17.9375 -0.3125 C-13.16157032 -5.08842968 -5.2081183 -3.52808014 0 0 Z " fill="#454545" transform="translate(152.9375,45.3125)"/>
<path d="M0 0 C0.33 1.32 0.66 2.64 1 4 C4.38391693 5.06351675 5.5804634 5.21442982 8.8125 3.5625 C9.8953125 2.7890625 9.8953125 2.7890625 11 2 C11 5 11 5 10 9 C7.03 9 4.06 9 1 9 C-1.08954032 4.82091936 -1.16552619 4.19589427 0 0 Z " fill="#2F2F2F" transform="translate(102,211)"/>
<path d="M0 0 C0.33 0.66 0.66 1.32 1 2 C3.55491823 2.39213038 3.55491823 2.39213038 6.5 2.5 C9.53125 2.65625 9.53125 2.65625 12 3 C12.33 3.66 12.66 4.32 13 5 C12.030625 5.12375 11.06125 5.2475 10.0625 5.375 C8.5465625 5.684375 8.5465625 5.684375 7 6 C6.67 6.66 6.34 7.32 6 8 C3.69 7.67 1.38 7.34 -1 7 C-1.04254356 5.00045254 -1.04080783 2.99958364 -1 1 C-0.67 0.67 -0.34 0.34 0 0 Z " fill="#373737" transform="translate(62,197)"/>
<path d="M0 0 C5.99291003 0.41330414 9.25036599 1.31903365 14 5 C10.28233332 6.23922223 8.56110463 5.57018942 4.8125 4.5625 C3.72582031 4.27503906 2.63914063 3.98757812 1.51953125 3.69140625 C0.68808594 3.46324219 -0.14335937 3.23507813 -1 3 C-0.67 2.01 -0.34 1.02 0 0 Z " fill="#313131" transform="translate(144,35)"/>
<path d="M0 0 C0.82041075 2.29715009 1.1049494 3.62684659 0.4375 6 C-1.58620428 8.81558857 -4.02890404 10.26686069 -7 12 C-7.66 12 -8.32 12 -9 12 C-9 11.01 -9 10.02 -9 9 C-4.65714286 5 -4.65714286 5 -2 5 C-1.34 3.35 -0.68 1.7 0 0 Z " fill="#414141" transform="translate(163,214)"/>
<path d="M0 0 C3.72755198 1.24251733 5.27400351 3.20751579 8 6 C9.31175986 7.02813611 10.6369893 8.04084432 12 9 C10.375 9.75 10.375 9.75 8 10 C3.63395181 7.68332137 1.20803678 5.41607356 -1 1 C-0.67 0.67 -0.34 0.34 0 0 Z " fill="#454545" transform="translate(54,211)"/>
<path d="M0 0 C1.27875 -0.061875 2.5575 -0.12375 3.875 -0.1875 C4.95394531 -0.23970703 4.95394531 -0.23970703 6.0546875 -0.29296875 C6.69664063 -0.19628906 7.33859375 -0.09960938 8 0 C8.66 0.99 9.32 1.98 10 3 C9.34 3 8.68 3 8 3 C7.34 4.32 6.68 5.64 6 7 C5.67 5.68 5.34 4.36 5 3 C2.03 2.505 2.03 2.505 -1 2 C-0.67 1.34 -0.34 0.68 0 0 Z " fill="#2F2F2F" transform="translate(103,206)"/>
<path d="M0 0 C0.99 0.33 1.98 0.66 3 1 C1.9802352 3.78117672 1.33608762 4.81833102 -1.3125 6.25 C-4.01833686 7.00511726 -6.20707882 7.1595955 -9 7 C-9 6.34 -9 5.68 -9 5 C-7.88625 4.54625 -6.7725 4.0925 -5.625 3.625 C-2.03800992 2.27534014 -2.03800992 2.27534014 0 0 Z " fill="#444444" transform="translate(155,214)"/>
<path d="M0 0 C2.00720923 0.28674418 4.0085944 0.61866701 6 1 C6 1.66 6 2.32 6 3 C6.66 3 7.32 3 8 3 C8.33 3.99 8.66 4.98 9 6 C8.01 6.33 7.02 6.66 6 7 C4.5 5.625 4.5 5.625 3 4 C3 3.34 3 2.68 3 2 C1.68 1.67 0.36 1.34 -1 1 C-0.67 0.67 -0.34 0.34 0 0 Z " fill="#404040" transform="translate(152,40)"/>
<path d="M0 0 C0.33 1.32 0.66 2.64 1 4 C-2.63 4.33 -6.26 4.66 -10 5 C-9 3 -9 3 -6.93359375 2.1484375 C-5.69802734 1.76558594 -5.69802734 1.76558594 -4.4375 1.375 C-3.61121094 1.11460937 -2.78492188 0.85421875 -1.93359375 0.5859375 C-1.29550781 0.39257812 -0.65742188 0.19921875 0 0 Z " fill="#383838" transform="translate(153,223)"/>
<path d="M0 0 C0.33 0.99 0.66 1.98 1 3 C0.01 3.99 -0.98 4.98 -2 6 C-2.99 5.67 -3.98 5.34 -5 5 C-5 3.68 -5 2.36 -5 1 C-3 0 -3 0 0 0 Z " fill="#3F3F3F" transform="translate(87,139)"/>
<path d="M0 0 C1.8871875 0.0309375 1.8871875 0.0309375 3.8125 0.0625 C3.8125 0.3925 3.8125 0.7225 3.8125 1.0625 C2.1625 1.0625 0.5125 1.0625 -1.1875 1.0625 C-1.1875 1.7225 -1.1875 2.3825 -1.1875 3.0625 C-3.4975 3.3925 -5.8075 3.7225 -8.1875 4.0625 C-7.8575 3.0725 -7.5275 2.0825 -7.1875 1.0625 C-4.43671116 0.14557039 -2.82801087 -0.04636083 0 0 Z " fill="#575757" transform="translate(67.1875,28.9375)"/>
<path d="M0 0 C1.76462683 3.08809695 2 4.23312136 2 8 C4.64 8 7.28 8 10 8 C10 8.33 10 8.66 10 9 C7.03 9 4.06 9 1 9 C-1.08954032 4.82091936 -1.16552619 4.19589427 0 0 Z " fill="#373737" transform="translate(102,211)"/>
<path d="M0 0 C1.17949219 0.10183594 2.35898438 0.20367187 3.57421875 0.30859375 C4.47785156 0.39238281 5.38148437 0.47617188 6.3125 0.5625 C6.3125 0.8925 6.3125 1.2225 6.3125 1.5625 C4.02204632 1.78377098 1.73005236 1.9891504 -0.5625 2.1875 C-2.47675781 2.36152344 -2.47675781 2.36152344 -4.4296875 2.5390625 C-5.50476563 2.54679688 -6.57984375 2.55453125 -7.6875 2.5625 C-8.3475 1.9025 -9.0075 1.2425 -9.6875 0.5625 C-6.14075997 -0.61974668 -3.71227005 -0.33079634 0 0 Z " fill="#4C4C4C" transform="translate(72.6875,219.4375)"/>
<path d="M0 0 C1.9375 0.8125 1.9375 0.8125 4 2 C4.33 2.99 4.66 3.98 5 5 C3.35 4.67 1.7 4.34 0 4 C0 2.68 0 1.36 0 0 Z " fill="#1B1B1B" transform="translate(155,35)"/>
</svg>
