<?xml version="1.0" encoding="UTF-8"?>
<svg version="1.1" xmlns="http://www.w3.org/2000/svg" width="423" height="360">
<path d="M0 0 C1.78064305 1.44968324 3.50642384 2.94309768 5.21972656 4.47167969 C5.82896973 5.0043042 6.43821289 5.53692871 7.06591797 6.08569336 C10.71200519 9.29739683 14.22528702 12.6018119 17.60253906 16.09667969 C19.91867677 18.42445627 22.40568783 20.53925062 24.89160156 22.68261719 C29.38075933 26.59902035 33.75917173 30.64110385 38.15722656 34.65917969 C41.37201223 33.2571366 43.39636793 31.58820456 45.78222656 29.03417969 C47.57128906 27.12011719 47.57128906 27.12011719 49.15722656 25.65917969 C49.81722656 25.65917969 50.47722656 25.65917969 51.15722656 25.65917969 C51.15722656 24.99917969 51.15722656 24.33917969 51.15722656 23.65917969 C52.48535156 22.31933594 52.48535156 22.31933594 54.40722656 20.72167969 C57.48735451 18.10873164 60.49679294 15.44272156 63.45483398 12.69189453 C83.44664119 -5.88550439 83.44664119 -5.88550439 94.36425781 -5.57910156 C110.12926175 -4.23411521 122.38461518 5.12848975 135.33911133 13.37133789 C141.15722672 17.06311878 147.03631524 20.49070795 153.15722656 23.65917969 C156.26331846 25.28051146 159.36672898 26.90693509 162.46972656 28.53417969 C163.29512939 28.96601562 164.12053223 29.39785156 164.97094727 29.84277344 C169.8243928 32.39323777 174.60458933 35.02904272 179.34472656 37.78417969 C184.16307906 40.57669757 189.03698637 43.14346038 194.03222656 45.59667969 C199.77391 48.42427419 205.43425501 51.36838742 211.03222656 54.47167969 C211.71655762 54.84478271 212.40088867 55.21788574 213.10595703 55.60229492 C216.299715 57.3942622 218.09138821 58.56042217 220.15722656 61.65917969 C220.15722656 68.2080706 217.40092734 72.00689503 213.15722656 76.65917969 C211.33281926 78.40232164 209.45501867 80.0360196 207.51660156 81.65136719 C205.64509128 83.24401005 203.84157265 84.86459119 202.04785156 86.54199219 C201.23888428 87.2974231 201.23888428 87.2974231 200.41357422 88.06811523 C199.33720397 89.07666868 198.26388544 90.08849028 197.19384766 91.10375977 C193.37775915 94.65917969 193.37775915 94.65917969 191.15722656 94.65917969 C190.82722656 95.64917969 190.49722656 96.63917969 190.15722656 97.65917969 C188.76660156 99.06152344 188.76660156 99.06152344 186.90722656 100.59667969 C183.63678468 103.36126186 180.47429542 106.20658741 177.35131836 109.13452148 C160.46221582 124.95755875 160.46221582 124.95755875 151.65722656 124.90917969 C150.71878906 124.91433594 149.78035156 124.91949219 148.81347656 124.92480469 C146.06881617 124.65033865 144.57227297 123.9080065 142.15722656 122.65917969 C139.90090706 122.30942617 139.90090706 122.30942617 137.59472656 122.34667969 C136.44810547 122.32154297 136.44810547 122.32154297 135.27832031 122.29589844 C132.61921061 122.75132607 131.78670899 123.54431952 130.15722656 125.65917969 C129.11000434 128.80084637 129.02743427 131.00346269 129.01919556 134.30123901 C129.01101555 136.06355865 129.01101555 136.06355865 129.00267029 137.86148071 C129.00162796 139.15194305 129.00058563 140.4424054 128.99951172 141.77197266 C128.9948429 143.14359703 128.98969923 144.51521986 128.9841156 145.88684082 C128.97283785 148.84154998 128.96440214 151.79624908 128.95799637 154.75097275 C128.94731522 159.4237112 128.92707038 164.09637729 128.90487671 168.76907349 C128.84295531 182.05679004 128.78893165 195.34450223 128.75585938 208.63232422 C128.73751551 215.97033114 128.70858377 223.30821675 128.66785467 230.6461345 C128.64678294 234.52905256 128.63132716 238.41181773 128.62904739 242.29479599 C128.6269003 245.94744226 128.61102509 249.59977007 128.58465767 253.25231934 C128.57403903 255.23012499 128.57821811 257.20799277 128.58283997 259.18582153 C128.57174698 260.36634094 128.56065399 261.54686035 128.54922485 262.76315308 C128.54591471 263.7870558 128.54260456 264.81095852 128.53919411 265.8658886 C127.89951111 270.54382747 125.72535172 273.10396646 122.40722656 276.34667969 C114.81458568 281.7491357 106.62676943 280.93971514 97.64160156 280.88964844 C96.22064252 280.88845373 94.79968267 280.88800409 93.37872314 280.88825989 C90.40656556 280.88670075 87.43452938 280.87845917 84.46240234 280.86499023 C80.68251126 280.84806368 76.90275398 280.84417464 73.12282944 280.84493542 C70.18858601 280.84466124 67.25437092 280.83913963 64.32013702 280.83193398 C62.9281053 280.82878581 61.53607042 280.82678908 60.14403534 280.82604027 C52.87755187 280.81785471 45.73922936 280.67209899 38.52276611 279.77436829 C35.88933678 279.64613495 33.73476056 280.12602797 31.15722656 280.65917969 C29.02833436 280.75856456 26.89679592 280.80727887 24.765625 280.8203125 C23.493703 280.82992004 22.22178101 280.83952759 20.91131592 280.84942627 C19.52974631 280.85427555 18.14817459 280.85855406 16.76660156 280.86230469 C16.06530373 280.86513206 15.36400589 280.86795944 14.6414566 280.8708725 C10.92877327 280.88583047 7.21612844 280.8950808 3.50341797 280.89941406 C-0.31048141 280.90488783 -4.12402185 280.92890211 -7.93780899 280.95738602 C-10.88912956 280.97611318 -13.84036548 280.98122336 -16.79174042 280.98274994 C-18.19661161 280.98575527 -19.60148208 280.99371122 -21.00629425 281.00693512 C-38.37115769 281.15870505 -38.37115769 281.15870505 -45.71777344 275.40917969 C-51.4550425 267.98447855 -51.26713421 261.28117921 -51.21166992 252.16821289 C-51.21414074 250.80422667 -51.217982 249.44024235 -51.2230835 248.07626343 C-51.23139234 245.15047671 -51.23063912 242.22488483 -51.22289848 239.29909706 C-51.21128096 234.67246677 -51.22350528 230.0460854 -51.23951721 225.41947937 C-51.27564598 213.93331375 -51.28193784 202.44715481 -51.27941895 190.9609375 C-51.27770839 182.02267852 -51.28479479 173.08462377 -51.31939751 164.14642209 C-51.33619937 159.54693808 -51.33439158 154.94795241 -51.31857479 150.34847033 C-51.31278415 147.49000608 -51.32350549 144.63177908 -51.33882141 141.77335739 C-51.34433136 139.81563745 -51.32992445 137.85789326 -51.31495667 135.90022278 C-51.324534 134.73527283 -51.33411133 133.57032288 -51.34397888 132.37007141 C-51.34366496 130.85168907 -51.34366496 130.85168907 -51.34334469 129.30263233 C-51.98477604 125.90756666 -53.10875528 124.71989127 -55.84277344 122.65917969 C-60.05500689 122.25154419 -62.7953909 122.30262393 -66.78027344 123.65917969 C-71.72513883 125.27382961 -76.2369274 125.63691756 -81.17480469 123.78417969 C-85.88671042 121.34394231 -89.48043009 118.33349327 -93.09667969 114.48339844 C-96.7426148 110.67433424 -100.84276819 107.31069917 -104.90527344 103.95605469 C-105.54464844 103.42496094 -106.18402344 102.89386719 -106.84277344 102.34667969 C-107.70902344 101.64091797 -107.70902344 101.64091797 -108.59277344 100.92089844 C-109.84277344 99.65917969 -109.84277344 99.65917969 -109.84277344 97.65917969 C-110.43501709 97.38912109 -111.02726074 97.1190625 -111.63745117 96.84082031 C-113.82812544 95.66702828 -115.33605505 94.46126767 -117.12792969 92.75292969 C-117.73612549 92.17849121 -118.34432129 91.60405273 -118.97094727 91.01220703 C-119.92843872 90.0949585 -119.92843872 90.0949585 -120.90527344 89.15917969 C-122.24307602 87.89017091 -123.58162395 86.62194745 -124.92089844 85.35449219 C-125.91186523 84.41524902 -125.91186523 84.41524902 -126.92285156 83.45703125 C-130.46590183 80.13925122 -134.11745707 76.94323856 -137.76855469 73.74511719 C-140.8901816 70.60585396 -141.74682955 68.55465598 -142.21777344 64.15917969 C-141.76433718 59.92710798 -141.04576048 59.32485783 -137.84277344 56.65917969 C-135.60422227 55.42223667 -133.40350657 54.30230359 -131.09277344 53.22167969 C-123.79316304 49.69259715 -116.65098285 45.91082637 -109.53027344 42.03417969 C-108.54124023 41.49607666 -107.55220703 40.95797363 -106.53320312 40.40356445 C-102.6678271 38.29719874 -98.80487369 36.18646671 -94.94458008 34.07080078 C-90.26940135 31.51206906 -85.58218077 28.98829795 -80.84741211 26.54174805 C-67.87316399 19.8107962 -55.22633545 12.40620297 -43.15527344 4.15917969 C-30.07255614 -4.68495739 -13.79180805 -10.03505694 0 0 Z M-46.84277344 16.65917969 C-64.50679325 27.67425854 -82.65155436 37.69458574 -101.05297852 47.41259766 C-111.71516847 53.04452083 -122.30595682 58.79554256 -132.84277344 64.65917969 C-131.39488379 67.70228126 -130.14264264 69.51110737 -127.53027344 71.65917969 C-123.70238804 74.89440523 -120.01121457 78.24624661 -116.34277344 81.65917969 C-112.12060763 85.57859447 -107.85797259 89.43169813 -103.49121094 93.19042969 C-101.9089911 94.60018007 -100.43570527 96.06935176 -98.96777344 97.59667969 C-97.09713645 99.89133815 -97.09713645 99.89133815 -94.84277344 99.65917969 C-94.84277344 100.31917969 -94.84277344 100.97917969 -94.84277344 101.65917969 C-93.03962534 103.47671461 -91.08361523 105.06347988 -89.12011719 106.70605469 C-86.84277344 108.65917969 -86.84277344 108.65917969 -84.84667969 110.67480469 C-81.44914047 114.03816343 -79.12867597 116.10651614 -74.21777344 116.22167969 C-70.52233771 115.92478143 -67.34745197 114.85226174 -63.84277344 113.65917969 C-57.48644867 113.04405148 -53.14513917 114.02629496 -47.84277344 117.65917969 C-43.25924451 122.36023499 -42.71931573 126.04242554 -42.71147156 132.42822266 C-42.70746338 133.60592224 -42.7034552 134.78362183 -42.69932556 135.99700928 C-42.69985428 137.28544739 -42.700383 138.5738855 -42.70092773 139.90136719 C-42.69789499 141.27476106 -42.69437321 142.64815393 -42.69039917 144.02154541 C-42.68252008 146.97678743 -42.67736906 149.93201742 -42.67410851 152.88726807 C-42.66819309 157.55981126 -42.65164885 162.23227852 -42.63276672 166.90478516 C-42.62642974 168.50491329 -42.62010411 170.10504146 -42.61378956 171.70516968 C-42.61062375 172.50638622 -42.60745794 173.30760277 -42.60419619 174.1330986 C-42.56212166 185.00961755 -42.52912838 195.88610035 -42.5168457 206.76269531 C-42.5084723 214.10218908 -42.48601165 221.44149402 -42.44749004 228.78089333 C-42.42771079 232.66436891 -42.41533103 236.54756212 -42.42032433 240.43109131 C-42.42496194 244.08218238 -42.41121498 247.73273742 -42.38331223 251.3837204 C-42.37308229 253.36290639 -42.3826665 255.34216364 -42.39280701 257.3213501 C-42.38033936 258.49904968 -42.3678717 259.67674927 -42.35502625 260.89013672 C-42.35263789 261.91366241 -42.35024954 262.93718811 -42.34778881 263.99172974 C-41.70593889 267.38192859 -40.51939312 268.54576488 -37.84277344 270.65917969 C-34.48086208 271.77981681 -31.9463097 271.7861733 -28.40283203 271.78857422 C-27.75360779 271.79032654 -27.10438354 271.79207886 -26.43548584 271.79388428 C-24.28736705 271.79828752 -22.13933059 271.79536811 -19.99121094 271.79199219 C-18.49248234 271.79266616 -16.99375386 271.79363696 -15.49502563 271.79489136 C-12.34937502 271.79636667 -9.20375278 271.79422093 -6.05810547 271.78955078 C-2.04698586 271.78388307 1.9640664 271.78711466 5.97518349 271.79312325 C9.07405085 271.79675861 12.17290261 271.79557617 15.27177048 271.79299545 C16.7491901 271.79233285 18.22661118 271.79313104 19.70402908 271.79547501 C29.09481137 271.83658861 29.09481137 271.83658861 38.44775391 271.08837891 C42.15722656 270.65917969 42.15722656 270.65917969 45.15722656 271.65917969 C47.32317452 271.7637604 49.49220918 271.80783129 51.66064453 271.8203125 C52.31629395 271.8252774 52.97194336 271.83024231 53.64746094 271.83535767 C55.81478935 271.84995322 57.98204459 271.85677675 60.14941406 271.86230469 C61.65772503 271.86805811 63.16603599 271.87381582 64.67434692 271.87957764 C67.83677511 271.89008008 70.99917793 271.89592775 74.16162109 271.89941406 C78.20913106 271.90489849 82.25630457 271.92892832 86.30370903 271.95738602 C89.41957573 271.97603116 92.53536167 271.98121898 95.65127945 271.98274994 C97.14318812 271.98577256 98.6350955 271.99378797 100.12694931 272.00693512 C102.21656485 272.02403627 104.30536194 272.02210609 106.39501953 272.015625 C107.58288055 272.01927063 108.77074158 272.02291626 109.99459839 272.02667236 C113.55978081 271.61240348 115.37784294 270.91844226 118.15722656 268.65917969 C119.99683661 264.96879663 120.40884351 261.96253297 120.41551208 257.86599731 C120.42575409 256.12913162 120.42575409 256.12913162 120.436203 254.35717773 C120.43365005 253.09574951 120.43109711 251.83432129 120.4284668 250.53466797 C120.43285651 249.18569627 120.43815956 247.83672729 120.44430542 246.48776245 C120.45578794 243.58764108 120.46126355 240.68759261 120.46218681 237.78744888 C120.46413102 233.19798416 120.4822036 228.60866971 120.50294495 224.01925659 C120.5520863 212.61952847 120.58300263 201.21975959 120.60424805 189.81994629 C120.62078489 180.96022414 120.64363758 172.10063106 120.68726879 163.24099529 C120.70900531 158.6825896 120.71710674 154.12442935 120.71487606 149.56597543 C120.71654742 146.72486671 120.73062423 143.88391712 120.74808884 141.04286575 C120.75632177 139.10600676 120.74977223 137.16910242 120.74272156 135.23223877 C120.79465687 128.96872055 120.97635146 124.1328098 124.15722656 118.65917969 C128.23266834 115.36552781 133.21143592 113.38162769 138.46972656 113.22167969 C142.15722656 113.65917969 142.15722656 113.65917969 144.59472656 114.65917969 C148.62823175 116.23323049 151.91094383 116.71415676 156.15722656 115.65917969 C163.53643067 111.11813101 169.4328034 104.45884001 175.45019531 98.30371094 C178.78193855 95.04889106 182.33925915 92.20891701 186.01660156 89.35839844 C188.60198667 87.30613106 190.85504374 85.02194627 193.15722656 82.65917969 C195.28442912 80.82441741 197.42528246 79.00873013 199.58300781 77.20996094 C200.1025 76.69820313 200.62199219 76.18644531 201.15722656 75.65917969 C201.15722656 74.99917969 201.15722656 74.33917969 201.15722656 73.65917969 C202.04667969 73.27632812 202.04667969 73.27632812 202.95410156 72.88574219 C205.36947195 71.5410147 206.66934362 70.16703602 208.40722656 68.03417969 C208.92800781 67.40253906 209.44878906 66.77089844 209.98535156 66.12011719 C210.37207031 65.63800781 210.75878906 65.15589844 211.15722656 64.65917969 C197.02780141 56.80473151 197.02780141 56.80473151 182.65722656 49.40917969 C177.13531015 46.70781051 171.83106419 43.6636864 166.51269531 40.58886719 C163.66214046 38.94954926 160.79785377 37.35122721 157.90722656 35.78417969 C144.45126171 28.47500991 131.21573889 20.94253549 118.18017578 12.90478516 C115.24478838 11.09735738 112.30267445 9.30460382 109.34472656 7.53417969 C108.45140625 6.99535156 107.55808594 6.45652344 106.63769531 5.90136719 C100.75000424 2.95288567 93.58556652 2.63648924 87.15722656 3.65917969 C83.67700033 5.52637972 80.79576267 7.71414696 78.15722656 10.65917969 C78.15722656 11.31917969 78.15722656 11.97917969 78.15722656 12.65917969 C77.58488281 12.9028125 77.01253906 13.14644531 76.42285156 13.39746094 C73.75289118 14.88435267 72.0189365 16.64001877 69.90722656 18.84667969 C66.54862169 22.28161649 63.1199072 25.50465628 59.47363281 28.62792969 C55.78658905 31.86108779 52.2145036 35.21923143 48.63671875 38.57250977 C42.26030057 44.51086073 42.26030057 44.51086073 38.71508789 44.98754883 C35.52232083 44.57767275 34.50644891 43.64679988 32.23144531 41.40527344 C31.51666016 40.71498047 30.801875 40.0246875 30.06542969 39.31347656 C29.33259766 38.58193359 28.59976563 37.85039063 27.84472656 37.09667969 C26.39163081 35.67734666 24.93720966 34.25936924 23.48144531 32.84277344 C22.76182617 32.13854248 22.04220703 31.43431152 21.30078125 30.70874023 C18.64649501 28.17084354 15.88998168 25.77084987 13.1105957 23.37182617 C9.17148801 19.91815282 5.40841269 16.26905062 1.62597656 12.64550781 C-5.80464769 5.40594262 -5.80464769 5.40594262 -15.59277344 3.15917969 C-27.56694283 3.64402336 -36.97541971 10.50029108 -46.84277344 16.65917969 Z " fill="#091918" transform="translate(173.8427734375,30.3408203125)"/>
<path d="M0 0 C0.97309113 0.00205444 1.94618225 0.00410889 2.94876099 0.00622559 C4.05355804 -0.00307983 5.1583551 -0.01238525 6.29663086 -0.02197266 C7.49039337 -0.00557739 8.68415588 0.01081787 9.91409302 0.02770996 C11.14096832 0.02766968 12.36784363 0.02762939 13.63189697 0.02758789 C16.22943231 0.03295406 18.82696665 0.05058303 21.42434692 0.07946777 C25.39929923 0.12122249 29.37255278 0.12054617 33.34768677 0.11364746 C35.86983396 0.12414297 38.3919724 0.137083 40.91409302 0.15270996 C42.10380707 0.15291138 43.29352112 0.15311279 44.51928711 0.15332031 C45.63038849 0.16923218 46.74148987 0.18514404 47.88626099 0.20153809 C48.8609433 0.20995728 49.83562561 0.21837646 50.83984375 0.22705078 C54.03833404 0.69305933 55.93566881 1.74594062 58.54690552 3.62145996 C61.53135027 8.25993434 60.83947378 14.05042724 60.79690552 19.37145996 C60.80850708 20.79845215 60.80850708 20.79845215 60.82034302 22.25427246 C60.78881687 33.76131685 58.6140769 41.6593808 50.98440552 50.41442871 C45.32673336 55.92249896 37.84735554 57.65941677 30.10940552 57.99645996 C20.34574892 57.61012823 12.3097254 54.80344815 4.98440552 48.37145996 C-3.76151512 38.50426745 -5.69143209 28.11198842 -5.82809448 15.18395996 C-5.84203247 14.31932129 -5.85597046 13.45468262 -5.87033081 12.56384277 C-5.8641272 11.73852051 -5.85792358 10.91319824 -5.85153198 10.06286621 C-5.84814819 9.32753662 -5.8447644 8.59220703 -5.84127808 7.83459473 C-5.16433176 3.97514923 -3.97370238 1.00668643 0 0 Z M3.54690552 9.62145996 C2.80611384 28.18775037 2.80611384 28.18775037 11.48049927 42.92614746 C18.00829467 48.28165446 25.22864113 49.30174372 33.49221802 49.00036621 C38.70381082 48.35391544 42.44262165 46.84984262 46.07034302 43.00817871 C50.48725095 37.25087964 51.78542411 31.37502275 52.23440552 24.18395996 C52.32077271 22.92712402 52.40713989 21.67028809 52.49612427 20.37536621 C52.65133497 16.06247607 52.65133497 16.06247607 51.54690552 9.62145996 C35.70690552 9.62145996 19.86690552 9.62145996 3.54690552 9.62145996 Z " fill="#081717" transform="translate(148.45309448242188,114.3785400390625)"/>
</svg>
