<?xml version="1.0" standalone="no"?>
<!DOCTYPE svg PUBLIC "-//W3C//DTD SVG 20010904//EN"
 "http://www.w3.org/TR/2001/REC-SVG-20010904/DTD/svg10.dtd">
<svg version="1.0" xmlns="http://www.w3.org/2000/svg"
 width="427.000000pt" height="324.000000pt" viewBox="0 0 427.000000 324.000000"
 preserveAspectRatio="xMidYMid meet">

<g transform="translate(0.000000,324.000000) scale(0.100000,-0.100000)"
fill="#000000" stroke="none">
<path d="M576 2211 c-16 -17 -17 -59 -16 -474 0 -251 4 -466 8 -478 7 -18 115
-69 538 -256 291 -128 601 -266 689 -305 l160 -72 268 3 268 3 417 184 c229
102 534 236 677 300 143 63 267 119 275 124 13 8 15 72 15 481 0 410 -2 473
-15 479 -8 4 -25 12 -37 18 -17 9 -433 12 -1626 12 -1558 0 -1604 -1 -1621
-19z m3224 -146 l0 -85 -1585 0 -1585 0 0 85 0 85 1585 0 1585 0 0 -85z
m-2030 -248 c0 -184 -90 -430 -273 -744 -39 -68 -75 -123 -80 -123 -4 0 -184
77 -398 172 l-389 171 0 309 0 308 570 0 570 0 0 -93z m820 -5 c0 -65 7 -125
19 -175 42 -160 167 -444 281 -632 29 -48 48 -90 44 -94 -5 -4 -113 -53 -240
-109 l-232 -102 -245 0 -244 0 -239 106 c-132 58 -240 107 -242 109 -1 1 22
41 51 88 104 165 227 438 279 617 16 55 22 103 22 182 l1 108 373 0 372 0 0
-98z m1212 -208 c2 -195 -1 -308 -7 -313 -5 -4 -183 -84 -394 -176 -371 -164
-384 -168 -398 -150 -70 93 -215 379 -276 545 -56 150 -80 304 -61 378 l6 22
564 0 563 0 3 -306z"/>
</g>
</svg>
