<?xml version="1.0" standalone="no"?>
<!DOCTYPE svg PUBLIC "-//W3C//DTD SVG 20010904//EN"
 "http://www.w3.org/TR/2001/REC-SVG-20010904/DTD/svg10.dtd">
<svg version="1.0" xmlns="http://www.w3.org/2000/svg"
 width="371.000000pt" height="311.000000pt" viewBox="0 0 371.000000 311.000000"
 preserveAspectRatio="xMidYMid meet">

<g transform="translate(0.000000,311.000000) scale(0.100000,-0.100000)"
fill="#000000" stroke="none">
<path d="M543 2450 l-23 -9 0 -875 0 -875 22 -15 c20 -14 90 -16 568 -16 327
0 551 4 560 10 13 8 15 70 15 459 0 437 1 450 21 478 72 99 282 99 344 -1 19
-32 20 -48 20 -478 0 -370 2 -448 14 -457 10 -9 163 -11 586 -9 553 3 572 4
586 22 12 17 14 153 14 882 l0 863 -22 15 c-20 14 -164 16 -1353 15 -768 0
-1340 -4 -1352 -9z m2647 -135 l0 -65 -1300 0 -1300 0 0 65 0 65 1300 0 1300
0 0 -65z m-2296 -156 c-3 -6 -1 -62 6 -124 19 -175 -6 -280 -88 -375 -43 -51
-121 -90 -179 -90 l-43 0 0 300 0 300 156 0 c109 0 153 -3 148 -11z m1809 -87
c-13 -227 55 -371 212 -447 47 -23 81 -31 167 -39 l108 -10 0 -418 0 -418
-526 0 -525 0 1 423 c1 271 -2 431 -8 448 -18 46 -70 96 -124 120 -41 18 -71
24 -133 24 -93 0 -150 -21 -204 -76 -61 -61 -61 -57 -61 -519 l0 -420 -510 0
-510 0 0 374 0 373 55 6 c197 20 335 202 335 442 0 64 -13 176 -26 218 -5 16
41 17 874 17 l880 0 -5 -98z m487 -157 l0 -255 -78 0 c-118 0 -174 21 -243 89
-75 76 -89 120 -89 293 l0 128 205 0 205 0 0 -255z"/>
</g>
</svg>
