<?xml version="1.0" encoding="UTF-8"?>
<svg version="1.1" xmlns="http://www.w3.org/2000/svg" width="382" height="381">
<path d="M0 0 C1.43792381 -0.02017143 2.87582656 -0.04189488 4.31370544 -0.06504822 C8.21076592 -0.12163788 12.10757096 -0.15167453 16.00496793 -0.17328572 C18.44508471 -0.18726714 20.88513139 -0.20566112 23.32520866 -0.22530937 C30.97490104 -0.28534403 38.62442632 -0.32858662 46.27432972 -0.34852701 C55.07703837 -0.3717099 63.87690292 -0.45054943 72.67870575 -0.57802969 C79.50025255 -0.6733774 86.32099933 -0.71813033 93.1432032 -0.72543138 C97.2096714 -0.73090061 101.27335693 -0.75708864 105.33911324 -0.83635139 C133.33283456 -1.35246662 133.33283456 -1.35246662 140.60542965 5.16583347 C143.03566953 7.83643435 144.95455698 10.63970266 146.93920898 13.66040039 C148.5665068 15.36552718 150.22826854 17.03921614 151.93920898 18.66040039 C159.64754232 26.36873372 167.35587565 34.07706706 175.06420898 41.78540039 C175.54760742 42.26807373 176.03100586 42.75074707 176.52905273 43.24804688 C177.90010927 44.62123976 179.26352898 46.00204434 180.62670898 47.38305664 C182.97840134 49.7713319 182.97840134 49.7713319 185.93920898 52.09790039 C193.44591692 58.50988008 193.44591692 58.50988008 194.40467262 62.6896019 C194.59297439 65.09842685 194.6232075 67.46255322 194.59863281 69.87866211 C194.60911652 70.78662033 194.61960022 71.69457855 194.63040161 72.63005066 C194.65909468 75.61707981 194.65286675 78.60294593 194.64624023 81.59008789 C194.65935872 83.6666102 194.67466341 85.74311974 194.69206238 87.8196106 C194.73190732 93.27436049 194.74210255 98.72877653 194.74609375 104.18365479 C194.75542606 109.75413131 194.79284029 115.32441175 194.82788086 120.89477539 C194.89245171 131.81664124 194.92569598 142.73836037 194.93920898 153.66040039 C195.9590538 153.65373856 196.97889862 153.64707672 198.02964783 153.64021301 C207.66588453 153.57925643 217.30208183 153.53435808 226.93846798 153.50496387 C231.89200345 153.48934373 236.8453826 153.46817242 241.79882812 153.43408203 C246.58397001 153.40135803 251.36896203 153.38351994 256.15420723 153.37576866 C257.97495442 153.37024849 259.79569391 153.35946916 261.61637688 153.34321022 C264.17720804 153.32126225 266.73742896 153.31844065 269.29833984 153.31982422 C270.04209366 153.30903839 270.78584747 153.29825256 271.55213928 153.28713989 C277.73349527 153.32300621 284.04923473 154.46231685 289.06030273 158.27368164 C289.4947168 158.83442383 289.92913086 159.39516602 290.37670898 159.97290039 C290.82916992 160.5259082 291.28163086 161.07891602 291.74780273 161.64868164 C294.34675806 166.03708162 295.18918151 170.33691363 295.1999054 175.38401794 C295.2069902 176.5012323 295.21407501 177.61844666 295.22137451 178.76951599 C295.21889709 179.98059525 295.21641968 181.1916745 295.21386719 182.43945312 C295.22153358 184.36973862 295.22153358 184.36973862 295.22935486 186.33901978 C295.24270893 189.85764639 295.24332759 193.37616534 295.24079156 196.89481235 C295.23971947 199.83709098 295.24461126 202.77934805 295.24939698 205.72162205 C295.2604796 212.66517991 295.2609365 219.60868367 295.25488281 226.55224609 C295.24884243 233.70503357 295.26115843 240.85762437 295.28245288 248.0103783 C295.30008975 254.16173822 295.30606699 260.31303564 295.30281514 266.4644199 C295.30100556 270.13387565 295.30360586 273.80319107 295.31752968 277.47262383 C295.33248153 281.56586278 295.32311973 285.65870329 295.31152344 289.75195312 C295.31916718 290.96100815 295.32681091 292.17006317 295.33468628 293.41575623 C295.29059337 300.45644059 295.01035591 305.99435818 290.32592773 311.58618164 C289.76518555 312.04379883 289.20444336 312.50141602 288.62670898 312.97290039 C288.07370117 313.4434082 287.52069336 313.91391602 286.95092773 314.39868164 C281.69959885 317.69223354 276.37001042 317.94995539 270.33033752 317.9210968 C269.47668749 317.92492235 268.62303746 317.9287479 267.74351925 317.93268937 C264.89014766 317.94298779 262.03697849 317.93903323 259.18359375 317.93505859 C257.13497736 317.93940679 255.08636259 317.9445903 253.03775024 317.95054626 C247.47787716 317.96393536 241.91807207 317.96451506 236.35818601 317.96198297 C231.71594601 317.96091327 227.07371978 317.96579655 222.43148273 317.97058839 C211.47986474 317.98168311 200.52828105 317.98212106 189.57666016 317.97607422 C178.2795012 317.97003251 166.98246673 317.98235057 155.68532902 318.00364429 C145.98410929 318.02125738 136.2829292 318.02726213 126.58169407 318.02400655 C120.78838684 318.0221932 114.99516843 318.02483512 109.20187569 318.03872108 C103.75421945 318.0512901 98.30675739 318.04936398 92.85910416 318.0363102 C90.86085507 318.03394292 88.86259236 318.03668449 86.8643589 318.04493332 C84.13436853 318.05538951 81.40503107 318.04730913 78.67506409 318.03462219 C77.8863385 318.04199648 77.09761292 318.04937076 76.28498656 318.05696851 C68.34167704 317.97943042 62.61008565 315.1993962 56.93920898 309.66040039 C54.96049815 305.76092729 54.64407785 302.38811402 54.52514648 298.04711914 C54.48647461 296.79995117 54.44780273 295.5527832 54.40795898 294.26782227 C54.37702148 292.97424805 54.34608398 291.68067383 54.31420898 290.34790039 C54.27553711 289.03499023 54.23686523 287.72208008 54.19702148 286.36938477 C54.10287781 283.13319602 54.01724547 279.89701104 53.93920898 276.66040039 C53.10062347 276.65675476 52.26203796 276.65310913 51.39804077 276.64935303 C43.48238872 276.61143454 35.56714707 276.55453821 27.6517849 276.47649765 C23.58270058 276.43704373 19.51383199 276.40484524 15.44458008 276.3894043 C11.51505049 276.37422363 7.58611403 276.33975403 3.65684891 276.29209137 C2.16025584 276.27729193 0.66357808 276.26936019 -0.83308792 276.26851654 C-2.93518019 276.26614058 -5.03564153 276.2390156 -7.13745117 276.20629883 C-8.3321402 276.19741638 -9.52682922 276.18853394 -10.75772095 276.17938232 C-15.58097721 275.4215471 -18.61248153 273.41514446 -21.70915604 269.66327286 C-23.70149555 265.23697318 -23.47446544 261.13785924 -23.44174194 256.33605957 C-23.44642192 255.28584232 -23.45110189 254.23562507 -23.45592368 253.15358305 C-23.46790445 249.62903492 -23.45840414 246.10487339 -23.44897461 242.58032227 C-23.45303893 240.05570753 -23.45838002 237.53109456 -23.46490479 235.00648499 C-23.47717781 228.85789765 -23.47536273 222.70945384 -23.46666686 216.56086457 C-23.45989222 211.56387755 -23.45897264 206.56692132 -23.46223831 201.56993103 C-23.46269801 200.85878426 -23.46315771 200.14763748 -23.46363134 199.4149408 C-23.46459051 197.97026812 -23.46556315 196.52559545 -23.46654911 195.08092278 C-23.47510413 181.533626 -23.46526714 167.98639011 -23.44914801 154.43910331 C-23.43574472 142.81443355 -23.43807278 131.18985368 -23.4519043 119.56518555 C-23.46795816 106.06642887 -23.47428014 92.56772556 -23.46506751 79.06896067 C-23.46411186 77.62959704 -23.46316874 76.1902334 -23.46223831 74.75086975 C-23.46177549 74.04267191 -23.46131266 73.33447407 -23.46083581 72.60481569 C-23.45824533 67.61372294 -23.46261815 62.62266404 -23.46967697 57.63157654 C-23.47896841 50.91419733 -23.47235502 44.19701423 -23.4549942 37.47964287 C-23.45102048 35.01130392 -23.45217846 32.5429507 -23.4587822 30.07461739 C-23.46695254 26.71113076 -23.45673014 23.34819268 -23.44174194 19.98474121 C-23.44843411 19.0027423 -23.45512627 18.0207434 -23.46202123 17.00898695 C-23.40593622 10.54177812 -22.47875413 7.03911433 -17.75209045 2.38917542 C-12.52489909 -0.78413559 -5.90790478 0.0246179 0 0 Z M-12.06079102 11.66040039 C-12.98151169 14.42256241 -13.18675441 16.0481287 -13.18942547 18.89427185 C-13.19264991 19.762277 -13.19587436 20.63028215 -13.19919652 21.52459049 C-13.19764792 22.47876079 -13.19609931 23.43293108 -13.19450378 24.41601562 C-13.19676934 25.42918319 -13.1990349 26.44235075 -13.20136911 27.48622036 C-13.20772308 30.89715639 -13.20687885 34.30805283 -13.20605469 37.71899414 C-13.20904527 40.1578883 -13.21244756 42.59678199 -13.2162323 45.03567505 C-13.2241654 50.98195638 -13.22728734 56.92822202 -13.22784468 62.87450719 C-13.22831953 67.70612431 -13.2303727 72.53773816 -13.2335453 77.36935425 C-13.24235255 91.06014152 -13.24696447 104.75092094 -13.24621483 118.44171107 C-13.24617487 119.18000159 -13.24613492 119.91829211 -13.24609375 120.67895508 C-13.24605287 121.41814411 -13.24601199 122.15733313 -13.24596987 122.91892183 C-13.24556319 134.90565794 -13.25513811 146.89236268 -13.26923212 158.87908971 C-13.28358104 171.1793864 -13.29050315 183.47966776 -13.28963834 195.77997303 C-13.2893059 202.68876788 -13.29207372 209.59752981 -13.30281639 216.50631714 C-13.31284931 223.00036135 -13.31260129 229.49434773 -13.30529976 235.98839951 C-13.30424951 238.37695288 -13.30664269 240.76551052 -13.31266022 243.15405655 C-13.32032097 246.40438278 -13.31577481 249.65446459 -13.30802917 252.90478516 C-13.31317274 253.85895545 -13.3183163 254.81312574 -13.32361573 255.79621029 C-13.31901693 256.66421544 -13.31441814 257.53222059 -13.30967999 258.42652893 C-13.30989735 259.17712869 -13.31011472 259.92772844 -13.31033868 260.70107365 C-13.1674712 262.98260548 -13.1674712 262.98260548 -11.06079102 265.66040039 C-8.23960358 266.10744074 -8.23960358 266.10744074 -4.8828125 266.0168457 C-3.58484238 266.0198468 -2.28687225 266.0228479 -0.9495697 266.02593994 C0.47299596 266.01393511 1.89555765 266.00145217 3.31811523 265.98852539 C4.77017522 265.98546875 6.22223813 265.98359191 7.67430115 265.98284912 C10.71836556 265.97824332 13.76216582 265.96380601 16.80615234 265.94165039 C20.71609303 265.91334257 24.62582569 265.90243679 28.53585911 265.89796829 C31.53405353 265.89381994 34.53220552 265.88400779 37.53037834 265.8720932 C38.97254024 265.86637999 40.41470625 265.86162478 41.85687447 265.85782623 C43.86814939 265.85098308 45.8793938 265.83645653 47.890625 265.8215332 C49.03709 265.8147052 50.18355499 265.8078772 51.36476135 265.80084229 C53.87070863 265.95141407 53.87070863 265.95141407 54.93920898 264.66040039 C55.04860319 261.64850442 55.09344763 258.65870074 55.09692383 255.64599609 C55.10200455 254.69963791 55.10708527 253.75327972 55.11231995 252.77824402 C55.12305025 250.71512603 55.13165991 248.65199622 55.13843918 246.58886147 C55.15019324 243.32319106 55.16963835 240.05765501 55.19155884 236.79203796 C55.25328273 227.50414506 55.3071909 218.21626395 55.34057617 208.92822266 C55.36152632 203.25354266 55.39683789 197.57910405 55.44133377 191.904562 C55.45549708 189.74087556 55.46421695 187.57714638 55.46738815 185.41341591 C55.47229881 182.38261325 55.49546304 179.35245001 55.52270508 176.32177734 C55.51819588 174.98193283 55.51819588 174.98193283 55.51359558 173.61502075 C55.58091263 168.5697867 56.104996 165.01844575 58.93920898 160.66040039 C59.59920898 160.33040039 60.25920898 160.00040039 60.93920898 159.66040039 C60.93920898 159.00040039 60.93920898 158.34040039 60.93920898 157.66040039 C68.86236188 155.36508976 76.05502311 154.23125472 84.29150391 154.33569336 C85.88643173 154.33744568 85.88643173 154.33744568 87.51358032 154.3392334 C90.98248745 154.34634666 94.45088307 154.37448141 97.91967773 154.40258789 C100.34393372 154.41073333 102.76819511 154.41739321 105.19245911 154.42263794 C111.53946335 154.43967243 117.88625015 154.47389468 124.2331543 154.51269531 C134.42994528 154.57215741 144.62684997 154.60566785 154.82375526 154.63846207 C158.38753367 154.65246162 161.95120602 154.67403507 165.51493835 154.69674683 C167.68004281 154.70676206 169.84514797 154.71662763 172.01025391 154.72631836 C173.00703659 154.73462677 174.00381927 154.74293518 175.0308075 154.75149536 C175.93198303 154.75445618 176.83315857 154.75741699 177.76164246 154.76046753 C178.54893832 154.76528578 179.33623419 154.77010403 180.1473875 154.77506828 C181.96282993 154.85694753 181.96282993 154.85694753 182.93920898 153.66040039 C183.03432165 151.0130195 183.06476533 148.39181039 183.05273438 145.74414062 C183.05295341 144.50034134 183.05295341 144.50034134 183.05317688 143.23141479 C183.05247749 140.47724841 183.04468392 137.72314878 183.03686523 134.96899414 C183.03500115 133.06470273 183.0335772 131.16041084 183.03257751 129.25611877 C183.02875161 124.23372076 183.01892072 119.21135147 183.00787354 114.18896484 C182.99766096 109.06811919 182.99308023 103.94726891 182.98803711 98.82641602 C182.97729851 88.77106482 182.96022123 78.71573499 182.93920898 68.66040039 C182.30825821 68.68938416 181.67730743 68.71836792 181.02723694 68.74822998 C156.75639174 69.85526633 156.75639174 69.85526633 147.37670898 69.91040039 C146.43375977 69.93102539 145.49081055 69.95165039 144.51928711 69.97290039 C139.23002526 70.00272005 135.48745313 69.68534372 130.93920898 66.66040039 C127.69387236 62.29598217 126.83293932 58.34642277 126.74975586 52.99951172 C126.72467957 51.62337456 126.72467957 51.62337456 126.69909668 50.21943665 C126.67873352 48.74581917 126.67873352 48.74581917 126.65795898 47.24243164 C126.63954956 46.22944504 126.62114014 45.21645844 126.60217285 44.17277527 C126.52347717 39.83843542 126.45551549 35.50394396 126.38696289 31.16943359 C126.33539717 28.0061842 126.27810744 24.84307506 126.22045898 21.67993164 C126.20009583 20.19720512 126.20009583 20.19720512 126.17932129 18.68452454 C126.154245 17.3225721 126.154245 17.3225721 126.12866211 15.93310547 C126.11613403 15.13020584 126.10360596 14.32730621 126.09069824 13.50007629 C126.13740711 11.64303492 126.13740711 11.64303492 124.93920898 10.66040039 C123.19750405 10.56192904 121.4517769 10.53407976 119.70729065 10.53341675 C118.57289551 10.53059692 117.43850037 10.5277771 116.26972961 10.52487183 C114.38631111 10.52790817 114.38631111 10.52790817 112.46484375 10.53100586 C111.15117828 10.52925354 109.83751282 10.52750122 108.48403931 10.5256958 C104.87043381 10.52112146 101.25685673 10.52291114 97.6432507 10.52607489 C93.86852518 10.52859901 90.09380216 10.52626075 86.31907654 10.52468872 C79.97784995 10.52286696 73.63663498 10.52527328 67.29541016 10.5300293 C59.9569466 10.53546959 52.61851083 10.53371098 45.28004795 10.52820289 C38.98875107 10.52366916 32.69746257 10.52302256 26.40616459 10.52564156 C22.6446229 10.5272032 18.88309428 10.52740122 15.12155342 10.52410507 C10.92867505 10.52068795 6.73584478 10.52542037 2.54296875 10.53100586 C0.66258659 10.52796951 0.66258659 10.52796951 -1.25578308 10.52487183 C-2.96160553 10.52910156 -2.96160553 10.52910156 -4.70188904 10.53341675 C-5.69428306 10.53379377 -6.68667707 10.5341708 -7.70914364 10.53455925 C-10.08187211 10.50478238 -10.08187211 10.50478238 -12.06079102 11.66040039 Z M135.93920898 19.66040039 C135.88979038 24.87482315 135.85348067 30.08910973 135.8293457 35.30371094 C135.81928488 37.07782363 135.80563476 38.85191974 135.78833008 40.62597656 C135.76408521 43.17525323 135.75272681 45.72431076 135.74389648 48.27368164 C135.73357391 49.06752762 135.72325134 49.8613736 135.71261597 50.67927551 C135.71182789 54.54263082 135.74480529 56.36879485 137.93920898 59.66040039 C141.54104213 60.86101144 144.71609486 60.68225465 148.45092773 60.53930664 C149.17915237 60.51569565 149.90737701 60.49208466 150.65766907 60.46775818 C152.98088738 60.39125689 155.30376092 60.30717479 157.62670898 60.22290039 C159.20286405 60.16966612 160.77903589 60.11692581 162.35522461 60.06469727 C166.21677058 59.93566017 170.07802464 59.79982414 173.93920898 59.66040039 C174.33311977 55.81653571 174.33311977 55.81653571 172.58596802 53.81268311 C171.95246429 53.18202942 171.31896057 52.55137573 170.66625977 51.90161133 C169.95196808 51.18116638 169.23767639 50.46072144 168.5017395 49.71844482 C167.72055756 48.95163391 166.93937561 48.184823 166.13452148 47.39477539 C165.34020721 46.60137756 164.54589294 45.80797974 163.72750854 44.99053955 C162.04579546 43.31487157 160.35922134 41.64407024 158.66821289 39.9777832 C156.07115625 37.41724996 153.49047209 34.84106175 150.91186523 32.26196289 C149.27869199 30.63861947 147.6446079 29.01619179 146.00952148 27.39477539 C145.232388 26.61986755 144.45525452 25.84495972 143.65457153 25.04656982 C142.93397552 24.33873352 142.21337952 23.63089722 141.47094727 22.90161133 C140.83585236 22.27414001 140.20075745 21.6466687 139.54641724 21.00018311 C138.03190316 19.44696399 138.03190316 19.44696399 135.93920898 19.66040039 Z M69.93920898 164.66040039 C65.45651297 169.14309641 64.81589577 169.90392408 64.80549622 175.80929565 C64.80123123 176.90010437 64.79696625 177.99091309 64.79257202 179.11477661 C64.79302521 180.31689789 64.79347839 181.51901917 64.79394531 182.75756836 C64.7905867 184.01939941 64.78722809 185.28123047 64.7837677 186.58129883 C64.77491771 190.04828538 64.77258915 193.51524726 64.77195191 196.98224401 C64.77100338 199.87489208 64.76732567 202.76753437 64.76377982 205.66018021 C64.75563123 212.48463808 64.75319593 219.30908275 64.75390625 226.13354492 C64.75450695 233.17606467 64.74395765 240.21850779 64.72816259 247.26100814 C64.7150908 253.30437674 64.70972221 259.34772028 64.71036166 265.39110291 C64.71061678 269.00180955 64.70775783 272.61244814 64.69718361 276.22314072 C64.6857123 280.25029494 64.69024722 284.27727735 64.69628906 288.30444336 C64.69066956 289.50251617 64.68505005 290.70058899 64.67926025 291.93496704 C64.68345474 293.03141541 64.68764923 294.12786377 64.69197083 295.25753784 C64.69142606 296.20991774 64.69088129 297.16229763 64.69032001 298.14353752 C64.95640169 300.83425973 65.46159084 302.40709768 66.93920898 304.66040039 C71.41840951 308.04715088 71.41840951 308.04715088 84.93920898 306.66040039 C84.93920898 259.80040039 84.93920898 212.94040039 84.93920898 164.66040039 C79.98920898 164.66040039 75.03920898 164.66040039 69.93920898 164.66040039 Z M94.93920898 164.66040039 C94.93920898 211.52040039 94.93920898 258.38040039 94.93920898 306.66040039 C147.40920898 306.66040039 199.87920898 306.66040039 253.93920898 306.66040039 C253.93920898 259.80040039 253.93920898 212.94040039 253.93920898 164.66040039 C201.46920898 164.66040039 148.99920898 164.66040039 94.93920898 164.66040039 Z M264.93920898 164.66040039 C264.93920898 211.52040039 264.93920898 258.38040039 264.93920898 306.66040039 C278.18436914 308.11802217 278.18436914 308.11802217 283.93920898 302.66040039 C284.68476659 300.06768573 284.68476659 300.06768573 284.5741272 297.16383362 C284.58822632 296.04647827 284.60232544 294.92912292 284.61685181 293.77790833 C284.60673065 292.55649643 284.5966095 291.33508453 284.58618164 290.07666016 C284.59494324 288.78688263 284.60370483 287.4971051 284.61273193 286.16824341 C284.6355224 282.63289433 284.6266902 279.09827497 284.61083651 275.56291318 C284.59817314 271.86165994 284.60991906 268.16046897 284.61776733 264.45921326 C284.62686384 258.24255158 284.61487744 252.02618689 284.59106445 245.80957031 C284.56386476 238.62594515 284.5726583 231.44302978 284.60019648 224.25942189 C284.62290109 218.08940105 284.62608078 211.91959368 284.61300313 205.74954456 C284.60521436 202.0655272 284.60415053 198.38184321 284.62068558 194.69784737 C284.6378378 190.58931726 284.61405306 186.48200637 284.58618164 182.37353516 C284.5963028 181.15414749 284.60642395 179.93475983 284.61685181 178.67842102 C284.55769475 173.97839319 284.41004778 170.59181535 282.27377319 166.36582947 C277.48603346 163.59793312 277.48603346 163.59793312 264.93920898 164.66040039 Z " fill="#020202" transform="translate(50.060791015625,21.339599609375)"/>
<path d="M0 0 C5.06270156 1.96918128 8.90262977 4.20362073 13.1875 7.625 C14.32497211 8.52283104 15.46300541 9.4199515 16.6015625 10.31640625 C17.16907227 10.7664502 17.73658203 11.21649414 18.32128906 11.68017578 C20.86978358 13.68383508 23.46504764 15.62293255 26.0625 17.5625 C27.04347656 18.29597656 28.02445313 19.02945313 29.03515625 19.78515625 C30.01355469 20.51605469 30.99195313 21.24695313 32 22 C34.99067974 24.24203501 37.98042648 26.4852941 40.96875 28.73046875 C43.06826109 30.30239651 45.17149185 31.86777723 47.28125 33.42578125 C47.82007813 33.82539063 48.35890625 34.225 48.9140625 34.63671875 C50.40984886 35.74566381 51.90797575 36.85144985 53.40625 37.95703125 C58.29818956 41.81017039 58.29818956 41.81017039 60 44 C59.93454266 46.85830392 59.50821207 48.36821053 57.71484375 50.59765625 C51.83422124 55.44432316 45.74795486 60.00338953 39.62890625 64.54296875 C35.3808144 67.70109574 31.18277125 70.9216871 26.98706055 74.14892578 C13.66188324 84.37785058 13.66188324 84.37785058 7 89.0625 C5.700625 89.97708984 5.700625 89.97708984 4.375 90.91015625 C1.44899875 92.25284432 0.01446304 91.99958757 -3 91 C-5.03352944 88.96647056 -4.16767314 84.7413151 -4.17700195 81.94775391 C-4.18357315 81.10386612 -4.19014435 80.25997833 -4.19691467 79.39051819 C-4.21669542 76.58586551 -4.22832017 73.78126645 -4.23828125 70.9765625 C-4.24235678 70.02139111 -4.2464323 69.06621971 -4.25063133 68.08210373 C-4.2715114 63.02771977 -4.28580531 57.97336312 -4.29516602 52.91894531 C-4.30624106 47.68735753 -4.34064802 42.45619387 -4.38033772 37.22475624 C-4.40643064 33.21167182 -4.41485126 29.1986896 -4.41844749 25.1855278 C-4.42333161 23.25654609 -4.4349971 21.32756949 -4.45348549 19.3986702 C-4.47772419 16.7024459 -4.47694029 14.00733407 -4.4699707 11.31103516 C-4.48278076 10.50987778 -4.49559082 9.7087204 -4.50878906 8.88328552 C-4.45748817 3.45524883 -4.45748817 3.45524883 -1.97062683 0.9805603 C-1.32031998 0.6569754 -0.67001312 0.3333905 0 0 Z M6 17 C6 36.47 6 55.94 6 76 C11.40725166 72.39516556 16.54535089 68.92461061 21.5625 64.875 C25.4790603 61.74493061 29.42110651 58.66675789 33.45703125 55.69140625 C34.19300537 55.14822754 34.92897949 54.60504883 35.68725586 54.04541016 C37.128186 52.98638037 38.57293453 51.93252338 40.02172852 50.88427734 C41.71669858 49.63641313 43.36372608 48.32389435 45 47 C45 46.34 45 45.68 45 45 C43.40650354 43.55264996 43.40650354 43.55264996 41.30078125 42.09375 C40.50945801 41.51931152 39.71813477 40.94487305 38.90283203 40.35302734 C38.04802246 39.74152832 37.19321289 39.1300293 36.3125 38.5 C34.56562912 37.23284147 32.81953859 35.9646065 31.07421875 34.6953125 C30.21103027 34.06915039 29.3478418 33.44298828 28.45849609 32.79785156 C25.14212841 30.37265478 21.87453241 27.88876173 18.625 25.375 C17.64789063 24.61960938 16.67078125 23.86421875 15.6640625 23.0859375 C13.84454256 21.66126939 12.0483153 20.20647494 10.2734375 18.7265625 C8.21033218 16.79839811 8.21033218 16.79839811 6 17 Z " fill="#000000" transform="translate(197,211)"/>
<path d="M0 0 C1.16087128 -0.0112793 2.32174255 -0.02255859 3.51779175 -0.03417969 C4.78752838 -0.02608276 6.05726501 -0.01798584 7.36547852 -0.00964355 C8.71917473 -0.01506501 10.07286505 -0.0221878 11.42654419 -0.03088379 C15.10015964 -0.04911779 18.77332571 -0.04204964 22.44694901 -0.02936745 C26.2914679 -0.01924003 30.13594834 -0.0286324 33.98046875 -0.03491211 C40.43667509 -0.0421893 46.8926984 -0.03259906 53.34887695 -0.0135498 C60.81303926 0.00821923 68.27676454 0.0011679 75.74091625 -0.02085543 C82.14953699 -0.03900751 88.55802617 -0.04156874 94.96666431 -0.03110075 C98.79424516 -0.0248647 102.62162059 -0.02403306 106.44918823 -0.0372467 C110.04774304 -0.04880198 113.64573443 -0.04078627 117.24422836 -0.01766968 C119.19480362 -0.00985777 121.14542654 -0.02174131 123.09597778 -0.03417969 C124.8372847 -0.01726074 124.8372847 -0.01726074 126.61376953 0 C127.62254654 0.0015081 128.63132355 0.0030162 129.67066956 0.00457001 C133.02798158 0.64562234 134.24582286 1.82860394 136.30688477 4.50793457 C136.24438477 7.13293457 136.24438477 7.13293457 135.30688477 9.50793457 C131.90230631 11.77765354 130.72211166 11.75892233 126.72729492 11.76190186 C124.98588226 11.77036133 124.98588226 11.77036133 123.20928955 11.7789917 C121.9343866 11.77494324 120.65948364 11.77089478 119.34594727 11.76672363 C117.99078178 11.76943346 116.63561776 11.77299434 115.28045654 11.77734375 C111.59869535 11.78647107 107.91704608 11.78292212 104.2352829 11.77658558 C100.38496089 11.77152735 96.53464855 11.77621654 92.68432617 11.77935791 C86.21800005 11.78299807 79.75171959 11.77819715 73.28540039 11.76867676 C65.80601403 11.7577921 58.3267367 11.76131764 50.84735298 11.77232957 C44.42945484 11.78140102 38.01158954 11.78268842 31.59368706 11.77745223 C27.75891202 11.77433174 23.92418826 11.77392533 20.0894165 11.78052521 C16.48446795 11.78629599 12.87966019 11.78230677 9.27472687 11.77073669 C7.31797988 11.76682393 5.36122101 11.77277806 3.40447998 11.7789917 C2.24353821 11.77335205 1.08259644 11.7677124 -0.11352539 11.76190186 C-1.12452301 11.7611478 -2.13552063 11.76039375 -3.17715454 11.75961685 C-5.69311523 11.50793457 -5.69311523 11.50793457 -8.69311523 9.50793457 C-9.63061523 7.13293457 -9.63061523 7.13293457 -9.69311523 4.50793457 C-6.75326074 0.68619484 -4.74334211 0.00709121 0 0 Z " fill="#070707" transform="translate(62.693115234375,117.4920654296875)"/>
<path d="M0 0 C1.16094177 -0.00701431 2.32188354 -0.01402863 3.51800537 -0.02125549 C4.79290833 -0.01361176 6.06781128 -0.00596802 7.38134766 0.00190735 C8.73651407 -0.00052042 10.0916787 -0.0042396 11.44683838 -0.00915527 C15.12865836 -0.01857007 18.81021277 -0.00913407 22.49201202 0.00417686 C26.3423314 0.01548293 30.19263754 0.0113845 34.04296875 0.00942993 C40.50932155 0.00854669 46.97556956 0.01963365 53.44189453 0.03804016 C60.92128688 0.05920828 68.40052571 0.06271786 75.87994194 0.0564782 C83.07047429 0.05078632 90.2609525 0.05642812 97.45147705 0.06765175 C100.51362101 0.07230008 103.57573188 0.07317058 106.63787842 0.0710659 C110.24283905 0.06918421 113.84764312 0.0772776 117.45256805 0.0931263 C119.40930698 0.09940269 121.36606964 0.09585866 123.32281494 0.09205627 C124.48375671 0.09914108 125.64469849 0.10622589 126.84082031 0.11352539 C127.85181793 0.11557826 128.86281555 0.11763113 129.90444946 0.11974621 C132.42041016 0.3742218 132.42041016 0.3742218 135.42041016 2.3742218 C136.43598603 5.6748434 136.52970055 7.04635061 135.42041016 10.3742218 C132.29667841 11.61380837 129.12924436 11.50232719 125.80322266 11.50793457 C124.65917969 11.51219955 123.51513672 11.51646454 122.33642578 11.52085876 C121.08539063 11.52040558 119.83435547 11.51995239 118.54541016 11.51948547 C117.21142482 11.5224784 115.87744036 11.52588123 114.54345703 11.52966309 C110.92370142 11.53849213 107.30396944 11.54084069 103.6842041 11.54147887 C100.66221873 11.54242891 97.64023886 11.54610816 94.61825562 11.54965097 C87.48980429 11.55779079 80.36136559 11.56023557 73.23291016 11.55952454 C65.87792961 11.55892334 58.52302231 11.56948465 51.1680603 11.5852682 C44.85289159 11.59833775 38.53774684 11.6037087 32.2225647 11.60306913 C28.45092187 11.60281404 24.6793442 11.60567151 20.90771484 11.61624718 C17.36185675 11.62591874 13.81612623 11.62601389 10.27026367 11.61873055 C8.34830102 11.61718428 6.42633841 11.62553738 4.50439453 11.63417053 C2.78833008 11.6278788 2.78833008 11.6278788 1.03759766 11.62145996 C0.04356934 11.62200473 -0.95045898 11.6225495 -1.97460938 11.62311077 C-4.64885592 11.36760388 -6.29068053 10.7408935 -8.57958984 9.3742218 C-8.94453201 3.90008933 -8.94453201 3.90008933 -7.41659546 1.69839191 C-4.87152514 -0.136173 -3.12409308 -0.00051834 0 0 Z " fill="#000000" transform="translate(62.57958984375,147.6257781982422)"/>
<path d="M0 0 C0.7062854 -0.00175232 1.4125708 -0.00350464 2.14025879 -0.00531006 C4.47292549 -0.00970684 6.80551613 -0.00679632 9.13818359 -0.00341797 C10.76760879 -0.00409208 12.39703389 -0.00506301 14.02645874 -0.00631714 C17.4444067 -0.00779155 20.86232852 -0.00564946 24.28027344 -0.00097656 C28.6376538 0.00469342 32.99497219 0.00145751 37.35235023 -0.00454903 C40.72061621 -0.00818482 44.08886781 -0.0070018 47.45713425 -0.00442123 C49.06211733 -0.00375888 50.66710177 -0.00455595 52.27208328 -0.00690079 C71.86181161 -0.02922276 71.86181161 -0.02922276 76.91162109 1.12939453 C78.91162109 3.12939453 78.91162109 3.12939453 79.22412109 6.12939453 C79.12099609 7.11939453 79.01787109 8.10939453 78.91162109 9.12939453 C75.14426522 11.64096512 72.17805146 11.41084447 67.81591797 11.38818359 C66.57890892 11.39344055 66.57890892 11.39344055 65.31690979 11.39880371 C62.5879782 11.40761403 59.85930537 11.40177436 57.13037109 11.39501953 C55.23612417 11.39636638 53.34187758 11.39830708 51.44763184 11.40081787 C47.47644766 11.40376818 43.50535342 11.39947445 39.53417969 11.39013672 C34.43953035 11.37874225 29.34509173 11.38530222 24.25045013 11.39728165 C20.3385865 11.40450273 16.42677296 11.40221117 12.51490784 11.39702606 C10.63619461 11.39569026 8.75747686 11.39733488 6.87876892 11.40198517 C4.25483115 11.40705446 1.63123639 11.39933452 -0.99267578 11.38818359 C-2.1616465 11.39425629 -2.1616465 11.39425629 -3.35423279 11.40045166 C-7.1392364 11.37059664 -8.85958789 11.28192187 -12.08837891 9.12939453 C-13.1585175 6.65984392 -13.21129319 5.52048544 -12.40087891 2.94189453 C-9.58349817 -0.94877411 -4.39565004 0.00274166 0 0 Z " fill="#060606" transform="translate(66.08837890625,56.87060546875)"/>
<path d="M0 0 C0.80318161 0.00404846 1.60636322 0.00809692 2.43388367 0.01226807 C3.70234383 0.00701111 3.70234383 0.00701111 4.99642944 0.00164795 C7.80053337 -0.00717733 10.6043864 -0.00131743 13.40849304 0.00543213 C15.35140532 0.00408571 17.29431727 0.00214537 19.23722839 -0.00036621 C23.31274111 -0.00331855 27.38816627 0.00098371 31.46366882 0.01031494 C36.69632689 0.02170953 41.92877982 0.01515064 47.16143036 0.00317001 C51.17447973 -0.00404561 55.18748019 -0.00176203 59.20053101 0.0034256 C61.1303103 0.00476292 63.06009399 0.00311151 64.98986816 -0.00153351 C67.68356646 -0.00659387 70.37692921 0.00110451 73.07060242 0.01226807 C73.87378403 0.0082196 74.67696564 0.00417114 75.50448608 0 C81.02371483 0.04252892 81.02371483 0.04252892 83.25224304 2.27105713 C83.50224304 5.27105713 83.50224304 5.27105713 83.25224304 8.27105713 C80.68849685 10.83480332 78.99972711 10.51518136 75.50448608 10.54211426 C74.29971367 10.53604156 74.29971367 10.53604156 73.07060242 10.52984619 C71.80214226 10.53510315 71.80214226 10.53510315 70.50805664 10.54046631 C67.70395271 10.54929158 64.90009968 10.54343169 62.09599304 10.53668213 C60.15308076 10.53802855 58.21016881 10.53996889 56.26725769 10.54248047 C52.19174497 10.54543281 48.11631982 10.54113055 44.04081726 10.53179932 C38.80815919 10.52040473 33.57570626 10.52696361 28.34305573 10.53894424 C24.33000636 10.54615987 20.31700589 10.54387628 16.30395508 10.53868866 C14.37417578 10.53735134 12.44439209 10.53900275 10.51461792 10.54364777 C7.82091962 10.54870813 5.12755687 10.54100975 2.43388367 10.52984619 C1.63070206 10.53389465 0.82752045 10.53794312 0 10.54211426 C-5.51922875 10.49958534 -5.51922875 10.49958534 -7.74775696 8.27105713 C-7.99775696 5.27105713 -7.99775696 5.27105713 -7.74775696 2.27105713 C-5.18401077 -0.29268906 -3.49524102 0.0269329 0 0 Z " fill="#020202" transform="translate(61.74775695800781,87.72894287109375)"/>
<path d="M0 0 C3.93815018 1.58452631 6.54354105 4.31504321 9.4375 7.3125 C9.90220703 7.78623047 10.36691406 8.25996094 10.84570312 8.74804688 C12.23322758 10.16266386 13.61663507 11.58131512 15 13 C15.89332031 13.89074219 16.78664062 14.78148438 17.70703125 15.69921875 C21.56323411 19.56856029 24.3633167 22.42902109 25 28 C24.01 28 23.02 28 22 28 C21.608125 28.804375 21.21625 29.60875 20.8125 30.4375 C19 33 19 33 17.03125 33.5546875 C15.02883367 33.78736264 13.01345559 33.90097759 11 34 C10.34 32.68 9.68 31.36 9 30 C12.96 29.505 12.96 29.505 17 29 C14.36716862 22.44889605 11.08184174 16.75539685 7 11 C5.68 12.32 4.36 13.64 3 15 C3 14.34 3 13.68 3 13 C2.34 13 1.68 13 1 13 C-3 8.52941176 -3 8.52941176 -3 6 C-3.66 5.67 -4.32 5.34 -5 5 C-3.625 3.5 -3.625 3.5 -2 2 C-1.34 2 -0.68 2 0 2 C0 1.34 0 0.68 0 0 Z " fill="#141414" transform="translate(213,53)"/>
<path d="M0 0 C0.33 0 0.66 0 1 0 C1.04898438 1.03640625 1.09796875 2.0728125 1.1484375 3.140625 C1.22349597 4.51044208 1.29904247 5.88023248 1.375 7.25 C1.4059375 7.93191406 1.436875 8.61382812 1.46875 9.31640625 C1.68259374 12.98739038 2.01077055 15.86251616 4 19 C5.7015625 18.98259766 5.7015625 18.98259766 7.4375 18.96484375 C8.95833167 18.9554559 10.47916514 18.94635678 12 18.9375 C12.74378906 18.92912109 13.48757812 18.92074219 14.25390625 18.91210938 C19.26148844 18.89033728 24.04279032 19.28458451 29 20 C28.67 20.99 28.34 21.98 28 23 C27.01 23 26.02 23 25 23 C25 23.66 25 24.32 25 25 C24.34 25.33 23.68 25.66 23 26 C23.33 26.66 23.66 27.32 24 28 C19.20607236 30.39696382 11.64963732 29.73743951 6.5859375 28.328125 C4.6875 27.5 4.6875 27.5 2 26 C2 25.34 2 24.68 2 24 C1.34 24 0.68 24 0 24 C-1.6875 22.75 -1.6875 22.75 -3 21 C-2.6875 18.8125 -2.6875 18.8125 -2 17 C-1.34 17.33 -0.68 17.66 0 18 C-0.66 17.01 -1.32 16.02 -2 15 C-2.265625 12.44140625 -2.265625 12.44140625 -2.25 9.5625 C-2.25515625 8.61503906 -2.2603125 7.66757813 -2.265625 6.69140625 C-1.99748089 3.97447547 -1.38531142 2.32534417 0 0 Z " fill="#040404" transform="translate(183,63)"/>
<path d="M0 0 C7.08411622 -0.05058526 14.16818612 -0.08568494 21.25244141 -0.10986328 C23.66391744 -0.11993954 26.07538122 -0.13360081 28.48681641 -0.15087891 C31.94697085 -0.1750559 35.4069642 -0.18646669 38.8671875 -0.1953125 C39.95055389 -0.20563507 41.03392029 -0.21595764 42.15011597 -0.22659302 C43.1510025 -0.22674408 44.15188904 -0.22689514 45.18310547 -0.22705078 C46.06690887 -0.231492 46.95071228 -0.23593323 47.86129761 -0.24050903 C50 0 50 0 52 2 C51.38125 2.103125 50.7625 2.20625 50.125 2.3125 C47.63473516 2.87525373 47.63473516 2.87525373 46 6 C40.34148137 8.82925932 34.16163028 8.17946496 28 8 C27.34 6.68 26.68 5.36 26 4 C29.875 4.875 29.875 4.875 31 6 C33.41537838 6.41717279 33.41537838 6.41717279 36 6 C37.84315671 4.0995533 37.84315671 4.0995533 39 2 C37.845 2.165 36.69 2.33 35.5 2.5 C31.30092197 3.03238311 27.22936959 3.07552446 23 3 C23.99 4.65 24.98 6.3 26 8 C24.02 7.67 22.04 7.34 20 7 C19.505 5.02 19.505 5.02 19 3 C13.72 3 8.44 3 3 3 C2.67 3.99 2.34 4.98 2 6 C-3.30274075 8.72302904 -10.18124909 8.99078298 -16 8 C-17.86328125 5.9765625 -17.86328125 5.9765625 -19 4 C-18.13117188 4.01160156 -17.26234375 4.02320313 -16.3671875 4.03515625 C-15.21476562 4.04417969 -14.06234375 4.05320313 -12.875 4.0625 C-11.16957031 4.07990234 -11.16957031 4.07990234 -9.4296875 4.09765625 C-6.1870844 4.005327 -3.18067388 3.61389906 0 3 C0 2.01 0 1.02 0 0 Z " fill="#161616" transform="translate(113,148)"/>
<path d="M0 0 C0.33 0 0.66 0 1 0 C1.04898438 1.03640625 1.09796875 2.0728125 1.1484375 3.140625 C1.22349597 4.51044208 1.29904247 5.88023248 1.375 7.25 C1.4059375 7.93191406 1.436875 8.61382812 1.46875 9.31640625 C1.69783932 13.24910625 2.19447103 15.38894206 4 19 C9.61 19 15.22 19 21 19 C21 19.66 21 20.32 21 21 C16.38 21.33 11.76 21.66 7 22 C7.66 23.65 8.32 25.3 9 27 C7.1875 27.625 7.1875 27.625 5 28 C4.01 27.34 3.02 26.68 2 26 C2 25.34 2 24.68 2 24 C1.34 24 0.68 24 0 24 C-1.6875 22.75 -1.6875 22.75 -3 21 C-2.6875 18.8125 -2.6875 18.8125 -2 17 C-1.34 17.33 -0.68 17.66 0 18 C-0.66 17.01 -1.32 16.02 -2 15 C-2.265625 12.44140625 -2.265625 12.44140625 -2.25 9.5625 C-2.25515625 8.61503906 -2.2603125 7.66757813 -2.265625 6.69140625 C-1.99748089 3.97447547 -1.38531142 2.32534417 0 0 Z " fill="#161616" transform="translate(183,63)"/>
<path d="M0 0 C0 0.99 0 1.98 0 3 C-5.87883349 5.61281488 -11.70731728 5.18328202 -18 5 C-17.67 5.66 -17.34 6.32 -17 7 C-17.99 6.67 -18.98 6.34 -20 6 C-20 5.01 -20 4.02 -20 3 C-28.25 2.67 -36.5 2.34 -45 2 C-45 1.67 -45 1.34 -45 1 C-29.988297 0.21801048 -15.03171209 -0.14417313 0 0 Z " fill="#0D0D0D" transform="translate(113,148)"/>
<path d="M0 0 C3.21524305 1.40844718 5.32183868 3.10344786 7.75 5.625 C8.67039063 6.57246094 8.67039063 6.57246094 9.609375 7.5390625 C10.29773438 8.26222656 10.29773438 8.26222656 11 9 C10.67 9.99 10.34 10.98 10 12 C8.68 12 7.36 12 6 12 C4.2488427 13.4166747 4.2488427 13.4166747 3 15 C3 14.34 3 13.68 3 13 C2.34 13 1.68 13 1 13 C-3 8.52941176 -3 8.52941176 -3 6 C-3.66 5.67 -4.32 5.34 -5 5 C-3.625 3.5 -3.625 3.5 -2 2 C-1.34 2 -0.68 2 0 2 C0 1.34 0 0.68 0 0 Z " fill="#020202" transform="translate(213,53)"/>
<path d="M0 0 C9.24 0 18.48 0 28 0 C28 0.33 28 0.66 28 1 C25.03 1.66 22.06 2.32 19 3 C19.99 4.65 20.98 6.3 22 8 C19.03 7.505 19.03 7.505 16 7 C15.67 5.68 15.34 4.36 15 3 C14.16855469 2.95101562 13.33710938 2.90203125 12.48046875 2.8515625 C11.39378906 2.77679688 10.30710937 2.70203125 9.1875 2.625 C8.10855469 2.55539063 7.02960938 2.48578125 5.91796875 2.4140625 C3 2 3 2 0 0 Z " fill="#101010" transform="translate(117,148)"/>
<path d="M0 0 C2.97 0 5.94 0 9 0 C9.12375 0.804375 9.2475 1.60875 9.375 2.4375 C9.58125 3.283125 9.7875 4.12875 10 5 C10.66 5.33 11.32 5.66 12 6 C10.68 6 9.36 6 8 6 C8 5.34 8 4.68 8 4 C7.34 4 6.68 4 6 4 C6 4.66 6 5.32 6 6 C2.7 6 -0.6 6 -4 6 C-3.34 5.01 -2.68 4.02 -2 3 C-1.34 3 -0.68 3 0 3 C0 2.01 0 1.02 0 0 Z " fill="#141414" transform="translate(173,121)"/>
<path d="M0 0 C3.36704285 -0.2295711 5.41370268 -0.33943529 8.375 1.375 C8.91125 1.91125 9.4475 2.4475 10 3 C10 3.66 10 4.32 10 5 C11.32 5 12.64 5 14 5 C14.66 3.35 15.32 1.7 16 0 C17.32 0 18.64 0 20 0 C19.125 4.875 19.125 4.875 18 6 C8.11688654 7.07592215 8.11688654 7.07592215 3.87109375 4.91796875 C2.25 3.5625 2.25 3.5625 0 1 C0 0.67 0 0.34 0 0 Z " fill="#161616" transform="translate(142,121)"/>
<path d="M0 0 C1.21816406 0.03480469 1.21816406 0.03480469 2.4609375 0.0703125 C3.68683594 0.09738281 3.68683594 0.09738281 4.9375 0.125 C5.87722656 0.15980469 5.87722656 0.15980469 6.8359375 0.1953125 C7.8259375 2.1753125 8.8159375 4.1553125 9.8359375 6.1953125 C8.1859375 6.1953125 6.5359375 6.1953125 4.8359375 6.1953125 C4.5059375 4.8753125 4.1759375 3.5553125 3.8359375 2.1953125 C2.48257855 3.16803925 1.14931146 4.1692391 -0.1640625 5.1953125 C-0.1640625 5.5253125 -0.1640625 5.8553125 -0.1640625 6.1953125 C-1.8140625 6.1953125 -3.4640625 6.1953125 -5.1640625 6.1953125 C-4.4726412 2.73820598 -3.94163347 0.35574309 0 0 Z " fill="#161616" transform="translate(82.1640625,120.8046875)"/>
<path d="M0 0 C0.33 0 0.66 0 1 0 C1 2.64 1 5.28 1 8 C3.94729537 9.15811388 3.94729537 9.15811388 7 9 C5.84826645 11.46800047 4.95216435 13.04783565 3 15 C3 14.34 3 13.68 3 13 C2.34 13 1.68 13 1 13 C-3 8.52941176 -3 8.52941176 -3 6 C-3.66 5.67 -4.32 5.34 -5 5 C-3.625 3.5 -3.625 3.5 -2 2 C-1.34 2 -0.68 2 0 2 C0 1.34 0 0.68 0 0 Z " fill="#141414" transform="translate(213,53)"/>
<path d="M0 0 C1.98 0 3.96 0 6 0 C5.67 0.99 5.34 1.98 5 3 C4.01 3 3.02 3 2 3 C2 3.66 2 4.32 2 5 C-1.21451269 6.60725635 -4.43612536 6.05748185 -8 6 C-8.66 4.68 -9.32 3.36 -10 2 C-9.01 2 -8.02 2 -7 2 C-7 2.66 -7 3.32 -7 4 C-4.69 3.34 -2.38 2.68 0 2 C0 1.34 0 0.68 0 0 Z " fill="#151515" transform="translate(206,83)"/>
<path d="M0 0 C1.51400391 0.01740234 1.51400391 0.01740234 3.05859375 0.03515625 C4.07050781 0.04417969 5.08242187 0.05320313 6.125 0.0625 C7.29869141 0.07990234 7.29869141 0.07990234 8.49609375 0.09765625 C6.62109375 3.97265625 6.62109375 3.97265625 5.49609375 5.09765625 C3.18359375 5.41015625 3.18359375 5.41015625 0.49609375 5.09765625 C-1.81640625 3.09765625 -1.81640625 3.09765625 -3.50390625 1.09765625 C-2.50390625 0.09765625 -2.50390625 0.09765625 0 0 Z " fill="#060606" transform="translate(143.50390625,149.90234375)"/>
<path d="M0 0 C5.61 0 11.22 0 17 0 C13.96225512 3.03774488 11.09816611 3.08204651 6.9375 3.25 C3 3 3 3 0 0 Z " fill="#000000" transform="translate(96,150)"/>
<path d="M0 0 C2.64 0 5.28 0 8 0 C8 1.98 8 3.96 8 6 C7.01 6 6.02 6 5 6 C5 5.34 5 4.68 5 4 C3.35 3.67 1.7 3.34 0 3 C0 2.01 0 1.02 0 0 Z " fill="#141414" transform="translate(188,121)"/>
<path d="M0 0 C2.375 -0.125 2.375 -0.125 5 0 C7 2 7 2 7 6 C5.1875 5.8125 5.1875 5.8125 3 5 C1.25 2.4375 1.25 2.4375 0 0 Z " fill="#161616" transform="translate(125,121)"/>
<path d="M0 0 C1.32 0.33 2.64 0.66 4 1 C4.33 2.65 4.66 4.3 5 6 C3.35 6 1.7 6 0 6 C0 4.02 0 2.04 0 0 Z " fill="#141414" transform="translate(137,121)"/>
<path d="M0 0 C1.2065625 0.0309375 1.2065625 0.0309375 2.4375 0.0625 C1.4475 2.0425 0.4575 4.0225 -0.5625 6.0625 C-1.5525 6.0625 -2.5425 6.0625 -3.5625 6.0625 C-3.605221 4.39638095 -3.60313832 2.72867115 -3.5625 1.0625 C-2.5625 0.0625 -2.5625 0.0625 0 0 Z " fill="#151515" transform="translate(117.5625,120.9375)"/>
<path d="M0 0 C1.65 0 3.3 0 5 0 C4.67 1.98 4.34 3.96 4 6 C2.68 6 1.36 6 0 6 C0 4.02 0 2.04 0 0 Z " fill="#141414" transform="translate(105,121)"/>
<path d="M0 0 C6.57142857 4 6.57142857 4 8 8 C7.01 8.33 6.02 8.66 5 9 C5 8.34 5 7.68 5 7 C4.360625 6.773125 3.72125 6.54625 3.0625 6.3125 C1 5 1 5 0.25 2.375 C0.1675 1.59125 0.085 0.8075 0 0 Z " fill="#070707" transform="translate(224,63)"/>
<path d="M0 0 C1.98 0 3.96 0 6 0 C5.34 1.32 4.68 2.64 4 4 C2.68 3.67 1.36 3.34 0 3 C0 2.01 0 1.02 0 0 Z " fill="#070707" transform="translate(182,120)"/>
</svg>
