<?xml version="1.0" encoding="UTF-8"?>
<svg version="1.1" xmlns="http://www.w3.org/2000/svg" width="398" height="436">
<path d="M0 0 C1.22005682 -0.00852488 1.22005682 -0.00852488 2.46476126 -0.01722199 C5.1881702 -0.03013316 7.9100952 -0.00732896 10.63342285 0.0153656 C12.58661714 0.01350167 14.5398104 0.00946529 16.49299622 0.00341797 C21.79678935 -0.00656621 27.10004904 0.0146296 32.40376472 0.04189801 C37.95210882 0.06571176 43.50044203 0.06278294 49.04882812 0.0632019 C58.36666912 0.06783159 67.68430593 0.09148414 77.0020752 0.12767029 C87.7772142 0.16940466 98.55216928 0.18698509 109.32738447 0.19029003 C120.79481108 0.1938892 132.26217142 0.21276459 143.72957039 0.23741031 C147.03563082 0.24364051 150.3416862 0.24727585 153.64775085 0.25044441 C158.8417643 0.25634405 164.03564623 0.2726547 169.22960472 0.29704857 C171.13676627 0.30449085 173.04394437 0.30856065 174.95112038 0.30902863 C177.55259165 0.31028587 180.1537159 0.32382766 182.75512695 0.34057617 C183.51145086 0.33816109 184.26777476 0.335746 185.04701757 0.33325773 C189.07254221 0.37388626 192.30405387 0.68808324 195.87756348 2.61473083 C197.05640507 4.97241403 196.95378292 6.19259006 196.85314941 8.81321716 C196.81917053 9.71787216 196.78519165 10.62252716 196.75018311 11.55459595 C196.70456238 12.57088577 196.65894165 13.5871756 196.61193848 14.63426208 C196.56518982 15.72704971 196.51844116 16.81983734 196.47027588 17.94573975 C195.69773316 34.77212308 194.47679202 51.57484833 193.32705688 68.37865067 C192.77704205 76.43912991 192.23647449 84.50025322 191.69406128 92.56124687 C191.48668302 95.64196327 191.27893506 98.7226546 191.07116699 101.80334473 C189.85205796 119.89851854 188.67946022 137.99648116 187.52623367 156.09595871 C187.32793969 159.20537305 187.12891116 162.31474018 186.92985249 165.42410564 C185.91572849 181.26596725 184.90855337 197.10825299 183.91100121 212.95116711 C183.37319779 221.48883643 182.83183236 230.02627624 182.28838539 238.56358814 C181.89445637 244.75574827 181.50475897 250.94815474 181.11834431 257.14078808 C180.8764315 261.0007474 180.63036 264.86043382 180.38319969 268.72006035 C180.26975912 270.50435105 180.15797424 272.28874799 180.04805946 274.07325935 C179.52036592 282.62633049 178.91813131 291.16819691 177.98181152 299.68748474 C177.84301071 300.9763559 177.7042099 302.26522705 177.561203 303.59315491 C176.87756348 306.61473083 176.87756348 306.61473083 173.87756348 308.61473083 C171.39709473 308.81004333 171.39709473 308.81004333 168.69006348 308.73973083 C167.78900879 308.72168396 166.8879541 308.70363708 165.95959473 308.68504333 C164.92898926 308.65023865 164.92898926 308.65023865 163.87756348 308.61473083 C163.89851074 309.87543396 163.91945801 311.13613708 163.94104004 312.43504333 C164.01376435 317.13886535 164.05948083 321.84263823 164.09729004 326.54685974 C164.11733183 328.5778694 164.14457294 330.60882189 164.17932129 332.63963318 C164.22816762 335.5689764 164.2506069 338.49755283 164.26818848 341.42723083 C164.28883362 342.32651306 164.30947876 343.22579529 164.33074951 344.15232849 C164.33285041 350.13456612 163.27530201 354.62365161 159.87756348 359.61473083 C155.61817993 363.6611452 151.9021214 365.85889128 146.00187683 365.88215637 C144.53211899 365.89495132 144.53211899 365.89495132 143.03266907 365.90800476 C141.96401108 365.90709839 140.89535309 365.90619202 139.79431152 365.90525818 C138.0985498 365.91533401 138.0985498 365.91533401 136.36853027 365.9256134 C132.62540307 365.94463553 128.88245478 365.94851985 125.13928223 365.95066833 C122.53859889 365.95709364 119.9379163 365.9638218 117.3372345 365.97084045 C111.88231422 365.98282401 106.42746501 365.9866058 100.97253418 365.9853363 C94.67745802 365.98413569 88.38272516 366.00522239 82.08773583 366.03682363 C76.02220662 366.06618259 69.95684144 366.07331089 63.89124489 366.07211685 C61.31526094 366.07447658 58.73927443 366.08332089 56.1633358 366.09878159 C52.55826787 366.11839158 48.95408135 366.11262193 45.34899902 366.10057068 C44.28641373 366.11180969 43.22382843 366.12304871 42.12904358 366.1346283 C35.82068673 366.08108103 32.02355671 365.34089465 26.87756348 361.61473083 C24.91662598 359.46629333 24.91662598 359.46629333 23.50256348 357.23973083 C23.0204541 356.51012146 22.53834473 355.78051208 22.04162598 355.02879333 C19.44687913 349.64774115 19.74115918 343.77855111 19.77990723 337.93504333 C19.78132217 337.12227936 19.78273712 336.30951538 19.78419495 335.47212219 C19.78976013 332.89461982 19.80230608 330.31720663 19.81506348 327.73973083 C19.82008298 325.98452376 19.8246451 324.22931532 19.82873535 322.47410583 C19.83971814 318.18761352 19.85695856 313.90118726 19.87756348 309.61473083 C19.27428223 309.58894958 18.67100098 309.56316833 18.04943848 309.53660583 C17.25021973 309.47988708 16.45100098 309.42316833 15.62756348 309.36473083 C14.83865723 309.31832458 14.04975098 309.27191833 13.23693848 309.22410583 C9.96943287 308.38018055 8.84133494 307.3693033 6.87756348 304.61473083 C6.35254561 301.7482329 6.06662913 299.2070801 5.93615723 296.32078552 C5.88343155 295.48891472 5.83070587 294.65704391 5.77638245 293.7999649 C5.60556627 291.04624558 5.46059694 288.2917672 5.31506348 285.53660583 C5.19854845 283.59424598 5.08002664 281.65200557 4.95959473 279.70988464 C4.710904 275.67540476 4.47074531 271.64054979 4.2364502 267.60520935 C3.75093015 259.35825709 3.15870857 251.11930029 2.5656929 242.87951088 C2.24944697 238.46830118 1.9415271 234.05651069 1.63293457 229.64476013 C1.50817185 227.86476041 1.38339558 226.08476163 1.25860596 224.30476379 C-2.35576034 172.71163538 -2.35576034 172.71163538 -3.91394043 147.62110901 C-4.89427828 131.84153751 -5.9980576 116.07214728 -7.12243652 100.30223083 C-8.60434343 79.50886818 -9.95140684 58.71098265 -11.17126465 37.90061951 C-11.2283963 36.93034317 -11.28552795 35.96006683 -11.34439087 34.96038818 C-11.45245952 33.09136505 -11.55697318 31.22213225 -11.65756226 29.35269165 C-11.88644527 25.17063792 -12.16387867 21.01149769 -12.60144043 16.84568787 C-12.67119583 16.11092728 -12.74095123 15.37616669 -12.81282043 14.61914062 C-13.00163819 12.6821462 -13.21863947 10.74795485 -13.43811035 8.81419373 C-13.12243652 5.61473083 -13.12243652 5.61473083 -11.11035919 2.95318508 C-7.37205063 0.02745222 -4.55465415 -0.07949146 0 0 Z M-1.12243652 12.61473083 C-1.22425262 14.07010216 -1.2520388 15.53080964 -1.24743652 16.98973083 C-1.25001465 17.78121521 -1.25259277 18.57269958 -1.25524902 19.38816833 C-1.05959786 24.14134073 -0.55313294 28.87707025 -0.12243652 33.61473083 C60.59756348 33.61473083 121.31756348 33.61473083 183.87756348 33.61473083 C184.20756348 26.68473083 184.53756348 19.75473083 184.87756348 12.61473083 C181.38095593 11.44919499 178.25054393 11.47613776 174.61410522 11.48774719 C173.86904099 11.4861872 173.12397675 11.48462721 172.35633481 11.48301995 C169.85281165 11.47902241 167.34934883 11.48219477 164.8458252 11.4853363 C163.0539242 11.48398174 161.26202348 11.48220149 159.47012329 11.48002625 C154.59848142 11.4754592 149.72686067 11.47723832 144.85521841 11.48040533 C139.765427 11.48293189 134.67563743 11.48059064 129.58584595 11.47901917 C121.03968988 11.47719867 112.49354245 11.47960099 103.9473877 11.48435974 C94.05269742 11.48980561 84.15802774 11.48803687 74.26333797 11.48253334 C65.78010312 11.47800294 57.29687448 11.47735119 48.81363881 11.479972 C43.74150767 11.48153474 38.66938623 11.48172858 33.59725571 11.47843552 C28.83177852 11.47555775 24.06632802 11.47753074 19.30085373 11.48332977 C17.54680933 11.48465773 15.7927627 11.48426265 14.03871918 11.48206711 C11.65480007 11.47935708 9.27096793 11.48273484 6.88705444 11.48774719 C6.18386105 11.48551647 5.48066767 11.48328575 4.75616539 11.48098743 C1.53806526 11.22252083 1.53806526 11.22252083 -1.12243652 12.61473083 Z M0.87756348 45.61473083 C0.93658349 48.39173617 1.06086873 51.13652958 1.23352051 53.9072113 C1.28277742 54.76000608 1.33203434 55.61280087 1.38278389 56.49143791 C1.54139 59.19962502 1.70834441 61.90718757 1.87756348 64.61473083 C1.92854942 65.44179787 1.97953537 66.2688649 2.03206635 67.12099457 C2.39998393 73.06004457 2.78928607 78.99760584 3.18225098 84.93504333 C3.30822198 86.84990515 3.43412563 88.76477139 3.55996704 90.67964172 C3.82304457 94.67824217 4.08703668 98.6767809 4.35168457 102.67527771 C4.68178432 107.66395277 5.00944118 112.65278463 5.33641434 117.64166546 C6.70212251 138.460678 8.12693181 159.27349041 9.67173386 180.08000755 C10.62544082 192.94188816 11.48695783 205.80498744 12.21478271 218.68190002 C13.18873324 235.85567521 14.27602785 253.01967 15.50256348 270.17723083 C15.59622192 271.49906876 15.59622192 271.49906876 15.69177246 272.84761047 C15.86857845 275.33395932 16.04820412 277.82008467 16.22912598 280.30613708 C16.28005402 281.0195224 16.33098206 281.73290771 16.38345337 282.46791077 C16.7592117 287.54128619 17.31474023 292.54932159 17.87756348 297.61473083 C67.04756348 297.61473083 116.21756348 297.61473083 166.87756348 297.61473083 C167.72835927 291.73091563 167.72835927 291.73091563 168.09289551 285.90159607 C168.11979462 285.00884476 168.14669373 284.11609344 168.17440796 283.19628906 C168.2027774 282.21933578 168.23114685 281.24238251 168.26037598 280.23582458 C168.65545412 268.91595602 169.37154587 257.63378409 170.18225098 246.33738708 C170.24388302 245.47764975 170.30551506 244.61791241 170.36901474 243.73212242 C170.69185436 239.24183532 171.01785658 234.75178466 171.34564209 230.26185608 C172.03906356 220.76047297 172.71682812 211.25796649 173.39318848 201.75535583 C173.45972752 200.82165476 173.52626656 199.88795368 173.59482193 198.92595863 C174.72976696 182.97597137 175.75424277 167.02270394 176.66650391 151.05830383 C177.34089588 139.26539753 178.07867901 127.47985606 178.90881348 115.69676208 C178.99915863 114.41141068 179.08950378 113.12605927 179.18258667 111.80175781 C179.69223919 104.57493948 180.21065936 97.34885214 180.74368286 90.12371826 C181.49179367 79.33817589 182.07395133 68.56677271 182.4317627 57.76072693 C182.4755455 56.48690659 182.51932831 55.21308624 182.56443787 53.90066528 C182.67057598 50.80540927 182.77492863 47.71010465 182.87756348 44.61473083 C159.29536719 44.5914045 135.71317263 44.57375297 112.13096714 44.56291866 C101.18215614 44.55775514 90.2333523 44.55071138 79.2845459 44.53929138 C69.74523617 44.52934626 60.20593162 44.52287782 50.66661686 44.52064234 C45.61232324 44.51933494 40.55804445 44.51624725 35.50375557 44.50900078 C30.75227563 44.50224326 26.00081671 44.50011332 21.24933243 44.50162315 C19.50012663 44.5013467 17.75092018 44.49933999 16.00171852 44.49552536 C13.624212 44.4905923 11.24678612 44.4917311 8.86927795 44.49447632 C8.16792915 44.49156348 7.46658035 44.48865064 6.74397856 44.48564953 C3.53236573 44.22475308 3.53236573 44.22475308 0.87756348 45.61473083 Z M31.87756348 308.61473083 C29.07016178 333.3010763 29.07016178 333.3010763 35.87756348 354.61473083 C38.13557087 355.35537868 38.13557087 355.35537868 40.62158203 355.24964905 C41.57209946 355.26374817 42.52261688 355.27784729 43.50193787 355.29237366 C44.53790604 355.2822525 45.57387421 355.27213135 46.64123535 355.26170349 C47.73754776 355.27046509 48.83386017 355.27922668 49.96339417 355.28825378 C53.59143517 355.310281 57.21825984 355.29568189 60.84631348 355.27879333 C63.36450434 355.28216048 65.88269362 355.28701224 68.40087891 355.29328918 C73.68018024 355.30066504 78.95916454 355.2904073 84.23840332 355.2665863 C90.33941229 355.23937497 96.43958583 355.24818943 102.54057455 355.27571833 C108.41289408 355.30115346 114.28489637 355.29844735 120.15724182 355.28380966 C122.65475074 355.28047018 125.15228092 355.28458166 127.64976501 355.29620743 C131.13838475 355.30888235 134.62539221 355.28958316 138.1138916 355.26170349 C139.66784386 355.27688522 139.66784386 355.27688522 141.25318909 355.29237366 C142.20370651 355.27827454 143.15422394 355.26417542 144.13354492 355.24964905 C145.37017254 355.24682136 145.37017254 355.24682136 146.63178253 355.24393654 C149.66235542 354.63035234 149.66235542 354.63035234 152.87756348 349.61473083 C152.87756348 336.08473083 152.87756348 322.55473083 152.87756348 308.61473083 C112.94756348 308.61473083 73.01756348 308.61473083 31.87756348 308.61473083 Z " fill="#010101" transform="translate(120.1224365234375,33.38526916503906)"/>
<path d="M0 0 C1.2283255 -0.00563965 2.456651 -0.0112793 3.72219849 -0.01708984 C5.09075986 -0.01320089 6.45932066 -0.00910453 7.82788086 -0.00482178 C9.26333799 -0.00753062 10.69879373 -0.01109095 12.13424683 -0.01544189 C16.03913132 -0.02458092 19.94391045 -0.02101545 23.84879684 -0.01468372 C27.92914877 -0.00963154 32.00949148 -0.01431299 36.08984375 -0.01745605 C42.94296901 -0.02109799 49.7960512 -0.01629066 56.64916992 -0.0067749 C64.58014279 0.00411009 72.51101285 0.00058468 80.44198322 -0.01042771 C87.24285673 -0.01949414 94.04369924 -0.02078903 100.84457684 -0.01555037 C104.91016514 -0.01242711 108.97570506 -0.01203105 113.04129028 -0.01862335 C116.86290441 -0.02438684 120.68438555 -0.02041834 124.50598526 -0.00883484 C125.91129459 -0.00618289 127.31661506 -0.00696242 128.72192001 -0.01136017 C130.63475911 -0.01679576 132.54762256 -0.00878242 134.46044922 0 C135.5326622 0.00075405 136.60487518 0.0015081 137.70957947 0.002285 C140.23022461 0.25396729 140.23022461 0.25396729 142.23022461 2.25396729 C142.46103865 4.89384216 142.5457551 7.39304413 142.52319336 10.03521729 C142.51869675 10.86758911 142.51420013 11.69996094 142.50956726 12.55755615 C142.31560985 24.64917845 140.95520983 36.67263127 139.74797821 48.69574738 C139.18123814 54.37884231 138.63929475 60.06440402 138.09275055 65.74946976 C137.8820568 67.93897087 137.67037555 70.12837517 137.4586792 72.31777954 C136.05987333 86.82856867 134.81704878 101.35139349 133.60522461 115.87896729 C133.40011695 118.32859728 133.19495777 120.77822296 132.98974609 123.22784424 C132.68993334 126.80948288 132.39034856 130.3911399 132.09144592 133.97285461 C130.7372995 150.18929966 129.3356264 166.40156251 127.89952087 182.61094666 C127.45656279 187.62554475 127.02949277 192.64113133 126.61755371 197.65837097 C126.36759761 200.68075684 126.10783865 203.70224564 125.84576416 206.72360229 C125.67402885 208.74236061 125.51511366 210.76219695 125.35668945 212.78204346 C125.25179199 213.97031738 125.14689453 215.15859131 125.03881836 216.38287354 C124.9543042 217.40453613 124.86979004 218.42619873 124.78271484 219.4788208 C124.09591465 222.92860332 123.59066404 224.59158982 121.23022461 227.25396729 C117.87684517 228.03787276 114.54476157 227.92578181 111.11499023 227.8850708 C109.55611336 227.89580376 109.55611336 227.89580376 107.96574402 227.90675354 C104.52221033 227.92369558 101.0799684 227.90420465 97.63647461 227.88287354 C95.24898165 227.88370172 92.86148874 227.88615918 90.47399902 227.8901825 C85.4669481 227.89304429 80.46034355 227.8783014 75.45336914 227.85089111 C69.02678767 227.81680837 62.60100475 227.82282331 56.17438507 227.84155369 C51.24336054 227.85210899 46.31252267 227.84319912 41.3815155 227.82816887 C39.01157688 227.82297583 36.64161886 227.82348238 34.27168274 227.82971382 C30.96251327 227.83514807 27.65449714 227.81484704 24.34545898 227.78741455 C23.36042892 227.79394043 22.37539886 227.80046631 21.36051941 227.80718994 C20.46041641 227.79446548 19.56031342 227.78174103 18.63293457 227.76863098 C17.85054161 227.76582406 17.06814865 227.76301714 16.26204681 227.76012516 C14.23022461 227.25396729 14.23022461 227.25396729 12.48973656 225.37737465 C10.96029478 222.79889341 10.68781579 220.90294771 10.41821289 217.92120361 C10.31425705 216.84194107 10.21030121 215.76267853 10.10319519 214.65071106 C10.00331802 213.47435593 9.90344086 212.29800079 9.80053711 211.08599854 C9.68523148 209.84861435 9.56992584 208.61123016 9.4511261 207.33634949 C9.13863325 203.95398835 8.83782193 200.57096926 8.54218674 197.18711853 C8.22767132 193.61967133 7.89802018 190.0536207 7.5703125 186.48736572 C6.83403265 178.43998254 6.12020848 170.39069873 5.41344452 162.34067535 C5.23680372 160.32889739 5.05972503 158.3171579 4.88262939 156.30541992 C3.93381844 145.52404546 2.99012033 134.74223514 2.05932617 123.95928955 C0.68812658 108.1288503 -0.81674174 92.31502924 -2.39477539 76.50396729 C-3.8917308 61.47024154 -5.33512816 46.43567593 -6.58227539 31.37896729 C-6.64562073 30.63473511 -6.70896606 29.89050293 -6.77423096 29.12371826 C-8.44850214 9.33201778 -8.44850214 9.33201778 -7.76977539 2.25396729 C-5.08382569 -0.43198241 -3.75614012 0.00264157 0 0 Z M3.23022461 11.25396729 C4.55022461 26.10396729 5.87022461 40.95396729 7.23022461 56.25396729 C7.75745117 62.19267822 8.28467773 68.13138916 8.82788086 74.25006104 C9.37906487 80.43818989 9.37906487 80.43818989 9.93066406 86.62628174 C10.17461321 89.36319176 10.41771172 92.10017553 10.66015625 94.83721924 C11.95831775 109.48811294 13.29862189 124.13236048 14.78491211 138.76568604 C16.20041107 152.70289348 17.40129969 166.65178314 18.53515625 180.61431885 C18.77572805 183.564755 19.02040975 186.51483111 19.26538086 189.46490479 C19.33314224 190.31628021 19.40090363 191.16765564 19.47071838 192.04483032 C20.14735291 200.16395962 21.21635941 208.1430457 22.23022461 216.25396729 C52.26022461 216.25396729 82.29022461 216.25396729 113.23022461 216.25396729 C116.22811694 184.61229544 116.22811694 184.61229544 119.20678711 152.96881104 C119.29524525 152.02493971 119.38370338 151.08106838 119.47484207 150.10859489 C121.21398858 131.53575152 122.86828442 112.95706919 124.44561768 94.36981201 C125.1395993 86.23131651 125.86364119 78.09558391 126.5900383 69.95993233 C126.80010483 67.60646657 127.00980936 65.25296884 127.21939087 62.89945984 C127.35955732 61.32565301 127.49972456 59.75184624 127.63989258 58.17803955 C127.70944216 57.39708011 127.77899174 56.61612066 127.85064888 55.81149578 C128.19771599 51.91645744 128.54575157 48.02150995 128.89581299 44.1267395 C129.22445061 40.47009043 129.55061699 36.81322882 129.8750267 33.15620232 C130.05401094 31.14643503 130.23572709 29.13691162 130.41751099 27.12739563 C130.57858841 25.30576149 130.57858841 25.30576149 130.74291992 23.44732666 C130.83744446 22.39138306 130.93196899 21.33543945 131.02935791 20.24749756 C131.23011275 17.2556343 131.23022461 14.25255833 131.23022461 11.25396729 C88.99022461 11.25396729 46.75022461 11.25396729 3.23022461 11.25396729 Z " fill="#000000" transform="translate(144.769775390625,90.74603271484375)"/>
<path d="M0 0 C0 0.66 0 1.32 0 2 C0.5775 2.20625 1.155 2.4125 1.75 2.625 C10.41282236 7.918947 15.30364358 23.18359347 17.58544922 32.60180664 C21.09356936 52.89642628 17.72566374 73.10921262 6 90 C0.02360896 97.44087605 -7.46065895 103.14001265 -17 105 C-27.00738905 105.9893853 -35.48400053 103.79111197 -43.6875 97.9375 C-55.46557388 87.96820175 -61.79370819 73.15956795 -63.75 58.0390625 C-65.40984893 37.86152394 -61.63251152 18.86428338 -48.3125 3 C-34.22783346 -11.57924262 -15.68797883 -12.06767603 0 0 Z M-41.11328125 11.46875 C-49.48140751 22.69555293 -52.40078577 34.54996051 -52.3125 48.375 C-52.30758545 49.2925708 -52.3026709 50.2101416 -52.29760742 51.15551758 C-52.06128568 64.86823801 -48.28933306 77.10954278 -38.83203125 87.30859375 C-34.06156368 91.71288471 -29.09911293 93.76610468 -22.6875 94.25 C-16.29678781 93.81673138 -10.92601171 91.00238451 -6 87 C5.92649098 73.24070752 7.92399731 57.21004726 7.2265625 39.74511719 C6.29215457 28.42347622 0.97501343 16.15551629 -7.5625 8.5625 C-8.69419581 7.68968885 -9.83871408 6.83303646 -11 6 C-11.78375 5.401875 -12.5675 4.80375 -13.375 4.1875 C-23.8034831 -0.53014712 -33.64815414 3.35250633 -41.11328125 11.46875 Z " fill="#000000" transform="translate(235,156)"/>
</svg>
