<?xml version="1.0" encoding="UTF-8"?>
<svg version="1.1" xmlns="http://www.w3.org/2000/svg" width="356" height="328">
<path d="M0 0 C0.91328929 -0.00782324 1.82657859 -0.01564648 2.76754332 -0.02370679 C3.77229594 -0.01701463 4.77704856 -0.01032246 5.81224823 -0.00342751 C7.41162884 -0.01044746 7.41162884 -0.01044746 9.04332018 -0.01760924 C12.6340234 -0.02962298 16.22434945 -0.02007694 19.81505585 -0.01066017 C22.38202895 -0.01472303 24.9490003 -0.02006329 27.51596832 -0.02659035 C33.77510528 -0.03994877 40.03413448 -0.03704061 46.29327571 -0.02835242 C51.37900038 -0.02158455 56.46469479 -0.02065526 61.55042267 -0.02392387 C62.27351931 -0.02438357 62.99661596 -0.02484327 63.74162462 -0.0253169 C65.21045984 -0.02627605 66.67929504 -0.02724869 68.14813024 -0.02823468 C81.92998852 -0.03679474 95.711787 -0.02694479 109.49363548 -0.01083358 C121.32590322 0.00257018 133.15808267 0.00024226 144.99034882 -0.01358986 C158.72199632 -0.02963481 172.45359137 -0.03597071 186.18524694 -0.02675307 C187.64875888 -0.02579739 189.11227082 -0.02485428 190.57578278 -0.02392387 C191.29590846 -0.02346105 192.01603414 -0.02299822 192.75798181 -0.02252137 C197.83915814 -0.01992822 202.92030128 -0.02430947 208.00147247 -0.03136253 C214.83700485 -0.04064198 221.67236725 -0.0340605 228.50788307 -0.01667976 C231.02221206 -0.01270023 233.53655504 -0.01387385 236.05087852 -0.02046776 C239.47209733 -0.02861534 242.89277338 -0.01844367 246.31395721 -0.00342751 C247.82108615 -0.01346575 247.82108615 -0.01346575 249.35866213 -0.02370679 C250.27195142 -0.01588355 251.18524072 -0.00806031 252.12620544 0 C253.31134145 0.00073059 253.31134145 0.00073059 254.5204196 0.00147593 C257.13410569 0.48264214 258.01223009 1.23982505 259.56310272 3.37752342 C259.85170448 6.38893022 259.95450844 9.19229341 259.92386627 12.20422935 C259.92642955 13.11742481 259.92899282 14.03062026 259.93163377 14.9714883 C259.93659145 18.04410372 259.92004597 21.11623225 259.90367889 24.18880272 C259.90283305 26.3862615 259.90330693 28.58372114 259.90500641 30.78117943 C259.90586945 36.75815768 259.8881936 42.73495642 259.86728454 48.71189284 C259.84856925 54.95392755 259.84677136 61.19596608 259.84320831 67.43802452 C259.83493431 77.91861948 259.81617775 88.39915873 259.78942108 98.87972069 C259.76188885 109.67529024 259.74065119 120.47084187 259.72789764 131.26643944 C259.72710947 131.93175128 259.7263213 132.59706312 259.72550925 133.28253593 C259.72159417 136.62017181 259.7178098 139.95780781 259.71407354 143.29544389 C259.68269016 170.98951642 259.62990019 198.68351528 259.56310272 226.37752342 C261.26466522 226.34658592 261.26466522 226.34658592 263.00060272 226.31502342 C266.56310272 226.37752342 266.56310272 226.37752342 267.56310272 227.37752342 C267.68810272 230.37752342 267.68810272 230.37752342 267.56310272 233.37752342 C265.92796327 235.01266288 264.08092227 234.50701698 261.82471466 234.51123619 C260.79970352 234.51550117 259.77469238 234.51976616 258.7186203 234.52416039 C257.58456757 234.5237072 256.45051483 234.52325401 255.28209686 234.52278709 C253.50179329 234.52782501 253.50179329 234.52782501 251.68552399 234.53296471 C248.42108032 234.54086033 245.15667473 234.54414364 241.89222264 234.54478049 C239.17092371 234.54572801 236.44963094 234.5494045 233.72833437 234.55295259 C227.31005413 234.56110464 220.89178793 234.56353614 214.47350311 234.56282616 C207.84392554 234.56222519 201.21442929 234.57277901 194.58487231 234.58856982 C188.90078759 234.60162816 183.21672951 234.60701077 177.53262991 234.60637075 C174.13435762 234.60611525 170.73615756 234.60899467 167.33790016 234.6195488 C163.54969819 234.62929115 159.76170814 234.62649348 155.97350311 234.62044334 C154.27546036 234.6288726 154.27546036 234.6288726 152.54311371 234.63747215 C151.51528275 234.63327766 150.48745178 234.62908318 149.42847443 234.62476158 C148.53194688 234.62530635 147.63541933 234.62585112 146.71172428 234.62641239 C144.56310272 234.37752342 144.56310272 234.37752342 142.56310272 232.37752342 C142.30976963 229.56852818 142.30976963 229.56852818 142.3048172 225.90662193 C142.3011415 225.23465477 142.29746579 224.56268761 142.2936787 223.87035781 C142.28366058 221.60794037 142.287857 219.34576688 142.29186249 217.08333397 C142.28747755 215.46555379 142.28217625 213.84777587 142.27602386 212.23000145 C142.26450351 208.74050769 142.25906295 205.25107482 142.25814247 201.76156235 C142.25620577 196.24456163 142.23817412 190.72768719 142.21738434 185.2107296 C142.16813734 171.50452193 142.13731205 157.79827982 142.11608124 144.09200096 C142.09956519 133.44696162 142.0767631 122.80202999 142.03306049 112.15706283 C142.01126188 106.67234194 142.00322841 101.18782555 142.00545323 95.70306432 C142.00378705 92.28955347 141.98974162 88.87617617 141.97224045 85.46271324 C141.96663849 83.87967779 141.96615798 82.29661467 141.97117805 80.71357727 C141.97731436 78.55187101 141.96509796 76.39100866 141.94837189 74.22937584 C141.94636056 73.0198157 141.94434923 71.81025557 141.94227695 70.56404209 C141.52235883 67.0351184 140.69261762 65.19658256 138.56310272 62.37752342 C133.47795375 58.71621616 128.86595009 57.11149415 122.56310272 57.37752342 C117.02663935 58.37083009 111.98483973 59.61684585 108.56310272 64.37752342 C107.42369983 67.79573209 107.42684608 70.42744257 107.41161346 74.0335598 C107.40738105 74.7132872 107.40314864 75.3930146 107.39878798 76.0933398 C107.38574995 78.37573263 107.37973457 80.65809052 107.3736496 82.9405117 C107.36570832 84.57478105 107.35732046 86.20904828 107.34851837 87.84331322 C107.33045415 91.36442642 107.31544131 94.88553493 107.302742 98.40667152 C107.28254434 103.96883456 107.25489027 109.53094497 107.22606659 115.09306908 C107.16083579 127.90147685 107.10539015 140.70992353 107.05007935 153.5183773 C106.99928167 165.26093219 106.94644634 177.00346793 106.88555384 188.74597538 C106.8571366 194.28108539 106.83356573 199.81618899 106.81362915 205.35133576 C106.80028328 208.78646064 106.78286917 212.22155593 106.76431847 215.65665627 C106.75653454 217.25588804 106.75047726 218.85512924 106.74622536 220.45437431 C106.74021776 222.62811855 106.72818927 224.80174635 106.71459198 226.97545433 C106.70943825 228.19477716 106.70428452 229.4141 106.69897461 230.67037201 C106.56310272 233.37752342 106.56310272 233.37752342 105.56310272 234.37752342 C103.98612174 234.47563051 102.40474428 234.50384232 100.82471466 234.50450706 C99.79970352 234.50732689 98.77469238 234.51014671 97.7186203 234.51305199 C96.0175412 234.51001564 96.0175412 234.51001564 94.28209686 234.50691795 C93.09522781 234.50867027 91.90835876 234.51042259 90.68552399 234.51222801 C87.4210766 234.51588632 84.15666946 234.51501288 80.89222264 234.51184893 C77.48185085 234.50932447 74.07148182 234.51166316 70.66110992 234.51323509 C64.93190271 234.51505678 59.20270837 234.51265075 53.47350311 234.50789452 C46.84394901 234.50245449 40.21442566 234.50421267 33.58487231 234.50972092 C27.90078882 234.51425516 22.21671461 234.51490099 16.53262991 234.51228225 C13.13438153 234.51072086 9.73614762 234.51052191 6.33790016 234.51381874 C2.54974639 234.51634659 -1.23834759 234.51250261 -5.02649689 234.50691795 C-6.72453964 234.5099543 -6.72453964 234.5099543 -8.45688629 234.51305199 C-9.48471725 234.51023216 -10.51254822 234.50741234 -11.57152557 234.50450706 C-12.46805312 234.50413004 -13.36458067 234.50375301 -14.28827572 234.50336456 C-16.43689728 234.37752342 -16.43689728 234.37752342 -18.43689728 233.37752342 C-18.47944084 231.37797596 -18.47770511 229.37710706 -18.43689728 227.37752342 C-17.43689728 226.37752342 -17.43689728 226.37752342 -15.15174103 226.27986717 C-13.77695587 226.29726952 -13.77695587 226.29726952 -12.37439728 226.31502342 C-11.45529572 226.32404686 -10.53619415 226.3330703 -9.58924103 226.34236717 C-8.87896759 226.35396873 -8.16869415 226.3655703 -7.43689728 226.37752342 C-7.43966266 225.2310065 -7.44242804 224.08448957 -7.44527721 222.90322971 C-7.51180326 195.03756772 -7.56113999 167.171916 -7.59233379 139.30619144 C-7.59539344 136.62627404 -7.5985174 133.94635671 -7.6016922 131.26643944 C-7.60247913 130.60031928 -7.60326606 129.93419911 -7.60407684 129.24789349 C-7.61714026 118.45402887 -7.64079922 107.66021206 -7.66835567 96.86637583 C-7.69638388 85.79563485 -7.71284341 74.72491342 -7.71916276 63.65413791 C-7.72308212 57.43384566 -7.73232717 51.21366194 -7.75408745 44.99340439 C-7.77438648 39.14368512 -7.78074444 33.29411951 -7.77622032 27.44436836 C-7.77704848 25.292856 -7.78305312 23.14133872 -7.7945137 20.98985672 C-7.80935475 18.06112291 -7.80588161 15.13297564 -7.79766083 12.20422935 C-7.80639935 11.34528641 -7.81513788 10.48634346 -7.8241412 9.60137194 C-7.78025995 3.85080911 -7.78025995 3.85080911 -6.19113189 1.66038007 C-3.97142294 0.03712605 -2.73583452 0.00168652 0 0 Z M0.56310272 9.37752342 C0.56310272 14.32752342 0.56310272 19.27752342 0.56310272 24.37752342 C123.32310272 24.87252342 123.32310272 24.87252342 248.56310272 25.37752342 C248.56310272 27.68752342 248.56310272 29.99752342 248.56310272 32.37752342 C231.23810272 32.87252342 231.23810272 32.87252342 213.56310272 33.37752342 C212.65430817 64.70851258 212.65430817 64.70851258 218.56310272 95.37752342 C229.45310272 95.37752342 240.34310272 95.37752342 251.56310272 95.37752342 C251.56310272 66.99752342 251.56310272 38.61752342 251.56310272 9.37752342 C168.73310272 9.37752342 85.90310272 9.37752342 0.56310272 9.37752342 Z M0.56310272 33.37752342 C0.53403785 45.61677892 0.53403785 45.61677892 0.5142746 57.85603905 C0.50828666 62.84473796 0.50118769 67.83341859 0.48766327 72.8221035 C0.47683264 76.84210028 0.47082552 80.86207747 0.46822548 84.88208771 C0.46637155 86.41915317 0.46275154 87.95621752 0.45737267 89.49327469 C0.45015988 91.63887829 0.44911188 93.78439997 0.44957733 95.93001366 C0.44735672 97.15357063 0.44513611 98.37712761 0.44284821 99.63776207 C0.25024345 102.28980412 0.25024345 102.28980412 1.56310272 103.37752342 C5.82058699 103.59562098 10.08355997 103.56331503 14.34606171 103.56282616 C16.48827272 103.56501085 18.62996743 103.58315854 20.7720871 103.6021328 C22.12820512 103.60506701 23.4843256 103.60705162 24.84044647 103.60799217 C26.08044403 103.61210106 27.32044159 103.61620995 28.59801483 103.62044334 C31.68232342 103.68964147 31.68232342 103.68964147 33.56310272 101.37752342 C34.07431316 98.22821467 34.42749068 95.17696001 34.68810272 92.00252342 C34.81547821 90.49528709 34.81547821 90.49528709 34.94542694 88.95760155 C36.26950136 70.48982714 35.71123615 51.87774313 35.56310272 33.37752342 C24.01310272 33.37752342 12.46310272 33.37752342 0.56310272 33.37752342 Z M42.56310272 33.37752342 C43.05810272 39.31752342 43.05810272 39.31752342 43.56310272 45.37752342 C43.6767686 49.03333531 43.7537653 52.66035364 43.75060272 56.31502342 C43.74979706 57.3221035 43.74899139 58.32918358 43.74816132 59.36678123 C43.68268794 67.80642714 43.2530311 76.20765782 42.68810272 84.62752342 C42.60971161 85.81595848 42.5313205 87.00439354 42.45055389 88.22884178 C40.94672588 108.76193358 40.94672588 108.76193358 37.9932785 112.21053123 C37.5213205 112.59563866 37.04936249 112.98074608 36.56310272 113.37752342 C36.05553436 113.05155174 35.547966 112.72558006 35.02501678 112.38973045 C31.65613196 111.00462569 28.80968092 111.15334423 25.17247772 111.18221092 C24.11555725 111.18645576 24.11555725 111.18645576 23.03728485 111.19078636 C20.79571512 111.20194541 18.55455087 111.22704149 16.31310272 111.25252342 C14.78967101 111.26255878 13.26623301 111.27168366 11.74279022 111.27986717 C8.01609686 111.30187052 4.28963939 111.33637071 0.56310272 111.37752342 C0.53977286 126.22400291 0.52212312 141.07047999 0.51129055 155.91697407 C0.50612778 162.80999869 0.49908544 169.70301195 0.48766327 176.59602928 C0.47665572 183.24198507 0.4708265 189.88793211 0.46822548 196.5338974 C0.46637071 199.07575288 0.46274912 201.61760769 0.45737267 204.15945816 C0.45016605 207.70603804 0.44911162 211.25256832 0.44957733 214.79915428 C0.44598206 215.8615432 0.44238678 216.92393211 0.43868256 218.01851463 C0.44005722 218.97910286 0.44143188 219.93969109 0.44284821 220.92938805 C0.44192641 221.76914145 0.44100462 222.60889486 0.44005489 223.47409534 C0.35351866 225.38794533 0.35351866 225.38794533 1.56310272 226.37752342 C4.54071642 226.47813612 7.4951744 226.51367235 10.47325897 226.50691795 C11.40814148 226.50867027 12.34302399 226.51042259 13.30623627 226.51222801 C16.41271035 226.51664816 19.51912801 226.51370796 22.62560272 226.51033592 C24.77412171 226.51100891 26.92264063 226.5119789 29.07115936 226.51323509 C33.58052544 226.51471229 38.08987175 226.51255682 42.59923553 226.50789452 C48.39358849 226.50219722 54.18789514 226.50547611 59.9822464 226.51146698 C64.42073163 226.51507201 68.85920579 226.51393427 73.29769135 226.51133919 C75.4348374 226.51066976 77.57198444 226.51149889 79.70912933 226.51381874 C82.69042899 226.51634432 85.67165252 226.51250601 88.65294647 226.50691795 C89.99170334 226.5099543 89.99170334 226.5099543 91.3575058 226.51305199 C95.27405435 226.88963951 95.27405435 226.88963951 98.56310272 225.37752342 C98.65718704 223.65974669 98.68053351 221.93806504 98.67662811 220.21771812 C98.67655762 219.09828819 98.67648712 217.97885826 98.67641449 216.82550621 C98.67124817 215.58575539 98.66608185 214.34600456 98.66075897 213.06868553 C98.65851685 211.0759691 98.65627506 209.08325268 98.6540451 207.09053624 C98.65066467 204.93818809 98.64480557 202.78585898 98.63826752 200.63351822 C98.62473382 196.12798727 98.61884597 191.62246618 98.61412811 187.11691856 C98.60206596 176.7080604 98.58023675 166.29922697 98.55789948 155.89038658 C98.53759735 146.4110909 98.51951627 136.93180492 98.50968456 127.45249182 C98.505573 123.72041998 98.49938061 119.98837808 98.48793793 116.25632095 C98.44619852 102.41393491 98.43923375 88.57213838 98.87950897 74.73518944 C98.91285591 73.27915133 98.91285591 73.27915133 98.94687653 71.79369831 C99.21333792 65.01387184 100.30246334 60.53768994 105.37560272 55.69002342 C113.54321551 49.76450042 120.63496097 48.55017828 130.56310272 49.37752342 C138.78469454 51.06703902 143.81675735 54.48188957 148.56310272 61.37752342 C149.9792358 64.20978958 149.70088706 66.5929836 149.71459198 69.76144981 C149.7209406 70.75525796 149.7209406 70.75525796 149.72741747 71.76914304 C149.74048134 73.99936383 149.74647682 76.22954884 149.75255585 78.45979881 C149.76049514 80.05451236 149.76888284 81.64922372 149.77768707 83.24393272 C149.79576582 86.68266801 149.81077351 90.12139843 149.82346344 93.56015778 C149.84364529 98.99202243 149.87130197 104.42383293 149.90013885 109.85565758 C149.96540118 122.36549327 150.0208092 134.87536908 150.0761261 147.385252 C150.12691998 158.8506697 150.17976225 170.31606775 150.24065161 181.78143686 C150.26907201 187.18692125 150.29264202 192.59239906 150.31257629 197.99792111 C150.32592286 201.35328875 150.34333715 204.70862613 150.36188698 208.06396866 C150.36967072 209.62611059 150.37572808 211.18826217 150.37998009 212.75041771 C150.38598806 214.87385745 150.39801679 216.99717804 150.41161346 219.12058067 C150.4167672 220.31170495 150.42192093 221.50282923 150.42723083 222.73004818 C150.2627648 225.30049731 150.2627648 225.30049731 151.56310272 226.37752342 C154.63228461 226.4781797 157.67900548 226.51366786 160.7486496 226.50691795 C161.71279282 226.50867027 162.67693604 226.51042259 163.67029572 226.51222801 C166.87416608 226.51664835 170.07798175 226.5137079 173.28185272 226.51033592 C175.49763245 226.51100891 177.71341211 226.51197889 179.92919159 226.51323509 C184.57979279 226.51471231 189.23037483 226.51255673 193.88097382 226.50789452 C199.85692877 226.50219722 205.83283881 226.5054761 211.80879211 226.51146698 C216.38624666 226.51507194 220.96369047 226.51393431 225.54114532 226.51133919 C227.74527746 226.51066974 229.94941055 226.51149896 232.15354156 226.51381874 C235.22823944 226.5163442 238.3028635 226.51250617 241.37755585 226.50691795 C242.29811264 226.50894218 243.21866943 226.51096642 244.16712189 226.51305199 C248.18445585 226.90597077 248.18445585 226.90597077 251.56310272 225.37752342 C251.65901471 223.80864708 251.68498268 222.2354455 251.68335724 220.66364098 C251.6847319 219.64415367 251.68610657 218.62466637 251.68752289 217.57428551 C251.68392761 216.44644142 251.68033234 215.31859734 251.67662811 214.15657616 C251.67684715 212.38608406 251.67684715 212.38608406 251.67707062 210.57982445 C251.67649167 207.33410234 251.67146259 204.08842287 251.66449666 200.8427093 C251.65826234 197.4540931 251.65765926 194.06547614 251.65647125 190.67685509 C251.65335817 184.25596538 251.64514509 177.83509261 251.63512176 171.41421038 C251.62395992 164.10598518 251.61845 156.79775918 251.61342633 149.48952758 C251.60296245 134.45218341 251.58536345 119.41485511 251.56310272 104.37752342 C250.33156464 104.35246727 249.10002655 104.32741112 247.83116913 104.30159569 C243.27262779 104.2075973 238.71424154 104.10735828 234.15587616 104.00520897 C232.1809781 103.9618314 230.20604185 103.92015842 228.23107147 103.88020897 C225.39631882 103.82257469 222.56175894 103.75886073 219.72716522 103.69392967 C218.84066284 103.67721718 217.95416046 103.66050468 217.04079437 103.64328575 C210.79084614 103.49139513 210.79084614 103.49139513 208.56310272 102.37752342 C208.52038172 100.71140437 208.5224644 99.04369457 208.56310272 97.37752342 C208.89310272 97.04752342 209.22310272 96.71752342 209.56310272 96.37752342 C209.51153979 94.81826799 209.38250348 93.26151389 209.22325897 91.70955467 C209.12287323 90.71004784 209.02248749 89.710541 208.91905975 88.68074608 C208.55381949 85.29137659 208.1829597 81.90268226 207.80919647 78.51424217 C207.67706757 77.29543358 207.54493866 76.07662498 207.40880585 74.8208828 C207.14123875 72.35900948 206.86548794 69.89800877 206.58068085 67.4380703 C205.35685376 55.90515794 205.56310272 45.19992347 205.56310272 33.37752342 C151.77310272 33.37752342 97.98310272 33.37752342 42.56310272 33.37752342 Z " fill="#0B1B1A" transform="translate(54.43689727783203,53.62247657775879)"/>
</svg>
