<?xml version="1.0" standalone="no"?>
<!DOCTYPE svg PUBLIC "-//W3C//DTD SVG 20010904//EN"
 "http://www.w3.org/TR/2001/REC-SVG-20010904/DTD/svg10.dtd">
<svg version="1.0" xmlns="http://www.w3.org/2000/svg"
 width="341.000000pt" height="293.000000pt" viewBox="0 0 341.000000 293.000000"
 preserveAspectRatio="xMidYMid meet">

<g transform="translate(0.000000,293.000000) scale(0.100000,-0.100000)"
fill="#000000" stroke="none">
<path d="M1840 2568 c-1 -7 -2 -254 -3 -548 l-2 -535 -178 -7 c-325 -12 -642
-50 -795 -94 -150 -44 -308 -137 -392 -231 -57 -64 -109 -176 -123 -262 -26
-174 58 -343 209 -419 108 -54 167 -64 426 -69 345 -8 667 19 1113 92 272 44
770 142 796 156 11 5 29 25 39 42 19 31 20 59 20 943 0 870 -1 912 -18 927
-17 15 -70 17 -555 17 -423 0 -537 -3 -537 -12z m1038 -145 l3 -83 -486 0
-485 0 0 85 0 85 483 -2 482 -3 3 -82z m0 -655 c1 -274 1 -498 0 -498 -2 0
-28 7 -58 15 -151 41 -304 6 -466 -106 -195 -135 -305 -330 -291 -514 3 -38 8
-77 12 -86 5 -13 -18 -19 -152 -37 -263 -37 -417 -51 -675 -63 -472 -23 -667
17 -775 159 -48 63 -44 78 18 85 222 27 372 263 300 474 -12 34 -21 66 -21 71
0 13 112 48 227 71 158 32 603 71 809 71 49 0 85 5 92 12 9 9 12 118 12 430
l0 418 483 -2 482 -3 3 -497z m-2161 -575 c10 -23 17 -67 17 -108 1 -152 -106
-270 -264 -291 l-52 -7 3 74 c5 93 39 166 115 249 51 55 136 120 156 120 5 0
16 -17 25 -37z m2054 27 c30 -6 66 -15 82 -21 l27 -11 0 -217 c-1 -192 -3
-218 -18 -237 -14 -17 -55 -29 -193 -58 -211 -44 -488 -96 -510 -96 -23 0 -34
116 -18 190 42 204 268 411 489 450 65 11 81 11 141 0z"/>
</g>
</svg>
