<?xml version="1.0" standalone="no"?>
<!DOCTYPE svg PUBLIC "-//W3C//DTD SVG 20010904//EN"
 "http://www.w3.org/TR/2001/REC-SVG-20010904/DTD/svg10.dtd">
<svg version="1.0" xmlns="http://www.w3.org/2000/svg"
 width="401.000000pt" height="337.000000pt" viewBox="0 0 401.000000 337.000000"
 preserveAspectRatio="xMidYMid meet">

<g transform="translate(0.000000,337.000000) scale(0.100000,-0.100000)"
fill="#000000" stroke="none">
<path d="M1845 3304 c-65 -17 -93 -31 -131 -66 -60 -55 -79 -115 -79 -244 l1
-100 -96 -46 c-122 -59 -233 -142 -340 -254 -191 -202 -325 -474 -393 -799
-14 -66 -29 -149 -33 -185 -3 -36 -8 -68 -11 -72 -2 -4 -19 4 -39 17 -126 86
-291 2 -355 -179 -61 -176 -40 -679 42 -976 27 -97 44 -124 73 -116 18 4 29
-3 51 -32 84 -113 150 -131 500 -142 388 -12 2069 -5 2170 10 110 15 190 54
246 118 33 39 48 50 64 46 30 -7 40 9 70 111 75 259 104 763 55 945 -55 205
-229 307 -365 214 -20 -13 -37 -24 -39 -24 -2 0 -6 30 -10 67 -28 277 -148
614 -298 837 -117 176 -291 329 -474 417 l-102 49 10 38 c14 51 2 163 -23 223
-12 27 -37 63 -56 79 -62 55 -94 63 -263 66 -85 1 -164 1 -175 -2z m352 -91
c19 -9 45 -32 58 -52 27 -41 44 -134 37 -199 -4 -43 -5 -44 -36 -38 -127 23
-265 29 -375 18 -64 -7 -128 -15 -142 -18 -26 -6 -27 -4 -34 44 -14 103 26
207 95 243 49 27 343 28 397 2z m36 -359 c304 -69 592 -324 751 -665 188 -402
234 -887 150 -1564 -8 -66 -17 -135 -20 -152 l-6 -33 -89 0 c-49 0 -89 3 -89
8 0 4 9 109 20 232 33 355 36 455 16 524 -34 115 -98 183 -205 216 -87 27
-562 44 -976 35 -401 -9 -520 -18 -584 -45 -60 -26 -124 -92 -154 -158 -37
-82 -33 -246 18 -759 l5 -53 -90 0 c-105 0 -91 -26 -119 210 -83 678 -29 1174
172 1575 132 264 349 482 575 575 137 58 200 69 385 69 121 1 188 -4 240 -15z
m-1577 -1344 c15 -6 42 -24 60 -40 l33 -29 5 -278 c3 -264 7 -312 52 -669 l7
-52 -99 -7 c-86 -5 -163 -15 -214 -27 -18 -4 -42 89 -66 247 -21 148 -31 529
-15 619 21 120 78 203 157 231 48 17 47 17 80 5z m2794 -15 c65 -34 111 -114
131 -230 15 -89 6 -444 -16 -600 -22 -160 -48 -261 -66 -256 -26 6 -144 21
-229 29 -67 5 -85 10 -83 22 47 350 65 582 62 801 l-3 176 36 31 c60 53 103
60 168 27z m-995 -120 c246 -7 298 -15 352 -54 43 -31 87 -106 98 -166 4 -23
-5 -182 -21 -377 l-28 -338 -858 0 -858 0 0 21 c0 11 -12 152 -26 312 -14 161
-24 320 -21 355 9 121 82 210 189 231 71 14 581 30 788 25 91 -2 264 -6 385
-9z m908 -1019 c81 -9 84 -19 24 -80 -60 -60 -112 -75 -292 -87 -236 -14
-2266 -6 -2335 10 -92 22 -155 63 -186 123 l-14 26 88 7 c48 3 98 7 112 8 71
6 2546 -1 2603 -7z"/>
<path d="M1868 2600 c-334 -61 -599 -335 -708 -734 -12 -42 -20 -89 -18 -104
l3 -27 855 0 855 0 -3 50 c-5 106 -85 307 -177 445 -114 171 -296 306 -480
355 -70 19 -259 28 -327 15z m112 -435 l0 -365 -380 0 c-270 0 -380 3 -380 11
0 23 61 191 91 251 94 186 226 325 386 406 61 32 170 60 231 61 l52 1 0 -365z
m249 332 c237 -83 428 -301 526 -603 14 -42 25 -80 25 -85 0 -5 -164 -9 -365
-9 l-365 0 0 366 0 367 53 -6 c30 -3 86 -17 126 -30z"/>
</g>
</svg>
