<?xml version="1.0" encoding="UTF-8"?>
<svg version="1.1" xmlns="http://www.w3.org/2000/svg" width="393" height="411">
<path d="M0 0 C2.16356743 0.00851415 4.32448332 -0.02039754 6.48779297 -0.05200195 C27.28362854 -0.15553416 47.32191657 6.66254921 62.54638672 21.19604492 C75.07908696 34.42500628 78.8945733 48.38955831 78.70336914 66.23120117 C78.35993488 77.91809698 76.73186811 88.94994293 71.29638672 99.44604492 C72.53388672 99.65229492 73.77138672 99.85854492 75.04638672 100.07104492 C89.73585684 103.4503127 101.16369335 112.91173361 109.17138672 125.38354492 C118.06787287 139.85210276 124.00306554 155.48649463 129.55029297 171.46166992 C130.84112503 175.17062521 132.1690148 178.86475319 133.51123047 182.55541992 C145.20031455 214.76047202 155.30919057 247.38566371 164.29638672 280.44604492 C164.49504333 281.17438538 164.69369995 281.90272583 164.89837646 282.65313721 C166.08145228 287.00970238 167.20829629 291.37705769 168.29638672 295.75854492 C168.5700708 296.79495117 168.84375488 297.83135742 169.12573242 298.89916992 C170.72224819 305.67811418 170.72224819 305.67811418 168.60888672 309.48901367 C166.29638672 311.44604492 166.29638672 311.44604492 163.29638672 313.44604492 C163.7317953 314.78006269 164.16986258 316.11321266 164.60888672 317.44604492 C164.87830078 318.26717773 165.14771484 319.08831055 165.42529297 319.93432617 C166.21581301 322.21371803 167.11317 324.41016685 168.04638672 326.63354492 C169.40007034 330.25536866 169.6550608 332.70969119 168.29638672 336.44604492 C164.44460107 340.0657079 160.28673528 341.9979451 155.48388672 344.00854492 C154.81035156 344.29922852 154.13681641 344.58991211 153.44287109 344.8894043 C151.40199649 345.76239085 149.35203324 346.60848712 147.29638672 347.44604492 C146.59723145 347.73721191 145.89807617 348.02837891 145.17773438 348.32836914 C138.1467934 351.14173557 138.1467934 351.14173557 134.29638672 350.44604492 C128.89651019 345.81568397 125.30071228 337.77430515 122.29638672 331.44604492 C122.29638672 330.78604492 122.29638672 330.12604492 122.29638672 329.44604492 C120.31638672 329.44604492 118.33638672 329.44604492 116.29638672 329.44604492 C113.29851134 323.68853592 110.85360116 317.90675364 108.60888672 311.82104492 C102.73007839 296.15943487 96.28653015 280.73755811 89.79638672 265.32104492 C89.38219482 264.33402588 88.96800293 263.34700684 88.54125977 262.33007812 C85.65863295 255.51534319 82.65354518 248.76139301 79.61083984 242.0168457 C79.1949762 241.09392227 78.77911255 240.17099884 78.35064697 239.22010803 C77.33302295 236.96187792 76.31492518 234.7038627 75.29638672 232.44604492 C75.29215478 233.0790322 75.28792284 233.71201948 75.28356266 234.36418819 C75.18039325 249.74478893 75.07177636 265.12533998 74.95704746 280.50585842 C74.9016984 287.94366806 74.8482137 295.38148248 74.79907227 302.81933594 C74.75625098 309.29988842 74.70997828 315.78040534 74.65950817 322.26090294 C74.63289059 325.69432944 74.60803719 329.12774881 74.5873127 332.56121635 C74.56414946 336.38802673 74.53328273 340.2147532 74.50170898 344.04150391 C74.49595352 345.18804947 74.49019806 346.33459503 74.48426819 347.5158844 C74.47447937 348.55220001 74.46469055 349.58851563 74.4546051 350.65623474 C74.44815255 351.56235724 74.4417 352.46847975 74.43505192 353.40206051 C74.29638672 355.44604492 74.29638672 355.44604492 73.29638672 356.44604492 C71.46144186 356.54250521 69.62274085 356.56791836 67.78526306 356.56629944 C66.58907852 356.5676741 65.39289398 356.56904877 64.16046143 356.57046509 C62.82287573 356.56692549 61.48529028 356.56329067 60.14770508 356.55957031 C58.74856061 356.55928844 57.34941599 356.55944617 55.95027161 356.56001282 C52.14052213 356.5603008 48.33080386 356.5544039 44.52106166 356.54743886 C40.54387363 356.54120551 36.56668496 356.54060154 32.5894928 356.53941345 C25.05300132 356.53630008 17.51652428 356.52808661 9.98003918 356.51806396 C1.40218843 356.50690301 -7.17566298 356.50139242 -15.75351918 356.49636853 C-33.40355874 356.485904 -51.05358485 356.46830445 -68.70361328 356.44604492 C-69.93726098 353.97874952 -69.84199298 352.33435582 -69.86183167 349.57394409 C-69.87162048 348.54466797 -69.8814093 347.51539185 -69.89149475 346.45492554 C-69.89725021 345.32132599 -69.90300568 344.18772644 -69.90893555 343.01977539 C-69.91883514 341.82954773 -69.92873474 340.63932007 -69.93893433 339.4130249 C-69.96515533 336.1446652 -69.98700367 332.87631079 -70.00693631 329.60790777 C-70.02878138 326.19391068 -70.05617729 322.77995833 -70.08299255 319.36599731 C-70.13293948 312.89913275 -70.17787087 306.43224338 -70.22101492 299.96533024 C-70.27037022 292.60384669 -70.32529467 285.24240802 -70.38069451 277.88096786 C-70.49454525 262.73603536 -70.60137754 247.59106061 -70.70361328 232.44604492 C-71.97150484 235.11981891 -73.23720425 237.7945954 -74.50170898 240.4699707 C-75.03345104 241.59046562 -75.03345104 241.59046562 -75.57593536 242.7335968 C-78.92782603 249.83317689 -81.94194477 257.04459176 -84.89111328 264.32104492 C-90.43049479 277.92755699 -90.43049479 277.92755699 -93.21923828 283.91870117 C-96.24350349 290.48340814 -98.74249699 297.23959282 -101.26611328 304.00854492 C-110.25068118 327.99311282 -110.25068118 327.99311282 -111.70361328 329.44604492 C-113.70319692 329.48685275 -115.70406582 329.48858848 -117.70361328 329.44604492 C-118.07486328 330.7222168 -118.07486328 330.7222168 -118.45361328 332.02416992 C-119.80299413 335.7181 -121.60881076 338.894454 -123.70361328 342.19604492 C-124.05939453 342.77225586 -124.41517578 343.3484668 -124.78173828 343.94213867 C-126.28019977 346.34079532 -127.69717454 348.43960618 -129.70361328 350.44604492 C-135.62993018 350.16535822 -140.29705723 348.67111116 -145.64111328 346.19604492 C-146.33479004 345.88320557 -147.0284668 345.57036621 -147.74316406 345.24804688 C-160.92061979 339.22903841 -160.92061979 339.22903841 -164.70361328 335.44604492 C-164.70361328 326.99407902 -161.19763043 319.95764754 -157.70361328 312.44604492 C-158.31462891 312.3094043 -158.92564453 312.17276367 -159.55517578 312.03198242 C-162.82563693 311.14003847 -163.89638298 310.36541694 -165.70361328 307.44604492 C-165.1445895 297.83198849 -161.60817158 287.91754151 -159.14111328 278.63354492 C-158.80923004 277.37976044 -158.80923004 277.37976044 -158.47064209 276.10064697 C-149.13968887 240.91509052 -137.92075313 206.36586296 -125.39111328 172.19604492 C-125.10660309 171.41656494 -124.8220929 170.63708496 -124.52896118 169.83398438 C-104.18118892 114.23154431 -104.18118892 114.23154431 -79.70361328 102.44604492 C-75.74926169 100.94096075 -71.7643429 99.63216869 -67.70361328 98.44604492 C-68.05294922 97.47924805 -68.40228516 96.51245117 -68.76220703 95.51635742 C-71.37030539 88.13737064 -73.55909037 81.33286679 -73.70361328 73.44604492 C-73.72262695 72.72223633 -73.74164063 71.99842773 -73.76123047 71.25268555 C-74.18210252 53.74164821 -73.46842098 38.97166769 -61.32861328 25.13354492 C-59.8084874 23.55008047 -58.2677371 21.98606409 -56.70361328 20.44604492 C-56.05392578 19.79764648 -55.40423828 19.14924805 -54.73486328 18.48120117 C-49.63422025 13.70457439 -43.93798394 10.53628052 -37.70361328 7.44604492 C-36.97400391 7.06448242 -36.24439453 6.68291992 -35.49267578 6.28979492 C-24.32561961 0.81004989 -12.21790123 -0.07290574 0 0 Z M-53.92236328 29.28588867 C-64.09409681 41.62134622 -66.63211768 55.62058115 -65.20458984 71.27124023 C-64.42811404 78.57978096 -63.34312239 85.54794637 -60.70361328 92.44604492 C-60.35298828 93.58041992 -60.00236328 94.71479492 -59.64111328 95.88354492 C-56.65100835 99.83819983 -52.5133744 100.76979099 -47.70361328 101.44604492 C-45.46847841 101.08322262 -45.46847841 101.08322262 -43.70361328 100.44604492 C-43.86297363 99.7299707 -44.02233398 99.01389648 -44.18652344 98.27612305 C-47.01132182 82.81575345 -45.74073621 67.18922931 -36.95361328 54.00854492 C-33.5253358 49.83307876 -29.34787432 47.12388907 -24.70361328 44.44604492 C-24.08873047 44.06577148 -23.47384766 43.68549805 -22.84033203 43.29370117 C-10.18584562 36.11288983 4.75686874 36.07894555 18.44628906 39.609375 C30.70044573 43.08397503 39.45392984 50.49644938 46.10888672 61.25854492 C53.16756999 74.16723282 53.60112768 87.09717376 51.29638672 101.44604492 C52.71698515 101.24266865 54.1329807 101.00703082 55.54638672 100.75854492 C56.33529297 100.63092773 57.12419922 100.50331055 57.93701172 100.37182617 C61.22209007 99.08281364 62.37882283 97.38142405 64.29638672 94.44604492 C65.58361102 91.36145029 65.58361102 91.36145029 66.48388672 88.07104492 C66.96921875 86.45069336 66.96921875 86.45069336 67.46435547 84.79760742 C71.09161127 70.18640799 71.81121104 50.72378171 64.17138672 37.32104492 C53.0615879 21.41683888 37.79004383 12.37803051 18.74951172 8.94995117 C-7.02462144 5.5576732 -35.33571329 9.51852936 -53.92236328 29.28588867 Z M-27.70361328 56.44604492 C-28.29013672 57.00420898 -28.87666016 57.56237305 -29.48095703 58.13745117 C-36.95917361 66.01791901 -37.99038716 76.68134881 -37.93798828 87.12182617 C-37.543605 92.71549569 -36.16653485 98.0471677 -34.70361328 103.44604492 C-31.88066116 104.24680909 -29.36910378 104.57429182 -26.43798828 104.57885742 C-25.62974609 104.58014648 -24.82150391 104.58143555 -23.98876953 104.58276367 C-22.73386719 104.57696289 -22.73386719 104.57696289 -21.45361328 104.57104492 C-20.22191406 104.5768457 -20.22191406 104.5768457 -18.96533203 104.58276367 C-13.79020622 104.5745622 -8.82534666 104.18952235 -3.70361328 103.44604492 C-3.04361328 105.75604492 -2.38361328 108.06604492 -1.70361328 110.44604492 C-3.18474609 110.61040039 -3.18474609 110.61040039 -4.69580078 110.77807617 C-5.97712891 110.93663086 -7.25845703 111.09518555 -8.57861328 111.25854492 C-9.85478516 111.40936523 -11.13095703 111.56018555 -12.44580078 111.71557617 C-15.98131644 112.11452574 -15.98131644 112.11452574 -17.70361328 115.44604492 C-17.60487013 120.77817513 -16.2234857 124.83473997 -14.20361328 129.75854492 C-10.75065058 138.41597315 -9.06043965 147.54050938 -12.70361328 156.44604492 C-14.50310546 159.30041182 -16.49533948 161.89750251 -18.70361328 164.44604492 C-20.35361328 164.11604492 -22.00361328 163.78604492 -23.70361328 163.44604492 C-24.03361328 162.45604492 -24.36361328 161.46604492 -24.70361328 160.44604492 C-23.48876953 158.35229492 -23.48876953 158.35229492 -21.76611328 155.94604492 C-18.25786078 150.24410761 -17.42460141 146.03089313 -18.70361328 139.44604492 C-19.79869317 136.02782491 -21.12569611 132.70578775 -22.484375 129.38500977 C-24.74206539 123.76709878 -25.67784821 118.52660273 -25.70361328 112.44604492 C-26.66138672 112.34807617 -27.61916016 112.25010742 -28.60595703 112.14916992 C-39.81779039 110.91920976 -50.97473905 109.02233633 -61.70361328 105.44604492 C-75.80066684 108.10981937 -88.24153264 117.17490246 -96.70361328 128.44604492 C-105.95364939 143.2510625 -111.63852895 160.23599994 -117.51611328 176.57104492 C-117.86399902 177.5331488 -118.21188477 178.49525269 -118.5703125 179.48651123 C-124.55906784 196.05254596 -130.32239003 212.6719182 -135.70361328 229.44604492 C-136.04263672 230.49115234 -136.38166016 231.53625977 -136.73095703 232.61303711 C-142.99890053 252.00829806 -148.16462223 271.70290179 -153.19158936 291.45001221 C-153.54626673 292.83265783 -153.9091777 294.2132076 -154.27862549 295.59197998 C-155.18255601 299.02889934 -155.70361328 301.8648111 -155.70361328 305.44604492 C-151.43543649 307.10065333 -147.16703631 308.75468375 -142.8984375 310.40820312 C-141.44948429 310.96957176 -140.00058985 311.53109213 -138.55175781 312.09277344 C-136.45670145 312.9049507 -134.36142697 313.71656305 -132.26611328 314.52807617 C-131.62931641 314.77507767 -130.99251953 315.02207916 -130.33642578 315.27656555 C-125.80371404 317.03121708 -121.25680196 318.74521718 -116.70361328 320.44604492 C-116.33751953 319.4225293 -115.97142578 318.39901367 -115.59423828 317.34448242 C-110.01052214 301.89360291 -103.86141061 286.67431954 -97.70361328 271.44604492 C-97.15326416 270.07778564 -97.15326416 270.07778564 -96.59179688 268.68188477 C-93.24172381 260.35475299 -89.72051683 252.1423008 -85.86767578 244.03198242 C-84.03728712 240.17748444 -82.25520633 236.30138799 -80.47705078 232.42260742 C-79.5972134 230.50859709 -78.71692501 228.59479482 -77.83648682 226.68106079 C-77.25140616 225.40700872 -76.66784991 224.13225541 -76.08587646 222.85678101 C-75.25974719 221.04727306 -74.42709408 219.240748 -73.59423828 217.43432617 C-73.10987305 216.37769775 -72.62550781 215.32106934 -72.12646484 214.23242188 C-70.84497184 211.72286805 -69.47443016 209.62810813 -67.70361328 207.44604492 C-66.05361328 208.10604492 -64.40361328 208.76604492 -62.70361328 209.44604492 C-62.37361328 255.31604492 -62.04361328 301.18604492 -61.70361328 348.44604492 C-30.30205078 348.47698242 -30.30205078 348.47698242 1.73388672 348.50854492 C11.66567017 348.52220093 11.66567017 348.52220093 21.7980957 348.53613281 C27.7097852 348.5394763 27.7097852 348.5394763 33.62147522 348.54148865 C36.26394999 348.54302883 38.90637778 348.54618607 41.54884338 348.55162048 C45.54078545 348.5597222 49.53270753 348.55995251 53.5246582 348.55957031 C54.71084212 348.56316842 55.89702604 348.56676653 57.11915493 348.57047367 C58.18689176 348.56909617 59.25462858 348.56771868 60.35472107 348.56629944 C61.75815089 348.56768213 61.75815089 348.56768213 63.18993282 348.56909275 C65.28301671 348.68097104 65.28301671 348.68097104 66.29638672 347.44604492 C66.38611999 345.71079968 66.40492642 343.97185715 66.39645386 342.23431396 C66.39349304 341.1042543 66.39053223 339.97419464 66.38748169 338.80989075 C66.37917328 337.55899155 66.37086487 336.30809235 66.36230469 335.01928711 C66.35513164 333.01014586 66.34796271 331.00100459 66.34094834 328.99186277 C66.33252722 326.82512727 66.32173529 324.65841381 66.31042099 322.49169159 C66.28741182 317.97878768 66.27406964 313.46588833 66.26272583 308.95294189 C66.22924853 296.11741512 66.18771316 283.28195286 66.125 270.4465332 C66.09047039 263.3627864 66.06666449 256.279088 66.05479157 249.19526601 C66.04801929 245.44527598 66.03555841 241.69549085 66.00976181 237.94557953 C65.98097507 233.76045338 65.97539532 229.57560438 65.97167969 225.39038086 C65.95932281 224.14757858 65.94696594 222.90477631 65.93423462 221.62431335 C65.93691345 220.4829744 65.93959229 219.34163544 65.94235229 218.16571045 C65.9382881 217.17608181 65.9342239 216.18645317 65.93003654 215.16683578 C66.35865401 211.98360136 67.48729884 210.06873915 69.29638672 207.44604492 C71.07299805 207.53710938 71.07299805 207.53710938 73.29638672 208.44604492 C74.68876754 210.63134375 75.78581029 212.65607298 76.87060547 214.98901367 C77.19592758 215.66082169 77.52124969 216.3326297 77.85643005 217.02479553 C78.91397254 219.22086158 79.94949109 221.42649316 80.98388672 223.63354492 C81.70521058 225.14713852 82.42705523 226.66048405 83.14941406 228.17358398 C87.88431855 238.15268214 92.29524823 248.22982844 96.30419922 258.52416992 C97.79579044 262.31835629 99.46362618 266.00123559 101.19482422 269.69213867 C104.34446356 276.44446796 107.10573978 283.31264154 109.79638672 290.25854492 C110.27052002 291.47380859 110.74465332 292.68907227 111.2331543 293.94116211 C114.66126484 302.74876017 118.03221774 311.57631994 121.29638672 320.44604492 C125.77343838 318.81044582 130.23561338 317.13957342 134.68847656 315.43920898 C136.52277126 314.74065901 138.35924205 314.04780961 140.19726562 313.35913086 C143.21778805 312.22113258 146.22625715 311.05514153 149.23388672 309.88354492 C150.21115723 309.52010986 151.18842773 309.1566748 152.1953125 308.78222656 C153.55825439 308.24263306 153.55825439 308.24263306 154.94873047 307.69213867 C155.7633374 307.37946045 156.57794434 307.06678223 157.41723633 306.74462891 C159.45401471 305.58005934 159.45401471 305.58005934 160.20629883 303.37182617 C160.33697271 299.12793526 159.23959933 295.44962292 158.08544922 291.38745117 C157.72077797 290.05575645 157.72077797 290.05575645 157.34873962 288.69715881 C156.55108668 285.79764068 155.73699671 282.90305884 154.92138672 280.00854492 C154.36094488 277.99418846 153.80097093 275.97970176 153.24145508 273.96508789 C151.6123655 268.11988942 149.95806882 262.282049 148.29638672 256.44604492 C147.9735672 255.30779266 147.9735672 255.30779266 147.64422607 254.14654541 C141.35015281 231.96832259 133.90470349 210.2005357 126.29638672 188.44604492 C126.04134369 187.7146933 125.78630066 186.98334167 125.52352905 186.22982788 C113.67132159 148.8546876 113.67132159 148.8546876 91.29638672 117.44604492 C90.70857422 116.86467773 90.12076172 116.28331055 89.51513672 115.68432617 C84.09558704 110.96599016 77.49005403 109.34585015 70.71044922 107.42651367 C67.29638672 106.44604492 67.29638672 106.44604492 65.29638672 105.44604492 C63.34129823 105.96740185 61.40685526 106.56646092 59.48388672 107.19604492 C52.11357097 109.42249447 44.78041625 110.50553504 37.14282227 111.40600586 C36.26924072 111.51460938 35.39565918 111.62321289 34.49560547 111.73510742 C33.71016357 111.8248584 32.92472168 111.91460937 32.11547852 112.00708008 C31.51517822 112.15193848 30.91487793 112.29679687 30.29638672 112.44604492 C29.02376871 114.57783183 29.02376871 114.57783183 29.48388672 117.82104492 C29.5810055 123.73449971 27.29823 128.96654688 25.29638672 134.44604492 C22.96788309 140.90866377 21.95908379 146.80876429 24.67138672 153.32104492 C26.24799302 156.49074758 26.24799302 156.49074758 28.29638672 159.44604492 C27.92138672 162.13354492 27.92138672 162.13354492 27.29638672 164.44604492 C24.59475784 164.36885553 22.86189493 164.01315969 20.92138672 162.06713867 C15.72766046 155.15762784 14.53122184 147.92177549 15.29638672 139.44604492 C16.21663362 135.91649037 17.50132386 132.57831581 18.85888672 129.19604492 C22.11868699 121.53804281 22.11868699 121.53804281 21.29638672 113.44604492 C19.41164669 111.56130489 16.2689227 111.75272492 13.73388672 111.38354492 C12.53634766 111.20694336 11.33880859 111.0303418 10.10498047 110.84838867 C9.17814453 110.71561523 8.25130859 110.5828418 7.29638672 110.44604492 C6.67138672 108.63354492 6.67138672 108.63354492 6.29638672 106.44604492 C6.95638672 105.45604492 7.61638672 104.46604492 8.29638672 103.44604492 C9.42947266 103.6084668 10.56255859 103.77088867 11.72998047 103.93823242 C16.28619988 104.50587939 20.77226889 104.59438649 25.35888672 104.57104492 C26.50454102 104.5768457 26.50454102 104.5768457 27.67333984 104.58276367 C32.31651884 104.57481982 36.71636557 104.21242296 41.29638672 103.44604492 C43.7759357 97.63850713 44.82001809 92.93198641 44.73388672 86.63354492 C44.72143921 85.45223999 44.72143921 85.45223999 44.70874023 84.24707031 C44.3651648 72.33197195 39.79186418 63.75085279 31.30029297 55.50854492 C21.67220882 47.31142374 10.85553376 44.41520183 -1.54736328 45.03198242 C-11.91999864 45.88681747 -20.17721667 49.25415483 -27.70361328 56.44604492 Z M-149.70361328 316.44604492 C-152.67361328 323.37604492 -152.67361328 323.37604492 -155.70361328 330.44604492 C-152.25967818 333.88998002 -149.16772897 335.24601232 -144.76611328 337.13354492 C-143.69200195 337.61404297 -143.69200195 337.61404297 -142.59619141 338.10424805 C-141.90074219 338.4065332 -141.20529297 338.70881836 -140.48876953 339.02026367 C-139.85849854 339.29443115 -139.22822754 339.56859863 -138.57885742 339.85107422 C-136.39605781 340.64765817 -136.39605781 340.64765817 -132.70361328 340.44604492 C-131.5318481 338.32371514 -130.36606544 336.19846701 -129.20361328 334.07104492 C-128.86974609 333.46776367 -128.53587891 332.86448242 -128.19189453 332.24291992 C-126.3158739 329.03189715 -126.3158739 329.03189715 -125.70361328 325.44604492 C-129.32628622 323.94037982 -132.95211877 322.44247946 -136.57861328 320.94604492 C-137.61115234 320.51678711 -138.64369141 320.0875293 -139.70751953 319.64526367 C-140.69365234 319.23920898 -141.67978516 318.8331543 -142.69580078 318.41479492 C-143.60700684 318.03774414 -144.51821289 317.66069336 -145.45703125 317.2722168 C-147.61751655 316.33099573 -147.61751655 316.33099573 -149.70361328 316.44604492 Z M147.28857422 318.41479492 C146.30244141 318.82084961 145.31630859 319.2269043 144.30029297 319.64526367 C143.26775391 320.07452148 142.23521484 320.5037793 141.17138672 320.94604492 C140.13111328 321.37530273 139.09083984 321.80456055 138.01904297 322.24682617 C135.44351701 323.31011671 132.86938247 324.37664949 130.29638672 325.44604492 C131.14688373 329.18682014 132.61045709 332.27358693 134.35888672 335.69604492 C134.90673828 336.77370117 135.45458984 337.85135742 136.01904297 338.96166992 C136.44056641 339.78151367 136.86208984 340.60135742 137.29638672 341.44604492 C145.52643193 339.03379029 152.68532394 335.36241703 160.29638672 331.44604492 C158.31638672 326.49604492 156.33638672 321.54604492 154.29638672 316.44604492 C151.61554719 316.44604492 149.76787434 317.38887763 147.28857422 318.41479492 Z " fill="#091817" transform="translate(193.70361328125,12.553955078125)"/>
<path d="M0 0 C1.84706543 -0.01891296 1.84706543 -0.01891296 3.73144531 -0.03820801 C5.07617769 -0.03104838 6.42090485 -0.02284444 7.765625 -0.01367188 C9.14420852 -0.0163665 10.52279018 -0.02024868 11.90136719 -0.02526855 C14.78989771 -0.03116517 17.67793329 -0.02259635 20.56640625 -0.00390625 C24.26909783 0.01888455 27.97062978 0.00576218 31.67327881 -0.01819611 C34.5197829 -0.03265036 37.36601204 -0.02805007 40.21252441 -0.01768494 C41.5776788 -0.01501656 42.94285816 -0.0182914 44.3079834 -0.02760315 C46.21573408 -0.0377604 48.12357228 -0.0195336 50.03125 0 C51.11696289 0.00318237 52.20267578 0.00636475 53.32128906 0.00964355 C56.015625 0.51757812 56.015625 0.51757812 57.87232971 2.42366028 C59.16408532 4.78947964 59.3229174 6.01806494 59.16796875 8.68554688 C59.13703125 9.48774658 59.10609375 10.28994629 59.07421875 11.11645508 C59.03425781 11.97070068 58.99429688 12.82494629 58.953125 13.70507812 C58.58916732 31.62187001 63.32432831 47.6341633 75.015625 61.51757812 C74.355625 63.16757812 73.695625 64.81757813 73.015625 66.51757812 C60.53335666 66.58697477 48.05113393 66.64033672 35.56871223 66.67301464 C29.77311533 66.68869545 23.97765005 66.70997774 18.18212891 66.74389648 C12.59302343 66.77640383 7.00404483 66.79441292 1.41485214 66.80220985 C-0.72148767 66.8077689 -2.85782025 66.81862378 -4.99410629 66.8347683 C-7.97783368 66.85642791 -10.96103135 66.85954987 -13.94482422 66.8581543 C-14.83530457 66.86894012 -15.72578491 66.87972595 -16.64324951 66.89083862 C-19.09933472 66.87834167 -19.09933472 66.87834167 -22.984375 66.51757812 C-24.984375 63.51757812 -24.984375 63.51757812 -24.8125 61.61132812 C-23.8010152 59.05398919 -22.40774264 57.20023157 -20.734375 55.01757812 C-11.28810669 41.7579597 -8.33574293 26.51319451 -9.09448242 10.50732422 C-9.20300343 7.43792548 -9.27387832 5.07872378 -7.84667969 2.31237793 C-5.24213871 -0.19775356 -3.58157259 0.01049808 0 0 Z M0.015625 8.51757812 C-0.314375 15.11757813 -0.644375 21.71757812 -0.984375 28.51757812 C-2.86244116 37.97746692 -5.1739029 45.83221545 -9.8125 54.25976562 C-11.13793357 56.38946469 -11.13793357 56.38946469 -10.984375 58.51757812 C-10.00041748 58.51234131 -9.01645996 58.50710449 -8.00268555 58.50170898 C-4.35181589 58.48360783 -0.70095021 58.47212738 2.94995117 58.46264648 C4.53003608 58.45761798 6.11011634 58.45079435 7.69018555 58.44213867 C9.96143746 58.4300082 12.23262785 58.42433499 14.50390625 58.41992188 C15.21025711 58.41476059 15.91660797 58.4095993 16.6443634 58.40428162 C19.71816891 58.40393009 22.0746692 58.53725952 25.015625 59.51757812 C26.005625 59.18757813 26.995625 58.85757813 28.015625 58.51757812 C30.52930555 58.43289643 33.01431874 58.40155927 35.52734375 58.41992188 C36.25556839 58.42133682 36.98379303 58.42275177 37.73408508 58.42420959 C40.05714039 58.42980154 42.38009888 58.4423525 44.703125 58.45507812 C46.27929548 58.46009417 47.85546748 58.46465689 49.43164062 58.46875 C53.29300598 58.47976832 57.15429908 58.49702739 61.015625 58.51757812 C59.85384911 54.98154161 58.65849117 51.57525658 57.078125 48.20507812 C51.03340696 34.80745679 50.78569335 23.91894521 50.015625 8.51757812 C33.515625 8.51757812 17.015625 8.51757812 0.015625 8.51757812 Z " fill="#091918" transform="translate(170.984375,285.482421875)"/>
<path d="M0 0 C0.66 0 1.32 0 2 0 C2 8.58 2 17.16 2 26 C1.67 26 1.34 26 1 26 C0.67 19.07 0.34 12.14 0 5 C-1.65 8.3 -3.3 11.6 -5 15 C-5.33 14.34 -5.66 13.68 -6 13 C-5.10333658 10.75689987 -4.10853317 8.55245679 -3.0625 6.375 C-2.49660156 5.18648437 -1.93070312 3.99796875 -1.34765625 2.7734375 C-0.90292969 1.85820312 -0.45820312 0.94296875 0 0 Z " fill="#00100F" transform="translate(123,240)"/>
</svg>
