<?xml version="1.0" standalone="no"?>
<!DOCTYPE svg PUBLIC "-//W3C//DTD SVG 20010904//EN"
 "http://www.w3.org/TR/2001/REC-SVG-20010904/DTD/svg10.dtd">
<svg version="1.0" xmlns="http://www.w3.org/2000/svg"
 width="372.000000pt" height="305.000000pt" viewBox="0 0 372.000000 305.000000"
 preserveAspectRatio="xMidYMid meet">

<g transform="translate(0.000000,305.000000) scale(0.100000,-0.100000)"
fill="#000000" stroke="none">
<path d="M1585 2939 c-280 -10 -337 -23 -420 -100 -26 -24 -60 -69 -76 -101
-53 -106 -61 -163 -62 -485 -1 -160 -5 -294 -8 -297 -3 -3 -46 -13 -95 -21
-284 -49 -464 -146 -537 -291 -76 -149 -81 -297 -24 -684 51 -346 143 -795
169 -827 8 -10 288 -13 1337 -13 l1327 0 22 29 c50 68 185 719 223 1076 30
280 -32 449 -206 563 -93 61 -245 114 -404 139 -103 16 -114 20 -124 43 -7 16
-10 115 -9 288 2 291 -6 358 -56 467 -40 83 -82 129 -156 165 -52 26 -79 32
-176 39 -176 14 -492 19 -725 10z m606 -78 c198 -7 208 -8 263 -35 80 -39 129
-109 158 -226 7 -28 12 -157 12 -343 l1 -299 -45 6 c-25 3 -72 7 -105 9 -33 2
-126 10 -207 17 -186 16 -1028 11 -1049 -6 -8 -7 -40 -15 -72 -19 l-58 -7 7
27 c4 14 7 153 8 308 1 264 3 286 24 349 31 93 74 147 146 183 58 28 67 30
235 35 256 9 449 10 682 1z m-6 -941 c94 -5 198 -12 231 -16 l62 -6 4 -83 c7
-134 32 -153 208 -157 88 -2 93 -1 115 24 16 18 24 44 28 93 4 37 9 70 12 73
10 10 216 -47 281 -77 86 -40 174 -125 208 -200 38 -84 50 -189 37 -320 -25
-244 -108 -682 -184 -971 l-22 -85 -1289 0 -1290 0 -13 50 c-44 165 -163 839
-163 921 0 32 201 52 315 31 373 -68 664 -390 790 -873 27 -104 41 -129 68
-118 29 11 29 41 2 141 -124 456 -390 784 -725 891 -153 49 -318 55 -442 16
-16 -5 -18 4 -18 98 0 125 19 205 65 274 55 84 138 142 265 186 53 18 171 48
191 48 5 0 9 -30 9 -67 0 -129 48 -168 204 -165 152 2 170 22 164 185 l-3 97
50 1 c28 1 102 5 165 9 179 10 488 11 675 0z m-955 -104 c0 -46 -3 -91 -6
-100 -5 -13 -23 -16 -95 -16 -76 0 -92 3 -109 20 -21 21 -26 68 -14 128 6 29
8 30 83 40 42 5 91 10 109 11 l32 1 0 -84z m1449 61 l85 -12 -3 -60 c-1 -33
-5 -63 -7 -67 -8 -13 -159 -9 -176 5 -11 8 -19 36 -23 80 -8 78 -18 74 124 54z"/>
<path d="M2981 1270 c-373 -79 -657 -365 -806 -812 -18 -57 -39 -132 -47 -167
-11 -58 -11 -64 6 -77 33 -24 50 -2 75 98 114 454 390 783 731 874 81 22 243
24 329 5 59 -13 65 -13 77 4 20 26 2 50 -48 64 -56 16 -261 23 -317 11z"/>
</g>
</svg>
