<?xml version="1.0" standalone="no"?>
<!DOCTYPE svg PUBLIC "-//W3C//DTD SVG 20010904//EN"
 "http://www.w3.org/TR/2001/REC-SVG-20010904/DTD/svg10.dtd">
<svg version="1.0" xmlns="http://www.w3.org/2000/svg"
 width="382.000000pt" height="293.000000pt" viewBox="0 0 382.000000 293.000000"
 preserveAspectRatio="xMidYMid meet">

<g transform="translate(0.000000,293.000000) scale(0.100000,-0.100000)"
fill="#000000" stroke="none">
<path d="M2194 1998 c-37 -41 -230 -161 -369 -228 -306 -149 -591 -223 -1146
-300 -178 -24 -256 -51 -319 -107 -66 -59 -91 -122 -97 -243 -5 -78 -2 -103
11 -132 56 -118 364 -197 840 -217 378 -15 775 22 1114 105 57 14 106 24 108
22 2 -3 8 -32 12 -67 5 -34 14 -67 21 -74 26 -26 380 -36 608 -16 126 11 296
37 383 59 128 32 191 136 226 373 27 182 2 356 -71 502 -39 77 -71 117 -141
170 -57 44 -94 45 -172 6 -139 -70 -331 -109 -482 -97 -235 19 -388 91 -444
210 -29 62 -50 70 -82 34z m74 -146 c68 -68 155 -113 280 -144 70 -18 116 -22
237 -22 138 0 205 9 306 39 12 4 19 -7 29 -52 29 -133 101 -261 202 -361 68
-67 154 -131 177 -132 17 0 9 -58 -19 -145 -37 -110 -88 -165 -155 -165 -17 0
-35 -4 -40 -9 -33 -32 -527 -69 -730 -55 l-130 9 -7 50 c-4 27 -5 51 -3 53 2
2 140 21 307 42 431 54 463 62 451 109 -7 29 -22 31 -97 15 -37 -8 -208 -32
-379 -54 -172 -22 -347 -48 -390 -60 -375 -96 -736 -137 -1130 -127 -204 4
-267 11 -230 24 6 2 41 27 78 54 154 117 261 315 270 503 3 44 8 82 12 83 146
33 376 113 533 186 83 38 250 135 319 185 24 18 46 32 48 32 2 0 29 -26 61
-58z m1087 -83 c101 -93 153 -223 162 -408 l6 -114 -34 19 c-18 10 -70 55
-115 99 -64 63 -89 98 -122 165 -34 69 -87 220 -79 226 16 13 107 53 120 54 9
0 37 -18 62 -41z m-2130 -341 c-29 -226 -152 -415 -330 -506 -86 -43 -129 -50
-220 -35 -144 24 -291 77 -324 117 -22 26 -11 212 14 255 52 88 118 111 450
156 105 14 228 34 275 44 47 10 98 19 113 20 l29 1 -7 -52z"/>
</g>
</svg>
