<?xml version="1.0" encoding="UTF-8"?>
<svg version="1.1" xmlns="http://www.w3.org/2000/svg" width="362" height="362">
<path d="M0 0 C2.69470215 -0.38095093 2.69470215 -0.38095093 6.16210938 -0.38818359 C8.10422302 -0.40236832 8.10422302 -0.40236832 10.08557129 -0.4168396 C11.50496729 -0.41147008 12.92436051 -0.40531718 14.34375 -0.3984375 C15.79341783 -0.40045754 17.24308468 -0.40336839 18.69274902 -0.40713501 C21.73260157 -0.41156171 24.77218986 -0.40511652 27.81201172 -0.39111328 C31.71306134 -0.37402082 35.61349184 -0.38386021 39.51451874 -0.40183067 C42.50849085 -0.41265941 45.50231562 -0.40922645 48.49629211 -0.4014473 C49.93484062 -0.39944275 51.37340242 -0.40191349 52.81193542 -0.40888596 C54.82058464 -0.41648459 56.82928061 -0.40285399 58.83789062 -0.38818359 C59.98213501 -0.38579681 61.12637939 -0.38341003 62.30529785 -0.38095093 C63.63917542 -0.19238022 63.63917542 -0.19238022 65 0 C67.42130331 3.63195496 67.21022785 5.38349348 67.125 9.6875 C67.10695312 10.86699219 67.08890625 12.04648437 67.0703125 13.26171875 C67.04710937 14.16535156 67.02390625 15.06898437 67 16 C67.76183594 15.96519531 68.52367187 15.93039063 69.30859375 15.89453125 C77.66512413 15.67544618 85.07387003 15.92538933 91.4375 21.875 C96.03659873 26.67064141 96.25514253 31.97056261 96.24609375 38.3359375 C96.27787404 39.97401347 96.3124671 41.61203684 96.34960938 43.25 C96.40139275 45.81413609 96.43750564 48.37379107 96.42553711 50.93847656 C96.04050142 61.01431981 96.04050142 61.01431981 100.37768555 69.55444336 C103.18331793 71.29758217 105.98568754 72.659943 109 74 C116.63455277 80.62757273 120.83374994 88.20595407 123 98 C123.08378506 100.90959378 123.11617895 103.79421241 123.09765625 106.703125 C123.09553383 107.95980988 123.09553383 107.95980988 123.09336853 109.24188232 C123.08778197 111.91129157 123.07523194 114.5806162 123.0625 117.25 C123.05748326 119.06249879 123.05292066 120.87499889 123.04882812 122.6875 C123.03781694 127.12503248 123.02056155 131.56250191 123 136 C123.96929443 136.05260986 124.93858887 136.10521973 125.93725586 136.15942383 C127.20448486 136.23700928 128.47171387 136.31459473 129.77734375 136.39453125 C131.03538818 136.46776611 132.29343262 136.54100098 133.58959961 136.61645508 C139.33724599 137.26285442 142.17975082 139.95142018 145.8125 144.125 C149.8822503 149.47381467 149.64572904 154.41691819 149 161 C147.95049881 163.75436774 146.7499752 165.59378409 145 168 C144.34 168 143.68 168 143 168 C143 168.66 143 169.32 143 170 C137.54298623 172.91886783 133.46380205 174.04717675 127.33203125 174.01953125 C126.11543823 174.01530151 126.11543823 174.01530151 124.87426758 174.01098633 C124.25575928 174.00736084 123.63725098 174.00373535 123 174 C123.02356567 175.64814697 123.02356567 175.64814697 123.04760742 177.32958984 C123.10235199 181.44832889 123.13651028 185.5670365 123.16479492 189.68603516 C123.17978093 191.46082996 123.20017682 193.23558837 123.22631836 195.01025391 C123.45629428 211.03641911 122.01674305 222.57960665 110.6875 234.75 C108.06776762 237.29006964 105.67622914 238.64932218 102.34301758 240.08862305 C98.99632545 241.89706563 98.99632545 241.89706563 97.15975952 245.08731079 C96.83008356 247.70240203 96.78012132 250.19656573 96.82421875 252.83203125 C96.79096245 254.25789803 96.79096245 254.25789803 96.7570343 255.71257019 C96.69213025 258.74691632 96.68629555 261.77751892 96.6875 264.8125 C96.66217218 267.83567742 96.62388906 270.85759291 96.56440735 273.8802948 C96.53017032 275.75771918 96.51662697 277.63567558 96.52726746 279.51338196 C96.45337425 285.48675859 95.38735897 290.00957745 92 295 C89.5 297.375 89.5 297.375 87 299 C86.45859375 299.3609375 85.9171875 299.721875 85.359375 300.09375 C81.87136602 301.43351504 78.42774688 301.20947122 74.75 301.125 C74.00492188 301.11597656 73.25984375 301.10695313 72.4921875 301.09765625 C70.66131941 301.07418358 68.83061762 301.03831525 67 301 C67.04640625 301.97582031 67.0928125 302.95164062 67.140625 303.95703125 C67.17671875 305.22933594 67.2128125 306.50164062 67.25 307.8125 C67.29640625 309.07707031 67.3428125 310.34164063 67.390625 311.64453125 C67 315 67 315 65.34997559 316.6844635 C62.38994375 318.34151472 60.39597732 318.38683672 57.00976562 318.40405273 C55.19768616 318.42307899 55.19768616 318.42307899 53.34899902 318.44248962 C52.04789185 318.43955399 50.74678467 318.43661835 49.40625 318.43359375 C48.05391172 318.43815643 46.70157576 318.44346227 45.34924316 318.44947815 C42.51805182 318.45840383 39.68714265 318.45599213 36.85595703 318.44604492 C33.23077572 318.43454804 29.60656746 318.45477876 25.98151398 318.48396206 C23.18989902 318.50232127 20.39851748 318.50203243 17.6068573 318.49632454 C15.62153988 318.49609694 13.63624441 318.51299518 11.65100098 318.53013611 C10.442948 318.52075516 9.23489502 318.51137421 7.99023438 318.50170898 C6.3961676 318.50145973 6.3961676 318.50145973 4.76989746 318.50120544 C1.2997222 317.87328663 0.11251339 316.77924759 -2 314 C-2.390625 310.765625 -2.390625 310.765625 -2.25 307.25 C-2.21390625 306.07953125 -2.1778125 304.9090625 -2.140625 303.703125 C-2.09421875 302.81109375 -2.0478125 301.9190625 -2 301 C-3.0621875 301.05800781 -4.124375 301.11601562 -5.21875 301.17578125 C-19.1655446 301.71485948 -19.1655446 301.71485948 -24.51953125 297.56640625 C-28.71902073 293.12314693 -31.10338488 287.92199043 -31.15429688 281.79150391 C-31.16521362 280.94697662 -31.17613037 280.10244934 -31.18737793 279.23233032 C-31.2029071 277.86822525 -31.2029071 277.86822525 -31.21875 276.4765625 C-31.2631781 274.5494212 -31.31013196 272.62233678 -31.359375 270.6953125 C-31.43603025 267.65760258 -31.50001679 264.62262281 -31.52148438 261.58398438 C-31.546269 258.64986641 -31.62740431 255.72176804 -31.71875 252.7890625 C-31.71290894 251.88370758 -31.70706787 250.97835266 -31.7010498 250.04556274 C-31.81299187 247.40971393 -31.98875691 245.44073286 -33 243 C-35.77047293 240.7173255 -38.73343307 239.42828455 -42 238 C-50.96426204 230.93605666 -55.88571039 222.1493787 -58 211 C-58.2422435 208.03584964 -58.23526202 205.0974003 -58.1953125 202.125 C-58.1924826 201.31506592 -58.18965271 200.50513184 -58.18673706 199.6706543 C-58.17564715 197.11361166 -58.15056452 194.55693465 -58.125 192 C-58.1149557 190.25391135 -58.1058324 188.50781715 -58.09765625 186.76171875 C-58.07574466 182.50767415 -58.04129382 178.25389881 -58 174 C-60.01009115 174.00623067 -62.02018229 174.01246134 -64.03027344 174.01869202 C-71.02978591 173.95226909 -75.20231598 171.49431981 -80.3359375 166.8515625 C-84.33078247 162.40659416 -84.38073294 158.47941148 -84.2421875 152.68359375 C-83.76443298 147.38976546 -81.55292244 144.31108712 -77.8125 140.75 C-72.85757545 136.77356895 -68.07668134 135.96300731 -61.85717773 135.98583984 C-59.94787476 135.99284912 -59.94787476 135.99284912 -58 136 C-58.02094727 134.91170898 -58.04189453 133.82341797 -58.06347656 132.70214844 C-58.13665517 128.60951236 -58.18207844 124.51693231 -58.21972656 120.42382812 C-58.23966673 118.66266103 -58.26682911 116.9015586 -58.30175781 115.140625 C-58.56989429 101.26061897 -58.02782937 88.67329885 -48 78 C-44.3736375 74.40318017 -41.11805458 71.50111795 -36.42236328 69.39648438 C-34.5236331 68.39147351 -34.5236331 68.39147351 -33 67 C-32.24637937 64.00804365 -31.9995777 62.01782898 -32.01953125 59.015625 C-31.99453049 58.24120056 -31.96952972 57.46677612 -31.94377136 56.66888428 C-31.86770429 54.19548358 -31.83683923 51.72440854 -31.8125 49.25 C-31.77215429 46.79060305 -31.72152634 44.33263092 -31.64909363 41.8739624 C-31.60567982 40.34725831 -31.58094719 38.81986088 -31.5785675 37.2925415 C-31.43195731 31.24505379 -29.69157098 26.0768338 -25.65925598 21.46734619 C-18.77765087 15.19083261 -10.73050067 15.74195565 -2 16 C-2.02320313 15.09636719 -2.04640625 14.19273438 -2.0703125 13.26171875 C-2.08835937 12.08222656 -2.10640625 10.90273438 -2.125 9.6875 C-2.14820313 8.51574219 -2.17140625 7.34398437 -2.1953125 6.13671875 C-2 3 -2 3 0 0 Z M9 11 C8.87197643 12.62032129 8.81164505 14.2460544 8.77880859 15.87109375 C8.75563568 16.90886963 8.73246277 17.94664551 8.70858765 19.01586914 C8.6887381 20.14500732 8.66888855 21.27414551 8.6484375 22.4375 C8.62528473 23.58790771 8.60213196 24.73831543 8.57827759 25.92358398 C8.53055785 28.36144469 8.4853338 30.7993553 8.44238281 33.23730469 C8.37528816 36.98390901 8.29755882 40.73018838 8.21875 44.4765625 C8.17383738 46.83852955 8.1295456 49.2005085 8.0859375 51.5625 C8.06203949 52.69163818 8.03814148 53.82077637 8.01351929 54.98413086 C7.9966507 56.02190674 7.9797821 57.05968262 7.96240234 58.12890625 C7.93694839 59.50671265 7.93694839 59.50671265 7.91098022 60.91235352 C7.76378643 62.98923319 7.76378643 62.98923319 9 64 C10.50418739 64.09311889 12.01271356 64.11746028 13.51977539 64.11352539 C14.48069595 64.11344986 15.44161652 64.11337433 16.43165588 64.11329651 C17.476436 64.10813522 18.52121613 64.10297394 19.59765625 64.09765625 C21.19364906 64.09553383 21.19364906 64.09553383 22.82188416 64.09336853 C26.23545083 64.08775064 29.648953 64.07519511 33.0625 64.0625 C35.37044176 64.05748731 37.67838455 64.052924 39.98632812 64.04882812 C45.65757426 64.0377754 51.32878253 64.02101987 57 64 C57.02521659 59.20264037 57.0430967 54.4053215 57.05493164 49.60791016 C57.059879 47.98485643 57.06663845 46.36180694 57.07543945 44.73876953 C57.13673649 33.12117901 56.76884809 21.59253021 56 10 C49.46721214 9.97472998 42.93443679 9.95716708 36.40161133 9.94506836 C34.17732268 9.94002683 31.95303737 9.93319377 29.72875977 9.92456055 C26.53921691 9.91248702 23.34971771 9.90677004 20.16015625 9.90234375 C19.15912369 9.89718246 18.15809113 9.89202118 17.12672424 9.88670349 C16.20584518 9.88662796 15.28496613 9.88655243 14.33618164 9.88647461 C13.52121719 9.884254 12.70625275 9.88203339 11.86659241 9.87974548 C9.98522144 9.79471755 9.98522144 9.79471755 9 11 Z M-17.1875 28.875 C-20.3486043 32.58112229 -20.17904426 35.1492696 -20.31640625 39.9765625 C-20.3475779 41.00443375 -20.3475779 41.00443375 -20.37937927 42.05307007 C-20.44480185 44.24361069 -20.50372554 46.43427189 -20.5625 48.625 C-20.60569218 50.1093875 -20.6493067 51.59376278 -20.69335938 53.078125 C-20.80127138 56.71862818 -20.90039781 60.35922195 -21 64 C-14.73 64 -8.46 64 -2 64 C-2 51.79 -2 39.58 -2 27 C-12.89247791 25.98595975 -12.89247791 25.98595975 -17.1875 28.875 Z M67 28 C66.89963651 30.31726054 66.86918467 32.63759916 66.8671875 34.95703125 C66.86623077 35.65640305 66.86527405 36.35577484 66.86428833 37.07633972 C66.86360641 38.56009002 66.86546153 40.04384329 66.86962891 41.52758789 C66.8749531 43.79254943 66.86969685 46.05731049 66.86328125 48.32226562 C66.8639425 49.76302127 66.86522463 51.20377679 66.8671875 52.64453125 C66.86831543 53.95784424 66.86944336 55.27115723 66.87060547 56.62426758 C66.88976489 60.14045559 66.88976489 60.14045559 68 64 C73.94 64 79.88 64 86 64 C86.04000949 58.79876579 86.06651031 53.60746128 86.02099609 48.40771484 C86.0077598 46.88985044 85.99957128 45.37192566 85.99853516 43.85400391 C86.24937604 35.61790227 86.24937604 35.61790227 82.625 28.625 C78.84752792 26.93165045 70.44529708 24.55470292 67 28 Z M-40.75 86.75 C-46.10289381 94.48195772 -47.59334702 101.81545931 -47.50170898 111.09008789 C-47.50711197 112.14998428 -47.51251495 113.20988068 -47.51808167 114.30189514 C-47.5305023 117.77577369 -47.51412272 121.2488127 -47.49609375 124.72265625 C-47.49624888 127.15303084 -47.49774018 129.58340567 -47.50050354 132.01377869 C-47.50188452 137.09499108 -47.48937854 142.17592017 -47.46655273 147.25708008 C-47.43815436 153.75562575 -47.44091384 160.25370162 -47.45364285 166.75228214 C-47.46061183 171.76671836 -47.45279696 176.78104683 -47.44038582 181.79546928 C-47.43588428 184.19115218 -47.43552312 186.58684669 -47.43945122 188.98253059 C-47.44237573 192.33502887 -47.42579692 195.68688918 -47.40405273 199.03930664 C-47.40855438 200.01981995 -47.41305603 201.00033325 -47.41769409 202.01055908 C-47.30495693 212.52182343 -44.6138975 219.22787458 -37.33984375 226.83203125 C-29.70583504 233.90527805 -21.53534153 235.29981645 -11.47167969 235.29052734 C-10.42372726 235.29724457 -9.37577484 235.30396179 -8.29606628 235.31088257 C-4.83795403 235.32985131 -1.38003602 235.3337864 2.078125 235.3359375 C4.48940103 235.34236678 6.90067628 235.34909524 9.31195068 235.35610962 C14.36570035 235.36808001 19.41938169 235.37179074 24.47314453 235.37060547 C30.93362917 235.37040243 37.39367318 235.39769035 43.8540535 235.43214989 C48.83506259 235.45444198 53.81596609 235.45844227 58.79701996 235.45738602 C61.17794054 235.45973903 63.55886416 235.46854555 65.93973541 235.48405075 C69.27816665 235.50375427 72.61565352 235.49785455 75.95410156 235.48583984 C77.41487877 235.50269836 77.41487877 235.50269836 78.90516663 235.51989746 C88.11152724 235.43615164 97.25325031 232.5158096 104 226 C110.93107987 217.50022307 112.30138758 209.92506454 112.2746582 199.23461914 C112.27976913 198.17355453 112.28488007 197.11248993 112.29014587 196.01927185 C112.30400459 192.5245087 112.30308797 189.02994356 112.30078125 185.53515625 C112.30467 183.09809801 112.30900504 180.66104045 112.31376648 178.22398376 C112.32122054 173.12073569 112.32094312 168.0175568 112.31567383 162.91430664 C112.30987807 156.38310198 112.32681702 149.85218079 112.3500185 143.32102299 C112.3647678 138.28948823 112.36562593 133.25802158 112.36250877 128.22646904 C112.3630213 125.81878536 112.36824621 123.41109779 112.37832069 121.00343513 C112.39069164 117.6336957 112.38388913 114.26450638 112.37231445 110.89477539 C112.37995819 109.90595367 112.38760193 108.91713196 112.39547729 107.89834595 C112.32291114 98.31393511 109.48657714 91.12049264 103 84 C94.81962121 76.05283376 84.60855921 74.53700644 73.57836914 74.61181641 C72.60117416 74.60655945 71.62397919 74.60130249 70.61717224 74.59588623 C67.42299883 74.58280397 64.22933374 74.59138313 61.03515625 74.6015625 C58.79275925 74.59953822 56.5503629 74.59662385 54.30796814 74.59286499 C49.621996 74.58845741 44.93619615 74.59482157 40.25024414 74.60888672 C34.27105248 74.62596751 28.29226523 74.61613414 22.31308842 74.59816933 C17.68628443 74.58728066 13.05957484 74.59080126 8.43276787 74.5985527 C6.22935372 74.60054119 4.02593076 74.59814344 1.82252693 74.59111404 C-21.61438048 74.46224487 -21.61438048 74.46224487 -40.75 86.75 Z M-71.6875 149.625 C-73.43054644 152.77908404 -73.65292967 154.44516067 -73 158 C-71.19003883 161.06078239 -71.19003883 161.06078239 -68 163 C-64.94700634 163.45613488 -62.05497303 163.44183494 -59 163 C-57.63467451 161.86298403 -57.63467451 161.86298403 -57.90234375 158.83984375 C-57.91394531 157.55207031 -57.92554688 156.26429688 -57.9375 154.9375 C-57.94652344 153.64714844 -57.95554687 152.35679687 -57.96484375 151.02734375 C-57.97644531 150.02832031 -57.98804688 149.02929688 -58 148 C-65.14386674 147.36094437 -65.14386674 147.36094437 -71.6875 149.625 Z M123 148 C122.97314588 150.31243792 122.95367159 152.6249627 122.9375 154.9375 C122.92589844 156.22527344 122.91429687 157.51304687 122.90234375 158.83984375 C122.63467451 161.86298403 122.63467451 161.86298403 124 163 C128.54952753 163.57339087 131.99349274 163.58712924 136 161.25 C138.46840508 158.49583369 138.46840508 158.49583369 139 155 C137.91970563 151.2189697 137.35693737 150.23795825 134 148 C131.25481679 147.75812349 131.25481679 147.75812349 128.3125 147.875 C127.31863281 147.89304688 126.32476562 147.91109375 125.30078125 147.9296875 C124.54152344 147.95289063 123.78226563 147.97609375 123 148 Z M-21 245 C-21.1104378 254.93940174 -21.04799285 264.87663807 -20.75 274.8125 C-20.73590088 275.74852051 -20.72180176 276.68454102 -20.70727539 277.64892578 C-20.5528407 281.88143772 -20.36775268 284.39197193 -18.140625 288.07421875 C-14.85574885 291.02940842 -12.12657316 291.13739526 -7.875 291.125 C-6.98554688 291.12757813 -6.09609375 291.13015625 -5.1796875 291.1328125 C-3.02208912 291.24301985 -3.02208912 291.24301985 -2 290 C-1.90204689 288.62390118 -1.87201912 287.24286118 -1.87060547 285.86328125 C-1.86745331 284.98567139 -1.86430115 284.10806152 -1.86105347 283.20385742 C-1.8630777 282.24970947 -1.86510193 281.29556152 -1.8671875 280.3125 C-1.86623077 279.33966064 -1.86527405 278.36682129 -1.86428833 277.36450195 C-1.86360642 275.303222 -1.86546147 273.24193992 -1.86962891 271.18066406 C-1.874977 268.01362312 -1.86968428 264.846724 -1.86328125 261.6796875 C-1.86394203 259.68229135 -1.86522319 257.68489529 -1.8671875 255.6875 C-1.86516327 254.73335205 -1.86313904 253.7792041 -1.86105347 252.79614258 C-1.86420563 251.91853271 -1.86735779 251.04092285 -1.87060547 250.13671875 C-1.87140106 249.36030029 -1.87219666 248.58388184 -1.87301636 247.78393555 C-1.80596458 245.97566338 -1.80596458 245.97566338 -3 245 C-4.34267413 244.91368126 -5.68974322 244.89293527 -7.03515625 244.90234375 C-7.84404297 244.90556641 -8.65292969 244.90878906 -9.48632812 244.91210938 C-10.33646484 244.92048828 -11.18660156 244.92886719 -12.0625 244.9375 C-12.91650391 244.94201172 -13.77050781 244.94652344 -14.65039062 244.95117188 C-16.76695663 244.96299627 -18.88348685 244.98093231 -21 245 Z M8 246 C7.90956918 248.90987998 7.8843409 251.79336465 7.90625 254.703125 C7.90983521 255.59590149 7.91342041 256.48867798 7.91711426 257.4085083 C7.97656437 267.52537654 8.23040756 277.63695527 8.5 287.75 C8.665 294.1025 8.83 300.455 9 307 C24.51 307 40.02 307 56 307 C56.72431836 292.15147365 57.10873008 277.36257307 57.125 262.5 C57.12749756 261.68752808 57.12999512 260.87505615 57.13256836 260.03796387 C57.13842116 257.72318172 57.13699058 255.40853339 57.1328125 253.09375 C57.13479645 252.3907074 57.1367804 251.68766479 57.13882446 250.96331787 C57.40183116 247.70093944 57.40183116 247.70093944 56 245 C54.53194708 244.90177256 53.0592254 244.8720163 51.58789062 244.87060547 C50.18138245 244.86587723 50.18138245 244.86587723 48.74645996 244.86105347 C47.72669067 244.8630777 46.70692139 244.86510193 45.65625 244.8671875 C44.61682251 244.86623077 43.57739502 244.86527405 42.50646973 244.86428833 C40.30395446 244.86360637 38.10143721 244.86546173 35.89892578 244.86962891 C32.51460281 244.87497692 29.13041256 244.86968441 25.74609375 244.86328125 C23.61197887 244.86394203 21.47786408 244.86522319 19.34375 244.8671875 C18.32398071 244.86516327 17.30421143 244.86313904 16.25354004 244.86105347 C15.31586792 244.86420563 14.3781958 244.86735779 13.41210938 244.87060547 C12.16753967 244.87179886 12.16753967 244.87179886 10.89782715 244.87301636 C8.98898476 244.79157448 8.98898476 244.79157448 8 246 Z M67 246 C66.90204689 247.37609882 66.87201912 248.75713882 66.87060547 250.13671875 C66.86745331 251.01432861 66.86430115 251.89193848 66.86105347 252.79614258 C66.8630777 253.75029053 66.86510193 254.70443848 66.8671875 255.6875 C66.86623077 256.66033936 66.86527405 257.63317871 66.86428833 258.63549805 C66.86360642 260.696778 66.86546147 262.75806008 66.86962891 264.81933594 C66.874977 267.98637688 66.86968428 271.153276 66.86328125 274.3203125 C66.86394203 276.31770865 66.86522319 278.31510471 66.8671875 280.3125 C66.86516327 281.26664795 66.86313904 282.2207959 66.86105347 283.20385742 C66.86420563 284.08146729 66.86735779 284.95907715 66.87060547 285.86328125 C66.87140106 286.63969971 66.87219666 287.41611816 66.87301636 288.21606445 C66.80596458 290.02433662 66.80596458 290.02433662 68 291 C72.60987716 291.4439141 76.72508019 291.55777742 81 289.6875 C83.64471603 287.45602085 84.88494756 285.74892629 85.4140625 282.3046875 C86.17863778 269.87325973 86.09605596 257.45033051 86 245 C83.02077407 244.97316013 80.04178705 244.95323963 77.0625 244.9375 C76.21236328 244.92912109 75.36222656 244.92074219 74.48632812 244.91210938 C73.67744141 244.90888672 72.86855469 244.90566406 72.03515625 244.90234375 C71.2862915 244.89710693 70.53742676 244.89187012 69.76586914 244.88647461 C67.97332261 244.80658248 67.97332261 244.80658248 67 246 Z " fill="#010101" transform="translate(148,9)"/>
<path d="M0 0 C0.87045456 -0.00571014 1.74090912 -0.01142029 2.63774109 -0.01730347 C3.58483948 -0.01842133 4.53193787 -0.01953918 5.50773621 -0.02069092 C6.5114476 -0.02565582 7.515159 -0.03062073 8.54928589 -0.03573608 C11.87032252 -0.05034303 15.19131139 -0.05715721 18.51237488 -0.06268311 C20.82159425 -0.06843565 23.13081361 -0.07419338 25.44003296 -0.07995605 C30.28291547 -0.09046179 35.1257814 -0.0963073 39.96867371 -0.09979248 C46.16935332 -0.10527702 52.36981333 -0.12930621 58.57042408 -0.15776443 C63.34113197 -0.17640221 68.11178708 -0.18159703 72.88252831 -0.18312836 C75.16823719 -0.1861527 77.45394519 -0.19417382 79.7396183 -0.20731354 C82.9398373 -0.22439786 86.13952115 -0.22248776 89.33976746 -0.21600342 C90.751306 -0.22982559 90.751306 -0.22982559 92.19136047 -0.243927 C97.76465287 -0.20861238 101.7088267 0.42744412 106.61784363 3.14044189 C110.47838747 7.91532507 111.74120004 11.70354191 111.74723816 17.72637939 C111.7503299 18.64121094 111.75342163 19.55604248 111.75660706 20.49859619 C111.75464325 21.49415527 111.75267944 22.48971436 111.75065613 23.51544189 C111.75290695 25.09482544 111.75290695 25.09482544 111.75520325 26.70611572 C111.75757799 30.18426184 111.75125351 33.66230587 111.74284363 37.14044189 C111.74062805 38.32718506 111.73841248 39.51392822 111.73612976 40.7366333 C111.71973666 48.26131749 111.68585833 55.78579972 111.64067078 63.31036377 C111.62553032 65.85072135 111.61160168 68.39108646 111.59892273 70.93145752 C111.56186936 78.19297488 111.50215406 85.45364635 111.40830994 92.71466064 C111.38142549 94.9906341 111.36107528 97.26669451 111.34739685 99.54278564 C111.32627636 102.72174157 111.28005604 105.89937606 111.22721863 109.07794189 C111.22597992 110.01307617 111.22474121 110.94821045 111.22346497 111.91168213 C111.09828114 117.42667914 110.49107881 120.89979159 106.61784363 125.14044189 C101.24135695 128.66080789 96.43155262 128.57335679 90.22550964 128.54449463 C89.19224548 128.55135788 88.15898132 128.55822113 87.09440613 128.56529236 C83.68671335 128.583559 80.27948101 128.57972292 76.87174988 128.57403564 C74.49812673 128.57859746 72.12450491 128.58390304 69.75088501 128.58992004 C64.77866751 128.59885089 59.80661063 128.59642816 54.83439636 128.58648682 C48.46775279 128.57499688 42.10166383 128.59520978 35.73509312 128.62440395 C30.83396899 128.64276422 25.93297781 128.64247379 21.03182793 128.63676643 C18.68471944 128.6366132 16.33760195 128.64265905 13.9905262 128.65505791 C10.70652253 128.66996231 7.42354409 128.65929384 4.13957214 128.64215088 C2.69066841 128.65665283 2.69066841 128.65665283 1.2124939 128.67144775 C-4.84078058 128.60539764 -8.43381039 127.69425053 -13.38215637 124.14044189 C-17.33257694 118.888754 -16.87298725 112.93287105 -16.92903137 106.62481689 C-16.94989807 105.48024521 -16.97076477 104.33567352 -16.99226379 103.15641785 C-17.05507705 99.40113404 -17.09497173 95.64606111 -17.13215637 91.89044189 C-17.16626744 89.2925406 -17.20044783 86.69464022 -17.23469543 84.09674072 C-17.43695114 66.67233119 -17.40319251 49.25160086 -17.13215637 31.82794189 C-17.11324341 30.21949402 -17.11324341 30.21949402 -17.09394836 28.57855225 C-17.05489399 25.56087359 -16.99557424 22.54434326 -16.92903137 19.52716064 C-16.91944397 18.64334213 -16.90985657 17.75952362 -16.89997864 16.84892273 C-16.76719558 12.13259098 -16.40783971 8.98097809 -13.38215637 5.14044189 C-9.02617711 1.11953796 -5.81850081 0.02295036 0 0 Z M-5.38215637 13.14044189 C-5.68049213 15.1530715 -5.68049213 15.1530715 -5.62507629 17.48248291 C-5.62815292 18.38003799 -5.63122955 19.27759308 -5.63439941 20.2023468 C-5.6272139 21.17320724 -5.62002838 22.14406769 -5.61262512 23.14434814 C-5.6121669 24.1379686 -5.61170868 25.13158905 -5.61123657 26.15531921 C-5.60821247 28.25771274 -5.60032147 30.36010398 -5.58796692 32.46246338 C-5.56971202 35.69309359 -5.56745718 38.92343738 -5.56770325 42.15411377 C-5.56278817 44.19252772 -5.5569599 46.23093972 -5.55012512 48.26934814 C-5.5490123 49.24223282 -5.54789948 50.21511749 -5.54675293 51.21748352 C-5.54037308 52.11188644 -5.53399323 53.00628937 -5.52742004 53.92779541 C-5.52360825 54.71896255 -5.51979645 55.5101297 -5.51586914 56.32527161 C-5.57934 58.16100775 -5.57934 58.16100775 -4.38215637 59.14044189 C-2.05397674 59.50804921 0.27968213 59.8428577 2.61784363 60.14044189 C3.87449341 63.04644451 4.61784363 64.93648774 4.61784363 68.14044189 C1.31784363 68.80044189 -1.98215637 69.46044189 -5.38215637 70.14044189 C-5.40679984 76.67323529 -5.42498929 83.20600187 -5.43708801 89.73883057 C-5.44212954 91.96311921 -5.4489626 94.18740452 -5.45759583 96.41168213 C-5.46966936 99.60122498 -5.47538633 102.79072418 -5.47981262 105.98028564 C-5.48497391 106.98131821 -5.49013519 107.98235077 -5.49545288 109.01371765 C-5.49552841 109.93459671 -5.49560394 110.85547577 -5.49568176 111.80426025 C-5.49790237 112.6192247 -5.50012299 113.43418915 -5.50241089 114.27384949 C-5.58743883 116.15522046 -5.58743883 116.15522046 -4.38215637 117.14044189 C-2.93925851 117.23340005 -1.49185853 117.25790702 -0.04597473 117.25396729 C0.87490433 117.25389175 1.79578339 117.25381622 2.74456787 117.2537384 C4.24611671 117.24599648 4.24611671 117.24599648 5.77799988 117.23809814 C6.797603 117.2366832 7.81720612 117.23526825 8.8677063 117.23381042 C12.1386147 117.22819286 15.40945576 117.21563739 18.68034363 117.20294189 C20.89193118 117.19792916 23.10351981 117.19336586 25.31510925 117.18927002 C30.7493772 117.17821773 36.1836056 117.16146252 41.61784363 117.14044189 C41.80346863 115.22231689 41.80346863 115.22231689 41.99284363 113.26544189 C42.36784363 109.39044189 42.36784363 109.39044189 44.61784363 107.14044189 C47.11784363 106.89044189 47.11784363 106.89044189 49.61784363 107.14044189 C52.62401632 110.14661458 52.21369679 112.96425787 52.61784363 117.14044189 C59.13225364 117.21633225 65.64655023 117.26897392 72.16130066 117.30523682 C74.37879191 117.32034943 76.59625315 117.34084015 78.81364441 117.36676025 C81.99584852 117.40303482 85.17765845 117.42014328 88.36003113 117.43341064 C89.85383804 117.45663643 89.85383804 117.45663643 91.37782288 117.48033142 C92.75902817 117.48067131 92.75902817 117.48067131 94.1681366 117.48101807 C94.98088043 117.4876799 95.79362427 117.49434174 96.6309967 117.50120544 C97.28665619 117.38215347 97.94231567 117.2631015 98.61784363 117.14044189 C100.70804516 114.0051396 100.86530313 113.32212419 100.84489441 109.76080322 C100.84474335 108.88011673 100.84459229 107.99943024 100.84443665 107.09205627 C100.83411407 106.14509384 100.8237915 105.19813141 100.81315613 104.22247314 C100.80891129 102.76390144 100.80891129 102.76390144 100.80458069 101.27586365 C100.79337962 98.16809824 100.7682751 95.0606203 100.74284363 91.95294189 C100.73281374 89.84682626 100.7236879 87.74070612 100.71549988 85.63458252 C100.69344051 80.4697581 100.65891109 75.30514875 100.61784363 70.14044189 C96.98784363 69.48044189 93.35784363 68.82044189 89.61784363 68.14044189 C90.49284363 61.26544189 90.49284363 61.26544189 91.61784363 60.14044189 C93.67513533 59.82120698 95.73397884 59.62882837 97.80534363 59.42169189 C99.63459693 59.32046146 99.63459693 59.32046146 100.61784363 58.14044189 C100.74394637 55.09639817 100.80655425 52.07632599 100.82096863 49.03106689 C100.8266687 48.11210632 100.83236877 47.19314575 100.83824158 46.24633789 C100.84770898 44.29601193 100.85423243 42.34566985 100.858078 40.39532471 C100.86775781 37.41684783 100.89875395 34.43906836 100.93034363 31.46075439 C100.936876 29.56752933 100.94212555 27.67429932 100.94596863 25.78106689 C100.96448883 24.44643402 100.96448883 24.44643402 100.98338318 23.08483887 C100.97057272 19.51089198 100.72560176 16.51366527 99.73088074 13.06842041 C96.17057133 9.81992089 92.11358515 10.52876801 87.48112488 10.65216064 C86.4865477 10.65923538 85.49197052 10.66631012 84.46725464 10.67359924 C81.28752229 10.70161031 78.10954457 10.76436267 74.93034363 10.82794189 C72.77607216 10.85301602 70.62177313 10.87583072 68.467453 10.89630127 C63.1835728 10.9514593 57.90100577 11.03777955 52.61784363 11.14044189 C51.95784363 14.44044189 51.29784363 17.74044189 50.61784363 21.14044189 C47.74284363 21.26544189 47.74284363 21.26544189 44.61784363 21.14044189 C41.61167094 18.13426921 42.02199047 15.31662592 41.61784363 11.14044189 C35.2458077 11.0898456 28.87382333 11.05475233 22.50163269 11.03057861 C20.33266769 11.02050401 18.16371631 11.00684392 15.99479675 10.98956299 C12.88213237 10.96537867 9.76964712 10.95397357 6.65690613 10.94512939 C5.68290863 10.93480682 4.70891113 10.92448425 3.70539856 10.91384888 C2.80461578 10.91369781 1.90383301 10.91354675 0.97575378 10.91339111 C0.18077484 10.90894989 -0.6142041 10.90450867 -1.43327332 10.89993286 C-3.61859128 10.96675887 -3.61859128 10.96675887 -5.38215637 13.14044189 Z " fill="#040404" transform="translate(133.3821563720703,99.85955810546875)"/>
<path d="M0 0 C0 0.33 0 0.66 0 1 C42.57 1.495 42.57 1.495 86 2 C86 2.33 86 2.66 86 3 C85.03578125 3.04898438 84.0715625 3.09796875 83.078125 3.1484375 C81.81484375 3.22320312 80.5515625 3.29796875 79.25 3.375 C77.99703125 3.44460937 76.7440625 3.51421875 75.453125 3.5859375 C72.32139202 3.96146204 70.70831551 4.57489549 68 6 C67.113125 5.690625 66.22625 5.38125 65.3125 5.0625 C60.47127657 3.50965475 55.77260469 3.67723651 51.125 5.89453125 C48.84106717 7.36042083 47.22677547 8.54644905 46 11 C45.34 11 44.68 11 44 11 C44 13.97 44 16.94 44 20 C46.76223278 17.23776722 46.57856291 14.79293383 47 11 C48.5625 12.0625 48.5625 12.0625 50 14 C49.55555556 20.44444444 49.55555556 20.44444444 48 22 C45.00105039 22.26077823 42.81996705 22.43731576 40.125 21 C38.32767157 17.80474946 38.93413795 14.62973048 39 11 C32.60947614 11.11730201 26.21913192 11.24213771 19.82885742 11.37231445 C17.65311047 11.41573507 15.47732786 11.45740471 13.30151367 11.49731445 C10.18136832 11.55484502 7.06140367 11.61858823 3.94140625 11.68359375 C2.96224747 11.70030624 1.98308868 11.71701874 0.97425842 11.73423767 C-0.37702904 11.7641555 -0.37702904 11.7641555 -1.75561523 11.79467773 C-2.95141457 11.81799416 -2.95141457 11.81799416 -4.17137146 11.84178162 C-6.01851382 11.80400665 -6.01851382 11.80400665 -7 13 C-7.16010481 15.73701178 -7.25946828 18.4516759 -7.31640625 21.19140625 C-7.33718735 22.01124496 -7.35796844 22.83108368 -7.37937927 23.67576599 C-7.44496494 26.30458901 -7.50380126 28.93351504 -7.5625 31.5625 C-7.60567667 33.34050561 -7.64929067 35.11850065 -7.69335938 36.89648438 C-7.80065543 41.26421634 -7.90189704 45.63205227 -8 50 C-8.66 50 -9.32 50 -10 50 C-10.33 52.64 -10.66 55.28 -11 58 C-12.65 57.67 -14.3 57.34 -16 57 C-16.33 58.32 -16.66 59.64 -17 61 C-17.33 46.81 -17.66 32.62 -18 18 C-18.33 18 -18.66 18 -19 18 C-19.44365036 9.27487631 -19.44365036 9.27487631 -16 5 C-10.65869219 0.06956202 -7.133883 -0.13719006 0 0 Z " fill="#000000" transform="translate(136,100)"/>
<path d="M0 0 C0.33 0 0.66 0 1 0 C1.33 15.18 1.66 30.36 2 46 C3.32 46 4.64 46 6 46 C6.33 31.81 6.66 17.62 7 3 C7.33 3 7.66 3 8 3 C8 14.88 8 26.76 8 39 C8.66 39 9.32 39 10 39 C10.33 41.64 10.66 44.28 11 47 C12.093125 47.0825 13.18625 47.165 14.3125 47.25 C18 48 18 48 20 49.75 C21 52 21 52 20.9375 54.625 C20 57 20 57 18.3125 58.3125 C16 59 16 59 10 59 C10 66.26 10 73.52 10 81 C9.34 81 8.68 81 8 81 C8 88.26 8 95.52 8 103 C7.67 103 7.34 103 7 103 C7 88.48 7 73.96 7 59 C5.02 58.67 3.04 58.34 1 58 C1 73.84 1 89.68 1 106 C0.67 106 0.34 106 0 106 C0 71.02 0 36.04 0 0 Z " fill="#0F0F0F" transform="translate(118,111)"/>
<path d="M0 0 C2.93447357 2.93447357 2.46158423 6.18259456 2.625 10.125 C2.66367188 10.87910156 2.70234375 11.63320312 2.7421875 12.41015625 C2.83651031 14.27303184 2.91934662 16.13648255 3 18 C3.68707031 18.03738281 4.37414062 18.07476562 5.08203125 18.11328125 C5.98308594 18.17902344 6.88414062 18.24476563 7.8125 18.3125 C8.70582031 18.37050781 9.59914062 18.42851562 10.51953125 18.48828125 C13.35000906 19.07220659 14.31761024 19.67984158 16 22 C16.3125 25.0625 16.3125 25.0625 16 28 C13.55013068 30.44986932 12.862922 30.25631311 9.5 30.265625 C8.613125 30.26820313 7.72625 30.27078125 6.8125 30.2734375 C5.884375 30.26570313 4.95625 30.25796875 4 30.25 C2.6078125 30.26160156 2.6078125 30.26160156 1.1875 30.2734375 C-0.1428125 30.26957031 -0.1428125 30.26957031 -1.5 30.265625 C-2.3146875 30.26336914 -3.129375 30.26111328 -3.96875 30.25878906 C-6 30 -6 30 -8 28 C-8.45906021 23.68442601 -8.32401051 19.33715845 -8.3125 15 C-8.32861328 13.78570312 -8.34472656 12.57140625 -8.36132812 11.3203125 C-8.36197266 10.16273438 -8.36261719 9.00515625 -8.36328125 7.8125 C-8.36626221 6.74644531 -8.36924316 5.68039063 -8.37231445 4.58203125 C-8.24945068 3.72996094 -8.12658691 2.87789062 -8 2 C-4.77626323 -0.14915785 -3.73296326 -0.38286803 0 0 Z " fill="#010101" transform="translate(183,143)"/>
<path d="M0 0 C2.47941431 0.33090682 2.47941431 0.33090682 6.18359375 0.25390625 C6.51359375 -0.07609375 6.84359375 -0.40609375 7.18359375 -0.74609375 C9.5367293 -0.81881116 11.89193043 -0.82980243 14.24609375 -0.80859375 C15.53644531 -0.79957031 16.82679688 -0.79054688 18.15625 -0.78125 C19.15527344 -0.76964844 20.15429688 -0.75804688 21.18359375 -0.74609375 C22.17359375 1.23390625 23.16359375 3.21390625 24.18359375 5.25390625 C21.21359375 5.25390625 18.24359375 5.25390625 15.18359375 5.25390625 C14.68859375 3.76890625 14.68859375 3.76890625 14.18359375 2.25390625 C12.53359375 2.25390625 10.88359375 2.25390625 9.18359375 2.25390625 C9.18359375 3.24390625 9.18359375 4.23390625 9.18359375 5.25390625 C4.8985343 5.34135644 0.85626313 5.37191842 -3.37890625 4.62890625 C-7.78297398 4.1484625 -10.60462631 4.89757034 -14.81640625 6.25390625 C-17.12935445 8.56685445 -17.312216 9.732955 -17.94140625 12.87890625 C-18.19277344 14.10480469 -18.19277344 14.10480469 -18.44921875 15.35546875 C-18.57039062 15.98195313 -18.6915625 16.6084375 -18.81640625 17.25390625 C-19.80640625 16.92390625 -20.79640625 16.59390625 -21.81640625 16.25390625 C-21.48640625 13.28390625 -21.15640625 10.31390625 -20.81640625 7.25390625 C-20.15640625 7.25390625 -19.49640625 7.25390625 -18.81640625 7.25390625 C-18.58953125 6.65578125 -18.36265625 6.05765625 -18.12890625 5.44140625 C-16.07284717 2.01464112 -13.28595741 0.74375664 -9.56640625 -0.49609375 C-6.2739744 -0.79540574 -3.26694768 -0.4472944 0 0 Z " fill="#151515" transform="translate(200.81640625,103.74609375)"/>
<path d="M0 0 C0.33 0 0.66 0 1 0 C1.20140476 3.62528568 0.85776765 5.86501708 -1 9 C2.08763501 9.04446597 2.08763501 9.04446597 5.5 8.6875 C9 9 9 9 10.9375 11.25 C12 14 12 14 12 18 C6.72 18 1.44 18 -4 18 C-3.34 17.34 -2.68 16.68 -2 16 C-2.33 15.34 -2.66 14.68 -3 14 C-3.99 13.67 -4.98 13.34 -6 13 C-6.1953125 6.9453125 -6.1953125 6.9453125 -6 5 C-5.34 4.34 -4.68 3.68 -4 3 C-3.01 3 -2.02 3 -1 3 C-0.67 2.01 -0.34 1.02 0 0 Z " fill="#131313" transform="translate(183,154)"/>
<path d="M0 0 C0.33 0 0.66 0 1 0 C1 11.88 1 23.76 1 36 C1.66 36 2.32 36 3 36 C3.125 43.75 3.125 43.75 2 46 C4.31 46 6.62 46 9 46 C9 46.33 9 46.66 9 47 C-0.41002278 47.18451025 -0.41002278 47.18451025 -5 46 C-5 45.01 -5 44.02 -5 43 C-3.68 43 -2.36 43 -1 43 C-0.67 28.81 -0.34 14.62 0 0 Z " fill="#191919" transform="translate(125,114)"/>
<path d="M0 0 C1.9375 0.3125 1.9375 0.3125 4 1 C4.33 1.99 4.66 2.98 5 4 C5.66 4 6.32 4 7 4 C8.01577335 5.69900185 9.0119898 7.40970451 10 9.125 C10.8353125 10.55199219 10.8353125 10.55199219 11.6875 12.0078125 C13.11630654 15.26515122 13.25041309 17.4837829 13 21 C8.97079649 19.65693216 8.1293931 17.60985797 6.0078125 14.078125 C4.80235678 11.59245662 4.57367652 9.72847026 5 7 C4.360625 6.773125 3.72125 6.54625 3.0625 6.3125 C1 5 1 5 0.25 2.375 C0.1675 1.59125 0.085 0.8075 0 0 Z " fill="#141414" transform="translate(85,173)"/>
<path d="M0 0 C1.32 0 2.64 0 4 0 C5.29721449 3.89164348 5.13033993 6.89429226 5 11 C4.67 11.66 4.34 12.32 4 13 C2.35 13 0.7 13 -1 13 C-1.07654536 8.48382401 -1.10228696 4.40914783 0 0 Z " fill="#070707" transform="translate(120,180)"/>
<path d="M0 0 C2.31 0 4.62 0 7 0 C7 4 7 4 6 7 C5.34 7 4.68 7 4 7 C3.67 7.99 3.34 8.98 3 10 C2.01 10.33 1.02 10.66 0 11 C0 9.35 0 7.7 0 6 C0.66 6 1.32 6 2 6 C1.34 4.02 0.68 2.04 0 0 Z " fill="#141414" transform="translate(237,118)"/>
<path d="M0 0 C0 0.33 0 0.66 0 1 C-6.6 1 -13.2 1 -20 1 C-20.33 0.34 -20.66 -0.32 -21 -1 C-14.16053329 -2.43988773 -6.36764068 -3.39607503 0 0 Z " fill="#191919" transform="translate(235,75)"/>
<path d="M0 0 C1.051875 -0.02578125 2.10375 -0.0515625 3.1875 -0.078125 C6 0.25 6 0.25 9 3.25 C3.06 3.25 -2.88 3.25 -9 3.25 C-9 2.59 -9 1.93 -9 1.25 C-5.80693695 0.18564565 -3.35556004 0.04934647 0 0 Z " fill="#1A1A1A" transform="translate(136,72.75)"/>
<path d="M0 0 C0.33 0 0.66 0 1 0 C1 9.24 1 18.48 1 28 C0.67 28 0.34 28 0 28 C0 25.69 0 23.38 0 21 C-0.66 21 -1.32 21 -2 21 C-2.04241723 18.66705225 -2.04092937 16.33297433 -2 14 C-1.67 13.67 -1.34 13.34 -1 13 C-0.76518307 10.81707226 -0.58636677 8.62796826 -0.4375 6.4375 C-0.35371094 5.23996094 -0.26992187 4.04242188 -0.18359375 2.80859375 C-0.12300781 1.88175781 -0.06242187 0.95492187 0 0 Z " fill="#161616" transform="translate(118,42)"/>
<path d="M0 0 C2.64 0 5.28 0 8 0 C6.02 0.99 6.02 0.99 4 2 C4.99 3.98 5.98 5.96 7 8 C4.69 8 2.38 8 0 8 C0 5.33333333 0 2.66666667 0 0 Z " fill="#151515" transform="translate(75,172)"/>
<path d="M0 0 C2.375 0.25 2.375 0.25 5 1 C7.54889548 4.48796223 7.04048853 7.59511465 6.625 11.75 C6.51414062 12.92046875 6.40328125 14.0909375 6.2890625 15.296875 C6.19367188 16.18890625 6.09828125 17.0809375 6 18 C5.67 18 5.34 18 5 18 C5 13.71 5 9.42 5 5 C3.35 4.67 1.7 4.34 0 4 C0 2.68 0 1.36 0 0 Z " fill="#1A1A1A" transform="translate(120,165)"/>
<path d="M0 0 C0.33 0 0.66 0 1 0 C1 10.56 1 21.12 1 32 C0.67 32 0.34 32 0 32 C0 25.73 0 19.46 0 13 C-0.66 13 -1.32 13 -2 13 C-2 12.01 -2 11.02 -2 10 C-1.34 10 -0.68 10 0 10 C0 6.7 0 3.4 0 0 Z " fill="#161616" transform="translate(118,262)"/>
<path d="M0 0 C0.66 0.33 1.32 0.66 2 1 C2 3.31 2 5.62 2 8 C0.02 8 -1.96 8 -4 8 C-3.67 6.02 -3.34 4.04 -3 2 C-2.01 2 -1.02 2 0 2 C0 1.34 0 0.68 0 0 Z " fill="#151515" transform="translate(239,105)"/>
<path d="M0 0 C0.33 1.32 0.66 2.64 1 4 C2.65 4.33 4.3 4.66 6 5 C6.33 6.65 6.66 8.3 7 10 C4.72970466 9.60856977 3.16591802 9.11258722 1.25 7.8125 C-0.54267046 5.21312784 -0.20510719 3.07660784 0 0 Z " fill="#151515" transform="translate(91,195)"/>
<path d="M0 0 C0.99 0.33 1.98 0.66 3 1 C3 1.99 3 2.98 3 4 C2.34 4 1.68 4 1 4 C1 11.26 1 18.52 1 26 C0.67 26 0.34 26 0 26 C0 17.42 0 8.84 0 0 Z " fill="#171717" transform="translate(125,188)"/>
<path d="M0 0 C2.31 0 4.62 0 7 0 C7.33 1.32 7.66 2.64 8 4 C5.36 4 2.72 4 0 4 C0 2.68 0 1.36 0 0 Z " fill="#171717" transform="translate(187,166)"/>
<path d="M0 0 C2.31 0 4.62 0 7 0 C6.625 1.9375 6.625 1.9375 6 4 C5.01 4.495 5.01 4.495 4 5 C3.34 4.67 2.68 4.34 2 4 C2 3.34 2 2.68 2 2 C1.34 2 0.68 2 0 2 C0 1.34 0 0.68 0 0 Z " fill="#151515" transform="translate(129,162)"/>
<path d="M0 0 C1.32 0 2.64 0 4 0 C3.125 4.75 3.125 4.75 2 7 C1.34 7 0.68 7 0 7 C0 4.69 0 2.38 0 0 Z " fill="#121212" transform="translate(177,146)"/>
<path d="M0 0 C2.64 0 5.28 0 8 0 C7.01 0.33 6.02 0.66 5 1 C3.79117904 3.00016466 3.79117904 3.00016466 3 5 C1.5 3.625 1.5 3.625 0 2 C0 1.34 0 0.68 0 0 Z " fill="#131313" transform="translate(228,103)"/>
<path d="M0 0 C1.32 0 2.64 0 4 0 C4 1.65 4 3.3 4 5 C2.68 5 1.36 5 0 5 C0 3.35 0 1.7 0 0 Z " fill="#131313" transform="translate(120,180)"/>
</svg>
