<?xml version="1.0" standalone="no"?>
<!DOCTYPE svg PUBLIC "-//W3C//DTD SVG 20010904//EN"
 "http://www.w3.org/TR/2001/REC-SVG-20010904/DTD/svg10.dtd">
<svg version="1.0" xmlns="http://www.w3.org/2000/svg"
 width="330.000000pt" height="281.000000pt" viewBox="0 0 330.000000 281.000000"
 preserveAspectRatio="xMidYMid meet">

<g transform="translate(0.000000,281.000000) scale(0.100000,-0.100000)"
fill="#000000" stroke="none">
<path d="M2751 2236 c-188 -252 -403 -479 -626 -659 -424 -342 -832 -446
-1195 -307 -80 32 -193 105 -244 159 -17 17 -36 31 -44 31 -47 0 -213 -127
-287 -219 -113 -141 -160 -267 -153 -409 5 -104 25 -148 93 -211 93 -86 210
-121 430 -128 179 -6 280 9 457 68 319 105 783 395 1146 717 54 47 101 82 111
80 14 -3 17 -25 22 -148 4 -80 7 -200 8 -266 1 -90 5 -125 15 -133 10 -8 41
-9 107 -4 l94 8 6 210 c3 116 7 224 8 241 1 30 4 32 49 38 157 22 299 169 342
355 18 76 7 266 -20 360 -30 104 -81 211 -124 258 -20 22 -36 47 -36 55 0 19
-20 38 -41 38 -11 0 -56 -52 -118 -134z m197 -100 c63 -130 95 -323 73 -441
-24 -130 -110 -254 -206 -296 -24 -10 -71 -22 -104 -25 -34 -4 -66 -13 -73
-21 -8 -10 -13 -86 -16 -244 l-5 -229 -37 0 -38 0 -4 244 c-3 230 -4 246 -24
273 -30 40 -74 50 -118 27 -19 -11 -100 -75 -179 -142 -394 -338 -818 -588
-1157 -681 l-67 -19 4 42 c6 53 -20 163 -57 240 -84 177 -265 305 -468 332
l-53 7 38 40 c49 51 151 127 170 127 8 0 38 -20 66 -45 66 -58 210 -130 312
-156 102 -27 302 -36 417 -20 179 26 429 134 613 266 252 180 559 487 770 769
l59 78 27 -31 c14 -18 40 -61 57 -95z m-2458 -1016 c94 -15 215 -77 284 -146
73 -73 131 -190 147 -294 7 -43 18 -80 27 -87 27 -22 -14 -28 -183 -28 -136 0
-172 4 -238 23 -199 57 -265 131 -255 286 6 74 43 185 80 231 22 28 40 30 138
15z"/>
</g>
</svg>
