<?xml version="1.0" encoding="UTF-8"?>
<svg version="1.1" xmlns="http://www.w3.org/2000/svg" width="371" height="276">
<path d="M0 0 C18.02659604 7.71831218 35.80608192 13.73628052 55.38305664 15.9828186 C57.11287475 16.20251813 58.82880489 16.52691208 60.53833008 16.87051392 C70.87194249 18.23096149 79.155307 10.42142496 87.14160156 4.78701782 C95.26692062 -0.81220845 95.26692062 -0.81220845 99.20239258 -0.63729858 C101.38989258 0.23770142 101.38989258 0.23770142 103.38989258 2.23770142 C103.58860554 5.08347309 103.6625736 7.83194547 103.64868164 10.67886353 C103.6539386 11.98880531 103.6539386 11.98880531 103.65930176 13.32521057 C103.66812888 16.22190216 103.66226597 19.11835094 103.65551758 22.01504517 C103.65686407 24.02282254 103.65880447 26.0305996 103.66131592 28.03837585 C103.66426861 32.25092669 103.65996532 36.46339283 103.65063477 40.67593384 C103.63924749 46.08112561 103.64579422 51.48611861 103.65777969 56.89130306 C103.66500062 61.03907269 103.66270916 65.18679508 103.65752411 69.33456612 C103.65618788 71.32771389 103.6578344 73.32086592 103.66248322 75.31400871 C103.66755142 78.09850325 103.65983369 80.88267437 103.64868164 83.66714478 C103.6527301 84.49478333 103.65677856 85.32242188 103.66094971 86.17514038 C103.63212864 90.05144527 103.59029959 91.9370909 101.38989258 95.23770142 C96.29081073 95.99312095 93.48672644 94.4887711 89.26489258 91.73770142 C88.7115625 91.3818396 88.15823242 91.02597778 87.58813477 90.65933228 C85.84570231 89.53287885 84.11736832 88.38693248 82.38989258 87.23770142 C81.23133002 86.47814186 80.07248012 85.71902038 78.91333008 84.96035767 C70.67805047 79.52585931 70.67805047 79.52585931 69.38989258 78.23770142 C34.80021866 76.59057409 3.22817505 91.62833295 -27.61010742 105.23770142 C-27.45670898 106.48551392 -27.30331055 107.73332642 -27.14526367 109.01895142 C-27.01583374 110.07179321 -27.01583374 110.07179321 -26.88378906 111.14590454 C-26.52924969 113.85571125 -26.08116277 116.54595656 -25.61010742 119.23770142 C-24.95010742 118.90770142 -24.29010742 118.57770142 -23.61010742 118.23770142 C-17.4034655 117.71033968 -11.8290241 117.4752266 -6.61010742 121.23770142 C-1.88372778 125.3376934 0.42177435 129.47575562 1.32739258 135.68301392 C1.45165308 140.76216173 0.2325476 144.92902608 -2.95385742 148.92129517 C-5.69358694 151.50657915 -8.08191667 153.05330746 -11.66479492 154.30410767 C-15.24119288 155.60344649 -17.74724662 156.70957511 -20.61010742 159.23770142 C-21.84085212 163.59620333 -22.07165733 167.64256657 -22.27416992 172.14395142 C-22.52880794 177.55658755 -23.60814384 182.61760409 -24.92260742 187.86270142 C-25.11201904 188.67883911 -25.30143066 189.49497681 -25.49658203 190.33584595 C-27.59785304 198.64034176 -31.38839585 205.37693401 -38.61010742 210.23770142 C-45.2337512 213.24074283 -51.47538727 214.39042991 -58.54760742 212.17520142 C-64.93998616 209.49412606 -70.04001172 205.19511517 -73.11010742 198.92520142 C-75.0470913 193.38374319 -74.80675143 187.97146749 -74.68554688 182.1835022 C-74.2373093 160.11747155 -81.85902994 139.18775933 -89.62475586 118.83804321 C-90.22092228 117.26476061 -90.79384423 115.68201729 -91.32202148 114.08462524 C-93.07288966 109.16014542 -95.51240823 107.67827746 -100.11010742 105.42520142 C-116.7194925 96.65489553 -126.83783303 82.30335226 -132.79760742 64.73770142 C-136.98962656 46.67977281 -134.33738327 28.0731133 -124.75463867 12.15567017 C-113.46460202 -3.95685719 -98.06524213 -14.40554191 -78.68041992 -18.13339233 C-51.80671467 -22.24050578 -24.08241055 -10.31544541 0 0 Z M-111.28979492 13.15957642 C-121.69121711 25.74842215 -124.56286215 39.14318215 -123.14135742 55.08535767 C-121.50617348 69.54157053 -113.76995895 82.06759086 -102.61010742 91.23770142 C-87.23682138 101.78759331 -70.33323023 104.68054608 -52.04760742 101.30020142 C-36.8572054 97.54645311 -22.17037223 91.49209722 -7.92260742 85.11270142 C13.41125169 75.59133678 35.41628023 69.65729723 58.67114258 67.63223267 C62.20302115 67.47711856 62.20302115 67.47711856 64.38989258 66.23770142 C64.38989258 53.69770142 64.38989258 41.15770142 64.38989258 28.23770142 C60.49176758 27.68082642 56.59364258 27.12395142 52.57739258 26.55020142 C27.76132023 22.77290412 5.35883133 14.35295606 -17.79736328 4.91714478 C-50.30141691 -8.30909157 -85.09830393 -16.80836211 -111.28979492 13.15957642 Z M84.45239258 19.55020142 C83.80592773 19.95432251 83.15946289 20.3584436 82.4934082 20.77481079 C79.41977797 22.73772106 77.4374807 24.16631924 75.38989258 27.23770142 C75.20565793 30.08139555 75.13389212 32.82469222 75.15942383 35.66738892 C75.15988205 36.49473541 75.16034027 37.32208191 75.16081238 38.17449951 C75.16383272 39.9245853 75.17171252 41.67466845 75.18408203 43.42471313 C75.20227572 46.09554644 75.20459205 48.7660315 75.2043457 51.43692017 C75.2092637 53.13874606 75.21509324 54.84056962 75.22192383 56.54238892 C75.22303665 57.33837494 75.22414948 58.13436096 75.22529602 58.95446777 C74.92935878 65.87699374 74.92935878 65.87699374 77.86450195 71.72329712 C78.48131836 72.11605835 79.09813477 72.50881958 79.73364258 72.91348267 C80.40266602 73.34854126 81.07168945 73.78359985 81.76098633 74.23184204 C82.46352539 74.66690063 83.16606445 75.10195923 83.88989258 75.55020142 C84.59243164 76.00459595 85.2949707 76.45899048 86.01879883 76.92715454 C88.9924946 79.20804947 88.9924946 79.20804947 92.38989258 80.23770142 C92.38989258 58.78770142 92.38989258 37.33770142 92.38989258 15.23770142 C89.78417998 15.23770142 86.67351946 18.13035321 84.45239258 19.55020142 Z M-47.23510742 110.11270142 C-58.01601986 112.42848522 -68.63584573 112.35228187 -79.61010742 112.23770142 C-78.88110296 117.05296772 -77.10656943 121.34859185 -75.36010742 125.86270142 C-72.83593403 132.55634381 -70.61714536 139.25561393 -68.79760742 146.17520142 C-68.60328125 146.90626099 -68.40895508 147.63732056 -68.20874023 148.39053345 C-65.24358347 160.06095273 -64.2810191 171.39846725 -64.1315918 183.40957642 C-63.94227595 191.23612017 -63.94227595 191.23612017 -60.61010742 198.23770142 C-56.73390031 201.66318677 -53.63918209 202.92268308 -48.56323242 202.61270142 C-44.54253174 201.84072688 -41.88330995 199.95544584 -39.45776367 196.68301392 C-27.71804738 176.03883356 -30.26142684 144.3104255 -35.61010742 122.23770142 C-35.89499023 121.05305298 -36.17987305 119.86840454 -36.47338867 118.64785767 C-37.1650594 115.83855999 -37.87536208 113.03598686 -38.61010742 110.23770142 C-41.84065377 109.19035534 -43.95101026 109.33179232 -47.23510742 110.11270142 Z M-22.61010742 130.23770142 C-22.63736083 131.96677881 -22.65661729 133.69598318 -22.67260742 135.42520142 C-22.68420898 136.3881311 -22.69581055 137.35106079 -22.70776367 138.34317017 C-22.61497365 141.09346655 -22.23122428 143.56249733 -21.61010742 146.23770142 C-17.07343078 145.70397475 -14.06939986 144.22527216 -10.61010742 141.23770142 C-9.27917582 137.8380033 -9.27917582 137.8380033 -9.61010742 134.23770142 C-11.42914602 131.01940235 -12.63869432 129.60198133 -16.11010742 128.30020142 C-18.92280522 128.22988397 -20.18243852 128.91585627 -22.61010742 130.23770142 Z " fill="#010101" transform="translate(149.610107421875,35.762298583984375)"/>
<path d="M0 0 C7.79002496 5.61925963 12.03236789 11.81883421 14.25 21.25 C15.4166835 30.35727422 13.97849517 38.99299851 8.6015625 46.57421875 C6.90316258 48.58040731 5.14215436 50.42712361 3.25 52.25 C2.5075 52.9925 1.765 53.735 1 54.5 C-7.34016729 59.80737918 -15.97074062 61.42983602 -25.75 60.25 C-33.19662918 58.47248541 -38.44356539 54.64281843 -43.75 49.25 C-44.86375 48.13625 -44.86375 48.13625 -46 47 C-51.27450263 38.71149586 -53.07155032 29.97614662 -51.75 20.25 C-49.22661969 10.97155293 -45.1269568 4.35480445 -36.7734375 -0.46875 C-24.01946163 -7.04744315 -12.58154991 -7.89513367 0 0 Z M-35.67578125 12.48046875 C-40.36453005 19.34014182 -41.5428281 24.98193557 -40.75 33.25 C-38.77451779 40.22369022 -34.04842805 44.84638921 -27.8359375 48.3203125 C-21.9388293 50.928197 -16.64911562 50.56871369 -10.61328125 48.52734375 C-4.26393479 45.73363131 0.68438875 40.74566121 3.25 34.25 C4.11307933 26.57260832 4.0300703 20.45117228 -0.75 14.25 C-5.39331955 9.1423485 -9.07078645 5.82464026 -15.9765625 4.9765625 C-23.7278978 4.64833006 -30.45716299 6.43618675 -35.67578125 12.48046875 Z " fill="#000000" transform="translate(99.75,55.75)"/>
<path d="M0 0 C1.13523102 -0.0127597 2.27046204 -0.02551941 3.44009399 -0.03866577 C4.67335419 -0.04089142 5.90661438 -0.04311707 7.17724609 -0.04541016 C9.07559708 -0.05539536 9.07559708 -0.05539536 11.01229858 -0.06558228 C13.69746904 -0.07572794 16.38223504 -0.08126184 19.06738281 -0.08007812 C22.49042555 -0.07987587 25.91262928 -0.10707157 29.33547401 -0.14162254 C32.6160323 -0.16937665 35.89658646 -0.16804524 39.17724609 -0.17041016 C40.3983609 -0.18478119 41.61947571 -0.19915222 42.87759399 -0.21395874 C50.5781779 -0.17290347 56.73273857 0.40678672 62.41552734 6.14990234 C65.60725308 11.64739437 67.24301428 16.21007825 66.20068359 22.58349609 C64.59525513 28.57375106 61.71199165 31.91589288 56.57568359 35.29052734 C52.45567651 37.61463391 48.2196515 37.98327394 43.57568359 37.29052734 C38.26412503 35.50715469 34.668087 33.04807104 31.57568359 28.29052734 C31.16318359 27.69240234 30.75068359 27.09427734 30.32568359 26.47802734 C29.12892608 22.98748458 29.3380389 19.97402003 29.57568359 16.29052734 C31.57568359 14.29052734 31.57568359 14.29052734 34.51318359 13.85302734 C37.57568359 14.29052734 37.57568359 14.29052734 39.32568359 16.47802734 C40.57568359 19.29052734 40.57568359 19.29052734 41.38818359 21.97802734 C42.43607001 24.55922125 42.43607001 24.55922125 45.38818359 25.79052734 C48.55366958 26.53714812 48.55366958 26.53714812 51.38818359 25.35302734 C53.86401658 23.3578898 53.86401658 23.3578898 54.63818359 19.85302734 C54.92721697 16.26474479 54.92721697 16.26474479 52.76318359 13.91552734 C49.48516687 11.48042921 47.76364287 11.16912639 43.73046875 11.19287109 C42.21847397 11.19782593 42.21847397 11.19782593 40.67593384 11.20288086 C39.0368959 11.21532837 39.0368959 11.21532837 37.36474609 11.22802734 C36.24506439 11.23181396 35.12538269 11.23560059 33.97177124 11.23950195 C29.16684583 11.25589945 24.3620043 11.28399083 19.55712891 11.31103516 C16.05550528 11.32908966 12.55389541 11.34120541 9.05224609 11.35302734 C7.9636026 11.36132568 6.87495911 11.36962402 5.75332642 11.37817383 C4.23187515 11.38312866 4.23187515 11.38312866 2.6796875 11.38818359 C1.3430455 11.39603882 1.3430455 11.39603882 -0.02059937 11.40405273 C-2.32910798 11.29502395 -4.24678766 11.06349269 -6.42431641 10.29052734 C-7.80556658 7.52802699 -7.61510947 5.34321635 -7.42431641 2.29052734 C-4.80471696 -0.3290721 -3.65263855 0.0277964 0 0 Z " fill="#000000" transform="translate(279.42431640625,98.70947265625)"/>
<path d="M0 0 C5.16688003 2.77957971 8.04366311 6.21268992 10.17578125 11.59375 C11.39868336 18.15295224 10.52364031 23.60138249 6.86328125 29.28125 C-2.24583313 38.51514676 -17.02055758 36.19426473 -29.13671875 36.28125 C-34.99319448 36.2688667 -40.84533213 36.13328809 -46.69921875 35.96875 C-47.40847504 35.95169006 -48.11773132 35.93463013 -48.84848022 35.91705322 C-50.86284115 35.86597824 -52.87676852 35.79859127 -54.890625 35.73046875 C-56.04892822 35.69268311 -57.20723145 35.65489746 -58.40063477 35.6159668 C-61.13671875 35.28125 -61.13671875 35.28125 -63.13671875 33.28125 C-63.44921875 30.28125 -63.44921875 30.28125 -63.13671875 27.28125 C-59.7921346 25.05152723 -58.71412985 25.03100622 -54.81079102 25.02587891 C-53.72278702 25.01891998 -52.63478302 25.01196106 -51.5138092 25.00479126 C-50.33878342 25.00578827 -49.16375763 25.00678528 -47.953125 25.0078125 C-45.47460484 24.98752634 -42.99608924 24.96667561 -40.51757812 24.9453125 C-36.60241849 24.92268294 -32.68743889 24.90623242 -28.7722168 24.90039062 C-24.9988536 24.89089251 -21.22630629 24.85714735 -17.453125 24.8203125 C-15.69362267 24.82788071 -15.69362267 24.82788071 -13.89857483 24.83560181 C-12.80741867 24.82233856 -11.71626251 24.80907532 -10.59204102 24.79541016 C-9.63290298 24.79256012 -8.67376495 24.78971008 -7.68556213 24.78677368 C-4.39881338 24.13489788 -3.18730978 22.87899136 -1.13671875 20.28125 C-0.86692936 17.90662209 -0.86692936 17.90662209 -1.38671875 15.53125 C-1.515625 14.73203125 -1.64453125 13.9328125 -1.77734375 13.109375 C-1.8959375 12.50609375 -2.01453125 11.9028125 -2.13671875 11.28125 C-4.99723981 10.6509657 -7.24994165 10.16342236 -10.13671875 10.28125 C-14.36963288 13.31790579 -15.78896765 16.33949596 -17.13671875 21.28125 C-18.13671875 22.28125 -18.13671875 22.28125 -21.07421875 22.46875 C-24.13671875 22.28125 -24.13671875 22.28125 -26.13671875 20.28125 C-26.60271259 14.68932388 -26.35653965 11.05904875 -23.13671875 6.28125 C-16.6549211 -0.26184125 -9.19192485 -3.09198203 0 0 Z " fill="#000000" transform="translate(335.13671875,31.71875)"/>
<path d="M0 0 C1.06805878 -0.01283524 2.13611755 -0.02567047 3.23654175 -0.03889465 C4.97401169 -0.04997505 4.97401169 -0.04997505 6.74658203 -0.0612793 C8.52598679 -0.07338692 8.52598679 -0.07338692 10.34133911 -0.08573914 C12.85482314 -0.09958762 15.36832604 -0.11030634 17.88183594 -0.11816406 C21.73164303 -0.13539621 25.58059592 -0.17927942 29.43017578 -0.22338867 C31.86897153 -0.23351352 34.3077746 -0.24203027 36.74658203 -0.2487793 C37.90084686 -0.26628738 39.05511169 -0.28379547 40.24435425 -0.30183411 C41.31871735 -0.29890854 42.39308044 -0.29598297 43.5 -0.29296875 C44.44438934 -0.29883499 45.38877869 -0.30470123 46.36178589 -0.31074524 C49.64130837 0.32461081 50.85072229 1.57415507 52.87939453 4.17700195 C52.87939453 6.80200195 52.87939453 6.80200195 51.87939453 9.17700195 C48.82266696 11.16002587 46.33036565 11.44084017 42.73120117 11.48339844 C41.70656265 11.49938583 40.68192413 11.51537323 39.62623596 11.53184509 C37.9745768 11.53988914 37.9745768 11.53988914 36.28955078 11.5480957 C35.1528746 11.55712418 34.01619843 11.56615265 32.84507751 11.57545471 C30.44191116 11.58995764 28.03870532 11.59884404 25.63549805 11.60253906 C21.95896021 11.61444668 18.28409438 11.66364473 14.60791016 11.71411133 C12.27263189 11.72357425 9.93734332 11.73080991 7.60205078 11.7355957 C5.95342796 11.76489418 5.95342796 11.76489418 4.27149963 11.79478455 C-4.22193396 11.74455955 -4.22193396 11.74455955 -7.35327148 8.64208984 C-8.22810181 7.42187134 -8.22810181 7.42187134 -9.12060547 6.17700195 C-7.10948483 0.57459445 -5.83489933 0.06092498 0 0 Z " fill="#040404" transform="translate(266.12060546875,77.822998046875)"/>
<path d="M0 0 C4.10083041 3.0268034 6.97051721 6.08954858 8.6875 10.9375 C8.60239097 15.02273368 7.2959085 16.90565791 4.625 19.9375 C3.305 19.9375 1.985 19.9375 0.625 19.9375 C0.50125 18.82375 0.3775 17.71 0.25 16.5625 C-0.0215813 12.90646323 -0.0215813 12.90646323 -2.375 10.9375 C-2.375 9.6175 -2.375 8.2975 -2.375 6.9375 C-3.365 7.2675 -4.355 7.5975 -5.375 7.9375 C-7.72688447 7.33956327 -10.06425595 6.67868205 -12.375 5.9375 C-12.375 6.5975 -12.375 7.2575 -12.375 7.9375 C-13.365 7.6075 -14.355 7.2775 -15.375 6.9375 C-15.045 6.2775 -14.715 5.6175 -14.375 4.9375 C-15.365 4.9375 -16.355 4.9375 -17.375 4.9375 C-17.375 5.5975 -17.375 6.2575 -17.375 6.9375 C-19.685 6.9375 -21.995 6.9375 -24.375 6.9375 C-24.375 5.6175 -24.375 4.2975 -24.375 2.9375 C-22.065 2.2775 -19.755 1.6175 -17.375 0.9375 C-17.375 0.6075 -17.375 0.2775 -17.375 -0.0625 C-14.735 -0.0625 -12.095 -0.0625 -9.375 -0.0625 C-9.375 1.2575 -9.375 2.5775 -9.375 3.9375 C-8.385 4.2675 -7.395 4.5975 -6.375 4.9375 C-6.375 4.2775 -6.375 3.6175 -6.375 2.9375 C-5.715 2.6075 -5.055 2.2775 -4.375 1.9375 C-4.705 1.2775 -5.035 0.6175 -5.375 -0.0625 C-2.375 -1.0625 -2.375 -1.0625 0 0 Z " fill="#030303" transform="translate(141.375,156.0625)"/>
<path d="M0 0 C1.08667969 0.29197266 1.08667969 0.29197266 2.1953125 0.58984375 C2.74960938 0.74582031 3.30390625 0.90179688 3.875 1.0625 C3.66875 1.68125 3.4625 2.3 3.25 2.9375 C3.12625 3.63875 3.0025 4.34 2.875 5.0625 C3.535 5.7225 4.195 6.3825 4.875 7.0625 C4.215 7.0625 3.555 7.0625 2.875 7.0625 C2.875 7.7225 2.875 8.3825 2.875 9.0625 C-1.45234391 11.29173777 -4.40900182 10.98720553 -9.125 10.0625 C-9.455 10.7225 -9.785 11.3825 -10.125 12.0625 C-10.785 11.7325 -11.445 11.4025 -12.125 11.0625 C-12.4375 8.75 -12.4375 8.75 -12.125 6.0625 C-9.6875 4.4375 -9.6875 4.4375 -7.125 3.0625 C-6.795 2.0725 -6.465 1.0825 -6.125 0.0625 C-3.57797384 -1.21101308 -2.6967055 -0.73941925 0 0 Z " fill="#010101" transform="translate(162.125,113.9375)"/>
<path d="M0 0 C2.64 0 5.28 0 8 0 C8 1.32 8 2.64 8 4 C8.99 4.33 9.98 4.66 11 5 C11 4.34 11 3.68 11 3 C14.465 2.505 14.465 2.505 18 2 C18.33 2.99 18.66 3.98 19 5 C12.4375 8.48214286 12.4375 8.48214286 8.0625 7.1875 C7.051875 6.795625 6.04125 6.40375 5 6 C5 6.66 5 7.32 5 8 C4.01 7.67 3.02 7.34 2 7 C2.33 6.34 2.66 5.68 3 5 C2.01 5 1.02 5 0 5 C0 5.66 0 6.32 0 7 C-2.31 7 -4.62 7 -7 7 C-7 5.68 -7 4.36 -7 3 C-4.69 2.34 -2.38 1.68 0 1 C0 0.67 0 0.34 0 0 Z " fill="#151515" transform="translate(124,156)"/>
<path d="M0 0 C0.33 0.99 0.66 1.98 1 3 C1.66 3 2.32 3 3 3 C4.50156874 6.00313748 4.09281204 8.79067522 4.0625 12.125 C4.05347656 13.40632813 4.04445312 14.68765625 4.03515625 16.0078125 C4.02355469 16.99523437 4.01195312 17.98265625 4 19 C0.54054225 15.85150474 -0.94156625 12.52315046 -2 8 C-1.59322034 1.59322034 -1.59322034 1.59322034 0 0 Z " fill="#141414" transform="translate(218,67)"/>
<path d="M0 0 C1.8125 1.5 1.8125 1.5 3 3 C2.34 3 1.68 3 1 3 C1 3.66 1 4.32 1 5 C-1.31 5 -3.62 5 -6 5 C-6.33 5.66 -6.66 6.32 -7 7 C-7.66 7 -8.32 7 -9 7 C-9.33 7.99 -9.66 8.98 -10 10 C-10.66 9.34 -11.32 8.68 -12 8 C-12 5.5625 -12 5.5625 -11 3 C-7.38342645 0.61634925 -4.34018745 -0.70381418 0 0 Z " fill="#151515" transform="translate(121,134)"/>
<path d="M0 0 C2.97 0 5.94 0 9 0 C8.8125 2.375 8.8125 2.375 8 5 C5.13462272 6.54885258 2.1698627 7.29558607 -1 8 C0.875 3.125 0.875 3.125 2 2 C1.34 1.34 0.68 0.68 0 0 Z " fill="#151515" transform="translate(170,111)"/>
<path d="M0 0 C0.99 0 1.98 0 3 0 C4.125 5.75 4.125 5.75 3 8 C0.69 8 -1.62 8 -4 8 C-4.66 6.68 -5.32 5.36 -6 4 C-4.35 4 -2.7 4 -1 4 C-0.67 2.68 -0.34 1.36 0 0 Z " fill="#151515" transform="translate(143,121)"/>
<path d="M0 0 C2.625 0.375 2.625 0.375 5 1 C5.33 2.65 5.66 4.3 6 6 C4.35 6 2.7 6 1 6 C0.67 6.66 0.34 7.32 0 8 C-0.66 7.67 -1.32 7.34 -2 7 C-2.125 4.625 -2.125 4.625 -2 2 C-1.34 1.34 -0.68 0.68 0 0 Z " fill="#141414" transform="translate(152,118)"/>
<path d="M0 0 C1.67542976 0.28604898 3.34385343 0.61781233 5 1 C5.103125 1.639375 5.20625 2.27875 5.3125 2.9375 C5.539375 3.618125 5.76625 4.29875 6 5 C6.99 5.33 7.98 5.66 9 6 C5.7 6 2.4 6 -1 6 C-1 1 -1 1 0 0 Z " fill="#151515" transform="translate(185,108)"/>
<path d="M0 0 C2.375 0.3125 2.375 0.3125 5 1 C5.66 1.99 6.32 2.98 7 4 C6.67 4.66 6.34 5.32 6 6 C4.02 6 2.04 6 0 6 C-0.66 4.68 -1.32 3.36 -2 2 C-1.34 2 -0.68 2 0 2 C0 1.34 0 0.68 0 0 Z " fill="#161616" transform="translate(128,128)"/>
<path d="M0 0 C2.04219706 1.69179328 2.91793306 2.63727666 3.51171875 5.26171875 C3.56972656 6.06222656 3.62773437 6.86273438 3.6875 7.6875 C3.75324219 8.49574219 3.81898438 9.30398437 3.88671875 10.13671875 C3.92410156 10.75160156 3.96148437 11.36648437 4 12 C3.34 12 2.68 12 2 12 C-1.57142857 4.71428571 -1.57142857 4.71428571 0 0 Z " fill="#141414" transform="translate(218,91)"/>
<path d="M0 0 C3.3 0 6.6 0 10 0 C10.66 1.98 11.32 3.96 12 6 C10.35 6 8.7 6 7 6 C6.67 4.35 6.34 2.7 6 1 C4.02 1 2.04 1 0 1 C0 0.67 0 0.34 0 0 Z " fill="#141414" transform="translate(190,106)"/>
<path d="M0 0 C1.134375 0.020625 2.26875 0.04125 3.4375 0.0625 C3.7675 0.7225 4.0975 1.3825 4.4375 2.0625 C3.4475 2.0625 2.4575 2.0625 1.4375 2.0625 C1.4375 2.7225 1.4375 3.3825 1.4375 4.0625 C-0.5425 4.3925 -2.5225 4.7225 -4.5625 5.0625 C-4.5625 0.08004386 -4.5625 0.08004386 0 0 Z " fill="#151515" transform="translate(220.5625,58.9375)"/>
<path d="M0 0 C1.98 0.495 1.98 0.495 4 1 C4.33 2.65 4.66 4.3 5 6 C3.68 6 2.36 6 1 6 C0.34 5.34 -0.32 4.68 -1 4 C-0.625 1.875 -0.625 1.875 0 0 Z " fill="#141414" transform="translate(140,163)"/>
<path d="M0 0 C3.3125 -0.25 3.3125 -0.25 7 0 C8.9375 1.875 8.9375 1.875 10 4 C10 4.66 10 5.32 10 6 C8.35 5.67 6.7 5.34 5 5 C5 4.34 5 3.68 5 3 C4.01 3 3.02 3 2 3 C2 2.34 2 1.68 2 1 C1.34 0.67 0.68 0.34 0 0 Z " fill="#131313" transform="translate(219,111)"/>
<path d="M0 0 C2.97 0.495 2.97 0.495 6 1 C6 2.65 6 4.3 6 6 C4.68 6 3.36 6 2 6 C2 5.34 2 4.68 2 4 C1.34 4 0.68 4 0 4 C0 2.68 0 1.36 0 0 Z " fill="#141414" transform="translate(114,148)"/>
<path d="M0 0 C-0.33 1.65 -0.66 3.3 -1 5 C-2.65 5.33 -4.3 5.66 -6 6 C-5.6875 4.125 -5.6875 4.125 -5 2 C-2 0 -2 0 0 0 Z " fill="#151515" transform="translate(148,170)"/>
<path d="M0 0 C1.32 0 2.64 0 4 0 C4 1.98 4 3.96 4 6 C2.68 6 1.36 6 0 6 C0 4.02 0 2.04 0 0 Z " fill="#151515" transform="translate(100,138)"/>
<path d="M0 0 C1.98 0 3.96 0 6 0 C6 1.65 6 3.3 6 5 C3.03 4.505 3.03 4.505 0 4 C0 2.68 0 1.36 0 0 Z " fill="#161616" transform="translate(244,77)"/>
<path d="M0 0 C2.475 0.495 2.475 0.495 5 1 C5.33 2.32 5.66 3.64 6 5 C4.35 4.67 2.7 4.34 1 4 C0.67 2.68 0.34 1.36 0 0 Z " fill="#141414" transform="translate(81,141)"/>
<path d="M0 0 C1.65 0 3.3 0 5 0 C4.67 1.65 4.34 3.3 4 5 C2.68 4.67 1.36 4.34 0 4 C0 2.68 0 1.36 0 0 Z " fill="#151515" transform="translate(72,141)"/>
<path d="M0 0 C2.97 0.495 2.97 0.495 6 1 C5.67 2.65 5.34 4.3 5 6 C4.01 6 3.02 6 2 6 C1.34 4.02 0.68 2.04 0 0 Z " fill="#121212" transform="translate(160,114)"/>
<path d="M0 0 C1.98 0 3.96 0 6 0 C6 0.99 6 1.98 6 3 C4.02 3.33 2.04 3.66 0 4 C0 2.68 0 1.36 0 0 Z " fill="#161616" transform="translate(244,86)"/>
</svg>
