<?xml version="1.0" encoding="UTF-8"?>
<svg version="1.1" xmlns="http://www.w3.org/2000/svg" width="413" height="315">
<path d="M0 0 C1.04293258 -0.00322445 2.08586516 -0.00644889 3.16040176 -0.00977105 C4.8770627 -0.00744815 4.8770627 -0.00744815 6.62840366 -0.00507832 C8.45358637 -0.00847665 8.45358637 -0.00847665 10.31564146 -0.01194364 C13.69463759 -0.01718535 17.07358057 -0.01792741 20.45257699 -0.01674926 C24.09613037 -0.0165454 27.73967577 -0.02206264 31.38322544 -0.02680683 C38.52184826 -0.03511665 45.66046283 -0.03786181 52.79909008 -0.03841921 C58.60034565 -0.03889416 64.40159849 -0.04094788 70.2028532 -0.04411983 C86.64447714 -0.05292691 103.08609455 -0.05753907 119.52772086 -0.05678936 C120.85754504 -0.05672943 120.85754504 -0.05672943 122.21423435 -0.05666828 C123.101864 -0.0566274 123.98949364 -0.05658652 124.90402115 -0.0565444 C139.29488815 -0.0561378 153.68572901 -0.06571073 168.07658844 -0.07980665 C182.84713318 -0.09416053 197.61766515 -0.10107739 212.38821703 -0.10021287 C220.68316411 -0.09988058 228.97808376 -0.1026416 237.27302456 -0.11339092 C244.33434272 -0.12248288 251.39562102 -0.1246819 258.45694249 -0.1178815 C262.06056679 -0.11460982 265.66411458 -0.11458289 269.26773167 -0.12323475 C273.17192693 -0.132512 277.07600964 -0.12634071 280.9802103 -0.11860371 C282.12242021 -0.12374727 283.26463012 -0.12889083 284.44145244 -0.13419026 C285.48699277 -0.12959147 286.5325331 -0.12499267 287.60975647 -0.12025452 C288.96153603 -0.12058057 288.96153603 -0.12058057 290.34062427 -0.12091321 C293.43938336 0.18507598 296.59891304 0.85974868 298.86779881 3.12863445 C298.98030585 5.88238335 299.02722985 8.61166698 299.03274632 11.36642742 C299.03838986 12.24045649 299.0440334 13.11448555 299.04984796 14.01500034 C299.06765916 16.96693518 299.07829494 19.91885336 299.08899021 22.87082195 C299.10019825 24.97769675 299.11183015 27.08456934 299.12385654 29.19143963 C299.15527125 34.93091784 299.18034611 40.67040799 299.2040534 46.4099226 C299.22957725 52.401949 299.25993026 58.39395124 299.28952122 64.38595867 C299.33840832 74.45056056 299.38307956 84.5151749 299.42541599 94.57980633 C299.47450406 106.23426147 299.53080053 117.8886654 299.59083712 129.54306889 C299.64209112 139.52941816 299.6894493 149.51578034 299.73352468 159.50216389 C299.75989288 165.47530271 299.7876422 171.44842674 299.8188982 177.42154217 C299.8480597 183.03565245 299.87235035 188.64976267 299.89279842 194.26391125 C299.90113739 196.33079836 299.91120828 198.39767927 299.92308712 200.46454906 C299.9389549 203.27331802 299.9487088 206.08204104 299.95681858 208.89084148 C299.96600109 210.13444345 299.96600109 210.13444345 299.9753691 211.40316868 C299.97760719 213.31199277 299.92853503 215.22077557 299.86779881 217.12863445 C298.86779881 218.12863445 298.86779881 218.12863445 296.66764069 218.25168228 C295.19784177 218.25029959 295.19784177 218.25029959 293.69834995 218.24888897 C292.5778928 218.25026363 291.45743565 218.2516383 290.30302525 218.25305462 C289.0629723 218.24945934 287.82291935 218.24586407 286.54528904 218.24215984 C284.59923267 218.24237888 284.59923267 218.24237888 282.61386204 218.24260235 C279.04583951 218.24289031 275.47785033 218.23699377 271.90983558 218.23002839 C268.18489261 218.22379466 264.45994895 218.22319104 260.73500156 218.22200298 C253.67662518 218.21888972 246.61826421 218.21067641 239.55989462 218.20065349 C231.5261691 218.18949219 223.49244285 218.18398186 215.4587115 218.17895806 C198.92839824 218.16849379 182.39810048 218.15089445 165.86779881 218.12863445 C162.65230815 208.7378876 162.65230815 208.7378876 161.62854099 204.02487469 C161.43090656 203.1267355 161.23327213 202.22859631 161.02964878 201.30324078 C160.82670704 200.35745663 160.6237653 199.41167248 160.41467381 198.4372282 C160.19340321 197.42566158 159.97213261 196.41409496 159.74415684 195.37187481 C159.03056716 192.10431949 158.323943 188.83530614 157.61779881 185.56613445 C157.12819807 183.31377111 156.63820563 181.06149287 156.1478281 178.80929852 C155.41304999 175.43356227 154.67880249 172.05771739 153.946702 168.68139935 C152.51738231 162.09217191 151.06690369 155.50823322 149.59045506 148.9294157 C149.10394112 146.75102766 148.61783915 144.57254808 148.13183689 142.39404583 C147.69128309 140.42766209 147.24494621 138.46257682 146.79846287 136.49753094 C146.40932713 134.74484905 146.40932713 134.74484905 146.01233006 132.95675945 C145.78908054 131.96579266 145.56583103 130.97482586 145.33581638 129.95382977 C144.84057031 126.9642692 144.78570582 124.1534668 144.86779881 121.12863445 C144.20779881 121.12863445 143.54779881 121.12863445 142.86779881 121.12863445 C142.74106785 122.42180584 142.61433689 123.71497723 142.4837656 125.04733562 C141.94092866 129.91328827 141.03812341 134.64516217 140.01233006 139.4294157 C139.83015934 140.2958218 139.64798862 141.1622279 139.46029758 142.05488873 C138.8712102 144.85122059 138.27598109 147.6462007 137.68029881 150.44113445 C137.27025795 152.37824725 136.86051065 154.31542221 136.45105076 156.25265789 C135.63705933 160.100035 134.82041084 163.94683362 134.00158787 167.79318523 C133.15792553 171.758116 132.32104121 175.72439355 131.49008274 179.6920042 C124.57278055 212.71867097 124.57278055 212.71867097 121.86779881 218.12863445 C104.54402528 218.15196295 87.22025664 218.16961339 69.89647102 218.18044662 C61.85329826 218.18560969 53.81013524 218.19265258 45.76696873 218.20407391 C38.7590692 218.21402043 31.75117673 218.22048781 24.74327034 218.22272295 C21.03036688 218.22403011 17.31748361 218.22711629 13.6045866 218.23436451 C9.4664847 218.24237777 5.3284182 218.24262561 1.19030857 218.24215984 C-0.04974438 218.24575512 -1.28979733 218.2493504 -2.56742764 218.25305462 C-4.24811337 218.25099262 -4.24811337 218.25099262 -5.96275234 218.24888897 C-6.94261828 218.24981076 -7.92248423 218.25073256 -8.93204308 218.25168228 C-11.13220119 218.12863445 -11.13220119 218.12863445 -12.13220119 217.12863445 C-12.22210809 214.37648452 -12.24602263 211.64982625 -12.2279501 208.89757061 C-12.2261321 208.02424711 -12.2243141 207.15092361 -12.22244102 206.25113577 C-12.21501371 203.3014933 -12.20032142 200.35193089 -12.18566799 197.40231609 C-12.17880337 195.29706733 -12.17235339 193.19181719 -12.16628933 191.08656597 C-12.14831376 185.35111051 -12.1237616 179.61570088 -12.09752917 173.88027787 C-12.07609285 169.10113674 -12.05740707 164.32198629 -12.0385974 159.54283422 C-11.99402781 148.27266292 -11.94372145 137.00252652 -11.89025784 125.73239422 C-11.83514092 114.08596942 -11.79115926 102.43953864 -11.75240678 90.79304892 C-11.71871865 80.81172842 -11.6774032 70.83045865 -11.63008147 60.84919351 C-11.60190653 54.87995322 -11.57685822 48.91073895 -11.55942249 42.94145679 C-11.54275958 37.32972616 -11.51664412 31.71811975 -11.48311138 26.10646534 C-11.47240179 24.04163381 -11.46512345 21.97678134 -11.46144581 19.91192532 C-11.45591879 17.10337224 -11.43826243 14.29515669 -11.41740322 11.48668194 C-11.41865584 10.66052681 -11.41990845 9.83437167 -11.42119902 8.98318154 C-11.36047266 3.35690591 -11.36047266 3.35690591 -9.13220119 1.12863445 C-6.07370061 0.08277788 -3.21499052 0.0025135 0 0 Z M-2.13220119 9.12863445 C-2.13220119 14.73863445 -2.13220119 20.34863445 -2.13220119 26.12863445 C94.22779881 26.12863445 190.58779881 26.12863445 289.86779881 26.12863445 C289.86779881 20.51863445 289.86779881 14.90863445 289.86779881 9.12863445 C193.50779881 9.12863445 97.14779881 9.12863445 -2.13220119 9.12863445 Z M-2.13220119 35.12863445 C-2.13220119 53.60863445 -2.13220119 72.08863445 -2.13220119 91.12863445 C11.4296306 91.12863445 22.21018511 90.73461212 32.86779881 82.12863445 C45.07521244 69.02463112 43.86779881 52.16234859 43.86779881 35.12863445 C28.68779881 35.12863445 13.50779881 35.12863445 -2.13220119 35.12863445 Z M50.86779881 35.12863445 C51.36279881 40.57363445 51.36279881 40.57363445 51.86779881 46.12863445 C51.73451174 49.51569387 51.54380478 52.77215242 51.18029881 56.12863445 C51.08780857 56.99657635 50.99531834 57.86451824 50.90002537 58.75876141 C49.4470029 71.0005903 45.31810219 81.83505339 35.68029881 89.94113445 C24.09864442 98.18925345 12.37130665 98.15088338 -2.13220119 100.12863445 C-2.13220119 136.42863445 -2.13220119 172.72863445 -2.13220119 210.12863445 C36.47779881 210.12863445 75.08779881 210.12863445 114.86779881 210.12863445 C116.27714639 206.6052655 117.26165157 203.82181426 118.02404881 200.2028532 C118.23666355 199.20318523 118.4492783 198.20351727 118.66833591 197.17355633 C119.01457005 195.5116325 119.01457005 195.5116325 119.36779881 193.81613445 C119.61989109 192.6269743 119.87198338 191.43781414 120.13171482 190.21261883 C121.65411368 183.01840071 123.13931 175.8166051 124.61750889 168.61319256 C138.10694762 102.88948564 138.10694762 102.88948564 140.86779881 100.12863445 C142.86738244 100.08782662 144.86825135 100.08609089 146.86779881 100.12863445 C149.01082855 106.21260621 150.72529331 112.28639059 152.13733006 118.5778532 C152.3388216 119.46053371 152.54031315 120.34321423 152.7479105 121.25264263 C153.39718541 124.10600171 154.0391502 126.96093933 154.68029881 129.81613445 C154.90189671 130.79572124 155.12349461 131.77530804 155.35180759 132.78457928 C158.36099637 146.08994588 161.20019671 159.41238134 163.80920506 172.8019743 C165.45675684 181.21608752 167.26051632 189.58490759 169.18029881 197.94113445 C169.56266697 199.61683514 169.56266697 199.61683514 169.95275974 201.32638836 C170.18898045 202.34007488 170.42520115 203.35376141 170.66858006 204.3981657 C170.87652195 205.29124432 171.08446384 206.18432293 171.29870701 207.10446453 C171.68379329 209.10774001 171.68379329 209.10774001 172.86779881 210.12863445 C174.38598401 210.22442038 175.90862277 210.25051592 177.42982578 210.24888897 C178.41565647 210.25026363 179.40148716 210.2516383 180.41719151 210.25305462 C182.0528532 210.24766171 182.0528532 210.24766171 183.72155857 210.24215984 C185.43352924 210.24237888 185.43352924 210.24237888 187.18008518 210.24260235 C190.97314411 210.24190264 194.76615465 210.23410752 198.55920506 210.2262907 C201.18094449 210.22442673 203.80268427 210.22300273 206.42442417 210.22200298 C212.63281836 210.21888996 218.84119501 210.21067697 225.04958147 210.20065349 C232.80864535 210.1883973 240.56771205 210.18290967 248.32678318 210.17746258 C262.17380206 210.16771154 276.02078266 210.14768124 289.86779881 210.12863445 C289.86779881 171.84863445 289.86779881 133.56863445 289.86779881 94.12863445 C281.94779881 94.62363445 281.94779881 94.62363445 273.86779881 95.12863445 C270.43340513 94.83868564 267.33451248 94.5171293 263.99279881 93.87863445 C262.79457493 93.66775188 262.79457493 93.66775188 261.57214451 93.45260906 C253.1207176 91.91011384 245.88497364 90.21608621 238.86779881 85.12863445 C238.20779881 85.12863445 237.54779881 85.12863445 236.86779881 85.12863445 C229.00514353 69.82453758 228.49293902 53.95567371 228.86779881 37.12863445 C231.50779881 37.12863445 234.14779881 37.12863445 236.86779881 37.12863445 C236.85208836 37.68099773 236.83637791 38.23336102 236.82019138 38.80246258 C235.63609541 59.44304477 235.63609541 59.44304477 242.30529881 78.37863445 C251.34571092 86.92796245 268.06884467 87.33497689 279.76233006 87.39425945 C283.57725518 87.16793733 283.57725518 87.16793733 289.86779881 85.12863445 C289.86779881 68.62863445 289.86779881 52.12863445 289.86779881 35.12863445 C210.99779881 35.12863445 132.12779881 35.12863445 50.86779881 35.12863445 Z " fill="#0A1918" transform="translate(59.132201194763184,47.871365547180176)"/>
</svg>
