<?xml version="1.0" encoding="UTF-8"?>
<svg version="1.1" xmlns="http://www.w3.org/2000/svg" width="330" height="339">
<path d="M0 0 C0.71239484 -0.00453111 1.42478967 -0.00906223 2.15877223 -0.01373065 C4.54616066 -0.02639188 6.93332146 -0.02475317 9.32073975 -0.02310181 C11.0324686 -0.02908608 12.74419476 -0.0358914 14.45591736 -0.04345703 C19.10691017 -0.06113692 23.75782941 -0.06581332 28.40885258 -0.0670886 C31.3155729 -0.06850991 34.2222745 -0.07277918 37.12899017 -0.07808304 C47.27250863 -0.09659159 57.4159745 -0.10475283 67.55950928 -0.10317993 C77.00939643 -0.10197908 86.45905497 -0.12306816 95.90888429 -0.15466726 C104.02538191 -0.18083899 112.14180493 -0.19154681 120.25834441 -0.19026911 C125.10440207 -0.18975964 129.9502567 -0.19543447 134.79627228 -0.21662521 C139.35670813 -0.23602207 143.91674763 -0.23612219 148.47719765 -0.22159195 C150.1476811 -0.21950438 151.81818944 -0.2242017 153.48863029 -0.23631287 C169.17542847 -0.3426466 169.17542847 -0.3426466 175.92913818 4.26742554 C177.98773193 6.30258179 177.98773193 6.30258179 179.36663818 8.32992554 C179.83972412 9.0015271 180.31281006 9.67312866 180.80023193 10.36508179 C182.79365179 13.72423567 183.05529521 16.46631467 183.06056595 20.28381634 C183.06440709 21.32639117 183.06824824 22.368966 183.07220578 23.44313401 C183.0713393 24.59233207 183.07047282 25.74153013 183.06958008 26.92555237 C183.0725512 28.14345327 183.07552232 29.36135418 183.07858348 30.61616117 C183.08577196 34.00302433 183.08844343 37.38983679 183.08918095 40.77670395 C183.09103034 44.42715088 183.09857716 48.07758678 183.10531616 51.72802734 C183.11890553 59.71366784 183.12492532 67.69930332 183.12932682 75.68495345 C183.13208857 80.67095976 183.13632584 85.65696413 183.14083099 90.64296913 C183.15302511 104.4465113 183.16332371 118.25005192 183.16670609 132.05359936 C183.16703543 133.37914621 183.16703543 133.37914621 183.16737144 134.7314718 C183.16758971 135.61729327 183.16780799 136.50311474 183.16803288 137.41577929 C183.16847635 139.21081046 183.16892291 141.00584163 183.16937256 142.8008728 C183.1697047 144.13647105 183.1697047 144.13647105 183.17004356 145.49905107 C183.17399073 159.92353297 183.19144163 174.34796431 183.21473208 188.77242669 C183.23844856 203.58024481 183.25090809 218.38803757 183.252074 233.19587499 C183.25299067 241.51051129 183.2587407 249.82508177 183.27689362 258.13969994 C183.29229869 265.22073138 183.29741272 272.30167666 183.28915551 279.38272168 C183.28525025 282.99484885 183.28617234 286.60680252 183.30021286 290.21890831 C183.31530509 294.1374738 183.30708139 298.05579548 183.29663086 301.97438049 C183.30871547 303.68144717 183.30871547 303.68144717 183.32104421 305.42300004 C183.2762724 312.59490391 182.83090743 318.85667661 177.99163818 324.54476929 C177.31101318 325.09262085 176.63038818 325.64047241 175.92913818 326.20492554 C175.24851318 326.77082397 174.56788818 327.33672241 173.86663818 327.91976929 C169.99767538 330.61088253 166.50592388 330.39728703 161.92710876 330.40786743 C161.21007367 330.41083855 160.49303857 330.41380968 159.75427514 330.41687083 C157.3453473 330.42556045 154.93646914 330.4270663 152.52752686 330.42855835 C150.80285028 330.43318634 149.07817472 330.43821097 147.35350037 330.44360352 C142.66334247 330.45673133 137.9731989 330.46317321 133.2830255 330.46761417 C130.35338317 330.47054426 127.42374475 330.47464895 124.49410439 330.47911835 C115.32962537 330.49279423 106.16515531 330.50246047 97.0006668 330.50632024 C86.41845575 330.51080148 75.83637384 330.52835206 65.25420207 330.55732083 C57.0766181 330.57893065 48.89907048 330.58902414 40.72145826 330.59036136 C35.83635675 330.59140988 30.95137663 330.59732775 26.06630516 330.61518097 C21.47065824 330.63164954 16.87522408 330.63382306 12.27955818 330.62504196 C10.59372259 330.62427094 8.90787562 330.62862291 7.22206879 330.63850021 C4.91849856 330.65120446 2.61568365 330.64535167 0.31211853 330.63491821 C-0.97633878 330.63638477 -2.26479609 330.63785133 -3.59229755 330.63936234 C-8.95196718 330.06629304 -12.8987181 328.04788577 -16.32086182 323.89242554 C-16.80039307 323.32781616 -17.27992432 322.76320679 -17.77398682 322.18148804 C-20.43660054 318.25172681 -21.32080079 314.69832109 -21.32813072 309.98932171 C-21.33457961 308.93928138 -21.34102851 307.88924106 -21.34767282 306.80738133 C-21.34457562 305.66011801 -21.34147841 304.51285468 -21.33828735 303.33082581 C-21.34281847 302.1071325 -21.34734958 300.88343919 -21.352018 299.62266427 C-21.36249079 296.22886356 -21.36398742 292.83527472 -21.36162925 289.44147289 C-21.36122111 285.78014474 -21.37225994 282.11884821 -21.38174438 278.45753479 C-21.39835611 271.28528546 -21.40385401 264.11306901 -21.40496914 256.94080206 C-21.40591955 251.11051176 -21.41002948 245.28023231 -21.41637039 239.44994545 C-21.4339834 222.91874747 -21.44320919 206.38757546 -21.44170944 189.85636803 C-21.44162953 188.96519816 -21.44154962 188.07402829 -21.44146729 187.15585327 C-21.44134464 185.81746561 -21.44134464 185.81746561 -21.44121952 184.45203982 C-21.44040664 169.99209776 -21.45954467 155.53225988 -21.48774402 141.07234796 C-21.51647273 126.22378066 -21.53028432 111.37526417 -21.52855647 96.52666837 C-21.52789255 88.19080635 -21.53338543 79.85505352 -21.55491257 71.51921654 C-21.57312423 64.42174028 -21.57747189 57.32442271 -21.56389372 50.2269332 C-21.55736387 46.60664488 -21.55724706 42.98666102 -21.57460022 39.36640167 C-21.5932312 35.4391189 -21.58077667 31.51228061 -21.56533813 27.5849762 C-21.57562526 26.44440504 -21.58591239 25.30383388 -21.59651124 24.12869996 C-21.53451054 16.9976721 -20.70440665 11.07800547 -15.62357461 5.749623 C-10.42464259 1.20533293 -6.85783688 0.01800748 0 0 Z M-9.07086182 15.26742554 C-10.30475685 17.73521561 -10.20068764 19.3584795 -10.20787621 22.11950302 C-10.21295075 23.15087002 -10.21802529 24.18223701 -10.22325361 25.24485755 C-10.22375136 26.38665984 -10.22424912 27.52846214 -10.22476196 28.7048645 C-10.22914422 29.91107146 -10.23352647 31.11727841 -10.23804152 32.36003709 C-10.24912361 35.71881225 -10.25565937 39.07754072 -10.26022267 42.43632746 C-10.26617234 46.05471906 -10.27778376 49.67309341 -10.28851318 53.29147339 C-10.31305159 62.03526763 -10.32766635 70.77906759 -10.34057325 79.52288568 C-10.3442841 81.99167917 -10.34825742 84.4604721 -10.35232592 86.92926502 C-10.37756109 102.25338367 -10.39961869 117.57750319 -10.41205406 132.90163803 C-10.41498386 136.45227817 -10.41794551 140.00291828 -10.42095947 143.55355835 C-10.42170552 144.43607546 -10.42245157 145.31859256 -10.42322023 146.22785261 C-10.43587688 160.52768938 -10.46910322 174.82740189 -10.51076131 189.12718055 C-10.55316112 203.80161472 -10.57674682 218.47598524 -10.58197463 233.15048051 C-10.58539095 241.39246599 -10.59717201 249.63425729 -10.63007736 257.87618256 C-10.65805227 264.89474984 -10.66908856 271.91308316 -10.6578819 278.93170187 C-10.65268859 282.51331736 -10.6556246 286.09444269 -10.68034744 289.67598724 C-10.70692231 293.55820898 -10.69480224 297.43975944 -10.67886353 301.322052 C-10.69274561 302.45493141 -10.7066277 303.58781082 -10.72093046 304.7550199 C-10.70044373 311.3085412 -10.70044373 311.3085412 -7.72036171 316.95151138 C-3.66625558 320.49518458 -0.65854016 320.39509399 4.55825806 320.40786743 C5.23516319 320.41083855 5.91206833 320.41380968 6.60948575 320.41687083 C8.88255292 320.42555733 11.15556743 320.42706603 13.4286499 320.42855835 C15.05642815 320.43318652 16.68420531 320.43821118 18.3119812 320.44360352 C22.73761755 320.45672865 27.16323873 320.46317256 31.58889151 320.46761417 C34.35302656 320.47054439 37.11715747 320.47464908 39.88129044 320.47911835 C48.52731554 320.49279286 57.17333116 320.50246005 65.81936634 320.50632024 C75.80447536 320.51080265 85.78944761 320.52835922 95.77451503 320.55732083 C103.49009161 320.57892416 111.20562966 320.58902378 118.92123616 320.59036136 C123.5307644 320.59141025 128.14016406 320.597336 132.74966049 320.61518097 C137.08512226 320.63163861 141.42035846 320.63382844 145.7558403 320.62504196 C147.3469554 320.62427038 148.93808251 320.62863028 150.52916718 320.63850021 C152.70173133 320.65118681 154.87349259 320.64536157 157.04605103 320.63491821 C158.26168669 320.63638477 159.47732235 320.63785133 160.72979546 320.63936234 C165.46101542 320.08933849 168.94225487 317.95671749 171.92913818 314.26742554 C172.38137125 311.93240872 172.38137125 311.93240872 172.31224823 309.27388954 C172.32130487 308.2364314 172.33036151 307.19897327 172.33969259 306.130077 C172.33436467 304.98661448 172.32903674 303.84315196 172.32354736 302.66503906 C172.32963847 301.45318857 172.33572957 300.24133807 172.34200525 298.99276483 C172.35580671 295.62276396 172.35607685 292.25324879 172.35063028 288.88325596 C172.34796621 285.25124784 172.36248018 281.61930276 172.37472534 277.98731995 C172.39580844 270.86926469 172.40031854 263.75129083 172.39853746 256.63320805 C172.3972312 250.84860542 172.40102698 245.06402823 172.40846252 239.27943039 C172.41056166 237.61486161 172.41265926 235.95029283 172.41475534 234.28572404 C172.41579887 233.45728555 172.4168424 232.62884705 172.41791755 231.77530436 C172.43683175 216.09726874 172.4357662 200.41927988 172.42894822 184.74123757 C172.42337265 170.39227722 172.44419666 156.04349543 172.47730869 141.69457681 C172.51102617 126.9692507 172.5262164 112.24401015 172.52159166 97.51864469 C172.5193449 89.24822019 172.52462013 80.9779607 172.54948425 72.70756912 C172.57047245 65.66628601 172.57411432 58.62525835 172.55518466 51.58396484 C172.54601101 47.9903306 172.5449326 44.39717295 172.56554031 40.80357552 C172.58762111 36.91007836 172.57107189 33.01729801 172.55059814 29.1237793 C172.56311599 27.98477822 172.57563384 26.84577714 172.58853102 25.67226088 C172.56381197 19.41662297 172.56381197 19.41662297 169.51529694 14.08890343 C165.44674403 11.22334881 163.2915152 11.13746384 158.30638123 11.12025452 C157.61807986 11.11657783 156.92977849 11.11290114 156.2206195 11.10911304 C153.90299263 11.09805712 151.58541055 11.09422915 149.26776123 11.09042358 C147.6105739 11.0841604 145.95338798 11.07751373 144.29620361 11.07051086 C139.78580449 11.05308838 135.27541597 11.04254584 130.76499152 11.03430533 C127.94843152 11.02915813 125.13187482 11.02308229 122.31531715 11.0167942 C113.50697465 10.99773918 104.69864054 10.98350835 95.89028138 10.97518224 C85.71495212 10.96540576 75.53984016 10.93907689 65.36458749 10.89868134 C57.50465955 10.86854593 49.64479401 10.85371584 41.78480941 10.85040122 C37.08803127 10.84804791 32.39148519 10.83905103 27.69476891 10.81394005 C23.2763771 10.79069906 18.85837081 10.78640997 14.43993378 10.79670143 C12.81817405 10.79719786 11.19639561 10.7908458 9.57469368 10.77714539 C7.36028052 10.75948426 5.1472596 10.7665025 2.93284607 10.77967834 C1.69378856 10.77728999 0.45473104 10.77490164 -0.82187366 10.77244091 C-4.67702302 11.35977444 -6.32127503 12.55698738 -9.07086182 15.26742554 Z " fill="#030303" transform="translate(81.07086181640625,1.732574462890625)"/>
<path d="M0 0 C16.58794738 13.04489066 27.98883073 30.52194829 30.81640625 51.65234375 C30.90436363 53.06765792 30.96573217 54.484813 31.00390625 55.90234375 C31.05417969 56.77503906 31.10445312 57.64773437 31.15625 58.546875 C31.7770556 77.09654638 26.05932896 94.09063842 15.00390625 108.90234375 C14.45992187 109.63195312 13.9159375 110.3615625 13.35546875 111.11328125 C2.77693371 124.16874156 -15.26019806 134.75572191 -31.99609375 136.90234375 C-45.52741218 137.93366672 -59.34351557 138.32926975 -71.99609375 132.90234375 C-72.94137939 132.50764893 -72.94137939 132.50764893 -73.90576172 132.10498047 C-93.37682792 123.80452836 -107.15670304 110.13088601 -115.55859375 90.5859375 C-123.31257351 70.71636438 -122.5888699 49.52870243 -114.42578125 29.91796875 C-105.55080522 11.19807396 -90.33973545 -2.7760987 -70.99609375 -10.09765625 C-46.69632172 -18.48407275 -21.08136536 -14.7597043 0 0 Z M-96.1875 21.57421875 C-108.52026551 37.44965772 -110.92204633 54.27206383 -108.99609375 73.90234375 C-107.38849088 83.99746165 -103.09692393 92.74954135 -96.99609375 100.90234375 C-96.55910156 101.52109375 -96.12210938 102.13984375 -95.671875 102.77734375 C-85.64118129 115.79013559 -70.63930453 122.58544519 -54.99609375 125.90234375 C-54.14660156 126.08796875 -53.29710937 126.27359375 -52.421875 126.46484375 C-38.49160419 128.97722753 -22.94993627 124.46199869 -11.12109375 117.1171875 C3.31174362 107.03424695 15.17995386 93.08603726 18.62890625 75.41015625 C21.31459338 57.44962355 19.4302434 40.69297142 8.94140625 25.45703125 C-3.17828828 9.47662757 -18.01904532 -0.06021029 -37.99609375 -3.09765625 C-60.64052347 -5.24927066 -81.60758216 4.32473849 -96.1875 21.57421875 Z " fill="#000000" transform="translate(206.99609375,170.09765625)"/>
<path d="M0 0 C11.40827668 8.88239724 20.93655897 20.22242739 23 35 C24.21543637 53.98049402 21.32969129 68.3680396 8.8125 83.1875 C-0.54904553 93.14293323 -11.91245887 98.64506752 -25.51953125 99.37890625 C-42.84840765 99.91088351 -56.6739932 96.89408649 -69.75 84.75 C-82.0780788 71.56457279 -85.5268938 57.74430818 -85.2734375 40.3203125 C-84.73656243 25.22933898 -77.34177737 13.41324928 -66.5859375 3.22265625 C-48.05269542 -12.70697328 -20.08343808 -13.5165661 0 0 Z M-59 12 C-59.95712891 12.75216797 -59.95712891 12.75216797 -60.93359375 13.51953125 C-68.30439608 20.00386738 -73.43360338 30.93600296 -74.8515625 40.578125 C-75.60778418 52.91647878 -71.86809024 64.44964548 -64 74 C-56.11914955 82.36489501 -46.60737262 88.08190273 -35 89 C-21.61067076 89.12340396 -11.22378645 85.71782773 -1 77 C7.10603096 68.80879183 12.56055531 58.56899186 13.1328125 46.921875 C12.45717108 32.05776379 6.73820163 21.05423975 -4 11 C-20.93134515 -1.83331256 -42.67020545 -1.360741 -59 12 Z " fill="#010101" transform="translate(193,36)"/>
<path d="M0 0 C5.15020989 5.35217891 8.21084167 10.66305408 10.390625 17.734375 C10.885625 19.219375 10.885625 19.219375 11.390625 20.734375 C12.29050058 32.77205487 10.88409511 42.89919549 3.390625 52.734375 C2.854375 53.559375 2.318125 54.384375 1.765625 55.234375 C-5.64657475 63.03669053 -15.95362403 66.78132594 -26.546875 67.109375 C-37.84200788 66.7338335 -46.21275948 63.40668183 -54.609375 55.734375 C-57.05404229 52.91438535 -58.88332288 50.03662906 -60.609375 46.734375 C-61.22619141 45.63029297 -61.22619141 45.63029297 -61.85546875 44.50390625 C-66.23537765 35.45613596 -66.11152607 24.18152467 -62.984375 14.734375 C-58.91027233 5.25179456 -52.27853103 -2.17023613 -42.83203125 -6.5546875 C-27.91509732 -12.24317534 -12.38763611 -10.75573195 0 0 Z M-49.203125 12.71484375 C-54.10759467 19.75820714 -54.35449416 26.38283108 -53.609375 34.734375 C-52.16596658 42.03561593 -48.09223831 47.39698674 -41.97265625 51.50390625 C-34.89375291 55.45513726 -28.66800106 57.26686922 -20.609375 55.734375 C-12.15289353 52.95715415 -5.97269998 48.57268334 -1.609375 40.734375 C1.09272779 33.99737548 1.70410935 26.44561526 -0.26171875 19.39453125 C-1.21480395 17.32883157 -2.28314588 15.58246351 -3.609375 13.734375 C-4.10695312 13.03441406 -4.60453125 12.33445313 -5.1171875 11.61328125 C-10.05271172 5.35779125 -15.01153945 2.29968265 -22.9453125 1.32421875 C-34.19172629 0.84850277 -42.17555782 3.78121472 -49.203125 12.71484375 Z " fill="#000000" transform="translate(188.609375,203.265625)"/>
<path d="M0 0 C6.75810163 5.66968116 10.75496655 10.61293663 11.72265625 19.4765625 C12.11223573 30.14416522 9.66175606 37.53699889 2.421875 45.38671875 C-3.78736377 50.57477836 -12.70990471 52.74301352 -20.64453125 52.11328125 C-29.01847286 50.03854348 -36.26664624 46.4550529 -40.98828125 38.98828125 C-45.27836476 30.65326186 -46.34950567 21.88189037 -43.65625 12.76953125 C-39.71026987 3.96610516 -33.9636545 -0.70207885 -25.14453125 -4.32421875 C-15.98657085 -5.79603381 -7.73980026 -5.5218959 0 0 Z M-31.03125 12.6171875 C-34.4582357 17.60735966 -34.51819973 23.27117485 -33.64453125 29.11328125 C-30.97960014 34.54184463 -27.28813973 37.87959729 -21.83203125 40.42578125 C-16.36164308 41.6056689 -12.32354584 41.01736603 -7.39453125 38.36328125 C-3.69987452 35.34038029 -1.16411488 32.67203215 0.35546875 28.11328125 C0.74614357 23.68062468 0.90908251 19.54616392 -0.70703125 15.36328125 C-4.56707712 10.88064734 -8.54723375 6.67898307 -14.625 5.83984375 C-21.57514466 5.52001408 -26.28817798 7.4732925 -31.03125 12.6171875 Z " fill="#000000" transform="translate(178.64453125,57.88671875)"/>
<path d="M0 0 C0.99 1.485 0.99 1.485 2 3 C4.05003955 4.19232613 4.05003955 4.19232613 6 5 C5.01 5 4.02 5 3 5 C3 5.66 3 6.32 3 7 C2.21625 6.979375 1.4325 6.95875 0.625 6.9375 C-1.98114961 6.81315937 -1.98114961 6.81315937 -4 8 C-5.74780082 8.09710005 -7.49951057 8.12978276 -9.25 8.125 C-10.64992187 8.12886719 -10.64992187 8.12886719 -12.078125 8.1328125 C-15.12407082 7.99436042 -17.99524572 7.50594192 -21 7 C-39.47465251 5.5734762 -56.51380299 10.98909336 -70.74609375 22.9140625 C-74.92956432 26.78576663 -78.49505755 31.13022301 -82.0625 35.5625 C-84 37 -84 37 -87.25 36.75 C-88.1575 36.5025 -89.065 36.255 -90 36 C-90 37.65 -90 39.3 -90 41 C-92.31 41.99 -94.62 42.98 -97 44 C-97.69921875 42.40234375 -97.69921875 42.40234375 -98 40 C-90.64237413 22.08476495 -75.03651007 7.86749434 -57.48828125 0.3203125 C-38.86683076 -6.72789608 -18.58094682 -8.11345156 0 0 Z " fill="#020202" transform="translate(190,161)"/>
<path d="M0 0 C1.32 0.33 2.64 0.66 4 1 C4.495 4.465 4.495 4.465 5 8 C3.865625 8.53625 2.73125 9.0725 1.5625 9.625 C-1.54629332 11.36742851 -1.89118154 11.62276269 -2.9375 15.25 C-2.958125 16.1575 -2.97875 17.065 -3 18 C-3.99 18.33 -4.98 18.66 -6 19 C-6.14953125 19.62261719 -6.2990625 20.24523437 -6.453125 20.88671875 C-7.35502869 24.37193231 -9.96341958 25.34789505 -12.92578125 27.09765625 C-15.61783241 28.26877455 -17.27458591 27.99105967 -20 27 C-20.33 27.33 -20.66 27.66 -21 28 C-23.33297433 28.04092937 -25.66705225 28.04241723 -28 28 C-29.125 25.6875 -29.125 25.6875 -30 23 C-27.62466369 19.43699553 -25.99632983 18.84249645 -22.125 17.125 C-20.96484375 16.59777344 -19.8046875 16.07054688 -18.609375 15.52734375 C-16.29604847 14.54843609 -13.95204724 13.63752319 -11.578125 12.81640625 C-5.69495944 10.95545799 -5.69495944 10.95545799 -1.5859375 6.6875 C-0.83517497 4.44222888 -0.30645597 2.34438818 0 0 Z " fill="#020202" transform="translate(201,103)"/>
<path d="M0 0 C0.66 0 1.32 0 2 0 C4.5 0.3125 4.5 0.3125 7 1 C7.66 1.99 8.32 2.98 9 4 C11.05003955 5.19232613 11.05003955 5.19232613 13 6 C12.01 6 11.02 6 10 6 C10 6.66 10 7.32 10 8 C8.824375 7.9690625 8.824375 7.9690625 7.625 7.9375 C5.01885039 7.81315937 5.01885039 7.81315937 3 9 C0.30434798 8.83219837 -2.32405554 8.38844355 -5 8 C-5 7.34 -5 6.68 -5 6 C-6.32 6 -7.64 6 -9 6 C-9 3 -9 3 -7.3125 1.3125 C-4.61286032 -0.21972793 -3.05614234 -0.2412744 0 0 Z " fill="#0E0E0E" transform="translate(183,160)"/>
<path d="M0 0 C0.721875 0.144375 1.44375 0.28875 2.1875 0.4375 C3.115625 0.623125 4.04375 0.80875 5 1 C6.66666667 1.33333333 8.33333333 1.66666667 10 2 C10 2.33 10 2.66 10 3 C7.36 3.33 4.72 3.66 2 4 C2 4.66 2 5.32 2 6 C1.34 6 0.68 6 0 6 C0 6.66 0 7.32 0 8 C-2.91581553 8.36297704 -5.83225666 8.71568235 -8.75 9.0625 C-9.575 9.16626953 -10.4 9.27003906 -11.25 9.37695312 C-12.04921875 9.47041016 -12.8484375 9.56386719 -13.671875 9.66015625 C-14.4050293 9.74918213 -15.13818359 9.83820801 -15.89355469 9.92993164 C-18.12270005 10.00408147 -19.87333015 9.64094299 -22 9 C-22 8.34 -22 7.68 -22 7 C-22.66 6.67 -23.32 6.34 -24 6 C-24.33 5.34 -24.66 4.68 -25 4 C-17.125 4.875 -17.125 4.875 -16 6 C-10.09133053 6.49238912 -5.49901323 5.09486218 0 3 C0 2.01 0 1.02 0 0 Z " fill="#151515" transform="translate(166,156)"/>
<path d="M0 0 C1.32 0.33 2.64 0.66 4 1 C4.33 3.31 4.66 5.62 5 8 C3.865625 8.53625 2.73125 9.0725 1.5625 9.625 C-1.54629332 11.36742851 -1.89118154 11.62276269 -2.9375 15.25 C-2.958125 16.1575 -2.97875 17.065 -3 18 C-3.99 18.33 -4.98 18.66 -6 19 C-6.66 19.33 -7.32 19.66 -8 20 C-10 14.25 -10 14.25 -10 12 C-8.906875 11.690625 -7.81375 11.38125 -6.6875 11.0625 C-4.06412561 9.97916321 -3.1830378 9.35597697 -1.8671875 6.796875 C-1.13725829 4.54330716 -0.50913017 2.31290561 0 0 Z " fill="#151515" transform="translate(201,103)"/>
<path d="M0 0 C3.625 0.375 3.625 0.375 7 1 C7.33 3.31 7.66 5.62 8 8 C6.3125 9.5625 6.3125 9.5625 4 11 C1.375 10.875 1.375 10.875 -1 10 C-3 7 -3 7 -2.75 4.4375 C-2 2 -2 2 0 0 Z " fill="#010101" transform="translate(226,32)"/>
<path d="M0 0 C1.175625 0.0825 2.35125 0.165 3.5625 0.25 C5.5625 3.25 5.5625 3.25 5.25 6.375 C4.5625 9.25 4.5625 9.25 3.5625 10.25 C0.125 10.5 0.125 10.5 -3.4375 10.25 C-5.4375 7.25 -5.4375 7.25 -5.125 4.125 C-4.21183628 0.30631537 -4.21183628 0.30631537 0 0 Z " fill="#000000" transform="translate(228.4375,291.75)"/>
<path d="M0 0 C1.875 1.6875 1.875 1.6875 3 4 C2.875 6.625 2.875 6.625 2 9 C-1 11 -1 11 -3.5625 10.75 C-6 10 -6 10 -8 8 C-8.36487512 5.15397406 -8.40199375 3.6135694 -6.8125 1.1875 C-4.32762734 -0.44052002 -2.91288568 -0.50975499 0 0 Z " fill="#020202" transform="translate(98,32)"/>
<path d="M0 0 C3.125 0.25 3.125 0.25 5.0625 1.375 C6.66443488 4.20194391 5.92084319 6.19926777 5.125 9.25 C4.125 10.25 4.125 10.25 0.6875 10.5 C-0.488125 10.4175 -1.66375 10.335 -2.875 10.25 C-4.875 7.25 -4.875 7.25 -4.5625 4.125 C-3.65202703 0.31756757 -3.65202703 0.31756757 0 0 Z " fill="#010101" transform="translate(94.875,291.75)"/>
<path d="M0 0 C1.8125 0.1875 1.8125 0.1875 4 1 C7 5.28571429 7 5.28571429 7 7 C3.87517438 7.08687496 0.75065754 7.14034568 -2.375 7.1875 C-3.26445312 7.21263672 -4.15390625 7.23777344 -5.0703125 7.26367188 C-6.34648437 7.27817383 -6.34648437 7.27817383 -7.6484375 7.29296875 C-8.82672119 7.31653442 -8.82672119 7.31653442 -10.02880859 7.34057617 C-10.67930176 7.22818604 -11.32979492 7.1157959 -12 7 C-12.66 6.01 -13.32 5.02 -14 4 C-9.05 4 -4.1 4 1 4 C0.67 2.68 0.34 1.36 0 0 Z " fill="#151515" transform="translate(161,126)"/>
<path d="M0 0 C0.66 0 1.32 0 2 0 C2.375 3.25 2.375 3.25 2 7 C-1.32886502 10.16648136 -3.28243595 10.95370555 -7.875 11.25 C-8.90625 11.1675 -9.9375 11.085 -11 11 C-11.66 9.35 -12.32 7.7 -13 6 C-11.1875 5.3125 -11.1875 5.3125 -9 5 C-7.25 6.4375 -7.25 6.4375 -6 8 C-3.46255685 7.45291273 -3.46255685 7.45291273 -1 6 C-0.10169161 2.94727535 -0.10169161 2.94727535 0 0 Z " fill="#161616" transform="translate(184,120)"/>
<path d="M0 0 C-0.33 1.98 -0.66 3.96 -1 6 C-3.97 5.505 -3.97 5.505 -7 5 C-7 6.65 -7 8.3 -7 10 C-8.65 10.33 -10.3 10.66 -12 11 C-11.68795779 7.56753564 -11.35261037 5.46594942 -9.25 2.6875 C-6.23734442 0.42800832 -3.7080369 0 0 0 Z " fill="#141414" transform="translate(107,192)"/>
<path d="M0 0 C0.69738281 0.05220703 1.39476562 0.10441406 2.11328125 0.15820312 C3.82596203 0.28724072 5.53805066 0.42409614 7.25 0.5625 C7.25 0.8925 7.25 1.2225 7.25 1.5625 C3.62 1.5625 -0.01 1.5625 -3.75 1.5625 C-3.75 2.2225 -3.75 2.8825 -3.75 3.5625 C-7.68670488 4.87473496 -9.87488144 3.80546256 -13.75 2.5625 C-9.78847835 -1.39902165 -5.25806803 -0.43237421 0 0 Z M-15.75 2.5625 C-15.09 2.5625 -14.43 2.5625 -13.75 2.5625 C-13.75 3.2225 -13.75 3.8825 -13.75 4.5625 C-14.41 4.5625 -15.07 4.5625 -15.75 4.5625 C-15.75 3.9025 -15.75 3.2425 -15.75 2.5625 Z " fill="#0E0E0E" transform="translate(161.75,194.4375)"/>
<path d="M0 0 C6.26865672 7.73134328 6.26865672 7.73134328 6.125 12.6875 C6.10695313 13.49574219 6.08890625 14.30398437 6.0703125 15.13671875 C6.03550781 16.05904297 6.03550781 16.05904297 6 17 C5.67 15.68 5.34 14.36 5 13 C4.34 13 3.68 13 3 13 C-0.4887612 8.70614007 -0.26854022 5.28129105 0 0 Z " fill="#161616" transform="translate(63,184)"/>
<path d="M0 0 C0 2.97077176 -0.08214652 5.17583545 -1 8 C-3.5625 9.8125 -3.5625 9.8125 -6 11 C-6.75 8.25 -6.75 8.25 -7 5 C-4.81567858 2.11357527 -3.44696406 1.14898802 0 0 Z " fill="#141414" transform="translate(111,177)"/>
<path d="M0 0 C2.375 0.3125 2.375 0.3125 5 1 C5.66 1.99 6.32 2.98 7 4 C9.05003955 5.19232613 9.05003955 5.19232613 11 6 C10.01 6 9.02 6 8 6 C8 6.66 8 7.32 8 8 C6.824375 7.9690625 6.824375 7.9690625 5.625 7.9375 C3.01885039 7.81315937 3.01885039 7.81315937 1 9 C0.67 6.03 0.34 3.06 0 0 Z " fill="#050505" transform="translate(185,160)"/>
<path d="M0 0 C1.32 0.33 2.64 0.66 4 1 C4 1.99 4 2.98 4 4 C4.66 4 5.32 4 6 4 C6 6.97 6 9.94 6 13 C5.67 11.68 5.34 10.36 5 9 C4.34 9 3.68 9 3 9 C3 8.01 3 7.02 3 6 C2.34 6 1.68 6 1 6 C0.67 4.02 0.34 2.04 0 0 Z " fill="#151515" transform="translate(63,170)"/>
<path d="M0 0 C0.66 1.32 1.32 2.64 2 4 C0.25 5.5625 0.25 5.5625 -2 7 C-4.1875 6.8125 -4.1875 6.8125 -6 6 C-6.33 5.34 -6.66 4.68 -7 4 C-4.69 2.68 -2.38 1.36 0 0 Z " fill="#131313" transform="translate(197,166)"/>
<path d="M0 0 C0.33 0.99 0.66 1.98 1 3 C-2.3171411 4.4216319 -5.44219804 5.39009109 -9 6 C-9 3 -9 3 -7.3125 1.3125 C-4.6402007 -0.20421041 -3.02346601 -0.2519555 0 0 Z " fill="#171717" transform="translate(183,160)"/>
<path d="M0 0 C2.86724686 0.57344937 3.8614515 0.8614515 6 3 C6.125 5.625 6.125 5.625 6 8 C5.01 8 4.02 8 3 8 C0.19744677 5.0936485 0 4.21174952 0 0 Z " fill="#141414" transform="translate(205,93)"/>
<path d="M0 0 C2.89932357 2.39509338 3.50168276 4.31245243 4 8 C2.35 8.33 0.7 8.66 -1 9 C-1.125 2.25 -1.125 2.25 0 0 Z " fill="#151515" transform="translate(118,172)"/>
<path d="M0 0 C2.25 -0.25 2.25 -0.25 5 0 C7.3125 1.9375 7.3125 1.9375 9 4 C9 4.33 9 4.66 9 5 C5.625 4.75 5.625 4.75 2 4 C0.5625 1.9375 0.5625 1.9375 0 0 Z " fill="#151515" transform="translate(120,170)"/>
<path d="M0 0 C3 3.75 3 3.75 3 6 C1.68 6.33 0.36 6.66 -1 7 C-1.33 5.35 -1.66 3.7 -2 2 C-1.34 2 -0.68 2 0 2 C0 1.34 0 0.68 0 0 Z " fill="#141414" transform="translate(138,162)"/>
<path d="M0 0 C0.66 1.32 1.32 2.64 2 4 C1.34 4 0.68 4 0 4 C-0.33 4.66 -0.66 5.32 -1 6 C-1.99 6 -2.98 6 -4 6 C-2.84826645 3.53199953 -1.95216435 1.95216435 0 0 Z " fill="#020202" transform="translate(108,178)"/>
<path d="M0 0 C2.64 0.33 5.28 0.66 8 1 C7.01 1.33 6.02 1.66 5 2 C5 2.66 5 3.32 5 4 C3.35 3.67 1.7 3.34 0 3 C0 2.01 0 1.02 0 0 Z " fill="#141414" transform="translate(188,164)"/>
</svg>
