<?xml version="1.0" standalone="no"?>
<!DOCTYPE svg PUBLIC "-//W3C//DTD SVG 20010904//EN"
 "http://www.w3.org/TR/2001/REC-SVG-20010904/DTD/svg10.dtd">
<svg version="1.0" xmlns="http://www.w3.org/2000/svg"
 width="371.000000pt" height="327.000000pt" viewBox="0 0 371.000000 327.000000"
 preserveAspectRatio="xMidYMid meet">

<g transform="translate(0.000000,327.000000) scale(0.100000,-0.100000)"
fill="#000000" stroke="none">
<path d="M680 3081 c-6 -13 -10 -154 -10 -390 l0 -371 -167 -2 -168 -3 -3
-569 c-1 -364 2 -582 8 -606 17 -64 70 -130 130 -164 l55 -31 1244 -3 c1376
-3 1305 -6 1393 61 26 20 54 55 71 88 l29 56 -2 578 c0 318 -3 582 -6 587 -3
4 -79 8 -170 8 l-164 0 0 378 c0 281 -3 381 -12 390 -9 9 -75 12 -235 12
l-223 0 -11 -27 c-7 -19 -10 -150 -7 -388 l3 -360 -238 -3 -238 -2 -76 -80
c-42 -44 -81 -80 -87 -80 -6 0 -45 36 -86 79 -91 96 -91 96 -362 86 l-188 -8
0 372 c0 238 -4 379 -10 392 -10 18 -23 19 -235 19 -212 0 -225 -1 -235 -19z
m398 -431 c1 -255 6 -377 13 -387 9 -10 64 -13 257 -13 l246 0 97 -96 c82 -80
101 -94 116 -85 10 5 56 48 103 95 l85 86 246 0 c194 0 249 3 258 13 7 10 12
132 13 386 l3 372 163 2 162 2 0 -375 c0 -279 3 -379 12 -388 8 -8 62 -12 175
-12 l163 0 0 -538 0 -538 -22 -44 c-13 -24 -40 -58 -61 -74 l-39 -31 -1251 -3
c-1390 -3 -1304 -7 -1366 63 -16 19 -35 51 -40 72 -7 24 -11 228 -11 566 l0
527 163 0 c113 0 167 4 175 12 9 9 12 108 12 383 0 205 2 374 4 376 2 2 76 4
163 3 l158 -1 3 -373z"/>
<path d="M782 1968 c-18 -18 -14 -46 7 -58 26 -14 526 -14 552 0 10 6 19 19
19 30 0 11 -9 24 -19 30 -29 15 -543 14 -559 -2z"/>
<path d="M2668 1964 c-5 -4 -8 -81 -8 -170 0 -163 0 -164 25 -180 28 -18 110
-12 156 12 58 29 109 127 109 206 0 46 -26 95 -58 112 -33 17 -212 33 -224 20z
m143 -74 c30 0 42 -5 55 -25 14 -22 14 -29 0 -78 -21 -71 -42 -96 -88 -104
l-38 -6 0 113 c0 98 2 111 16 106 9 -3 33 -6 55 -6z"/>
<path d="M662 1788 c-15 -15 -15 -41 0 -56 9 -9 85 -12 279 -12 230 0 270 2
283 16 19 18 19 20 6 45 -10 18 -24 19 -283 19 -199 0 -276 -3 -285 -12z"/>
</g>
</svg>
