<?xml version="1.0" encoding="UTF-8"?>
<svg version="1.1" xmlns="http://www.w3.org/2000/svg" width="344" height="348">
<path d="M0 0 C0.78252079 -0.00297112 1.56504158 -0.00594224 2.37127513 -0.0090034 C4.99587453 -0.01768159 7.62042828 -0.0191979 10.24504089 -0.02069092 C12.12587583 -0.02531969 14.00670982 -0.03034443 15.88754272 -0.03573608 C20.99918274 -0.04885579 26.11080962 -0.05530413 31.22246385 -0.05974674 C34.41594701 -0.06267796 37.60942659 -0.06678285 40.80290794 -0.07125092 C50.79445244 -0.08492428 60.78598873 -0.09459191 70.77754194 -0.09845281 C82.31171685 -0.1029343 93.8457733 -0.12048713 105.3799122 -0.1494534 C114.29552987 -0.17106661 123.21111421 -0.18115688 132.1267578 -0.18249393 C137.45173711 -0.18354214 142.77660504 -0.18945369 148.10155678 -0.20731354 C153.11088575 -0.22378808 158.12001952 -0.22595268 163.12936592 -0.21717453 C164.96636223 -0.21640385 166.80336901 -0.22075099 168.6403389 -0.23063278 C171.15148995 -0.24334748 173.66194918 -0.23747828 176.1730957 -0.22705078 C177.25901126 -0.23913539 177.25901126 -0.23913539 178.3668645 -0.25146413 C185.1455642 -0.18579939 190.39843889 1.9289904 195.52702332 6.39044189 C196.17155457 6.93184814 196.81608582 7.47325439 197.48014832 8.03106689 C202.63136186 14.07814367 202.70910678 20.28330699 202.65797424 27.87492371 C202.66265422 28.94515087 202.66733419 30.01537804 202.67215598 31.11803633 C202.68410663 34.69846679 202.67464812 38.27851456 202.66520691 41.85894775 C202.66927259 44.42825036 202.67461444 46.99755121 202.68113708 49.56684875 C202.69446284 55.81775744 202.69160174 62.06855793 202.68289916 68.31947082 C202.67611785 73.40124296 202.67520783 78.48298483 202.67847061 83.56476021 C202.67893031 84.28864664 202.67939001 85.01253307 202.67986364 85.75835546 C202.68082284 87.22903288 202.68179548 88.69971029 202.68278141 90.17038769 C202.69133207 103.95479965 202.68150659 117.73915172 202.66538031 131.52355386 C202.65198026 143.34338964 202.65430326 155.16313701 202.6681366 166.98297119 C202.68420305 180.7172596 202.69050514 194.45149553 202.68129981 208.18579203 C202.68034419 209.65129728 202.67940107 211.11680255 202.67847061 212.58230782 C202.67800779 213.30331409 202.67754496 214.02432037 202.67706811 214.76717533 C202.6744812 219.84053856 202.67884281 224.91386842 202.68590927 229.98722649 C202.69521783 236.82036494 202.68855899 243.65333387 202.6712265 250.48645592 C202.66726088 252.99385043 202.66839697 255.501259 202.6750145 258.00864792 C202.68321682 261.43228013 202.67292343 264.85537822 202.65797424 268.27897644 C202.66466641 269.27032732 202.67135857 270.26167821 202.67825353 271.28307003 C202.6212041 278.02306034 201.86379613 283.89980633 197.51530457 289.34747314 C196.87979675 289.87727783 196.24428894 290.40708252 195.58952332 290.95294189 C194.96690613 291.49563721 194.34428894 292.03833252 193.70280457 292.59747314 C187.75244994 296.38232029 182.08168293 297.58662691 175.11772156 297.52139282 C174.33657218 297.52607279 173.55542281 297.53075277 172.75060225 297.53557456 C170.15441463 297.54746262 167.55876096 297.53809186 164.96257019 297.52862549 C163.09261774 297.53269395 161.22266769 297.53803736 159.35272217 297.54455566 C154.28871042 297.55820241 149.22488255 297.5529415 144.16086769 297.54341841 C138.854163 297.53580814 133.54747376 297.54287122 128.24076843 297.5475769 C119.33013592 297.55303047 110.41957808 297.5458533 101.50895691 297.53155518 C91.21605365 297.51522946 80.92332868 297.52051825 70.63042974 297.53703439 C61.78349201 297.55066061 52.93660787 297.55256335 44.08966303 297.54471838 C38.80999995 297.54004813 33.5304206 297.53939924 28.25076294 297.54932785 C23.28649512 297.55801173 18.32245655 297.55194956 13.35821342 297.53464508 C11.53938108 297.53068785 9.72052935 297.53180118 7.90170479 297.53843307 C5.41298689 297.54666899 2.92499699 297.53630279 0.43632507 297.52139282 C-0.27808636 297.52808499 -0.9924978 297.53477715 -1.72855806 297.54167211 C-9.89279465 297.44723385 -15.95712553 294.77220349 -21.72297668 289.14044189 C-24.86860313 284.69317692 -25.84414006 280.95525778 -25.85999107 275.56881523 C-25.86506562 274.65088499 -25.87014016 273.73295475 -25.87536848 272.78720844 C-25.87586623 271.7823616 -25.87636399 270.77751476 -25.87687683 269.74221802 C-25.88125908 268.67188171 -25.88564134 267.60154539 -25.89015639 266.49877465 C-25.90354731 262.8999992 -25.90972394 259.30124825 -25.91584778 255.70245361 C-25.9237485 253.1269876 -25.93201743 250.5515227 -25.94062805 247.97605896 C-25.96513172 240.23865049 -25.97977611 232.50123564 -25.99268812 224.76380032 C-25.9964015 222.57759557 -26.00037461 220.39139145 -26.00444078 218.20518732 C-26.0296785 204.62253547 -26.05172663 191.03988257 -26.06416893 177.45721245 C-26.06709851 174.3122342 -26.07006019 171.167256 -26.07307434 168.02227783 C-26.07382039 167.24063126 -26.07456644 166.45898468 -26.0753351 165.65365185 C-26.0879845 152.99590097 -26.12120324 140.33829069 -26.16287617 127.68060552 C-26.20533133 114.67850698 -26.22886807 101.67648036 -26.23408949 88.67431271 C-26.23749953 81.37678215 -26.24920639 74.07947134 -26.28219223 66.78200912 C-26.31318101 59.91520432 -26.31858951 53.04878798 -26.30680847 46.18192482 C-26.30658762 43.6640677 -26.31490211 41.14619288 -26.33246231 38.62839699 C-26.35516523 35.18532751 -26.34685191 31.74364492 -26.33097839 28.30056763 C-26.34486048 27.30910512 -26.35874257 26.31764261 -26.37304533 25.29613578 C-26.29362963 18.28317129 -24.53016571 13.04877014 -20.72297668 7.14044189 C-18.40657043 4.88653564 -18.40657043 4.88653564 -16.16047668 3.57794189 C-15.41668762 3.12290283 -14.67289856 2.66786377 -13.90657043 2.19903564 C-9.34723492 -0.01130411 -4.99586954 -0.00592475 0 0 Z M-9.60802937 17.42536914 C-11.95632137 21.03763994 -11.54855552 25.16490195 -11.4959259 29.33743286 C-11.50654714 30.37398832 -11.51716837 31.41054379 -11.52811146 32.47851002 C-11.55642362 35.95727992 -11.54193163 39.43455441 -11.52766418 42.91339111 C-11.53910665 45.40521519 -11.55315219 47.89702847 -11.5696106 50.38882446 C-11.6028182 56.45799201 -11.60832695 62.52661645 -11.60122508 68.59582363 C-11.59421747 75.66543996 -11.61933418 82.73483232 -11.64595354 89.80438866 C-11.69242589 102.42081383 -11.71071454 115.03712148 -11.71272278 127.65362549 C-11.71470406 139.89135119 -11.73486744 152.12885867 -11.77619934 164.36651611 C-11.7787408 165.11994155 -11.78128226 165.87336699 -11.78390074 166.6496235 C-11.78903269 168.16745617 -11.79416544 169.68528883 -11.799299 171.20312149 C-11.80182748 171.95189109 -11.80435596 172.70066069 -11.80696106 173.47212029 C-11.80948891 174.2190191 -11.81201676 174.96591791 -11.81462121 175.73545002 C-11.8534368 187.40255211 -11.87677334 199.06969162 -11.89804578 210.73683705 C-11.90588933 214.96272291 -11.91576545 219.18859831 -11.92706388 223.41447626 C-11.94651948 230.74773082 -11.95531398 238.08090042 -11.95255089 245.41418839 C-11.95314053 247.84944232 -11.95713057 250.28469814 -11.96476173 252.71994019 C-11.97452805 256.04319918 -11.97183781 259.36622089 -11.96589661 262.68948364 C-11.97152052 263.65398402 -11.97714443 264.6184844 -11.98293877 265.61221206 C-11.95860835 270.80195948 -11.86388056 275.36320013 -9.72297668 280.14044189 C-5.35477129 283.28616905 -1.54341916 283.51387652 3.74024963 283.50793457 C4.47068753 283.51120341 5.20112542 283.51447225 5.9536978 283.51784015 C8.39030052 283.52509685 10.82629756 283.51098703 13.26286316 283.49688721 C15.01429344 283.49767844 16.76572354 283.49977679 18.51715088 283.50308228 C23.26726522 283.50821138 28.01716249 283.49468938 32.76724195 283.47755527 C37.74295993 283.46250045 42.7186753 283.4636928 47.69441223 283.46289062 C56.05206497 283.45919916 64.40963553 283.44424005 72.76725769 283.42169189 C83.48309553 283.39283971 94.19886714 283.38246971 104.91473961 283.3780098 C114.13902101 283.37402319 123.36328811 283.36152111 132.58755922 283.34766293 C135.54654056 283.34357231 138.5055214 283.34064238 141.46450424 283.33786774 C146.1217105 283.33295674 150.77887715 283.32272313 155.43606377 283.30842972 C157.14201563 283.30392555 158.8479728 283.30107253 160.55393028 283.30002213 C162.88926925 283.29826222 165.22451096 283.29034251 167.55982971 283.28088379 C168.86467001 283.27790913 170.16951031 283.27493446 171.51389122 283.27186966 C178.90488759 283.1942821 178.90488759 283.1942821 185.74443626 280.72044277 C188.19150619 276.60097526 187.83424308 272.5656582 187.79841614 267.86042786 C187.80606723 266.80289792 187.81371833 265.74536799 187.82160127 264.6557917 C187.84229373 261.10042595 187.83427131 257.54570423 187.82633972 253.99029541 C187.8350309 251.4461202 187.84539617 248.90195023 187.85731506 246.35778809 C187.88136108 240.15757474 187.88639399 233.95760014 187.88171454 227.7573492 C187.87815024 222.71837508 187.88164303 217.67945358 187.89016342 212.64048576 C187.8913538 211.92365278 187.89254418 211.20681979 187.89377063 210.46826459 C187.8961941 209.01207637 187.89862237 207.55588817 187.90105538 206.09969997 C187.92281428 192.43985343 187.91847764 178.78010561 187.90628569 165.1202535 C187.89594606 152.62073228 187.91845985 140.12152273 187.95648213 127.62206317 C187.99521544 114.79059203 188.01175514 101.95926842 188.00423563 89.12773842 C188.00040798 81.92257968 188.00542129 74.71768625 188.0336647 67.51257515 C188.05994988 60.73841251 188.05500506 53.96497583 188.02884293 47.19078064 C188.02409596 44.7014743 188.02963585 42.21212445 188.04608917 39.72286797 C188.06689988 36.33032478 188.05092847 32.93990468 188.02546692 29.54743958 C188.04758977 28.06174519 188.04758977 28.06174519 188.07015955 26.54603678 C188.02946385 21.73438037 188.02946385 21.73438037 186.16356444 17.41258192 C182.42394771 13.84459721 178.44154261 13.4275767 173.53459167 13.50552368 C172.77415778 13.49772373 172.01372389 13.48992378 171.23024654 13.48188746 C168.69195489 13.46200484 166.15516881 13.47771622 163.61686707 13.49346924 C161.79321927 13.48669142 159.96957832 13.47778737 158.14595032 13.46691895 C153.19960857 13.44413855 148.25378868 13.45295679 143.3074379 13.46881437 C138.12923534 13.48147984 132.95107725 13.46973145 127.77287292 13.46188354 C119.07723474 13.45278888 110.38180894 13.46477014 101.686203 13.48858643 C91.63517327 13.51579729 81.58465067 13.50698301 71.53363323 13.4794544 C62.90159866 13.45675916 54.2697167 13.4535653 45.63766193 13.46664774 C40.48317465 13.47443995 35.32892568 13.47549011 30.17445374 13.4589653 C25.32825373 13.44451383 20.48270708 13.45455472 15.63657761 13.48343658 C13.85884053 13.49004377 12.0810484 13.48815598 10.30333328 13.47712326 C7.87463354 13.46344095 5.44802191 13.48061329 3.01945496 13.50552368 C2.31730834 13.49437007 1.61516172 13.48321646 0.89173794 13.47172487 C-3.34035625 13.55582228 -6.49051024 14.45174643 -9.60802937 17.42536914 Z " fill="#4A4A4A" transform="translate(53.72297668457031,33.85955810546875)"/>
<path d="M0 0 C0.78252079 -0.00297112 1.56504158 -0.00594224 2.37127513 -0.0090034 C4.99587453 -0.01768159 7.62042828 -0.0191979 10.24504089 -0.02069092 C12.12587583 -0.02531969 14.00670982 -0.03034443 15.88754272 -0.03573608 C20.99918274 -0.04885579 26.11080962 -0.05530413 31.22246385 -0.05974674 C34.41594701 -0.06267796 37.60942659 -0.06678285 40.80290794 -0.07125092 C50.79445244 -0.08492428 60.78598873 -0.09459191 70.77754194 -0.09845281 C82.31171685 -0.1029343 93.8457733 -0.12048713 105.3799122 -0.1494534 C114.29552987 -0.17106661 123.21111421 -0.18115688 132.1267578 -0.18249393 C137.45173711 -0.18354214 142.77660504 -0.18945369 148.10155678 -0.20731354 C153.11088575 -0.22378808 158.12001952 -0.22595268 163.12936592 -0.21717453 C164.96636223 -0.21640385 166.80336901 -0.22075099 168.6403389 -0.23063278 C171.15148995 -0.24334748 173.66194918 -0.23747828 176.1730957 -0.22705078 C177.25901126 -0.23913539 177.25901126 -0.23913539 178.3668645 -0.25146413 C185.1455642 -0.18579939 190.39843889 1.9289904 195.52702332 6.39044189 C196.17155457 6.93184814 196.81608582 7.47325439 197.48014832 8.03106689 C202.63136186 14.07814367 202.70910678 20.28330699 202.65797424 27.87492371 C202.66265422 28.94515087 202.66733419 30.01537804 202.67215598 31.11803633 C202.68410663 34.69846679 202.67464812 38.27851456 202.66520691 41.85894775 C202.66927259 44.42825036 202.67461444 46.99755121 202.68113708 49.56684875 C202.69446284 55.81775744 202.69160174 62.06855793 202.68289916 68.31947082 C202.67611785 73.40124296 202.67520783 78.48298483 202.67847061 83.56476021 C202.67893031 84.28864664 202.67939001 85.01253307 202.67986364 85.75835546 C202.68082284 87.22903288 202.68179548 88.69971029 202.68278141 90.17038769 C202.69133207 103.95479965 202.68150659 117.73915172 202.66538031 131.52355386 C202.65198026 143.34338964 202.65430326 155.16313701 202.6681366 166.98297119 C202.68420305 180.7172596 202.69050514 194.45149553 202.68129981 208.18579203 C202.68034419 209.65129728 202.67940107 211.11680255 202.67847061 212.58230782 C202.67800779 213.30331409 202.67754496 214.02432037 202.67706811 214.76717533 C202.6744812 219.84053856 202.67884281 224.91386842 202.68590927 229.98722649 C202.69521783 236.82036494 202.68855899 243.65333387 202.6712265 250.48645592 C202.66726088 252.99385043 202.66839697 255.501259 202.6750145 258.00864792 C202.68321682 261.43228013 202.67292343 264.85537822 202.65797424 268.27897644 C202.66466641 269.27032732 202.67135857 270.26167821 202.67825353 271.28307003 C202.6212041 278.02306034 201.86379613 283.89980633 197.51530457 289.34747314 C196.87979675 289.87727783 196.24428894 290.40708252 195.58952332 290.95294189 C194.96690613 291.49563721 194.34428894 292.03833252 193.70280457 292.59747314 C187.75244994 296.38232029 182.08168293 297.58662691 175.11772156 297.52139282 C174.33657218 297.52607279 173.55542281 297.53075277 172.75060225 297.53557456 C170.15441463 297.54746262 167.55876096 297.53809186 164.96257019 297.52862549 C163.09261774 297.53269395 161.22266769 297.53803736 159.35272217 297.54455566 C154.28871042 297.55820241 149.22488255 297.5529415 144.16086769 297.54341841 C138.854163 297.53580814 133.54747376 297.54287122 128.24076843 297.5475769 C119.33013592 297.55303047 110.41957808 297.5458533 101.50895691 297.53155518 C91.21605365 297.51522946 80.92332868 297.52051825 70.63042974 297.53703439 C61.78349201 297.55066061 52.93660787 297.55256335 44.08966303 297.54471838 C38.80999995 297.54004813 33.5304206 297.53939924 28.25076294 297.54932785 C23.28649512 297.55801173 18.32245655 297.55194956 13.35821342 297.53464508 C11.53938108 297.53068785 9.72052935 297.53180118 7.90170479 297.53843307 C5.41298689 297.54666899 2.92499699 297.53630279 0.43632507 297.52139282 C-0.27808636 297.52808499 -0.9924978 297.53477715 -1.72855806 297.54167211 C-9.89279465 297.44723385 -15.95712553 294.77220349 -21.72297668 289.14044189 C-24.86860313 284.69317692 -25.84414006 280.95525778 -25.85999107 275.56881523 C-25.86506562 274.65088499 -25.87014016 273.73295475 -25.87536848 272.78720844 C-25.87586623 271.7823616 -25.87636399 270.77751476 -25.87687683 269.74221802 C-25.88125908 268.67188171 -25.88564134 267.60154539 -25.89015639 266.49877465 C-25.90354731 262.8999992 -25.90972394 259.30124825 -25.91584778 255.70245361 C-25.9237485 253.1269876 -25.93201743 250.5515227 -25.94062805 247.97605896 C-25.96513172 240.23865049 -25.97977611 232.50123564 -25.99268812 224.76380032 C-25.9964015 222.57759557 -26.00037461 220.39139145 -26.00444078 218.20518732 C-26.0296785 204.62253547 -26.05172663 191.03988257 -26.06416893 177.45721245 C-26.06709851 174.3122342 -26.07006019 171.167256 -26.07307434 168.02227783 C-26.07382039 167.24063126 -26.07456644 166.45898468 -26.0753351 165.65365185 C-26.0879845 152.99590097 -26.12120324 140.33829069 -26.16287617 127.68060552 C-26.20533133 114.67850698 -26.22886807 101.67648036 -26.23408949 88.67431271 C-26.23749953 81.37678215 -26.24920639 74.07947134 -26.28219223 66.78200912 C-26.31318101 59.91520432 -26.31858951 53.04878798 -26.30680847 46.18192482 C-26.30658762 43.6640677 -26.31490211 41.14619288 -26.33246231 38.62839699 C-26.35516523 35.18532751 -26.34685191 31.74364492 -26.33097839 28.30056763 C-26.34486048 27.30910512 -26.35874257 26.31764261 -26.37304533 25.29613578 C-26.29362963 18.28317129 -24.53016571 13.04877014 -20.72297668 7.14044189 C-18.40657043 4.88653564 -18.40657043 4.88653564 -16.16047668 3.57794189 C-15.41668762 3.12290283 -14.67289856 2.66786377 -13.90657043 2.19903564 C-9.34723492 -0.01130411 -4.99586954 -0.00592475 0 0 Z M-6.72297668 6.14044189 C-7.05297668 7.46044189 -7.38297668 8.78044189 -7.72297668 10.14044189 C-8.52735168 10.42919189 -9.33172668 10.71794189 -10.16047668 11.01544189 C-13.00744647 11.91528447 -13.00744647 11.91528447 -13.91047668 14.95294189 C-14.17860168 16.00481689 -14.44672668 17.05669189 -14.72297668 18.14044189 C-15.66047668 20.95294189 -15.66047668 20.95294189 -16.72297668 23.14044189 C-17.71297668 23.47044189 -18.70297668 23.80044189 -19.72297668 24.14044189 C-19.85988458 56.61710824 -19.96605124 89.09369136 -20.02936866 121.57058045 C-20.0368728 125.40571703 -20.04463875 129.24085304 -20.05256653 133.07598877 C-20.05414039 133.83948767 -20.05571425 134.60298657 -20.05733581 135.38962179 C-20.08343594 147.74830487 -20.13073905 160.10682031 -20.18589346 172.46540397 C-20.24202443 185.14869133 -20.27533397 197.83189095 -20.28750765 210.51529741 C-20.29573596 218.34025253 -20.32171317 226.16473379 -20.37047549 233.98954302 C-20.40597378 239.9920622 -20.40970236 245.99417469 -20.40162277 251.99681091 C-20.40327373 254.45746782 -20.41521273 256.91814263 -20.43820953 259.37869263 C-20.46808171 262.73967261 -20.46087906 266.09862853 -20.44450378 269.45965576 C-20.46198083 270.43243579 -20.47945788 271.40521583 -20.49746454 272.40747404 C-20.42054371 278.2519091 -19.38457001 282.04915076 -15.53319603 286.53695762 C-10.38669502 291.0957054 -4.29708247 291.58444563 2.36712646 291.52139282 C3.1408143 291.52607279 3.91450213 291.53075277 4.71163505 291.53557456 C7.28251938 291.54746084 9.85286434 291.53809263 12.42375183 291.52862549 C14.27562265 291.53269399 16.12749104 291.53803744 17.97935486 291.54455566 C22.99371488 291.5582009 28.00788917 291.55294238 33.02225232 291.54341841 C38.27603982 291.5358085 43.52981171 291.54287102 48.78359985 291.5475769 C57.60427193 291.55303009 66.42486856 291.54585379 75.24552917 291.53155518 C85.43734229 291.51522447 95.62897539 291.52052202 105.82078415 291.53703439 C114.57938442 291.55065565 123.33793056 291.55256593 132.09653801 291.54471838 C137.32419055 291.54004605 142.55175852 291.53940506 147.77940559 291.54932785 C152.69360391 291.55800469 157.60757045 291.5519624 162.52174377 291.53464508 C164.32325799 291.53068431 166.12479176 291.53180727 167.92629814 291.53843307 C170.38909515 291.5466548 172.8511536 291.53631989 175.31390381 291.52139282 C176.02344619 291.52808499 176.73298857 291.53477715 177.46403223 291.54167211 C183.39786183 291.47211235 187.89567255 290.006906 192.58952332 286.32794189 C196.94190885 280.68596064 196.55944959 274.35580395 196.52426147 267.5684967 C196.5278831 265.97139651 196.5278831 265.97139651 196.53157789 264.34203166 C196.53721339 260.77452852 196.52855279 257.20720456 196.51994324 253.63970947 C196.52101614 251.08214774 196.52295493 248.52458625 196.5256958 245.96702576 C196.53004168 239.74239984 196.5251038 233.51784045 196.5158455 227.29322175 C196.50545408 220.04604315 196.50553187 212.79887602 196.50601808 205.55169138 C196.50651848 192.62398826 196.49736229 179.6963099 196.48283386 166.76861572 C196.46873812 154.21945749 196.46166348 141.67032104 196.46232605 129.12115479 C196.46236601 128.34780849 196.46240596 127.57446219 196.46244713 126.77768115 C196.46250766 125.6196799 196.46250766 125.6196799 196.46256942 124.4382847 C196.46325886 110.15472672 196.45737263 95.87117801 196.4484162 81.58762303 C196.44539771 76.5334752 196.4443364 71.47932907 196.4438839 66.42518044 C196.44313142 59.62823605 196.43679705 52.83131783 196.42671776 46.03437996 C196.42378864 43.53456005 196.42256822 41.03473749 196.42314529 38.53491592 C196.42363348 35.13373127 196.41800511 31.73261177 196.41073608 28.33143616 C196.41305899 26.83321319 196.41305899 26.83321319 196.41542882 25.30472308 C196.41220437 24.39676728 196.40897992 23.48881148 196.40565777 22.55334187 C196.40460113 21.37520183 196.40460113 21.37520183 196.40352315 20.17326099 C196.35163541 17.93645179 196.35163541 17.93645179 195.27702332 15.14044189 C194.61702332 15.14044189 193.95702332 15.14044189 193.27702332 15.14044189 C193.17389832 14.54231689 193.07077332 13.94419189 192.96452332 13.32794189 C192.17198478 10.80622837 191.36110922 9.7435849 189.27702332 8.14044189 C188.28702332 8.14044189 187.29702332 8.14044189 186.27702332 8.14044189 C186.27702332 7.48044189 186.27702332 6.82044189 186.27702332 6.14044189 C122.58702332 6.14044189 58.89702332 6.14044189 -6.72297668 6.14044189 Z " fill="#383838" transform="translate(53.72297668457031,33.85955810546875)"/>
<path d="M0 0 C3.35154077 1.34061631 3.74411458 2.85180212 5.5 6 C6.02723191 6.81468687 6.02723191 6.81468687 6.56511497 7.64583206 C17.32637441 24.57217332 15.7480359 43.50477483 15.54427171 62.76402235 C15.50239627 67.54036591 15.50934244 72.31667753 15.50968933 77.09317017 C15.50322633 85.0933851 15.46252936 93.09282081 15.39868164 101.09277344 C15.32517271 110.33179108 15.29736342 119.57004728 15.295533 128.80933988 C15.29328432 138.68456883 15.26057062 148.55951646 15.21751952 158.43464327 C15.20704723 161.26911096 15.20197804 164.10354665 15.19800758 166.93803024 C15.19009193 171.38554586 15.16154634 175.83247622 15.11707115 180.2797718 C15.1038108 181.90913502 15.09725571 183.53856889 15.09794617 185.16798592 C15.09766901 187.39436844 15.07275634 189.6191722 15.0415802 191.8453064 C15.02957691 193.71168794 15.02957691 193.71168794 15.01733112 195.61577415 C14.26603286 200.53054322 12.09553891 203.71470477 8.25 206.8125 C3.0402381 209.06216991 -1.3865244 209.63286165 -6.75 207.875 C-10.3846826 206.318299 -12.38084692 204.39064493 -14.5 201 C-15.65884397 197.5234681 -15.72787222 194.33768033 -15.81201172 190.71582031 C-15.83250202 189.96440514 -15.85299232 189.21298996 -15.87410355 188.43880463 C-15.94041383 185.90202275 -15.99826529 183.36514524 -16.0546875 180.828125 C-16.07562344 179.93765724 -16.09655937 179.04718948 -16.11812973 178.12973785 C-16.6564654 154.77690428 -16.65245854 131.42130423 -16.63037109 108.06347656 C-16.62461075 101.91800856 -16.6280131 95.77258367 -16.63394356 89.62711716 C-16.6375845 84.79672937 -16.63639555 79.96635156 -16.63381577 75.13596344 C-16.63315956 72.87021123 -16.63392784 70.60445804 -16.63629532 68.33870697 C-16.64528652 57.35109859 -16.57065008 46.37390571 -16.12792969 35.39404297 C-16.09909258 34.54565731 -16.07025547 33.69727165 -16.04054451 32.82317734 C-15.70031058 25.58896343 -13.88515211 19.8768331 -10.625 13.375 C-9.95404297 11.90933594 -9.95404297 11.90933594 -9.26953125 10.4140625 C-4.39333348 0 -4.39333348 0 0 0 Z M-1.5 15 C-2.17305018 16.60149886 -2.83822227 18.20631029 -3.5 19.8125 C-3.87125 20.70582031 -4.2425 21.59914063 -4.625 22.51953125 C-5.66633237 25.0331433 -5.66633237 25.0331433 -5.5 28 C-2.2 28 1.1 28 4.5 28 C3.89254603 23.14036821 1.77241033 19.2594482 -0.5 15 C-0.83 15 -1.16 15 -1.5 15 Z M-1.0625 32.5 C-2.85880859 32.63921875 -2.85880859 32.63921875 -4.69140625 32.78125 C-5.61824219 32.8534375 -6.54507812 32.925625 -7.5 33 C-7.61676829 54.16613944 -7.70495632 75.33222582 -7.75906086 96.49862194 C-7.78484957 106.3264206 -7.82001285 116.1540192 -7.87719727 125.98168945 C-7.9270118 134.54685626 -7.95928616 143.11187819 -7.97044247 151.67718583 C-7.97696456 156.21311106 -7.99230697 160.74862182 -8.02865028 165.28441429 C-8.06257909 169.5534394 -8.07305937 173.82187917 -8.06553841 178.09102631 C-8.06691436 179.65797672 -8.07686586 181.22494662 -8.09602737 182.79178047 C-8.12091928 184.93211141 -8.11492253 187.07023472 -8.10127258 189.21061707 C-8.10588155 190.40802615 -8.11049051 191.60543524 -8.11523914 192.83912945 C-7.31663222 196.94207563 -5.75171829 198.45566041 -2.5 201 C0.64710302 201.25329784 0.64710302 201.25329784 3.5 200 C5.86543221 197.64873748 6.46536023 196.28652941 6.86914349 192.94655991 C6.86637811 191.74085468 6.86361273 190.53514946 6.86076355 189.29290771 C6.86332682 188.61978743 6.8658901 187.94666714 6.86853105 187.25314927 C6.87347027 184.9989257 6.85697452 182.74537274 6.84057617 180.49121094 C6.83972993 178.87487809 6.84020499 177.25854409 6.84190369 175.64221191 C6.84276516 171.2540581 6.82511475 166.8661498 6.80418181 162.47805309 C6.78544043 157.89230274 6.78366658 153.3065469 6.78010559 148.72076416 C6.77077766 140.03684785 6.74615375 131.3530447 6.71605712 122.66917825 C6.6825364 112.78295338 6.66603296 102.89672314 6.65097082 93.01045561 C6.61960485 72.67357388 6.5668298 52.33679407 6.5 32 C3.98283979 32 1.44405942 32.30531577 -1.0625 32.5 Z " fill="#363636" transform="translate(289.5,95)"/>
<path d="M0 0 C63.69 0 127.38 0 193 0 C192.67 1.32 192.34 2.64 192 4 C193.98 4.99 193.98 4.99 196 6 C194.68 6.33 193.36 6.66 192 7 C191.01 5.515 191.01 5.515 190 4 C187.56580944 3.7152543 185.38781025 3.62842161 182.95291138 3.67047119 C182.21898537 3.6712859 181.48505935 3.67210062 180.72889316 3.67294002 C178.25663638 3.67939508 175.78508947 3.70746011 173.31298828 3.73535156 C171.54581299 3.74441827 169.77863055 3.75217437 168.01144409 3.75871277 C163.20137065 3.78037977 158.39161624 3.82083448 153.58170176 3.86481571 C148.55476366 3.90789938 143.52773837 3.93475614 138.5007019 3.96356201 C130.05522485 4.01431027 121.60989233 4.07636984 113.16455078 4.14599609 C102.32048919 4.23534083 91.47638985 4.30627111 80.63215828 4.37128067 C71.31805496 4.42725332 62.00401216 4.49159241 52.68997335 4.55733013 C49.69233898 4.57814565 46.6946987 4.59783174 43.69705582 4.61737823 C38.98735906 4.64863057 34.27772965 4.6850921 29.56810379 4.72561073 C27.83790865 4.73976976 26.10769916 4.75228301 24.37747955 4.76304436 C22.01860809 4.77803028 19.65986517 4.79901677 17.30105591 4.82159424 C16.27002328 4.82613094 16.27002328 4.82613094 15.2181617 4.83075929 C12.00293569 4.8679196 9.07723921 5.02550828 6 6 C6 6.66 6 7.32 6 8 C4.329375 8.680625 4.329375 8.680625 2.625 9.375 C-0.96199008 10.72465986 -0.96199008 10.72465986 -3 13 C-3.33101534 15.30338802 -3.33101534 15.30338802 -3.31884766 18.00048828 C-3.33871735 19.04141632 -3.35858704 20.08234436 -3.37905884 21.15481567 C-3.39638565 22.8454866 -3.39638565 22.8454866 -3.4140625 24.5703125 C-3.43342865 25.72167694 -3.4527948 26.87304138 -3.4727478 28.05929565 C-3.53267372 31.74778769 -3.57898126 35.43631072 -3.625 39.125 C-3.66316777 41.62110759 -3.70221878 44.11720185 -3.7421875 46.61328125 C-3.83838588 52.74206937 -3.92339506 58.87093738 -4 65 C-4.33 65 -4.66 65 -5 65 C-5.02505615 64.03586182 -5.0501123 63.07172363 -5.07592773 62.07836914 C-5.16985306 58.51312158 -5.27010939 54.94807567 -5.37231445 51.38305664 C-5.41571985 49.83785711 -5.45739071 48.29260786 -5.49731445 46.74731445 C-5.55488199 44.53060904 -5.61861424 42.3141552 -5.68359375 40.09765625 C-5.70030624 39.4028566 -5.71701874 38.70805695 -5.73423767 37.99220276 C-5.56502856 34.71237971 -5.56502856 34.71237971 -7 32 C-7.33 27.38 -7.66 22.76 -8 18 C-8 94.23 -8 170.46 -8 249 C-8.99 249.33 -9.98 249.66 -11 250 C-11.99 251.98 -11.99 251.98 -13 254 C-13 176.12 -13 98.24 -13 18 C-12.01 17.67 -11.02 17.34 -10 17 C-8.91698965 14.70401807 -7.92203709 12.36522558 -7 10 C-5.56075223 6.67173953 -5.17730109 6.11820073 -2 4 C-1.34 2.68 -0.68 1.36 0 0 Z " fill="#454444" transform="translate(47,40)"/>
<path d="M0 0 C0.33 0 0.66 0 1 0 C1.06058594 1.07121094 1.12117188 2.14242187 1.18359375 3.24609375 C1.26798537 4.64324391 1.35263406 6.04037857 1.4375 7.4375 C1.47681641 8.14455078 1.51613281 8.85160156 1.55664062 9.58007812 C1.47624438 13.08690419 1.47624438 13.08690419 3 16 C3.38768023 20.35975283 3.43525687 24.7462864 3.56079102 29.12084961 C3.58189599 29.81860248 3.60300097 30.51635536 3.62474549 31.23525226 C4.18818463 50.34628028 4.09849221 69.46179118 4.04459953 88.5789814 C4.02595787 95.20783608 4.016621 101.83668592 4.00868225 108.46556091 C3.98477671 127.28573951 3.94837973 146.10588436 3.90405273 164.92602539 C3.87950359 175.38340423 3.86214972 185.8407709 3.85249335 196.29817432 C3.84597323 202.88457712 3.83046995 209.47087706 3.80817592 216.05724442 C3.79644493 220.13834705 3.79307873 224.21942479 3.79207802 228.30054283 C3.78993269 230.18916671 3.78434843 232.07779033 3.7750473 233.96639252 C3.76283331 236.54596519 3.76301815 239.12525622 3.76622009 241.70484924 C3.75971229 242.44860308 3.75320449 243.19235691 3.74649948 243.95864874 C3.76943507 248.71457254 4.39425106 252.56486546 6 257 C10.17665958 259.90338666 15.87375921 259.44822181 20.8125 259.625 C21.69615234 259.66367187 22.57980469 259.70234375 23.49023438 259.7421875 C25.65982972 259.83600784 27.82988547 259.91907326 30 260 C29.67 260.66 29.34 261.32 29 262 C26.28553021 262.31241455 23.66090639 262.51336592 20.9375 262.625 C20.17888672 262.66367187 19.42027344 262.70234375 18.63867188 262.7421875 C16.75952805 262.83673562 14.87979664 262.91946756 13 263 C13 263.66 13 264.32 13 265 C13.66 265.66 14.32 266.32 15 267 C14 268 14 268 12.14453125 268.01953125 C5.4280911 267.42326437 1.35158309 265.75850548 -3.14453125 260.484375 C-5.62488239 255.82653665 -5.51916838 252.12376778 -5.375 246.9375 C-5.37371094 246.05255859 -5.37242188 245.16761719 -5.37109375 244.25585938 C-5.31119101 239.819729 -5.24435264 235.95547256 -3 232 C-2.34 231.67 -1.68 231.34 -1 231 C-1.00092179 229.81556336 -1.00184359 228.63112673 -1.00279331 227.41079807 C-1.02442974 199.32358181 -1.04092977 171.23636596 -1.05106533 143.14914316 C-1.0523161 139.69553879 -1.05361042 136.24193443 -1.05493164 132.78833008 C-1.05519395 132.10075099 -1.05545626 131.4131719 -1.05572652 130.70475709 C-1.06008327 119.55713832 -1.06797084 108.40952468 -1.0771528 97.26190896 C-1.08648921 85.83182861 -1.09198068 74.40175245 -1.09408849 62.97166818 C-1.09539604 56.54803777 -1.09848461 50.12441901 -1.10573006 43.70079231 C-1.11248627 37.66233707 -1.11461778 31.62389835 -1.11310768 25.58543968 C-1.11338419 23.36214229 -1.11539167 21.13884437 -1.11920547 18.91555023 C-1.12413649 15.89432741 -1.12300049 12.87316808 -1.12025452 9.85194397 C-1.12462378 8.51393607 -1.12462378 8.51393607 -1.12908131 7.14889771 C-1.11412121 1.11412121 -1.11412121 1.11412121 0 0 Z " fill="#514F4F" transform="translate(39,57)"/>
<path d="M0 0 C0.66 0 1.32 0 2 0 C2.00021737 0.55595795 2.00043474 1.11191589 2.00065869 1.68472105 C2.01417486 34.63610996 2.05365745 67.58735337 2.12685562 100.53866205 C2.13562236 104.49525672 2.14417217 108.45185183 2.15258789 112.40844727 C2.15426695 113.19613339 2.15594602 113.98381952 2.15767596 114.79537492 C2.18434501 127.5491093 2.19344097 140.30279874 2.19604143 153.05655814 C2.199101 166.14332842 2.22104804 179.22996877 2.26052457 192.31668037 C2.28428825 200.39179037 2.29332345 208.46664097 2.28351311 216.54178112 C2.2775684 222.73408122 2.29790348 228.92604154 2.32806015 235.11826515 C2.33631189 237.65831438 2.3360218 240.19840776 2.32659721 242.73845291 C2.315008 246.20474855 2.33404653 249.66957608 2.36076355 253.13575745 C2.35009029 254.14257791 2.33941703 255.14939837 2.32842034 256.18672854 C2.42280186 262.74321302 3.52649795 266.12829028 8 271 C10.29124991 272.26425985 12.52876901 273.09705022 15 274 C15.33 274.66 15.66 275.32 16 276 C16.96705809 275.99815641 17.93411617 275.99631283 18.93047905 275.99441338 C42.43125824 275.9500685 65.93203201 275.91717429 89.43284416 275.89637566 C100.7975297 275.88605097 112.16218764 275.87196793 123.52685547 275.84912109 C133.42911297 275.82922364 143.3313505 275.81629225 153.23362744 275.81182301 C158.4796789 275.80920943 163.7256732 275.80304179 168.97170639 275.78853989 C173.90459674 275.77501348 178.83740613 275.77076729 183.77031326 275.77378464 C185.58521718 275.77323225 187.40012367 275.76922549 189.2150116 275.76158905 C191.68420344 275.75170499 194.1530856 275.75400696 196.62228394 275.75949097 C197.71079283 275.75075244 197.71079283 275.75075244 198.8212918 275.74183738 C203.77175758 275.77175758 203.77175758 275.77175758 206 278 C143.63 278 81.26 278 17 278 C17 278.66 17 279.32 17 280 C17.99 280.33 18.98 280.66 20 281 C12.24059974 280.96760167 6.80917506 279.271062 1 274 C-1.125 270.875 -1.125 270.875 -2 268 C-1.69022708 266.66099678 -1.35422577 265.32793561 -1 264 C-0.91370053 262.46965165 -0.87797242 260.93601223 -0.87974548 259.40323353 C-0.87837113 258.479753 -0.87699678 257.55627246 -0.87558079 256.60480767 C-0.87917575 255.59382176 -0.88277071 254.58283584 -0.88647461 253.54121399 C-0.88632575 252.46452758 -0.88617689 251.38784118 -0.88602352 250.27852792 C-0.88671985 246.65872873 -0.89457043 243.03897985 -0.90234375 239.41918945 C-0.90426218 236.8291222 -0.90572633 234.23905457 -0.9067688 231.64898682 C-0.90965588 226.06635717 -0.91609562 220.48374074 -0.92483521 214.90111732 C-0.9373805 206.82848021 -0.9434638 198.75584801 -0.94776857 190.68320277 C-0.95483627 177.58461501 -0.96563968 164.48603343 -0.97949219 151.38745117 C-0.98073391 150.21144012 -0.98073391 150.21144012 -0.98200071 149.01167127 C-0.98790238 143.44528074 -0.99393691 137.87889036 -1 132.3125 C-1.0069298 125.94881195 -1.01379635 119.58512383 -1.02050781 113.22143555 C-1.02133594 112.43747201 -1.02216407 111.65350847 -1.02301729 110.84578846 C-1.03668413 97.79288555 -1.04645301 84.73998253 -1.05341816 71.68707436 C-1.05790837 63.63017451 -1.0659669 55.57329289 -1.07856297 47.51640155 C-1.08795333 41.35210573 -1.09232698 35.18781606 -1.0948143 29.02351379 C-1.09669574 26.48737588 -1.10031515 23.95123861 -1.10574722 21.41510582 C-1.1128987 17.96933388 -1.11400387 14.52361311 -1.11352539 11.07783508 C-1.11712035 10.060157 -1.12071531 9.04247892 -1.12441921 7.99396211 C-1.12304486 7.07830482 -1.12167051 6.16264753 -1.12025452 5.21924305 C-1.12117631 4.42285949 -1.1220981 3.62647592 -1.12304783 2.80595952 C-1 1 -1 1 0 0 Z " fill="#222021" transform="translate(32,50)"/>
<path d="M0 0 C3 1 3 1 4 3 C4.09242431 5.22537243 4.11748469 7.45362083 4.11352539 9.6809082 C4.11374868 10.72266063 4.11374868 10.72266063 4.11397648 11.78545856 C4.11327931 14.12392983 4.10542494 16.46232356 4.09765625 18.80078125 C4.09573809 20.47268632 4.09427381 22.14459196 4.0932312 23.8164978 C4.09006467 27.42222144 4.08378785 31.0279218 4.07516479 34.63363647 C4.0616788 40.33038155 4.05575602 46.0271188 4.05102539 51.72387695 C4.03896358 64.84530248 4.01690534 77.96670775 3.99479675 91.08811951 C3.97464095 103.11126459 3.95656597 115.13440291 3.94658184 127.1575613 C3.94158603 132.82538926 3.93170641 138.49318181 3.91815186 144.16099548 C3.91071437 147.68137171 3.90738103 151.20174299 3.9051857 154.72212601 C3.90330698 156.35964882 3.89969284 157.99717066 3.89425278 159.63468552 C3.88708126 161.86284409 3.88599703 164.09092372 3.88647461 166.3190918 C3.88314369 168.19288765 3.88314369 168.19288765 3.87974548 170.10453796 C3.79946371 172.9403549 3.79946371 172.9403549 5 175 C5.66 174.01 6.32 173.02 7 172 C6.73678471 175.77275246 6.24776305 177.68665262 3.875 180.6875 C-0.46468976 184.17812002 -4.40747585 186.37997326 -10.0625 185.9375 C-14.09497827 185.20290125 -16.86739137 183.69550045 -20 181 C-22.76713811 176.48211816 -23.46188625 172.63016418 -23.50732422 167.43164062 C-23.52498463 166.68514252 -23.54264503 165.93864441 -23.56084061 165.16952515 C-23.61536413 162.66514678 -23.6480033 160.16101462 -23.6796875 157.65625 C-23.71238146 155.8463014 -23.74575673 154.036365 -23.77975464 152.22644043 C-24.16730468 129.76870916 -24.15134901 107.30407584 -24.13037109 84.84375 C-24.12459801 78.66201581 -24.12802093 72.48032435 -24.13394356 66.29859161 C-24.13757459 61.45120934 -24.13640023 56.60383706 -24.13381577 51.75645447 C-24.13315748 49.47623184 -24.13393558 47.19600825 -24.13629532 44.91578674 C-24.14657333 32.23830856 -23.94483802 19.64507093 -23 7 C-22.67 7 -22.34 7 -22 7 C-21.67 10.63 -21.34 14.26 -21 18 C-20.01 17.67 -19.02 17.34 -18 17 C-17.99365209 18.21232127 -17.99365209 18.21232127 -17.98717594 19.44913387 C-17.88401495 39.08577704 -17.77539935 58.72238303 -17.66066074 78.35896206 C-17.60530726 87.85493661 -17.55182184 97.35091491 -17.50268555 106.84692383 C-17.45986968 115.12055205 -17.41359835 123.39415238 -17.36312145 131.66773754 C-17.33649951 136.05131952 -17.311646 140.43489588 -17.29092598 144.81851006 C-17.27139205 148.93966213 -17.24725821 153.06076099 -17.21950912 157.18186569 C-17.21012143 158.69885228 -17.20245238 160.21585057 -17.19658089 161.73285484 C-17.18834873 163.79510164 -17.17408059 165.85721826 -17.15821838 167.91941833 C-17.15176583 169.07626853 -17.14531328 170.23311872 -17.1386652 171.42502499 C-17.29122895 173.93145783 -17.29122895 173.93145783 -16 175 C-15.01 174.01 -15.01 174.01 -14 173 C-12.02 175.475 -12.02 175.475 -10 178 C-11.32 178.33 -12.64 178.66 -14 179 C-10.26562152 179.87867729 -6.83225427 180.08912219 -3 180 C-3 179.34 -3 178.68 -3 178 C-2.02508968 177.39988067 -2.02508968 177.39988067 -1.0304842 176.78763771 C1.2975749 175.11664102 1.2975749 175.11664102 1.49498463 172.0635128 C1.49259627 170.85382647 1.49020792 169.64414013 1.48774719 168.39779663 C1.49187046 167.72371376 1.49599372 167.04963088 1.50024194 166.35512125 C1.50918875 164.09099196 1.48949394 161.82801454 1.4699707 159.56396484 C1.47047938 157.94267639 1.47273432 156.32138767 1.47660828 154.70010376 C1.48203884 150.29056226 1.46258172 145.8814392 1.43850732 141.47197294 C1.41723028 136.85572825 1.41780652 132.23948541 1.41581726 127.62319946 C1.4093632 119.86379797 1.38809924 112.10455371 1.35668945 104.34521484 C1.31649002 94.40176044 1.29901435 84.45840884 1.28938007 74.51488304 C1.28105648 65.95519195 1.26382181 57.39552241 1.24434257 48.83585024 C1.24030019 47.00189416 1.23655962 45.16793739 1.2331202 43.33398008 C1.22328833 38.09786341 1.20871022 32.8618072 1.1862812 27.62572861 C1.18019467 26.04275559 1.17572476 24.45977535 1.17303848 22.87679291 C1.15878063 15.19114547 1.06912408 7.62416959 0 0 Z " fill="#1E1E1E" transform="translate(297,118)"/>
<path d="M0 0 C0.78040409 -0.00438225 1.56080819 -0.00876451 2.36486089 -0.01327956 C4.98245002 -0.02664444 7.60000549 -0.03284124 10.21762085 -0.03897095 C12.09358878 -0.04687378 13.9695552 -0.05514285 15.84552002 -0.06375122 C22.00908968 -0.08995201 28.17266607 -0.1052777 34.33627319 -0.11953735 C36.45960876 -0.12489798 38.58294428 -0.13027549 40.70627975 -0.13566971 C49.5404101 -0.15729626 58.37453863 -0.17603201 67.20868874 -0.1872921 C79.86045121 -0.20352526 92.51190628 -0.23669044 105.16355288 -0.29369295 C114.0639285 -0.33242378 122.96422202 -0.35192857 131.86467969 -0.35721266 C137.17811093 -0.360862 142.49121415 -0.37283905 147.80455399 -0.4053154 C152.80659743 -0.43545089 157.80811533 -0.44168823 162.81023026 -0.42993164 C164.64114341 -0.42971136 166.47208134 -0.43797853 168.30290985 -0.45558548 C186.83411136 -0.62402731 186.83411136 -0.62402731 194.29721069 5.15390015 C197.97690826 9.10968329 199.42279199 13.3029505 199.42025852 18.64602947 C199.42224957 19.57161905 199.42424062 20.49720863 199.426292 21.45084637 C199.42337916 22.4693182 199.42046632 23.48779003 199.41746521 24.53712463 C199.41874685 26.15805628 199.41874685 26.15805628 199.42005438 27.81173402 C199.42170804 31.45078972 199.41618962 35.08979983 199.41073608 38.72885132 C199.41045416 41.33024596 199.41061204 43.93164068 199.41117859 46.53303528 C199.4117034 52.14296635 199.40856109 57.7528858 199.40294075 63.36281395 C199.39481993 71.47386635 199.39220993 79.58491312 199.39095276 87.69596914 C199.38876316 100.85504503 199.38210555 114.01411473 199.37265015 127.17318726 C199.36347366 139.95736663 199.35639398 152.74154432 199.35214233 165.52572632 C199.35187961 166.31350498 199.35161689 167.10128364 199.3513462 167.91293439 C199.35004118 171.86491728 199.34877747 175.81690019 199.3475343 179.76888311 C199.33716454 212.5638933 199.31954872 245.35889589 199.29721069 278.15390015 C198.30721069 277.82390015 197.31721069 277.49390015 196.29721069 277.15390015 C196.29778027 276.33900695 196.29778027 276.33900695 196.29836136 275.50765127 C196.32074056 243.30787939 196.33789783 211.10810958 196.34827602 178.90833172 C196.34952673 175.04186428 196.35082105 171.17539686 196.35214233 167.30892944 C196.35240464 166.53918701 196.35266695 165.76944457 196.35293721 164.9763766 C196.35728824 152.5136401 196.36517269 140.05090822 196.37436349 127.58817445 C196.38371578 114.79979061 196.38926965 102.01140917 196.39129919 89.22302204 C196.39267113 81.33223957 196.39700402 73.44147013 196.40512716 65.55069167 C196.41103911 59.49953389 196.41166565 53.44838733 196.41031837 47.39722633 C196.41059374 44.91521499 196.4125862 42.43320316 196.41641617 39.95119476 C196.4213867 36.56423146 196.4201965 33.17732408 196.41746521 29.7903595 C196.42037805 28.80688473 196.42329089 27.82340996 196.426292 26.81013292 C196.41539398 21.81471408 196.15251699 17.07788176 195.29721069 12.15390015 C194.63721069 12.15390015 193.97721069 12.15390015 193.29721069 12.15390015 C192.84346069 11.37015015 192.38971069 10.58640015 191.92221069 9.77890015 C190.22069956 7.03030524 189.25201985 6.27468983 186.29721069 5.15390015 C186.29721069 4.49390015 186.29721069 3.83390015 186.29721069 3.15390015 C120.95721069 3.48390015 55.61721069 3.81390015 -11.70278931 4.15390015 C-11.70278931 4.81390015 -11.70278931 5.47390015 -11.70278931 6.15390015 C-13.57778931 8.27890015 -13.57778931 8.27890015 -15.70278931 10.15390015 C-16.36278931 10.15390015 -17.02278931 10.15390015 -17.70278931 10.15390015 C-18.03278931 11.14390015 -18.36278931 12.13390015 -18.70278931 13.15390015 C-19.36278931 12.82390015 -20.02278931 12.49390015 -20.70278931 12.15390015 C-20.04278931 10.17390015 -19.38278931 8.19390015 -18.70278931 6.15390015 C-18.04278931 6.15390015 -17.38278931 6.15390015 -16.70278931 6.15390015 C-16.70278931 5.49390015 -16.70278931 4.83390015 -16.70278931 4.15390015 C-11.18443703 0.32171106 -6.57477593 0.00449175 0 0 Z " fill="#1E1E1E" transform="translate(53.702789306640625,36.846099853515625)"/>
<path d="M0 0 C0.33 0 0.66 0 1 0 C1 85.14 1 170.28 1 258 C1.66 258.33 2.32 258.66 3 259 C3.33 257.68 3.66 256.36 4 255 C4.66 255 5.32 255 6 255 C4.90756754 261.79735755 2.57513777 266.74717055 -3 271 C-11.80838751 276.11725682 -21.23990155 275.54664124 -31.07006836 275.4699707 C-32.88931402 275.47048015 -34.7085599 275.47274004 -36.52780151 275.47660828 C-41.44269272 275.48200441 -46.35720367 275.46268164 -51.27202678 275.43850732 C-56.42088665 275.41714857 -61.56974605 275.41780372 -66.71864319 275.41581726 C-75.3558707 275.40938118 -83.99295598 275.3881716 -92.63012695 275.35668945 C-103.72299833 275.31631007 -114.81577737 275.29898669 -125.90871334 275.28938007 C-135.44769151 275.28108685 -144.98665007 275.26385395 -154.52561116 275.24434257 C-156.57315744 275.24029234 -158.62070435 275.23655298 -160.66825175 275.2331202 C-166.49864585 275.22334413 -172.32898449 275.20887309 -178.15934372 275.1862812 C-179.92706233 275.18015229 -181.69478766 275.17570571 -183.46251488 275.17303848 C-185.86945786 275.1690651 -188.27629671 275.15895517 -190.68321228 275.14717102 C-191.38747799 275.14735538 -192.09174371 275.14753975 -192.8173508 275.14772969 C-195.82692744 275.12690463 -198.11900599 274.96033134 -201 274 C-201 273.34 -201 272.68 -201 272 C-139.29 271.67 -77.58 271.34 -14 271 C-76.37 271 -138.74 271 -203 271 C-202.67 270.01 -202.34 269.02 -202 268 C-200.5513611 268.00414807 -200.5513611 268.00414807 -199.07345676 268.00837994 C-175.56188846 268.07501276 -152.05033243 268.12429352 -128.53868961 268.15543652 C-117.16858118 268.17089778 -105.79853516 268.19197321 -94.4284668 268.22631836 C-84.51698576 268.2562433 -74.60554994 268.27558039 -64.69402498 268.28226548 C-59.44715969 268.28617248 -54.20042373 268.29533917 -48.95359993 268.31719017 C-44.01163259 268.33760415 -39.06984745 268.34382385 -34.12784195 268.33932304 C-32.31748526 268.34014605 -30.50712227 268.34608234 -28.69680214 268.35761642 C-15.75861743 269.09279463 -15.75861743 269.09279463 -4 265 C-0.61273252 258.86792989 -0.56717249 252.02145313 -0.60127258 245.19895935 C-0.59462576 244.14588012 -0.58797893 243.09280089 -0.58113068 242.00781018 C-0.56255715 238.49786421 -0.56510224 234.98826082 -0.56762695 231.47827148 C-0.55860638 228.95480368 -0.54827844 226.43134026 -0.53674316 223.90788269 C-0.51488471 218.48465948 -0.50208096 213.0615365 -0.49761391 207.63827324 C-0.49113962 199.79729617 -0.46817984 191.95643457 -0.44127061 184.11550415 C-0.39805054 171.39236735 -0.36805653 158.66923542 -0.34643555 145.94604492 C-0.32541151 133.59087733 -0.298124 121.23574959 -0.26245117 108.88061523 C-0.26025235 108.11830888 -0.25805352 107.35600252 -0.25578807 106.57059597 C-0.24471806 102.74610914 -0.23352532 98.92162268 -0.22227156 95.09713638 C-0.12915417 63.39812378 -0.05774616 31.69909738 0 0 Z " fill="#2D2D2D" transform="translate(250,56)"/>
<path d="M0 0 C1.89492188 0.01353516 1.89492188 0.01353516 3.828125 0.02734375 C4.79234375 0.03894531 5.7565625 0.05054688 6.75 0.0625 C6.75 0.3925 6.75 0.7225 6.75 1.0625 C4.77 1.3925 2.79 1.7225 0.75 2.0625 C0.75 2.3925 0.75 2.7225 0.75 3.0625 C-0.46236328 3.24425781 -0.46236328 3.24425781 -1.69921875 3.4296875 C-2.76785156 3.59726562 -3.83648437 3.76484375 -4.9375 3.9375 C-5.99324219 4.09992187 -7.04898438 4.26234375 -8.13671875 4.4296875 C-11.04794914 5.02143069 -13.53955607 5.8656806 -16.25 7.0625 C-16.25 7.7225 -16.25 8.3825 -16.25 9.0625 C-16.91 9.0625 -17.57 9.0625 -18.25 9.0625 C-18.91 11.0425 -19.57 13.0225 -20.25 15.0625 C-19.59 15.0625 -18.93 15.0625 -18.25 15.0625 C-17.92 14.4025 -17.59 13.7425 -17.25 13.0625 C-16.59 13.0625 -15.93 13.0625 -15.25 13.0625 C-14.59 11.7425 -13.93 10.4225 -13.25 9.0625 C-12.59 9.0625 -11.93 9.0625 -11.25 9.0625 C-11.25 8.4025 -11.25 7.7425 -11.25 7.0625 C-9.6 6.7325 -7.95 6.4025 -6.25 6.0625 C-6.58 7.3825 -6.91 8.7025 -7.25 10.0625 C-7.91 10.0625 -8.57 10.0625 -9.25 10.0625 C-9.58 10.7225 -9.91 11.3825 -10.25 12.0625 C-10.91 12.7225 -11.57 13.3825 -12.25 14.0625 C-12.394375 14.64 -12.53875 15.2175 -12.6875 15.8125 C-13.43561452 18.80495808 -14.82583368 21.33800791 -16.25 24.0625 C-17.24 24.0625 -18.23 24.0625 -19.25 24.0625 C-19.25 21.4225 -19.25 18.7825 -19.25 16.0625 C-19.91 16.3925 -20.57 16.7225 -21.25 17.0625 C-21.25 104.8425 -21.25 192.6225 -21.25 283.0625 C-22.24 283.3925 -23.23 283.7225 -24.25 284.0625 C-25.08902394 281.13574125 -25.37806627 278.53159479 -25.38701439 275.49087334 C-25.39208893 274.57294309 -25.39716347 273.65501285 -25.40239179 272.70926654 C-25.40288955 271.7044197 -25.40338731 270.69957287 -25.40390015 269.66427612 C-25.4082824 268.59393981 -25.41266465 267.5236035 -25.4171797 266.42083275 C-25.43057062 262.82205731 -25.43674725 259.22330635 -25.44287109 255.62451172 C-25.45077181 253.04904571 -25.45904075 250.4735808 -25.46765137 247.89811707 C-25.49215504 240.16070859 -25.50679943 232.42329374 -25.51971143 224.68585843 C-25.52342482 222.49965367 -25.52739793 220.31344955 -25.5314641 218.12724543 C-25.55670182 204.54459357 -25.57874995 190.96194068 -25.59119225 177.37927055 C-25.59412183 174.23429231 -25.59708351 171.0893141 -25.60009766 167.94433594 C-25.60084371 167.16268936 -25.60158976 166.38104279 -25.60235842 165.57570995 C-25.61500782 152.91795908 -25.64822655 140.2603488 -25.68989949 127.60266362 C-25.73235464 114.60056509 -25.75589139 101.59853847 -25.76111281 88.59637082 C-25.76452284 81.29884026 -25.77622971 74.00152945 -25.80921555 66.70406723 C-25.84020432 59.83726242 -25.84561283 52.97084609 -25.83383179 46.10398293 C-25.83361094 43.5861258 -25.84192543 41.06825099 -25.85948563 38.55045509 C-25.88218854 35.10738561 -25.87387522 31.66570302 -25.85800171 28.22262573 C-25.8718838 27.23116322 -25.88576588 26.23970072 -25.90006864 25.21819389 C-25.82065294 18.2052294 -24.05718902 12.97082825 -20.25 7.0625 C-17.93359375 4.80859375 -17.93359375 4.80859375 -15.6875 3.5 C-14.94371094 3.04496094 -14.19992188 2.58992188 -13.43359375 2.12109375 C-8.91660759 -0.06871528 -5.00910564 -0.04638061 0 0 Z " fill="#393637" transform="translate(53.25,33.9375)"/>
<path d="M0 0 C1.32 0.66 2.64 1.32 4 2 C1.99404922 5.58629886 -0.15731042 8.41409202 -3.0475769 11.32846069 C-3.86906219 12.16136627 -4.69054749 12.99427185 -5.53692627 13.85241699 C-6.43465759 14.75238403 -7.33238892 15.65235107 -8.25732422 16.57958984 C-9.21554335 17.54707441 -10.17336812 18.51494971 -11.13082886 19.48318481 C-13.72500644 22.1035105 -16.32574843 24.71722041 -18.92857504 27.32895231 C-20.55454406 28.96079355 -22.17933664 30.59379732 -23.80377579 32.22716141 C-28.88706293 37.33776008 -33.9743113 42.44436559 -39.06740367 47.54519308 C-44.94694722 53.43371609 -50.81315141 59.33511595 -56.66820133 65.24799192 C-61.1970136 69.81997479 -65.73722938 74.38042362 -70.28633893 78.93221056 C-73.00282203 81.65079252 -75.71419912 84.37404455 -78.41384506 87.10935593 C-80.95020472 89.67857325 -83.50037667 92.23321197 -86.06200027 94.77723312 C-87.44876028 96.16170877 -88.82061105 97.56106766 -90.1920166 98.96075439 C-91.01914154 99.77674103 -91.84626648 100.59272766 -92.69845581 101.43344116 C-93.41263609 102.15055456 -94.12681637 102.86766796 -94.86263847 103.60651207 C-97 105 -97 105 -99.76884651 104.72290993 C-100.50512716 104.48434965 -101.24140781 104.24578938 -102 104 C-100.59835111 99.23439379 -97.84588526 96.04117557 -94 93 C-93.34 93 -92.68 93 -92 93 C-91.76925781 92.44183594 -91.53851563 91.88367188 -91.30078125 91.30859375 C-89.65466491 88.38710799 -87.58926868 86.39945334 -85.1875 84.0625 C-84.33542969 83.22847656 -83.48335937 82.39445312 -82.60546875 81.53515625 C-81.74566406 80.69855469 -80.88585937 79.86195313 -80 79 C-77.44435206 76.46032486 -74.9080827 73.90560217 -72.39453125 71.32421875 C-71.11642578 70.01904297 -71.11642578 70.01904297 -69.8125 68.6875 C-68.95269531 67.80449219 -68.09289062 66.92148438 -67.20703125 66.01171875 C-65 64 -65 64 -63 64 C-62.75894531 63.43152344 -62.51789063 62.86304688 -62.26953125 62.27734375 C-60.75031912 59.55211092 -58.92581019 57.73309661 -56.6875 55.5625 C-55.92824219 54.82128906 -55.16898438 54.08007812 -54.38671875 53.31640625 C-53.59910156 52.55199219 -52.81148437 51.78757813 -52 51 C-49.37127911 48.38812988 -46.76183115 45.75946809 -44.17578125 43.10546875 C-43.2213791 42.13278804 -42.26695188 41.16013192 -41.3125 40.1875 C-40.82716797 39.68541016 -40.34183594 39.18332031 -39.84179688 38.66601562 C-38.59875394 37.40582727 -37.30300108 36.19808956 -36 35 C-35.34 35 -34.68 35 -34 35 C-33.68832886 34.20045898 -33.68832886 34.20045898 -33.37036133 33.38476562 C-31.44952512 30.04203838 -28.79644165 27.53132691 -26.07421875 24.84375 C-25.4896138 24.25960327 -24.90500885 23.67545654 -24.3026886 23.0736084 C-23.06686913 21.84080485 -21.82862526 20.6104275 -20.58813477 19.38232422 C-18.69948591 17.51187044 -16.81890101 15.63360036 -14.93945312 13.75390625 C-13.73484451 12.55421588 -12.52978102 11.35498204 -11.32421875 10.15625 C-10.76570724 9.59885132 -10.20719574 9.04145264 -9.63175964 8.46716309 C-6.56151086 5.4336142 -3.43086866 2.63294595 0 0 Z " fill="#393939" transform="translate(191,130)"/>
<path d="M0 0 C5.28 0.66 10.56 1.32 16 2 C15.34 3.32 14.68 4.64 14 6 C9.71 6 5.42 6 1 6 C1 61.11 1 116.22 1 173 C-2 170 -2 170 -2.37473011 167.03113556 C-2.37456237 165.80628197 -2.37439463 164.58142838 -2.3742218 163.31945801 C-2.37819621 162.63705819 -2.38217061 161.95465837 -2.38626546 161.25157976 C-2.39590727 158.95982704 -2.38405951 156.66868875 -2.37231445 154.37695312 C-2.37474181 152.73607655 -2.37846058 151.09520145 -2.38337708 149.45433044 C-2.39279748 144.99362643 -2.38335104 140.53314139 -2.37004495 136.07245445 C-2.35874522 131.40934584 -2.36283681 126.74624825 -2.36479187 122.08312988 C-2.36567531 114.25150974 -2.35458393 106.41997608 -2.33618164 98.58837891 C-2.31501325 89.52757845 -2.31150384 80.46690471 -2.3177436 71.40608454 C-2.32343388 62.69810973 -2.31779557 53.99017966 -2.30657005 45.2822113 C-2.3019196 41.57253697 -2.30105214 37.86288996 -2.3031559 34.1532135 C-2.30503646 29.78658403 -2.29695281 25.42008394 -2.2810955 21.05348396 C-2.27684488 19.44863991 -2.27600731 17.84378275 -2.27878571 16.23893547 C-2.28199706 14.05266126 -2.27295248 11.86677618 -2.26069641 9.68054199 C-2.25864354 8.4556884 -2.25659067 7.23083481 -2.25447559 5.96886444 C-2 3 -2 3 0 0 Z " fill="#373737" transform="translate(281,122)"/>
<path d="M0 0 C1.71249427 -0.00135701 3.42498825 -0.00313862 5.13748169 -0.00531006 C9.76085064 -0.00984599 14.38419714 -0.00811143 19.00756645 -0.00493097 C23.85127699 -0.00239076 28.69498567 -0.00474923 33.53869629 -0.00631714 C41.66219426 -0.00813259 49.78568311 -0.00574745 57.90917969 -0.00097656 C67.30809998 0.00447952 76.70699863 0.00269115 86.10591841 -0.00280297 C94.18082092 -0.00733442 102.25571691 -0.00798493 110.33062029 -0.0053643 C115.15172716 -0.00380359 119.97282383 -0.00360245 124.79393005 -0.00690079 C129.31819555 -0.00978045 133.84243295 -0.00780207 138.3666954 -0.00200653 C140.03002246 -0.00068008 141.69335187 -0.00107112 143.35667801 -0.0032692 C145.61945018 -0.00598479 147.88213117 -0.0025947 150.14489746 0.00241089 C151.41320152 0.00278791 152.68150558 0.00316494 153.9882431 0.00355339 C156.92382812 0.12939453 156.92382812 0.12939453 158.92382812 1.12939453 C158.92382812 1.78939453 158.92382812 2.44939453 158.92382812 3.12939453 C135.26306767 3.17608298 111.6023141 3.21136789 87.94151688 3.23301888 C76.95578727 3.2433383 65.97008626 3.25741136 54.984375 3.28027344 C45.41097646 3.30018691 35.83759862 3.31310612 26.26417994 3.31757152 C21.19356267 3.32018236 16.12300463 3.32633282 11.05240631 3.34085464 C6.28202261 3.35440629 1.51172269 3.35862207 -3.25867844 3.35560989 C-5.01146525 3.35616114 -6.7642548 3.36015296 -8.51702499 3.36780548 C-10.90669696 3.37772892 -13.29605094 3.37537299 -15.68572998 3.36990356 C-16.73048182 3.37864209 -16.73048182 3.37864209 -17.79633975 3.38755715 C-21.39515852 3.36523295 -24.01267396 3.09120008 -27.07617188 1.12939453 C-18.04347991 -0.00042794 -9.08427201 -0.01213307 0 0 Z " fill="#454545" transform="translate(77.076171875,33.87060546875)"/>
<path d="M0 0 C61.05 0 122.1 0 185 0 C185 0.33 185 0.66 185 1 C176.09858979 3.39518239 167.25611852 3.27674307 158.12329102 3.24291992 C156.43212307 3.24399448 154.7409555 3.24593573 153.04978943 3.24867249 C148.48417322 3.25349369 143.9186557 3.2459012 139.35305142 3.23571944 C134.56853434 3.22690205 129.78402001 3.22869705 124.99949646 3.2290802 C116.97433836 3.22814574 108.94921824 3.21948797 100.92407227 3.20581055 C91.64218525 3.19004986 82.36033968 3.18481385 73.07844025 3.1855461 C63.19013788 3.18622084 53.3018515 3.17928794 43.41355395 3.1700995 C40.56411411 3.16796703 37.71467685 3.16725819 34.86523628 3.16686058 C30.39595454 3.16585788 25.92670773 3.1597673 21.45743752 3.14969444 C19.81549544 3.1467686 18.17354935 3.14554424 16.53160477 3.14612198 C14.29545159 3.14661116 12.05939692 3.14097205 9.82325745 3.13371277 C8.57062387 3.13203692 7.31799028 3.13036108 6.02739811 3.12863445 C3 3 3 3 0 2 C0 1.34 0 0.68 0 0 Z " fill="#3B3B3B" transform="translate(49,328)"/>
<path d="M0 0 C0.33 0 0.66 0 1 0 C1 86.79 1 173.58 1 263 C0.01 262.67 -0.98 262.34 -2 262 C-1.89544892 228.76714334 -1.78568478 195.53430858 -1.66888306 162.30149278 C-1.65511271 158.38222905 -1.64138573 154.46296516 -1.62768555 150.54370117 C-1.62495724 149.76341303 -1.62222894 148.98312488 -1.61941796 148.17919164 C-1.57528658 135.52811644 -1.53467241 122.87703226 -1.49534739 110.22594131 C-1.45494872 97.25451033 -1.41079513 84.2830961 -1.36312145 71.31168979 C-1.33379973 63.30113548 -1.30744238 55.29058249 -1.28482103 47.2800064 C-1.26719153 41.14794743 -1.24434973 35.01591819 -1.21950912 28.88388443 C-1.21011707 26.36065819 -1.20244962 23.8374249 -1.19658089 21.314188 C-1.18835616 17.88569766 -1.17409002 14.45728601 -1.15821838 11.02882385 C-1.15724028 10.01619919 -1.15626217 9.00357453 -1.15525442 7.96026427 C-1.14977998 7.04910697 -1.14430554 6.13794968 -1.1386652 5.19918156 C-1.13600716 4.40670523 -1.13334911 3.6142289 -1.13061053 2.79773813 C-1 1 -1 1 0 0 Z " fill="#1A1A1A" transform="translate(252,52)"/>
<path d="M0 0 C0.53514221 0.27815048 1.07028442 0.55630096 1.62164307 0.84288025 C1.14519099 5.13094898 -0.03738177 7.10935512 -3.37835693 9.84288025 C-4.03835693 9.84288025 -4.69835693 9.84288025 -5.37835693 9.84288025 C-5.63616943 10.4255365 -5.89398193 11.00819275 -6.15960693 11.60850525 C-7.4766971 14.02317055 -8.92924077 15.66028202 -10.87835693 17.59288025 C-11.79101318 18.51327087 -11.79101318 18.51327087 -12.72210693 19.45225525 C-14.37835693 20.84288025 -14.37835693 20.84288025 -16.37835693 20.84288025 C-16.64648193 21.44100525 -16.91460693 22.03913025 -17.19085693 22.65538025 C-18.377531 24.84135879 -19.47434806 26.25620619 -21.37835693 27.84288025 C-22.03835693 27.84288025 -22.69835693 27.84288025 -23.37835693 27.84288025 C-23.7779084 28.72795258 -23.7779084 28.72795258 -24.18553162 29.63090515 C-25.40486287 31.89203286 -26.67013169 33.40629133 -28.46356201 35.23448181 C-29.08793655 35.87484375 -29.7123111 36.51520569 -30.35560608 37.17497253 C-31.02955917 37.85428833 -31.70351227 38.53360413 -32.39788818 39.23350525 C-33.09347336 39.9381189 -33.78905853 40.64273254 -34.50572205 41.36869812 C-35.97655714 42.85402314 -37.45020511 44.33656727 -38.92645264 45.81651306 C-41.18439187 48.08638103 -43.42300569 50.37422603 -45.66156006 52.66319275 C-47.09334989 54.10444315 -48.52625579 55.54458583 -49.96038818 56.98350525 C-50.62826859 57.67091797 -51.29614899 58.35833069 -51.98426819 59.0665741 C-52.93501472 60.00820404 -52.93501472 60.00820404 -53.90496826 60.96885681 C-54.45630936 61.52526855 -55.00765045 62.0816803 -55.57569885 62.654953 C-57.93564741 64.21012712 -59.61040182 64.06067127 -62.37835693 63.84288025 C-62.87335693 62.35788025 -62.87335693 62.35788025 -63.37835693 60.84288025 C-55.50873014 52.85757303 -47.62577651 44.88569249 -39.7253685 36.93083096 C-36.05758809 33.23691995 -32.39461765 29.53848697 -28.74212646 25.82945251 C-25.21929159 22.25242339 -21.68449983 18.68762873 -18.14096832 15.13110542 C-16.7889533 13.76982802 -15.4413582 12.40414647 -14.09822845 11.03410149 C-12.22090357 9.12065571 -10.32868753 7.22325868 -8.43206787 5.32896423 C-7.87605392 4.75497391 -7.32003998 4.18098358 -6.74717712 3.58959961 C-2.91427012 -0.19252341 -2.91427012 -0.19252341 0 0 Z " fill="#353535" transform="translate(146.37835693359375,124.15711975097656)"/>
<path d="M0 0 C-0.32612455 5.38105512 -3.47570537 8.27255055 -7 12 C-7.7425 12.804375 -8.485 13.60875 -9.25 14.4375 C-11 16 -11 16 -13 16 C-13.495 17.485 -13.495 17.485 -14 19 C-15.7421875 20.68359375 -15.7421875 20.68359375 -17.875 22.4375 C-20.10639842 24.27778615 -21.9162724 25.8860263 -23.6328125 28.22265625 C-24.08398438 28.80917969 -24.53515625 29.39570313 -25 30 C-25.66 30 -26.32 30 -27 30 C-27.495 31.485 -27.495 31.485 -28 33 C-29.44785217 34.25041779 -30.90102404 35.49589098 -32.39453125 36.69140625 C-36.96396866 40.41588687 -40.68988575 44.91624876 -44.44921875 49.42578125 C-45.21685547 50.20501953 -45.21685547 50.20501953 -46 51 C-46.66 51 -47.32 51 -48 51 C-48.66 52.32 -49.32 53.64 -50 55 C-50.66 55 -51.32 55 -52 55 C-52.33 55.99 -52.66 56.98 -53 58 C-54.48828125 59.60546875 -54.48828125 59.60546875 -56.3125 61.1875 C-56.90675781 61.71730469 -57.50101563 62.24710938 -58.11328125 62.79296875 C-60 64 -60 64 -64 64 C-63.48060078 60.17045178 -62.71098013 58.21474789 -59.95239258 55.51416016 C-59.31114944 54.87644684 -58.66990631 54.23873352 -58.00923157 53.58169556 C-57.31138046 52.90762665 -56.61352936 52.23355774 -55.89453125 51.5390625 C-55.17770676 50.83026947 -54.46088226 50.12147644 -53.72233582 49.39120483 C-51.42831557 47.12616605 -49.12111762 44.87515029 -46.8125 42.625 C-44.52431739 40.37951726 -42.23901809 38.13117735 -39.95622253 35.88021851 C-38.53634014 34.48178688 -37.11295805 33.0868965 -35.6855011 31.69619751 C-32.00294203 28.08642767 -28.52241511 24.40209011 -25.22627258 20.43470764 C-23.74550023 18.70224176 -22.140214 17.25127032 -20.375 15.8125 C-17.76710403 13.61743699 -15.32559129 11.34188002 -12.9609375 8.890625 C-12.43064941 8.34301514 -11.90036133 7.79540527 -11.35400391 7.23120117 C-10.29819346 6.13280477 -9.25070368 5.02633915 -8.21240234 3.91137695 C-4.43998302 0 -4.43998302 0 0 0 Z " fill="#373737" transform="translate(200,177)"/>
<path d="M0 0 C2.4375 0.9375 2.4375 0.9375 3.75 3 C4.0903125 3.9590625 4.0903125 3.9590625 4.4375 4.9375 C3.7775 4.9375 3.1175 4.9375 2.4375 4.9375 C4.07708758 10.17022633 5.82702035 15.08946636 8.4375 19.9375 C7.1175 19.6075 5.7975 19.2775 4.4375 18.9375 C4.4375 17.9475 4.4375 16.9575 4.4375 15.9375 C3.7775 15.9375 3.1175 15.9375 2.4375 15.9375 C2.14875 15.298125 1.86 14.65875 1.5625 14 C0.60926549 11.78543921 0.60926549 11.78543921 -1.5625 10.9375 C-1.5625 11.5975 -1.5625 12.2575 -1.5625 12.9375 C-2.2225 12.9375 -2.8825 12.9375 -3.5625 12.9375 C-3.8925 14.9175 -4.2225 16.8975 -4.5625 18.9375 C-3.9025 19.2675 -3.2425 19.5975 -2.5625 19.9375 C-3.5525 22.5775 -4.5425 25.2175 -5.5625 27.9375 C-6.5525 27.9375 -7.5425 27.9375 -8.5625 27.9375 C-9.77943876 30.37137753 -9.88209896 32.35588846 -10.125 35.0625 C-10.25068359 36.42761719 -10.25068359 36.42761719 -10.37890625 37.8203125 C-10.43949219 38.51898438 -10.50007813 39.21765625 -10.5625 39.9375 C-12.0475 40.4325 -12.0475 40.4325 -13.5625 40.9375 C-13.5625 88.4575 -13.5625 135.9775 -13.5625 184.9375 C-13.8925 184.9375 -14.2225 184.9375 -14.5625 184.9375 C-14.92858043 164.60437172 -15.23472707 144.27115403 -15.47177315 123.93610287 C-15.58322718 114.49166126 -15.71343763 105.04821012 -15.88964844 95.60473633 C-16.04339223 87.36265361 -16.16006722 79.12097025 -16.23435199 70.87777525 C-16.27483724 66.52270137 -16.33242861 62.16954258 -16.43460464 57.81544304 C-17.36962709 16.81713442 -17.36962709 16.81713442 -4.06929207 1.18218899 C-2.5625 -0.0625 -2.5625 -0.0625 0 0 Z " fill="#222222" transform="translate(289.5625,95.0625)"/>
<path d="M0 0 C3.90447725 0.78089545 7.40909763 2.30617813 11 4 C11.33 4.66 11.66 5.32 12 6 C12.96705809 5.99815641 13.93411617 5.99631283 14.93047905 5.99441338 C38.43125824 5.9500685 61.93203201 5.91717429 85.43284416 5.89637566 C96.7975297 5.88605097 108.16218764 5.87196793 119.52685547 5.84912109 C129.42911297 5.82922364 139.3313505 5.81629225 149.23362744 5.81182301 C154.4796789 5.80920943 159.7256732 5.80304179 164.97170639 5.78853989 C169.90459674 5.77501348 174.83740613 5.77076729 179.77031326 5.77378464 C181.58521718 5.77323225 183.40012367 5.76922549 185.2150116 5.76158905 C187.68420344 5.75170499 190.1530856 5.75400696 192.62228394 5.75949097 C193.34795653 5.75366528 194.07362913 5.7478396 194.8212918 5.74183738 C199.77175758 5.77175758 199.77175758 5.77175758 202 8 C177.08722498 8.07008014 152.17446472 8.12298334 127.26161098 8.15543652 C115.6941492 8.17090558 104.12674865 8.19199593 92.55932617 8.22631836 C82.47719932 8.25621942 72.39511682 8.27557472 62.31294686 8.28226548 C56.97448458 8.28617652 51.6361492 8.29536898 46.29772758 8.31719017 C41.27204813 8.33756639 36.24654775 8.34383146 31.22083092 8.33932304 C29.37738319 8.34014773 27.53392941 8.34610658 25.69051743 8.35761642 C23.17040737 8.37257836 20.65097028 8.36894024 18.13084412 8.36076355 C17.40417193 8.36950207 16.67749975 8.3782406 15.9288072 8.38724393 C10.19382952 8.33707052 5.57760728 7.07871555 1.0625 3.4375 C0 2 0 2 0 0 Z " fill="#1C1C1C" transform="translate(36,320)"/>
<path d="M0 0 C0.78745975 -0.00085442 1.57491951 -0.00170885 2.38624167 -0.00258917 C5.02719119 -0.00423744 7.66807732 0.00126675 10.309021 0.00672913 C12.20121255 0.00701116 14.09340421 0.00685294 15.9855957 0.00628662 C21.12570034 0.0059993 26.26578171 0.01188558 31.40588093 0.01886058 C36.77640478 0.02510488 42.14692914 0.02569877 47.51745605 0.02688599 C57.6887938 0.02999612 67.86012083 0.03820524 78.03145385 0.04823548 C89.61052679 0.05940647 101.18960024 0.06490955 112.76867723 0.06993091 C136.58909725 0.0803881 160.40950774 0.09798141 184.22991943 0.12025452 C184.22991943 0.45025452 184.22991943 0.78025452 184.22991943 1.12025452 C93.14991943 1.61525452 93.14991943 1.61525452 0.22991943 2.12025452 C0.22991943 2.45025452 0.22991943 2.78025452 0.22991943 3.12025452 C-5.71008057 3.61525452 -5.71008057 3.61525452 -11.77008057 4.12025452 C-11.77008057 4.78025452 -11.77008057 5.44025452 -11.77008057 6.12025452 C-13.64508057 8.24525452 -13.64508057 8.24525452 -15.77008057 10.12025452 C-16.43008057 10.12025452 -17.09008057 10.12025452 -17.77008057 10.12025452 C-18.10008057 11.11025452 -18.43008057 12.10025452 -18.77008057 13.12025452 C-19.43008057 12.79025452 -20.09008057 12.46025452 -20.77008057 12.12025452 C-20.11008057 10.14025452 -19.45008057 8.16025452 -18.77008057 6.12025452 C-18.11008057 6.12025452 -17.45008057 6.12025452 -16.77008057 6.12025452 C-16.77008057 5.46025452 -16.77008057 4.80025452 -16.77008057 4.12025452 C-11.2219403 0.26737933 -6.60969836 -0.02617993 0 0 Z " fill="#262626" transform="translate(53.77008056640625,36.87974548339844)"/>
<path d="M0 0 C1 3 1 3 -0.1796875 5.609375 C-1.29566873 7.6767688 -2.42045829 9.73943597 -3.5546875 11.796875 C-7.70150436 21.56801204 -6.15907699 35.53574276 -6.20532227 45.92163086 C-6.21493616 47.34254722 -6.22494807 48.76346093 -6.23532104 50.18437195 C-6.26199679 53.98913026 -6.28320464 57.7939005 -6.30332303 61.59869838 C-6.32541724 65.59451176 -6.35268958 69.59028998 -6.37937927 73.58607483 C-6.42899328 81.12915694 -6.47404615 88.6722589 -6.51740164 96.2153793 C-6.56704412 104.81292661 -6.62186073 113.4104386 -6.67708123 122.00795162 C-6.79041993 139.67193484 -6.89736084 157.33595153 -7 175 C-7.33 175 -7.66 175 -8 175 C-8.27126099 154.47656115 -8.50734431 133.95298274 -8.70202446 113.42866898 C-8.79323867 103.89797464 -8.89578311 94.36765829 -9.02539062 84.83740234 C-9.13838158 76.52684435 -9.22971692 68.2163724 -9.29549801 59.90530181 C-9.33104558 55.5081267 -9.37712874 51.11165339 -9.44918442 46.71491241 C-9.5167986 42.56824837 -9.55523937 38.42229229 -9.57224464 34.27512169 C-9.58342562 32.76101651 -9.60485675 31.246943 -9.63785744 29.7331562 C-9.88589575 17.93674138 -7.31298477 9.38174537 0 0 Z " fill="#3A3A3A" transform="translate(283,105)"/>
<path d="M0 0 C0.66 0 1.32 0 2 0 C2 8.25 2 16.5 2 25 C1.67 25 1.34 25 1 25 C0.67 70.54 0.34 116.08 0 163 C-0.33 163 -0.66 163 -1 163 C-1.02332704 141.89509632 -1.04097821 120.79019475 -1.05181217 99.6852808 C-1.05697554 89.88661837 -1.06401902 80.08796394 -1.07543945 70.28930664 C-1.08538503 61.75201345 -1.09185313 53.21472605 -1.09408849 44.67742723 C-1.09539582 40.15410072 -1.09848302 35.63079078 -1.10573006 31.10746956 C-1.11248829 26.85502068 -1.11461737 22.60259527 -1.11310768 18.35014153 C-1.1133841 16.78476713 -1.11539039 15.21939199 -1.11920547 13.65402222 C-1.12413967 11.52611907 -1.12299933 9.39830599 -1.12025452 7.270401 C-1.12117631 6.07667909 -1.1220981 4.88295717 -1.12304783 3.65306187 C-1 1 -1 1 0 0 Z " fill="#2B2B2B" transform="translate(302,122)"/>
<path d="M0 0 C0 3 0 3 -1.53125 4.75390625 C-2.1809375 5.35074219 -2.830625 5.94757813 -3.5 6.5625 C-4.70186215 7.67136091 -5.87711422 8.81123061 -7 10 C-7 10.66 -7 11.32 -7 12 C-6.34 12.33 -5.68 12.66 -5 13 C-6.61594832 15.04119788 -8.2856382 17.04072937 -10 19 C-10.66 19 -11.32 19 -12 19 C-12.66 20.32 -13.32 21.64 -14 23 C-14.66 23 -15.32 23 -16 23 C-16.33 23.99 -16.66 24.98 -17 26 C-18.48828125 27.60546875 -18.48828125 27.60546875 -20.3125 29.1875 C-21.20388672 29.98220703 -21.20388672 29.98220703 -22.11328125 30.79296875 C-24 32 -24 32 -28 32 C-27.68732579 26.73593689 -24.5889439 24.07161749 -20.99609375 20.60546875 C-20.39821548 20.01325027 -19.80033722 19.4210318 -19.18434143 18.81086731 C-17.27792983 16.92679531 -15.35806809 15.05712846 -13.4375 13.1875 C-12.14036347 11.91043146 -10.84412838 10.63244661 -9.54882812 9.35351562 C-6.37623663 6.22495948 -3.19151172 3.10924811 0 0 Z " fill="#3A3A3A" transform="translate(164,209)"/>
<path d="M0 0 C2 4 2 4 1.51953125 6.32421875 C-0.58756169 10.03465233 -3.30167454 12.81504113 -6.3125 15.8125 C-6.88162109 16.40998047 -7.45074219 17.00746094 -8.03710938 17.62304688 C-12.30196594 21.90748946 -12.30196594 21.90748946 -15.91796875 22.38671875 C-16.94857422 22.19529297 -16.94857422 22.19529297 -18 22 C-18.33 21.01 -18.66 20.02 -19 19 C-12.73 12.73 -6.46 6.46 0 0 Z " fill="#383838" transform="translate(102,166)"/>
<path d="M0 0 C0.33 0.99 0.66 1.98 1 3 C-2.529648 9.49455231 -7.52337985 14.06403336 -14.56640625 16.5078125 C-19.64586748 17.53511927 -24.84648728 17.21211104 -30 17 C-26.57283669 14.71522446 -23.95074029 14.32512338 -19.9609375 13.66015625 C-19.31382812 13.44230469 -18.66671875 13.22445313 -18 13 C-17.67 12.01 -17.34 11.02 -17 10 C-15.00390625 9.2265625 -15.00390625 9.2265625 -12.5625 8.625 C-8.70971464 7.56671534 -8.70971464 7.56671534 -6.4375 4.3125 C-6.293125 3.549375 -6.14875 2.78625 -6 2 C-5.01 2 -4.02 2 -3 2 C-2.67 2.66 -2.34 3.32 -2 4 C-1.34 2.68 -0.68 1.36 0 0 Z " fill="#242424" transform="translate(254,314)"/>
<path d="M0 0 C0.99 0.33 1.98 0.66 3 1 C1.37660195 2.70884005 -0.29319053 4.37446717 -2 6 C-2.66 6 -3.32 6 -4 6 C-4.24105469 6.89203125 -4.48210937 7.7840625 -4.73046875 8.703125 C-6.11178146 12.29028785 -7.57859592 14.08501788 -10.3125 16.75 C-11.07175781 17.50796875 -11.83101562 18.2659375 -12.61328125 19.046875 C-15.01652214 21.01352057 -17.07048208 22.02522236 -20 23 C-19.38722388 20.03824877 -18.74627478 18.61941217 -17 16 C-16.01 15.67 -15.02 15.34 -14 15 C-12.77479736 11.99152582 -12.77479736 11.99152582 -12 9 C-10.35 8.67 -8.7 8.34 -7 8 C-6.67 7.01 -6.34 6.02 -6 5 C-5.01 5 -4.02 5 -3 5 C-2.690625 4.360625 -2.38125 3.72125 -2.0625 3.0625 C-1 1 -1 1 0 0 Z " fill="#323232" transform="translate(161,162)"/>
<path d="M0 0 C0.33 0 0.66 0 1 0 C1.40625 2.07421875 1.40625 2.07421875 1 5 C-0.90159228 7.5453605 -3.18087473 9.65007239 -5.5 11.8125 C-6.12003906 12.40998047 -6.74007812 13.00746094 -7.37890625 13.62304688 C-8.90825488 15.09357441 -10.45271466 16.5483573 -12 18 C-12.99 17.67 -13.98 17.34 -15 17 C-14.67 16.34 -14.34 15.68 -14 15 C-13.34 15 -12.68 15 -12 15 C-11.896875 14.236875 -11.79375 13.47375 -11.6875 12.6875 C-10.94932885 9.80192188 -10.37859197 8.73820183 -8 7 C-7.01 7 -6.02 7 -5 7 C-5.33 5.68 -5.66 4.36 -6 3 C-4.125 1.9375 -4.125 1.9375 -2 1 C-1.34 1.33 -0.68 1.66 0 2 C0 1.34 0 0.68 0 0 Z " fill="#333333" transform="translate(115,208)"/>
<path d="M0 0 C1 3 1 3 -0.1796875 5.609375 C-0.73914063 6.64578125 -1.29859375 7.6821875 -1.875 8.75 C-5.07506689 15.31234915 -5.70648175 20.63628676 -5.796875 27.8828125 C-6 31 -6 31 -8 34 C-9.69390871 20.14074695 -8.81254059 11.41383269 0 0 Z " fill="#2F2F2F" transform="translate(283,105)"/>
<path d="M0 0 C0.66 0.33 1.32 0.66 2 1 C1.37434687 10.9025788 1.37434687 10.9025788 -2 15 C-6.10508412 18.2840673 -9.91275633 18.56887766 -15 19 C-15.33 17.02 -15.66 15.04 -16 13 C-15.01 13 -14.02 13 -13 13 C-13 13.99 -13 14.98 -13 16 C-11.02 15.67 -9.04 15.34 -7 15 C-7 14.34 -7 13.68 -7 13 C-5.125 10.875 -5.125 10.875 -3 9 C-2.34 9 -1.68 9 -1 9 C-1.020625 7.700625 -1.04125 6.40125 -1.0625 5.0625 C-1.08399454 3.70834367 -1.07148199 2.35243917 -1 1 C-0.67 0.67 -0.34 0.34 0 0 Z " fill="#3D3D3D" transform="translate(248,306)"/>
<path d="M0 0 C1.32 0.66 2.64 1.32 4 2 C2.19587357 5.26460973 1.16605307 6.88929795 -2 9 C-2.6875 6.1875 -2.6875 6.1875 -3 3 C-1.5625 1.125 -1.5625 1.125 0 0 Z M-5 4 C-4.34 4.33 -3.68 4.66 -3 5 C-9.01651793 11.73540335 -14.97462506 18.28307598 -22 24 C-22.66 23.67 -23.32 23.34 -24 23 C-17.73 16.73 -11.46 10.46 -5 4 Z " fill="#424242" transform="translate(191,130)"/>
<path d="M0 0 C1.32 0.66 2.64 1.32 4 2 C4.66 1.34 5.32 0.68 6 0 C6.33 0.99 6.66 1.98 7 3 C6.34 3 5.68 3 5 3 C8.32364676 8.34673609 12.19945661 9.47549821 18 11 C18 11.66 18 12.32 18 13 C18.99 13.33 19.98 13.66 21 14 C13.26772335 13.96771492 7.76930559 12.29461589 2 7 C-0.0625 3.625 -0.0625 3.625 -1 1 C-0.67 0.67 -0.34 0.34 0 0 Z " fill="#2A2A2A" transform="translate(31,317)"/>
<path d="M0 0 C0.66 0 1.32 0 2 0 C2 0.66 2 1.32 2 2 C2.99 2.33 3.98 2.66 5 3 C6.16674805 5.04125977 6.16674805 5.04125977 7.26171875 7.69140625 C7.85629883 9.10776367 7.85629883 9.10776367 8.46289062 10.55273438 C8.86701172 11.54595703 9.27113281 12.53917969 9.6875 13.5625 C10.10322266 14.55958984 10.51894531 15.55667969 10.94726562 16.58398438 C11.97466855 19.05211325 12.99171046 21.52401524 14 24 C13.01 24.33 12.02 24.66 11 25 C9.34810463 21.58623193 7.70455104 18.1685128 6.0625 14.75 C5.35963867 13.29787109 5.35963867 13.29787109 4.64257812 11.81640625 C3.9706543 10.41455078 3.9706543 10.41455078 3.28515625 8.984375 C2.87144775 8.12553711 2.45773926 7.26669922 2.03149414 6.38183594 C1.10853923 4.25062929 0.47942143 2.26635587 0 0 Z " fill="#353535" transform="translate(290,98)"/>
<path d="M0 0 C0.66 0.33 1.32 0.66 2 1 C1.34 2.32 0.68 3.64 0 5 C1.65 4.34 3.3 3.68 5 3 C1.0580583 7.88049925 -3.11950075 12.0580583 -8 16 C-7.19095897 11.20719998 -4.74015409 9.86479887 -1 7 C-4.12197478 8.3089572 -4.12197478 8.3089572 -6 11 C-6.99 11.33 -7.98 11.66 -9 12 C-9.33 12.66 -9.66 13.32 -10 14 C-10.66 14 -11.32 14 -12 14 C-12.33 14.66 -12.66 15.32 -13 16 C-13 13 -13 13 -11.125 10.8125 C-9 9 -9 9 -7 9 C-6.773125 8.443125 -6.54625 7.88625 -6.3125 7.3125 C-4.64103234 4.36753316 -2.44723648 2.31843456 0 0 Z " fill="#3F3F3F" transform="translate(164,156)"/>
<path d="M0 0 C-0.8125 2.4375 -0.8125 2.4375 -2 5 C-2.99 5.33 -3.98 5.66 -5 6 C-5.61875 7.3921875 -5.61875 7.3921875 -6.25 8.8125 C-8.58295667 13.06181393 -10.63033095 14.0137868 -15 16 C-15.66 15.67 -16.32 15.34 -17 15 C-13 11 -9 7 -5 3 C-4.443125 2.401875 -3.88625 1.80375 -3.3125 1.1875 C-2 0 -2 0 0 0 Z M-18 16 C-18 16.99 -18 17.98 -18 19 C-18.99 19.66 -19.98 20.32 -21 21 C-19.125 17.125 -19.125 17.125 -18 16 Z M-23 21 C-22.34 21 -21.68 21 -21 21 C-21.33 21.99 -21.66 22.98 -22 24 C-24.0625 24.6875 -24.0625 24.6875 -26 25 C-24.625 23 -24.625 23 -23 21 Z " fill="#414141" transform="translate(149,173)"/>
<path d="M0 0 C0 0.66 0 1.32 0 2 C-2.64 2.33 -5.28 2.66 -8 3 C-8 3.66 -8 4.32 -8 5 C-9.875 7.125 -9.875 7.125 -12 9 C-12.66 9 -13.32 9 -14 9 C-14.33 9.99 -14.66 10.98 -15 12 C-15.66 11.67 -16.32 11.34 -17 11 C-16.34 9.02 -15.68 7.04 -15 5 C-14.34 5 -13.68 5 -13 5 C-13 4.34 -13 3.68 -13 3 C-8.70614007 -0.4887612 -5.28129105 -0.26854022 0 0 Z " fill="#1E1C1D" transform="translate(50,38)"/>
<path d="M0 0 C0.97582031 0.10183594 1.95164062 0.20367187 2.95703125 0.30859375 C3.69308594 0.39238281 4.42914063 0.47617188 5.1875 0.5625 C4.5275 1.8825 3.8675 3.2025 3.1875 4.5625 C1.41630197 4.42116501 -0.35445287 4.27426792 -2.125 4.125 C-3.11113281 4.04378906 -4.09726562 3.96257812 -5.11328125 3.87890625 C-7.8125 3.5625 -7.8125 3.5625 -10.8125 2.5625 C-10.8125 1.9025 -10.8125 1.2425 -10.8125 0.5625 C-7.01982808 -0.3735342 -3.87575435 -0.42026252 0 0 Z " fill="#474747" transform="translate(291.8125,123.4375)"/>
<path d="M0 0 C0.66 0 1.32 0 2 0 C2.33 1.98 2.66 3.96 3 6 C3.66 5.01 4.32 4.02 5 3 C4.5309551 7.12759513 4.06048338 10.05286786 1 13 C-0.32 13 -1.64 13 -3 13 C-3 12.01 -3 11.02 -3 10 C-3.66 9.67 -4.32 9.34 -5 9 C-4.0409375 8.443125 -4.0409375 8.443125 -3.0625 7.875 C-0.36141928 5.41947207 -0.31592995 3.55421195 0 0 Z " fill="#222222" transform="translate(299,287)"/>
<path d="M0 0 C1.24523437 0.01804688 2.49046875 0.03609375 3.7734375 0.0546875 C5.18496094 0.08949219 5.18496094 0.08949219 6.625 0.125 C6.625 0.455 6.625 0.785 6.625 1.125 C4.645 1.455 2.665 1.785 0.625 2.125 C0.625 2.455 0.625 2.785 0.625 3.125 C-0.58736328 3.30675781 -0.58736328 3.30675781 -1.82421875 3.4921875 C-2.89285156 3.65976562 -3.96148437 3.82734375 -5.0625 4 C-6.11824219 4.16242187 -7.17398438 4.32484375 -8.26171875 4.4921875 C-11.17294914 5.08393069 -13.66455607 5.9281806 -16.375 7.125 C-14.86519687 3.93763784 -14.00749725 2.40032233 -10.71875 0.96875 C-7.01309303 0.03367768 -3.81615846 -0.07200299 0 0 Z " fill="#3A3A3A" transform="translate(53.375,33.875)"/>
<path d="M0 0 C0.33 0 0.66 0 1 0 C1 5.61 1 11.22 1 17 C-2 14 -2 14 -2.36328125 11.15234375 C-2.34652344 10.09144531 -2.32976562 9.03054688 -2.3125 7.9375 C-2.30863281 6.87402344 -2.30476563 5.81054688 -2.30078125 4.71484375 C-2 2 -2 2 0 0 Z " fill="#2E2E2E" transform="translate(281,278)"/>
<path d="M0 0 C1.32 0.66 2.64 1.32 4 2 C4 3.32 4 4.64 4 6 C2.68 6 1.36 6 0 6 C-1.7511573 7.4166747 -1.7511573 7.4166747 -3 9 C-4.09658936 5.71023192 -3.79953138 4.28696233 -3 1 C-2.01 1.33 -1.02 1.66 0 2 C0 1.34 0 0.68 0 0 Z " fill="#303030" transform="translate(288,106)"/>
<path d="M0 0 C0.66 0 1.32 0 2 0 C3.98 4.29 5.96 8.58 8 13 C6.68 12.67 5.36 12.34 4 12 C4 11.01 4 10.02 4 9 C3.34 9 2.68 9 2 9 C1.71125 8.030625 1.4225 7.06125 1.125 6.0625 C0.35785318 2.89335797 0.35785318 2.89335797 -2 2 C-1.34 1.34 -0.68 0.68 0 0 Z " fill="#1D1D1D" transform="translate(290,102)"/>
<path d="M0 0 C0.33 0 0.66 0 1 0 C1.05404449 2.75026417 1.09369306 5.49946203 1.125 8.25 C1.15013672 9.41595703 1.15013672 9.41595703 1.17578125 10.60546875 C1.23662606 17.72431144 1.23662606 17.72431144 -1 21 C-1.66 20.01 -2.32 19.02 -3 18 C-2.33333333 16 -1.66666667 14 -1 12 C-0.5259326 8.00865831 -0.24664716 4.01126163 0 0 Z " fill="#2B2B2B" transform="translate(303,273)"/>
<path d="M0 0 C0.66 0.33 1.32 0.66 2 1 C1.67 1.99 1.34 2.98 1 4 C0.34 4 -0.32 4 -1 4 C-1.33 4.66 -1.66 5.32 -2 6 C-5 8 -5 8 -7.1875 7.625 C-7.785625 7.41875 -8.38375 7.2125 -9 7 C-8.34 7 -7.68 7 -7 7 C-6.34 5.68 -5.68 4.36 -5 3 C-4.34 3 -3.68 3 -3 3 C-3 2.34 -3 1.68 -3 1 C-2.01 0.67 -1.02 0.34 0 0 Z " fill="#2F2D2E" transform="translate(45,40)"/>
<path d="M0 0 C1.65 1.65 3.3 3.3 5 5 C3.68 5.33 2.36 5.66 1 6 C1.66 6.33 2.32 6.66 3 7 C2.34 7 1.68 7 1 7 C1 7.66 1 8.32 1 9 C-0.32 8.34 -1.64 7.68 -3 7 C-3 3.48283697 -2.17554415 2.62878252 0 0 Z " fill="#252525" transform="translate(282,291)"/>
<path d="M0 0 C2.4375 0.9375 2.4375 0.9375 3.75 3 C4.0903125 3.9590625 4.0903125 3.9590625 4.4375 4.9375 C3.7775 4.9375 3.1175 4.9375 2.4375 4.9375 C2.1075 5.2675 1.7775 5.5975 1.4375 5.9375 C0.1175 5.9375 -1.2025 5.9375 -2.5625 5.9375 C-2.8925 5.2775 -3.2225 4.6175 -3.5625 3.9375 C-4.2225 3.6075 -4.8825 3.2775 -5.5625 2.9375 C-3.72865255 0.52454283 -3.10791561 -0.07580282 0 0 Z " fill="#1D1D1D" transform="translate(289.5625,95.0625)"/>
<path d="M0 0 C0.66 0.66 1.32 1.32 2 2 C1.67 2.66 1.34 3.32 1 4 C1.66 4.33 2.32 4.66 3 5 C2.34 5.66 1.68 6.32 1 7 C-0.32 7 -1.64 7 -3 7 C-2.25 2.25 -2.25 2.25 0 0 Z M2 0 C4 1 4 1 4 1 Z " fill="#434343" transform="translate(139,234)"/>
<path d="M0 0 C1.77624543 1.54456124 2.9006995 2.78012031 3.875 4.9375 C4 7 4 7 2.5625 9.25 C2.046875 9.8275 1.53125 10.405 1 11 C0.67 8.69 0.34 6.38 0 4 C-0.66 4 -1.32 4 -2 4 C-2 3.01 -2 2.02 -2 1 C-1.34 0.67 -0.68 0.34 0 0 Z " fill="#222222" transform="translate(249,45)"/>
<path d="M0 0 C7.26153846 -0.49230769 7.26153846 -0.49230769 11 2 C11.66 2.66 12.32 3.32 13 4 C9.6325319 4 7.00700022 3.68568426 3.75 3 C2.85796875 2.814375 1.9659375 2.62875 1.046875 2.4375 C0.37140625 2.293125 -0.3040625 2.14875 -1 2 C-0.67 1.34 -0.34 0.68 0 0 Z " fill="#3E3E3E" transform="translate(228,46)"/>
<path d="M0 0 C0.66 0.33 1.32 0.66 2 1 C0.02677065 5.56958375 -1.92236229 8.13463296 -6 11 C-3.76687117 3.98159509 -3.76687117 3.98159509 -2 1 C-1.34 0.67 -0.68 0.34 0 0 Z " fill="#292929" transform="translate(286,98)"/>
<path d="M0 0 C3.48539917 0.64544429 6.02819057 2.10134397 9 4 C8.01 4.66 7.02 5.32 6 6 C3.37812506 4.95125002 2.20628639 4.35068687 0.75 1.875 C0.5025 1.25625 0.255 0.6375 0 0 Z " fill="#202020" transform="translate(36,320)"/>
<path d="M0 0 C0.99 0 1.98 0 3 0 C2.38722388 2.96175123 1.74627478 4.38058783 0 7 C-0.66 7 -1.32 7 -2 7 C-1.125 2.25 -1.125 2.25 0 0 Z " fill="#1F1F1F" transform="translate(248,316)"/>
<path d="M0 0 C0 1.98 0 3.96 0 6 C-1.32 6.33 -2.64 6.66 -4 7 C-4 5.02 -4 3.04 -4 1 C-1 0 -1 0 0 0 Z " fill="#434041" transform="translate(38,57)"/>
<path d="M0 0 C2.31 0.33 4.62 0.66 7 1 C7.33 1.99 7.66 2.98 8 4 C8.66 4 9.32 4 10 4 C10 4.66 10 5.32 10 6 C7.525 5.01 7.525 5.01 5 4 C5 3.67 5 3.34 5 3 C2.03 2.505 2.03 2.505 -1 2 C-0.67 1.34 -0.34 0.68 0 0 Z " fill="#535353" transform="translate(231,43)"/>
<path d="M0 0 C2.3125 0.1875 2.3125 0.1875 4 1 C3.67 1.99 3.34 2.98 3 4 C0.23735711 4.59732819 -2.16032769 5 -5 5 C-2.75 2.4375 -2.75 2.4375 0 0 Z " fill="#474747" transform="translate(144,124)"/>
<path d="M0 0 C1.32 0 2.64 0 4 0 C4.33 0.99 4.66 1.98 5 3 C4.34 3 3.68 3 3 3 C3 3.66 3 4.32 3 5 C2.34 5 1.68 5 1 5 C0.67 5.66 0.34 6.32 0 7 C-1.04449911 3.86650268 -0.93423645 3.01031744 0 0 Z " fill="#252525" transform="translate(294,115)"/>
<path d="M0 0 C3.63 0.33 7.26 0.66 11 1 C11 1.66 11 2.32 11 3 C4.6 4.23076923 4.6 4.23076923 1.5625 3.0625 C1.046875 2.711875 0.53125 2.36125 0 2 C0 1.34 0 0.68 0 0 Z " fill="#343434" transform="translate(283,295)"/>
<path d="M0 0 C-1 2 -1 2 -3.06640625 2.8515625 C-4.30197266 3.23441406 -4.30197266 3.23441406 -5.5625 3.625 C-6.38878906 3.88539062 -7.21507812 4.14578125 -8.06640625 4.4140625 C-8.70449219 4.60742188 -9.34257813 4.80078125 -10 5 C-7.00915607 -0.3019506 -6.01775424 -1.42525758 0 0 Z " fill="#403F40" transform="translate(47,36)"/>
<path d="M0 0 C0.66 0.33 1.32 0.66 2 1 C1.01 2.98 0.02 4.96 -1 7 C-1.99 7 -2.98 7 -4 7 C-3.43628586 3.73045798 -2.50037734 2.17424117 0 0 Z " fill="#2E2E2E" transform="translate(176,200)"/>
</svg>
