<?xml version="1.0" standalone="no"?>
<!DOCTYPE svg PUBLIC "-//W3C//DTD SVG 20010904//EN"
 "http://www.w3.org/TR/2001/REC-SVG-20010904/DTD/svg10.dtd">
<svg version="1.0" xmlns="http://www.w3.org/2000/svg"
 width="360.000000pt" height="385.000000pt" viewBox="0 0 360.000000 385.000000"
 preserveAspectRatio="xMidYMid meet">

<g transform="translate(0.000000,385.000000) scale(0.100000,-0.100000)"
fill="#000000" stroke="none">
<path d="M771 3803 l-22 -18 75 -225 c236 -709 290 -1218 186 -1765 -61 -320
-175 -687 -280 -900 -128 -262 -253 -417 -453 -563 -35 -27 -57 -50 -57 -62 0
-28 89 -95 185 -141 170 -81 366 -90 529 -24 l59 24 30 -25 c111 -93 261 -105
435 -32 l72 30 45 -21 c140 -66 323 -67 467 -4 l57 25 73 -30 c174 -73 324
-61 435 32 l30 25 59 -24 c163 -66 359 -57 529 24 103 49 187 116 183 144 -2
13 -29 39 -68 66 -138 95 -299 282 -402 471 -150 273 -319 855 -359 1239 -17
165 -6 540 20 706 45 275 136 621 240 913 40 112 40 113 21 132 -19 19 -34 20
-230 20 -160 0 -212 -3 -214 -12 -29 -97 -45 -133 -83 -193 -25 -38 -87 -111
-137 -161 -74 -73 -108 -99 -179 -134 -78 -39 -97 -44 -172 -48 -98 -5 -155 7
-240 50 -151 76 -343 292 -375 423 -19 74 -6 70 -232 73 -184 2 -208 1 -227
-15z m389 -76 c0 -30 72 -158 129 -229 140 -174 309 -279 486 -303 116 -15
305 55 423 158 121 105 231 252 262 350 l12 37 158 0 158 0 -49 -142 c-178
-522 -263 -1008 -244 -1390 l7 -137 -687 0 -687 0 4 122 c13 343 -39 721 -156
1123 -47 163 -107 347 -131 407 -7 16 4 17 154 17 124 0 161 -3 161 -13z
m1353 -1742 c4 -8 3 -16 -2 -19 -15 -10 -1390 -5 -1396 5 -4 5 -3 14 0 19 4 7
248 10 700 10 600 0 694 -2 698 -15z m45 -252 c55 -278 151 -599 239 -800 113
-257 268 -470 452 -616 l63 -50 -23 -19 c-36 -28 -158 -84 -209 -96 -132 -31
-253 -23 -364 24 -97 41 -98 41 -147 -8 -51 -50 -100 -68 -187 -68 -77 0 -217
43 -232 70 -13 25 -46 25 -85 2 -130 -78 -301 -88 -449 -26 -127 53 -116 51
-134 27 -26 -34 -156 -73 -242 -73 -85 0 -124 15 -184 70 -50 46 -46 46 -143
5 -35 -14 -100 -30 -145 -36 -105 -14 -229 6 -324 50 -69 32 -124 68 -124 79
0 4 19 20 42 36 105 75 241 225 331 369 154 242 300 658 388 1105 l22 112 711
0 712 0 32 -157z"/>
<path d="M1297 2937 c-5 -14 17 -176 31 -222 l8 -30 194 0 c194 0 194 0 206
23 6 13 17 29 23 35 6 6 11 46 11 93 0 117 8 114 -256 114 -161 0 -213 -3
-217 -13z m403 -127 l0 -60 -155 0 c-174 0 -157 -8 -169 83 l-5 37 165 0 164
0 0 -60z"/>
</g>
</svg>
